<?xml version="1.0" standalone="no"?>
<!DOCTYPE svg PUBLIC "-//W3C//DTD SVG 1.1//EN" "http://www.w3.org/Graphics/SVG/1.1/DTD/svg11.dtd" >
<svg>
<metadata>
Created by FontForge 20090622 at Wed Jun 29 04:14:56 2016
 By deploy user
</metadata>
<defs>
<font id="DisneyJuniorLightV" horiz-adv-x="574" >
  <font-face 
    font-family="Disney Junior Light V2"
    font-weight="400"
    font-stretch="normal"
    units-per-em="1000"
    panose-1="0 0 0 0 0 0 0 0 0 0"
    ascent="750"
    descent="-250"
    x-height="494"
    cap-height="700"
    bbox="-108 -242 978 953"
    underline-thickness="50"
    underline-position="-50"
    unicode-range="U+0020-U+FB02"
  />
<missing-glyph horiz-adv-x="210" 
 />
    <glyph glyph-name="fi" unicode="fi" horiz-adv-x="534" 
d="M457 436q12 0 12 -13v-412q0 -11 -13 -11h-62q-12 0 -12 12v339l-184 -6v-334q0 -11 -12 -11h-64q-11 0 -11 11v331l-83 -3q-11 0 -11 11l-2 55q0 12 12 12l84 4q0 142 48 216.5t147 74.5q29 0 53 -4t41 -9q7 -3 7 -12v-52q0 -13 -12 -13q-9 0 -29 4.5t-52 4.5
q-24 0 -45.5 -8.5t-37.5 -29t-25.5 -55.5t-9.5 -88v-26z" />
    <glyph glyph-name="fl" unicode="fl" horiz-adv-x="569" 
d="M313 422q11 0 11 -12l-3 -58q0 -12 -12 -12l-110 3l-4 -332q0 -11 -12 -11h-64q-11 0 -11 11l4 334l-84 2q-11 0 -11 11l-2 53q0 12 12 12h86q1 70 9 124t26.5 91t48.5 55.5t74 18.5q43 0 69 -9q7 -3 7 -12v-52q0 -13 -12 -13q-9 0 -22.5 2.5t-33.5 2.5q-21 0 -36.5 -8.5
t-25 -29.5t-14.5 -56t-5 -88v-26zM504 13q0 -13 -12 -13h-64q-11 0 -11 13v698q0 12 11 12h64q12 0 12 -13v-697z" />
    <glyph glyph-name=".notdef" horiz-adv-x="210" 
 />
    <glyph glyph-name="exclam" unicode="!" horiz-adv-x="256" 
d="M97 224q-12 0 -12 12v476q0 11 13 11h62q11 0 11 -12l1 -474q0 -13 -12 -13h-63zM128 -7q-22 0 -41 16.5t-19 42.5q0 25 17.5 42t42.5 17q23 0 41.5 -16.5t18.5 -42.5t-18.5 -42.5t-41.5 -16.5z" />
    <glyph glyph-name="ampersand" unicode="&#x26;" horiz-adv-x="631" 
d="M534 240q8 9 17 0l42 -39q8 -7 -1 -17q-17 -20 -33.5 -37.5l-33.5 -34.5l40 -31.5t43 -31.5q9 -7 1 -17l-41 -49q-7 -7 -17 0l-46.5 36l-44.5 36q-48 -36 -99 -55.5t-111 -19.5q-47 0 -87 14.5t-69.5 41.5t-46 65t-16.5 85q0 37 10.5 66t29 52t43.5 41t54 32
q-19 37 -29 73t-10 71q0 43 14.5 79.5t40.5 63t62 41t79 14.5q41 0 73.5 -13t55 -36t34.5 -55.5t12 -71.5q0 -42 -17.5 -72.5t-46 -53t-66.5 -39.5t-78 -33q59 -83 171 -181l34.5 35.5zM209 309q-40 -21 -63.5 -48.5t-23.5 -70.5q0 -58 35.5 -91.5t97.5 -33.5q72 0 141 45
q-58 51 -105 101t-82 98zM410 543q0 40 -23 67.5t-66 27.5q-48 0 -75.5 -33.5t-27.5 -82.5q0 -50 31 -111q34 12 63.5 24t51 27t34 34.5t12.5 46.5z" />
    <glyph glyph-name="comma" unicode="," horiz-adv-x="200" 
d="M91 -6q-20 3 -35.5 17.5t-15.5 40.5q0 25 17.5 42t41.5 17q29 0 45 -19.5t16 -42.5q0 -27 -10 -49.5t-22 -38.5t-23 -25t-14 -9q-13 0 -13 13q0 6 7.5 19t5.5 35z" />
    <glyph glyph-name="period" unicode="." horiz-adv-x="200" 
d="M100 -7q-22 0 -41 16.5t-19 42.5q0 25 17.5 42t42.5 17q23 0 41.5 -16.5t18.5 -42.5t-18.5 -42.5t-41.5 -16.5z" />
    <glyph glyph-name="zero" unicode="0" horiz-adv-x="690" 
d="M360 702q64 0 116.5 -28.5t90 -78t58 -117t20.5 -146.5q0 -68 -20 -131t-57.5 -111t-91.5 -76.5t-122 -28.5q-75 0 -133 25.5t-97 72t-59 111t-20 141.5q0 74 20.5 140.5t60.5 117t98.5 80t135.5 29.5zM349 616q-51 0 -90.5 -22.5t-66 -61.5t-40.5 -92t-14 -114
q0 -57 13 -103.5t39 -79.5t66 -51t93 -18q48 0 85 20t63 54.5t39.5 80t13.5 97.5q0 64 -14 117.5t-40.5 91.5t-63.5 59.5t-83 21.5z" />
    <glyph glyph-name="one" unicode="1" horiz-adv-x="339" 
d="M229 11q0 -5 -3.5 -8t-8.5 -3h-63q-12 0 -12 12v606h-95q-12 0 -12 12q0 9 25 70h158q11 0 11 -12v-677z" />
    <glyph glyph-name="two" unicode="2" horiz-adv-x="598" 
d="M510 82q13 0 13 -12l-1 -58q0 -12 -12 -12h-442q-2 0 -5.5 1t-4.5 5t-1.5 13t-1 19t-0.5 19v13q0 45 17 83.5t49 72.5t78 63.5t104 58.5q45 22 74 40t46.5 36t24.5 36.5t7 41.5q0 28 -12 53t-34.5 43t-53.5 28.5t-69 10.5q-19 0 -42 -5t-47.5 -15.5t-49 -26t-45.5 -35.5
q-8 -8 -15 0l-37 49q-3 3 -3 8t3 8q49 48 109 75.5t129 27.5q60 0 108.5 -15.5t82 -45t51.5 -71t18 -93.5q0 -75 -45 -123.5t-129 -88.5q-61 -29 -103 -54t-68 -49t-38.5 -48.5t-14.5 -52.5h360z" />
    <glyph glyph-name="three" unicode="3" horiz-adv-x="608" 
d="M429 354q32 -12 55 -30t37.5 -39.5t21.5 -45.5t7 -48q0 -48 -18.5 -86t-52.5 -64.5t-82 -40.5t-107 -14q-79 0 -141.5 28t-113.5 72q-4 3 -3.5 7.5t3.5 7.5l35 48q7 9 15 1q44 -40 101 -60.5t105 -20.5q44 0 75.5 10t52 27t30 39t9.5 45q0 25 -8 47.5t-25.5 39.5
t-45 26.5t-66.5 9.5h-95q-12 0 -12 12v60q0 13 12 13h91q41 0 69 9.5t45 25.5t24.5 38t7.5 48q0 21 -8 42t-26.5 38.5t-50 28t-77.5 10.5q-50 0 -99.5 -18t-91.5 -55q-8 -6 -15 1l-37 45q-7 9 0 16q48 45 111 71t134 26q70 0 118 -19t78 -49t43 -66.5t13 -71.5
q0 -47 -26 -91.5t-92 -70.5v-2z" />
    <glyph glyph-name="four" unicode="4" horiz-adv-x="630" 
d="M590 187q0 -12 -12 -12h-104v-164q0 -11 -13 -11h-62q-12 0 -12 12v163h-324q-24 0 -29.5 15t8.5 35l325 464q8 11 21 11h74q11 0 11 -12l1 -426h104q12 0 12 -11v-64zM389 262l4 332l-228 -332h224z" />
    <glyph glyph-name="five" unicode="5" horiz-adv-x="605" 
d="M179 418q21 6 52.5 11t65.5 5q54 0 101 -14t82 -41t55 -67t20 -92q0 -50 -16.5 -93t-50.5 -74.5t-86 -49.5t-122 -18t-133.5 27t-103.5 66q-3 3 -2.5 7.5t2.5 7.5l35 55q7 10 16 1q18 -17 41 -31t48.5 -24.5t52.5 -16t51 -5.5q85 0 130 37.5t45 100.5q0 62 -45 100
t-133 38q-51 0 -99 -11t-76 -22q-7 -2 -12 2t-5 12v359q0 12 13 12h415q12 0 12 -11l1 -59q0 -12 -12 -12h-342v-200z" />
    <glyph glyph-name="six" unicode="6" horiz-adv-x="639" 
d="M512 632q0 -9 -13 -9h-83q-56 0 -99.5 -17.5t-76.5 -47.5t-55.5 -69.5t-36.5 -83.5q35 39 89 56.5t108 17.5q61 0 108 -20.5t79.5 -55t49.5 -79.5t17 -95q0 -44 -16.5 -87.5t-48.5 -78t-79 -56t-108 -21.5q-54 0 -107.5 17.5t-97 55t-70.5 97t-27 144.5q0 73 25 146
t72 131.5t114.5 95.5t153.5 37h91q12 0 12 -13zM332 392q-44 0 -79.5 -12t-61 -31t-39 -43t-13.5 -49q0 -36 15.5 -69.5t42.5 -58.5t62.5 -40t76.5 -15q38 0 69.5 13t54.5 34.5t35.5 49.5t12.5 58q0 35 -12.5 65t-35.5 51.5t-55.5 34t-72.5 12.5z" />
    <glyph glyph-name="seven" unicode="7" horiz-adv-x="530" 
d="M213 12q-5 -12 -18 -12h-75q-5 0 -8.5 4.5t-0.5 9.5l291 604h-365q-12 0 -12 12v59q0 11 12 11h433q65 0 35 -65z" />
    <glyph glyph-name="eight" unicode="8" horiz-adv-x="617" 
d="M436 366q24 -8 48 -22t43.5 -35t32 -49.5t12.5 -65.5q0 -44 -16.5 -82t-49.5 -66t-82 -44t-115 -16q-68 0 -118 17t-82.5 45t-48 65t-15.5 78q0 69 39 113.5t98 61.5v2q-45 19 -76 59t-31 99q0 37 14.5 72.5t43.5 63t73 44t103 16.5q60 0 104.5 -17t74 -45t44.5 -64
t15 -75q0 -59 -31.5 -97.5t-79.5 -55.5v-2zM309 410q44 2 73 13t46 27t24 35.5t7 38.5q0 24 -9.5 46t-28.5 38t-47 25.5t-65 9.5q-29 0 -55.5 -6.5t-46.5 -21t-32 -36.5t-12 -53q0 -21 7.5 -41t25 -36t45 -26.5t68.5 -12.5zM309 323q-35 -1 -66 -9.5t-54.5 -25t-37 -41.5
t-13.5 -58q0 -21 9.5 -43t30 -39.5t53 -28.5t78.5 -11t78 11.5t52 29t29.5 39.5t9.5 43q0 61 -44.5 96t-124.5 37z" />
    <glyph glyph-name="nine" unicode="9" horiz-adv-x="639" 
d="M157 76q0 11 12 11h61q54 0 97 17.5t75.5 47t54.5 68.5t34 83q-12 -17 -32.5 -30t-45 -22.5t-52.5 -14.5t-56 -5q-64 0 -113.5 20t-83 53t-51 76.5t-17.5 90.5q0 54 19.5 100.5t55.5 80.5t87.5 53t116.5 19q60 0 110.5 -22t87 -63t57 -99t20.5 -130q0 -73 -23.5 -146
t-68.5 -131.5t-111.5 -95.5t-151.5 -37h-71q-12 0 -12 13zM318 318q45 0 79 13t57 33.5t34.5 44t11.5 44.5q0 37 -14 70.5t-38 58.5t-57 39.5t-71 14.5q-45 0 -80 -13t-59.5 -36t-37 -54t-12.5 -66q0 -26 11 -52.5t33.5 -48t58 -35t84.5 -13.5z" />
    <glyph glyph-name="colon" unicode=":" horiz-adv-x="200" 
d="M100 -7q-22 0 -41 16.5t-19 42.5q0 25 17.5 42t42.5 17q23 0 41.5 -16.5t18.5 -42.5t-18.5 -42.5t-41.5 -16.5zM100 389q-22 0 -41 16.5t-19 42.5q0 25 17.5 42t42.5 17q23 0 41.5 -16.5t18.5 -42.5t-18.5 -42.5t-41.5 -16.5z" />
    <glyph glyph-name="semicolon" unicode=";" horiz-adv-x="200" 
d="M91 -6q-20 3 -35.5 17.5t-15.5 40.5q0 25 17.5 42t41.5 17q29 0 45 -19.5t16 -42.5q0 -27 -10 -49.5t-22 -38.5t-23 -25t-14 -9q-13 0 -13 13q0 6 7.5 19t5.5 35zM100 389q-22 0 -41 16.5t-19 42.5q0 25 17.5 42t42.5 17q23 0 41.5 -16.5t18.5 -42.5t-18.5 -42.5
t-41.5 -16.5z" />
    <glyph glyph-name="question" unicode="?" horiz-adv-x="541" 
d="M226 204q-9 0 -12 8q-2 4 -4 14.5t-3.5 23.5t-2.5 26.5t-1 24.5q0 50 29 82t84 58q24 11 42 21t30 22t17.5 26.5t5.5 34.5q0 40 -36.5 68t-114.5 28q-41 0 -85 -16.5t-80 -48.5q-3 -2 -7.5 -3.5t-7.5 3.5l-35 48q-5 7 2 14q20 19 45.5 34.5t54 26.5t58.5 17.5t59 6.5
q61 0 105.5 -14.5t74 -39t43.5 -57t14 -68.5q0 -56 -29.5 -93.5t-95.5 -68.5q-42 -20 -63 -42t-21 -58q0 -23 4.5 -42t4.5 -23q0 -13 -11 -13h-64zM266 -7q-22 0 -41 16.5t-19 42.5q0 25 17.5 42t42.5 17q23 0 41.5 -16.5t18.5 -42.5t-18.5 -42.5t-41.5 -16.5z" />
    <glyph glyph-name="A" unicode="A" horiz-adv-x="587" 
d="M566 12q2 -6 -2 -9t-10 -3h-67q-9 0 -12 10l-45 141h-275l-44 -141q-3 -10 -12 -10h-66q-6 0 -10 3.5t-2 9.5l230 677q2 10 12 10h75q10 0 12 -10zM405 238l-108 349l-113 -349h221z" />
    <glyph glyph-name="B" unicode="B" horiz-adv-x="595" 
d="M553 200q0 -55 -18.5 -93t-52.5 -62t-82.5 -34.5t-107.5 -10.5h-205q-12 0 -12 11v678q0 11 12 11h157q79 0 136 -8.5t93.5 -29.5t53.5 -58t17 -94q0 -54 -32 -90t-91 -52q37 -8 62.5 -24.5t41 -39.5t22 -50t6.5 -54zM452 510q0 49 -27 72t-69 31t-93.5 6.5t-100.5 -1.5
v-210q76 -2 130.5 -0.5t90 11.5t52.5 31.5t17 59.5zM452 201q0 47 -17.5 72.5t-53.5 37.5t-90.5 14.5t-128.5 2.5v-246h115q41 0 73.5 5.5t55 19t34.5 36.5t12 58z" />
    <glyph glyph-name="C" unicode="C" horiz-adv-x="543" 
d="M513 31q0 -7 -4 -9q-12 -8 -30.5 -14.5t-41 -11.5t-46.5 -8t-48 -3q-67 0 -122.5 21.5t-95.5 63.5t-62.5 103.5t-22.5 141.5q0 90 26.5 161t73 120.5t109.5 76t137 26.5q33 0 65 -3.5t48 -8.5q7 -3 7 -9v-68q0 -11 -10 -11q-9 0 -34.5 6.5t-64.5 6.5q-59 0 -107.5 -21
t-84 -58.5t-55 -90t-19.5 -116.5q0 -123 57 -186t176 -63q33 0 69 8.5t57 19.5q6 3 11 1t5 -10z" />
    <glyph glyph-name="D" unicode="D" horiz-adv-x="605" 
d="M135 700q77 0 154 -22t138.5 -65.5t99.5 -109t38 -152.5q0 -93 -38 -159.5t-98.5 -109t-135.5 -62.5t-149 -20h-57q-12 0 -12 11v677q0 12 12 12h48zM477 349q0 64 -25 112t-68 81t-100 50.5t-121 20.5v-531q76 3 135 24.5t98.5 57.5t60 83.5t20.5 101.5z" />
    <glyph glyph-name="E" unicode="E" horiz-adv-x="558" 
d="M498 12q0 -12 -12 -12h-396q-12 0 -12 12l-7 675q0 13 12 13h413q12 0 12 -13v-57q0 -12 -12 -12h-335l2 -230h297q12 0 12 -12v-60q0 -12 -12 -12h-296l2 -222h320q12 0 12 -12v-58z" />
    <glyph glyph-name="F" unicode="F" horiz-adv-x="529" 
d="M508 626q0 -11 -12 -11l-326 5l-6 -225l285 -3q11 0 11 -12l-1 -56q0 -11 -12 -11l-285 3l-7 -305q0 -11 -11 -11h-63q-12 0 -12 12l11 676q0 12 12 12h405q12 0 12 -13z" />
    <glyph glyph-name="G" unicode="G" horiz-adv-x="648" 
d="M583 54q0 -13 -11 -20q-28 -19 -79.5 -33.5t-110.5 -14.5q-84 0 -148 24.5t-107 67.5t-65 102.5t-22 130.5q0 89 30.5 161t83 122.5t123.5 78t152 27.5q15 0 33.5 -1t36 -2.5t32.5 -3.5t25 -5q7 -2 7 -9v-66q0 -11 -10 -11t-40 7t-78 7q-63 0 -118 -20.5t-95.5 -60
t-64 -97.5t-23.5 -132q0 -48 14.5 -90.5t46 -74t80.5 -49.5t118 -18q27 0 53 4.5t43 9.5v198l-166 -5q-5 0 -8 4t-3 9l3 65q0 11 11 11l245 8q12 0 12 -11v-313z" />
    <glyph glyph-name="H" unicode="H" horiz-adv-x="666" 
d="M582 12q0 -12 -12 -12h-60q-12 0 -12 12l5 303l-342 -3l-2 -300q0 -12 -11 -12h-60q-13 0 -13 12v676q0 12 12 12h67q12 0 12 -12l-3 -297l341 3l5 294q0 12 12 12h67q11 0 11 -12z" />
    <glyph glyph-name="I" unicode="I" horiz-adv-x="240" 
d="M165 11q0 -11 -13 -11h-65q-12 0 -12 12v675q0 13 12 13h66q11 0 11 -12z" />
    <glyph glyph-name="J" unicode="J" horiz-adv-x="406" 
d="M338 687q-1 -38 -2 -97t-2.5 -124.5t-3.5 -131t-3 -114.5q-2 -56 -14.5 -99t-39.5 -75q-23 -28 -60 -44t-88 -16q-32 0 -56 3t-40 11q-9 3 -9 13v64q0 13 14 13q5 0 29 -6t53 -6q30 0 53 8t39 26.5t24.5 49t8.5 74.5l5 451q0 5 4.5 9t9.5 4h65q13 0 13 -13z" />
    <glyph glyph-name="K" unicode="K" horiz-adv-x="557" 
d="M240 357l288 -345q4 -5 2.5 -8.5t-7.5 -3.5h-91q-10 0 -16 7l-251 312l-3 -1l-2 -306q0 -12 -11 -12h-63q-11 0 -11 12v677q0 11 12 11h68q11 0 11 -11l-3 -299l274 304q6 6 13 6h77q8 0 11 -6.5t-2 -11.5z" />
    <glyph glyph-name="L" unicode="L" horiz-adv-x="489" 
d="M459 13q0 -13 -13 -13h-362q-12 0 -12 13l6 675q0 12 13 12h67q12 0 12 -12l-10 -603h286q13 0 13 -13v-59z" />
    <glyph glyph-name="M" unicode="M" horiz-adv-x="821" 
d="M726 700q13 0 13 -12l12 -676q0 -12 -11 -12h-64q-12 0 -12 12l-11 462v17t2 18q-3 -5 -8 -21l-207 -448q-3 -9 -12 -9h-55q-7 0 -10 9l-196 454q-3 11 -6 16q2 -8 2.5 -19.5t0.5 -18.5l-5 -460q0 -12 -13 -12h-63q-12 0 -12 13l7 675q0 12 13 12h75q8 0 11 -8l228 -533
l243 533q3 8 11 8h67z" />
    <glyph glyph-name="N" unicode="N" horiz-adv-x="666" 
d="M588 11q0 -11 -12 -11h-62q-8 0 -12 7l-336 519l-4 -515q0 -11 -12 -11h-62q-13 0 -13 12v675q0 13 12 13h69q7 0 10 -7l338 -523v518q0 12 11 12h67q12 0 12 -11z" />
    <glyph glyph-name="O" unicode="O" horiz-adv-x="680" 
d="M367 703q73 0 124.5 -34t84.5 -88t48.5 -122t15.5 -136q0 -70 -20 -131.5t-57 -107.5t-89.5 -72.5t-117.5 -26.5q-75 0 -134 25.5t-99.5 71.5t-61.5 110t-21 140q0 78 22 145.5t63.5 118t102.5 79t139 28.5zM343 70q100 0 153 67.5t53 182.5q0 53 -10 106t-33 95
t-59.5 68t-89.5 26q-54 0 -96.5 -22.5t-71 -61.5t-43.5 -92t-15 -114q0 -65 17 -113t46 -79.5t67.5 -47t81.5 -15.5z" />
    <glyph glyph-name="P" unicode="P" horiz-adv-x="573" 
d="M543 450q0 -123 -94.5 -188t-286.5 -69l-5 -182q0 -11 -11 -11h-60q-13 0 -13 11l4 675q0 11 13 11h83q85 0 153.5 -15.5t116.5 -46.5t74 -77.5t26 -107.5zM447 445q0 87 -71 129.5t-208 40.5l-5 -339q148 0 216 44t68 125z" />
    <glyph glyph-name="Q" unicode="Q" horiz-adv-x="680" 
d="M343 703q73 0 128.5 -32.5t93 -85t56.5 -119t19 -134.5q0 -54 -12 -104.5t-35 -93t-55.5 -75t-74.5 -51.5q27 -26 56.5 -37t66.5 -11h9q5 0 8.5 -1.5t3.5 -7.5l-1 -61q0 -10 -9 -13q-14 -3 -39 -3q-32 0 -58 7t-50 21t-47 34.5t-48 48.5q-75 0 -133.5 26.5t-99 73
t-61.5 111t-21 140.5q0 78 18 145t55.5 116.5t94.5 77.5t135 28zM343 70q50 0 88.5 19t64.5 53t39.5 82t13.5 105t-14 109t-41 91t-67.5 62.5t-93.5 23.5q-54 0 -92.5 -21.5t-63 -60t-35.5 -91t-11 -113.5q0 -65 17 -113.5t46 -81t67.5 -48.5t81.5 -16z" />
    <glyph glyph-name="R" unicode="R" horiz-adv-x="585" 
d="M547 20q5 -6 2 -13t-12 -7h-80q-7 0 -11 5l-152 208q-18 -4 -38 -7.5l-38 -6.5t-33 -4.5t-22 -1.5l-2 -182q0 -11 -12 -11h-60q-13 0 -13 11l-1 675q0 11 12 11h89q81 0 147.5 -13t114.5 -42t74 -76t26 -116t-42.5 -125.5t-113.5 -84.5zM165 276q60 2 111.5 14t89.5 34.5
t59.5 54.5t21.5 74q0 87 -71.5 124.5t-207.5 37.5z" />
    <glyph glyph-name="S" unicode="S" horiz-adv-x="593" 
d="M554 189q-1 -45 -16.5 -82.5t-46.5 -65t-78 -42.5t-111 -15q-142 0 -231 93q-3 3 -3 7.5t3 7.5l37 47q8 8 16 1q32 -34 78.5 -53t103.5 -19q77 0 119 31t42 84q0 40 -31.5 61.5t-79 35.5t-102.5 26t-102.5 33t-79 56.5t-31.5 96.5q0 51 20.5 91t55.5 67t83 41t104 14
q72 0 135.5 -23.5t111.5 -69.5q3 -3 2 -8t-3 -7l-39 -48q-3 -4 -8 -3.5t-8 2.5q-40 36 -88.5 55.5t-105.5 19.5q-74 0 -120.5 -31.5t-46.5 -94.5q0 -25 13 -43.5t35 -31.5t51.5 -22t62.5 -15q63 -12 111.5 -26.5t81.5 -37t49.5 -54.5t15.5 -78z" />
    <glyph glyph-name="T" unicode="T" horiz-adv-x="516" 
d="M506 635q0 -12 -13 -12h-190v-611q0 -12 -12 -12h-67q-12 0 -12 12v611h-200q-12 0 -12 12v54q0 11 12 11h481q13 0 13 -11v-54z" />
    <glyph glyph-name="U" unicode="U" horiz-adv-x="660" 
d="M590 252q2 -144 -62 -212t-194 -68q-61 0 -110 18.5t-83 54.5t-52.5 88t-18.5 119v435q0 13 11 13h66q12 0 12 -13v-448q0 -80 47 -129t128 -49q48 0 80.5 13t52 36.5t28 56.5t8.5 72l-5 448q0 13 12 13h64q11 0 11 -13z" />
    <glyph glyph-name="V" unicode="V" horiz-adv-x="580" 
d="M342 10q-3 -10 -12 -10h-101q-9 0 -12 10l-196 678q-2 6 2 9t10 3h71q9 0 12 -11l166 -586l185 587q3 10 11 10h68q16 0 13 -15z" />
    <glyph glyph-name="W" unicode="W" horiz-adv-x="820" 
d="M182 0q-11 0 -12 12l-142 675q-2 13 10 13h67q12 0 13 -11l103 -490q3 -16 2 -33q2 2 6 13l148 367q3 8 12 8h57q8 0 11 -8l134 -368q4 -11 8 -16q-2 14 1 29l107 498q1 11 14 11h61q14 0 12 -14l-148 -674q-2 -12 -14 -12h-59q-9 0 -12 8l-148 413l-161 -413
q-3 -8 -11 -8h-59z" />
    <glyph glyph-name="X" unicode="X" horiz-adv-x="536" 
d="M508 21q4 -8 1 -14.5t-11 -6.5h-76q-6 0 -9 7l-147 265l-145 -266q-2 -6 -11 -6h-72q-9 0 -11.5 6.5t1.5 14.5l181 322l-181 323q-3 7 -1.5 14t11.5 7h74q8 0 11 -7l145 -276l147 276q3 7 9 7h74q7 0 10 -7t0 -14l-182 -323z" />
    <glyph glyph-name="Y" unicode="Y" horiz-adv-x="528" 
d="M511 688l-46 -91.5l-52.5 -102.5l-56.5 -107.5l-57 -106.5l2 -269q0 -11 -12 -11h-64q-12 0 -12 11v269l-107.5 219.5l-88.5 188.5q-3 6 1.5 9t10.5 3h72q9 0 11 -8l146 -331l161 331q4 8 12 8h68q6 0 10.5 -3t1.5 -9z" />
    <glyph glyph-name="Z" unicode="Z" horiz-adv-x="540" 
d="M497 12q0 -12 -12 -12h-413q-12 0 -12 12v59q0 5 4 11l332 536h-349q-12 0 -12 12v59q0 11 13 11h441q11 0 11 -12v-55q0 -6 -4 -11l-335 -540h325q11 0 11 -11v-59z" />
    <glyph glyph-name="a" unicode="a" horiz-adv-x="501" 
d="M441 12q0 -12 -12 -12h-60q-5 0 -8 9q-20 -10 -55.5 -18t-70.5 -8q-42 0 -78 11.5t-62 32.5t-40.5 49.5t-14.5 62.5q0 45 16 77.5t45 54.5t68.5 32.5t86.5 10.5q26 0 53 -2.5t44 -4.5q0 128 -99 128q-35 0 -63.5 -14.5t-39.5 -54.5h-71q-6 0 -9.5 2t-3.5 10q0 15 12 43.5
t39 52.5q28 24 64.5 35.5t74.5 11.5q46 0 80.5 -14.5t57 -41t33.5 -63t11 -80.5zM353 227q-13 3 -40.5 6t-51.5 3q-60 0 -95.5 -24.5t-35.5 -68.5q0 -34 30 -55.5t94 -21.5q29 0 56 8t43 16v137z" />
    <glyph glyph-name="b" unicode="b" horiz-adv-x="549" 
d="M80 0q-12 0 -12 12l-7 676q0 12 12 12h63q12 0 12 -12l2 -220q23 10 57 17t69 7q107 0 170 -68t63 -195q0 -49 -15.5 -94t-44.5 -79t-70.5 -54t-93.5 -20q-40 0 -76 7.5t-57 16.5q-2 -6 -8 -6h-64zM154 91q22 -10 56 -17t72 -7q62 0 100 44.5t38 119.5q0 85 -40.5 131.5
t-112.5 46.5q-29 0 -59 -7t-57 -18z" />
    <glyph glyph-name="c" unicode="c" horiz-adv-x="429" 
d="M389 26q0 -7 -5 -10q-20 -14 -49.5 -22.5t-66.5 -8.5q-54 0 -96 18t-71.5 49.5t-45 75.5t-15.5 97q0 68 19 123t53.5 93.5t82.5 59t106 20.5q22 0 43.5 -2.5t32.5 -6.5q6 -2 6 -7v-72q0 -7 -7 -7q-9 0 -24.5 5t-47.5 5q-41 0 -73 -15t-54.5 -42t-34.5 -65.5t-12 -85.5
q0 -34 8.5 -63t26 -50t44.5 -33t64 -12q28 0 54.5 7t44.5 16q5 2 8.5 0t3.5 -7z" />
    <glyph glyph-name="d" unicode="d" horiz-adv-x="549" 
d="M409 0q-5 0 -8 6q-22 -8 -59 -16t-79 -8q-53 0 -94 18t-70 50t-44 75.5t-15 93.5q0 64 18 114.5t50 86t75.5 54t95.5 18.5q32 0 62.5 -4.5t55.5 -9.5v210q0 12 12 12h63q12 0 12 -12v-676q0 -12 -12 -12h-63zM397 388q-20 7 -50.5 12.5t-64.5 5.5q-36 0 -64.5 -14
t-48 -39t-29.5 -58.5t-10 -73.5q0 -69 37.5 -112t104.5 -43q18 0 36.5 2.5t35 6t30.5 8t23 8.5v297z" />
    <glyph glyph-name="e" unicode="e" horiz-adv-x="469" 
d="M131 301q17 -3 48.5 -5.5t58.5 -2.5q113 0 113 75q0 29 -22.5 49.5t-67.5 20.5q-54 0 -88 -37t-42 -100zM130 224q1 -32 10.5 -60.5t28.5 -49.5t47.5 -33.5t68.5 -12.5q34 0 59.5 5t51.5 14q4 2 8 0t4 -7l5 -60q0 -6 -3 -7q-21 -13 -54.5 -21t-78.5 -8q-52 0 -95.5 18
t-75 52.5t-49 85.5t-17.5 116q0 51 14.5 98.5t43 84t71.5 58.5t101 22q44 0 75 -13t51 -34.5t29 -50.5t9 -61q0 -66 -48 -105.5t-135 -39.5q-32 0 -66 2.5t-55 6.5z" />
    <glyph glyph-name="f" unicode="f" horiz-adv-x="347" 
d="M313 422q11 0 11 -12l-3 -58q0 -12 -12 -12l-110 3l-4 -332q0 -11 -12 -11h-64q-11 0 -11 11l4 334l-84 2q-11 0 -11 11l-2 53q0 12 12 12h86q1 70 9 124t26.5 91t48.5 55.5t74 18.5q43 0 69 -9q7 -3 7 -12v-52q0 -13 -12 -13q-9 0 -22.5 2.5t-33.5 2.5q-21 0 -36.5 -8.5
t-25 -29.5t-14.5 -56t-5 -88v-26z" />
    <glyph glyph-name="g" unicode="g" horiz-adv-x="550" 
d="M398 385q-24 16 -56.5 22.5t-66.5 6.5q-63 0 -103.5 -43t-40.5 -125q0 -34 9.5 -64t27.5 -52t44 -35t60 -13q37 0 71 11t55 31v261zM485 48q0 -72 -14.5 -123.5t-41.5 -84t-65 -48t-85 -15.5q-36 0 -60 3.5t-39 9.5q-9 3 -9 12v60q0 12 14 12q11 0 29 -5t59 -5
q38 0 62.5 13.5t38.5 36t19 52.5t5 62q-25 -14 -62 -22.5t-71 -8.5q-51 0 -93 17.5t-71 50.5t-45 79.5t-16 104.5t18 104.5t50 79.5t75.5 50.5t93.5 17.5q36 0 68.5 -5t54.5 -12h73q12 0 12 -12v-424z" />
    <glyph glyph-name="h" unicode="h" 
d="M515 12q0 -12 -12 -12h-63q-10 0 -10 12l-7 283q-2 64 -29.5 102t-81.5 38q-45 0 -88 -24.5t-72 -68.5v-330q0 -12 -12 -12h-62q-13 0 -13 12v692q0 12 12 12h61q12 0 12 -12v-263q31 35 75.5 56t96.5 21q47 0 81.5 -16.5t58 -46.5t35.5 -72t13 -92z" />
    <glyph glyph-name="i" unicode="i" horiz-adv-x="217" 
d="M108 596q-20 0 -36.5 14.5t-16.5 37.5q0 22 15.5 37t37.5 15q20 0 36.5 -14.5t16.5 -37.5t-16.5 -37.5t-36.5 -14.5zM140 461q12 0 12 -13v-437q0 -11 -13 -11h-62q-12 0 -12 12v436q0 13 12 13h63z" />
    <glyph glyph-name="j" unicode="j" horiz-adv-x="222" 
d="M142 461q12 0 12 -13l5 -490q0 -46 -12.5 -80t-34.5 -56t-51.5 -33t-63.5 -11q-29 0 -54 4t-42 9q-9 3 -9 12v60q0 13 14 13q8 0 28 -5.5t52 -5.5q37 0 62 23.5t25 79.5l-7 481q0 12 11 12h65zM110 595q-20 0 -36.5 14.5t-16.5 37.5q0 22 15.5 37t37.5 15
q20 0 36.5 -14.5t16.5 -37.5t-16.5 -37.5t-36.5 -14.5z" />
    <glyph glyph-name="k" unicode="k" horiz-adv-x="494" 
d="M371 0q-5 0 -8 4l-211 205v-197q0 -12 -14 -12h-62q-11 0 -11 12l-1 678q0 10 11 10h67q6 0 9 -3.5t3 -8.5l-2 -377l206 202q6 7 11 7h94q7 0 9.5 -4.5t-0.5 -7.5l-252 -247l254 -241q7 -6 3 -13t-12 -7h-94z" />
    <glyph glyph-name="l" unicode="l" horiz-adv-x="217" 
d="M152 13q0 -13 -12 -13h-64q-11 0 -11 13v698q0 12 11 12h64q12 0 12 -13v-697z" />
    <glyph glyph-name="m" unicode="m" horiz-adv-x="901" 
d="M485 12q0 -12 -12 -12h-63q-10 0 -10 12l2 269q0 64 -22.5 101t-76.5 37q-40 0 -79.5 -26t-71.5 -61v-320q0 -12 -12 -12h-62q-13 0 -13 12v470q0 12 12 12h61q12 0 12 -12v-53q34 29 72.5 51t90.5 22q54 0 88 -21.5t56 -60.5q41 38 91 60t101 22q47 0 83 -16.5t60 -46
t36.5 -71t12.5 -91.5v-265q0 -12 -12 -12h-63q-10 0 -10 12l-2 269q-1 64 -31 101t-84 37q-18 0 -39 -6t-41.5 -16t-39.5 -24t-35 -29q2 -13 3.5 -31t1.5 -36z" />
    <glyph glyph-name="n" unicode="n" 
d="M312 419q-20 0 -41.5 -7t-42.5 -19t-40.5 -28t-35.5 -33v-320q0 -12 -12 -12h-62q-13 0 -13 12v470q0 12 12 12h61q12 0 12 -12v-53q34 29 77 51t95 22q47 0 82.5 -16.5t59 -46t36 -71t12.5 -91.5l2 -265q0 -12 -12 -12h-63q-10 0 -10 12l-3 269q-1 64 -30.5 101
t-83.5 37z" />
    <glyph glyph-name="o" unicode="o" horiz-adv-x="544" 
d="M504 252q0 -54 -16.5 -102.5t-46 -85t-70 -58t-88.5 -21.5q-56 0 -101 19t-76.5 53.5t-48.5 82.5t-17 106q0 57 18.5 106.5t51.5 86.5t78.5 58.5t98.5 21.5q48 0 88 -18.5t68.5 -53.5t44.5 -84.5t16 -110.5zM413 255q0 90 -32 133.5t-101 43.5q-33 0 -60 -13.5t-47 -38
t-31 -59t-11 -76.5q0 -46 11.5 -78.5t32 -53.5t47 -31t56.5 -10q32 0 57 14.5t42.5 39.5t26.5 58.5t9 70.5z" />
    <glyph glyph-name="p" unicode="p" horiz-adv-x="549" 
d="M140 477q8 0 10 -9q29 14 68 20.5t76 6.5q98 0 156.5 -63.5t58.5 -183.5q0 -63 -17 -112t-48.5 -82.5t-75.5 -51t-98 -17.5q-38 0 -66.5 3t-51.5 11v-208q0 -12 -12 -12h-63q-12 0 -12 12v674q0 12 12 12h63zM152 90q16 -7 43 -12.5t68 -5.5q75 0 116 46.5t41 127.5
q0 83 -39.5 124.5t-102.5 41.5q-32 0 -65.5 -7t-60.5 -20v-295z" />
    <glyph glyph-name="q" unicode="q" horiz-adv-x="549" 
d="M472 477q12 0 12 -12v-674q0 -12 -12 -12h-63q-12 0 -12 12v228q-21 -15 -54.5 -24.5t-63.5 -9.5q-54 0 -98 19t-75.5 55t-48.5 87.5t-17 116.5q0 50 16 92.5t46 73.5t72.5 48.5t95.5 17.5q46 0 81.5 -7.5t52.5 -16.5q3 6 9 6h59zM397 377q-29 16 -59 24.5t-61 8.5
q-75 0 -113 -40t-38 -109q0 -94 43 -142t113 -48q35 0 65.5 10t49.5 25v271z" />
    <glyph glyph-name="r" unicode="r" horiz-adv-x="337" 
d="M325 426q0 -11 -12 -8t-30 3q-20 0 -39.5 -7.5t-37 -21.5t-31.5 -33t-22 -43v-304q0 -12 -11 -12h-63q-14 0 -14 12l1 497q0 11 12 11h65q13 0 13 -10l-2 -69q27 36 60 57t68 21q19 0 30.5 -3t11.5 -8z" />
    <glyph glyph-name="s" unicode="s" horiz-adv-x="451" 
d="M44 361q0 35 14.5 64t40 50t61 32.5t77.5 10.5q47 0 95 -18t81 -45q5 -5 1 -12l-33 -52q-5 -8 -12 -1q-30 24 -67 38.5t-72 14.5q-42 0 -70 -21.5t-28 -54.5q0 -24 20.5 -37.5t51 -23t66 -19.5t66 -26.5t51 -43.5t20.5 -71q0 -75 -47.5 -118t-135.5 -43q-48 0 -90 15.5
t-74 42.5q-6 6 0 12l33 49q6 6 12 0q24 -19 54.5 -30t65.5 -11q44 0 68 19.5t24 54.5q0 28 -21.5 47t-77.5 33q-94 23 -134 57t-40 87z" />
    <glyph glyph-name="t" unicode="t" horiz-adv-x="342" 
d="M319 498q12 0 11 -12l-2 -51q-1 -6 -3 -9t-8 -3l-122 -1l-1 -409q0 -13 -12 -13h-63q-12 0 -12 13l1 407h-84q-11 0 -11 11l-4 46q0 13 13 13l85 3v97q0 13 12 13h63q12 0 12 -13v-95z" />
    <glyph glyph-name="u" unicode="u" 
d="M58 482q0 12 13 12h62q10 0 10 -12l7 -286q3 -120 114 -120q53 0 94.5 24t63.5 53v329q0 12 12 12h62q13 0 13 -12v-470q0 -12 -12 -12h-61q-12 0 -12 12v45q-31 -30 -76.5 -47t-95.5 -17q-90 0 -138.5 54t-50.5 153z" />
    <glyph glyph-name="v" unicode="v" horiz-adv-x="467" 
d="M271 9q-3 -9 -13 -9h-71q-11 0 -12 9l-164 473q-2 6 2 9t10 3h68q9 0 11 -9l123 -370l138 370q1 9 12 9h69q6 0 10 -3t2 -9z" />
    <glyph glyph-name="w" unicode="w" horiz-adv-x="699" 
d="M135 0q-11 0 -12 12l-102 469q-2 13 10 13h64q12 0 13 -11l70 -348q2 -7 2.5 -15t0.5 -14l135 284q3 8 13 8h62q8 0 11 -8l116 -284q0 16 3 28l75 349q1 11 13 11h58q13 0 11 -14l-104 -468q-2 -12 -13 -12h-75q-8 0 -13 8l-118 290l-135 -290q-5 -8 -14 -8h-71z" />
    <glyph glyph-name="x" unicode="x" horiz-adv-x="457" 
d="M428 15q3 -5 1 -10t-10 -5h-79q-8 0 -10 5l-104 176l-101 -176q-3 -5 -11 -5h-74q-7 0 -10 4.5t1 10.5l140 227l-149 237q-3 5 -0.5 10t9.5 5h78q8 0 11 -5l110 -195l111 195q2 5 10 5h75q7 0 9.5 -4.5t-0.5 -10.5l-149 -237z" />
    <glyph glyph-name="y" unicode="y" horiz-adv-x="565" 
d="M501 61q1 -74 -15 -128.5t-45 -90.5t-69.5 -53.5t-88.5 -17.5q-23 0 -46.5 3t-40.5 8q-9 3 -9 12v60q0 13 14 13q8 0 22 -4.5t45 -4.5q69 0 108 43.5t38 140.5q-26 -29 -66.5 -43t-83.5 -14q-105 0 -154.5 56t-49.5 166v277q0 10 12 10h63q12 0 12 -12l-1 -275
q0 -33 5.5 -58.5t19.5 -43.5t39 -27.5t63 -9.5q42 0 79.5 21.5t60.5 56.5l-3 337q-1 11 10 11h63q13 0 14 -11z" />
    <glyph glyph-name="z" unicode="z" horiz-adv-x="479" 
d="M434 12q0 -12 -12 -12h-354q-12 0 -12 12v66q0 5 4 8l262 321h-266q-13 0 -13 12l1 63q0 12 12 12h367q11 0 11 -12v-65q0 -5 -4 -8l-264 -322h257q11 0 11 -12v-63z" />
    <glyph glyph-name="quoteright" unicode="&#x2019;" horiz-adv-x="200" 
d="M91 596q-20 3 -35.5 17.5t-15.5 40.5q0 25 17.5 42t41.5 17q29 0 45 -19.5t16 -42.5q0 -27 -10 -49.5t-22 -38.5t-23 -25t-14 -9q-13 0 -13 13q0 6 7.5 19t5.5 35z" />
    <glyph glyph-name="tilde" unicode="&#x2dc;" horiz-adv-x="500" 
d="M412 684q9 0 11.5 -5.5t2.5 -16.5q0 -8 -5 -24t-16.5 -31.5t-30.5 -27.5t-47 -12q-24 0 -43.5 6t-36.5 13l-33 13t-32 6q-28 0 -41 -32q-3 -11 -15 -11h-35q-17 0 -17 22q0 6 5.5 22.5t18 34.5t33 32t50.5 14q24 0 43.5 -6t36.5 -13.5t32 -13.5t32 -6q16 0 23.5 5.5
t12.5 20.5q3 10 15 10h36z" />
    <glyph glyph-name="acute" unicode="&#xb4;" horiz-adv-x="368" 
d="M160 572q-10 -8 -18.5 -11t-21.5 -3h-37q-9 0 -12 5.5t5 15.5l88 103q7 8 14.5 12.5t23.5 4.5h78q13 0 17 -7.5t-5 -14.5z" />
    <glyph glyph-name="grave" unicode="`" horiz-adv-x="377" 
d="M79 677q-9 7 -5 14.5t17 7.5h83q17 0 24.5 -4.5t13.5 -12.5l89 -103q8 -9 4.5 -15t-12.5 -6h-36q-14 0 -22 3t-18 11z" />
    <glyph glyph-name="quoteleft" unicode="&#x2018;" horiz-adv-x="200" 
d="M109 666q20 -3 35.5 -17.5t15.5 -40.5q0 -25 -17.5 -42t-41.5 -17q-29 0 -45 19.5t-16 42.5q0 27 10 49.5t22 38.5t23 25t14 9q13 0 13 -13q0 -6 -7.5 -19t-5.5 -35z" />
    <glyph glyph-name="quotedblright" unicode="&#x201d;" horiz-adv-x="370" 
d="M91 596q-20 3 -35.5 17.5t-15.5 40.5q0 25 17.5 42t41.5 17q29 0 45 -19.5t16 -42.5q0 -27 -10 -49.5t-22 -38.5t-23 -25t-14 -9q-13 0 -13 13q0 6 7.5 19t5.5 35zM261 596q-20 3 -35.5 17.5t-15.5 40.5q0 25 17.5 42t41.5 17q29 0 45 -19.5t16 -42.5q0 -27 -10 -49.5
t-22 -38.5t-23 -25t-14 -9q-13 0 -13 13q0 6 7.5 19t5.5 35z" />
    <glyph glyph-name="quotedblleft" unicode="&#x201c;" horiz-adv-x="370" 
d="M279 666q20 -3 35.5 -17.5t15.5 -40.5q0 -25 -17.5 -42t-41.5 -17q-29 0 -45 19.5t-16 42.5q0 27 10 49.5t22 38.5t23 25t14 9q13 0 13 -13q0 -6 -7.5 -19t-5.5 -35zM109 666q20 -3 35.5 -17.5t15.5 -40.5q0 -25 -17.5 -42t-41.5 -17q-29 0 -45 19.5t-16 42.5
q0 27 10 49.5t22 38.5t23 25t14 9q13 0 13 -13q0 -6 -7.5 -19t-5.5 -35z" />
    <glyph glyph-name="hyphen" unicode="-" horiz-adv-x="361" 
d="M62 274q-12 0 -12 12v60q0 12 12 12h237q12 0 12 -12v-60q0 -12 -12 -12h-237z" />
    <glyph glyph-name="endash" unicode="&#x2013;" horiz-adv-x="601" 
d="M82 274q-12 0 -12 12v60q0 12 12 12h437q12 0 12 -12v-60q0 -12 -12 -12h-437z" />
    <glyph glyph-name="emdash" unicode="&#x2014;" horiz-adv-x="891" 
d="M82 274q-12 0 -12 12v60q0 12 12 12h727q12 0 12 -12v-60q0 -12 -12 -12h-727z" />
    <glyph glyph-name="dieresis" unicode="&#xa8;" horiz-adv-x="523" 
d="M162 559q-20 0 -36.5 14.5t-16.5 37.5q0 22 15.5 37t37.5 15q20 0 36.5 -14.5t16.5 -37.5t-16.5 -37.5t-36.5 -14.5zM362 559q-20 0 -36.5 14.5t-16.5 37.5q0 22 15.5 37t37.5 15q20 0 36.5 -14.5t16.5 -37.5t-16.5 -37.5t-36.5 -14.5z" />
    <glyph glyph-name="circumflex" unicode="&#x2c6;" horiz-adv-x="447" 
d="M223 625l-63 -53q-17 -14 -40 -14h-27q-9 0 -12 5.5t5 15.5l108 123q15 17 28 17h2q14 0 28 -17l109 -123q8 -8 4.5 -14.5t-12.5 -6.5h-29q-14 0 -22.5 3t-17.5 11z" />
    <glyph glyph-name="ring" unicode="&#x2da;" horiz-adv-x="349" 
d="M175 563q-21 0 -40 6t-33.5 17.5t-23 28.5t-8.5 40q0 41 30.5 66.5t73.5 25.5q21 0 40 -6.5t33.5 -18.5t23 -29t8.5 -39q0 -21 -8.5 -38t-23 -29t-33 -18t-39.5 -6zM175 607q23 0 38 13.5t15 33.5q0 21 -14.5 35t-39.5 14t-39 -14t-14 -34q0 -22 15.5 -35t38.5 -13z" />
    <glyph glyph-name="dotlessi" unicode="&#x131;" horiz-adv-x="217" 
d="M140 461q12 0 12 -13v-437q0 -11 -13 -11h-62q-12 0 -12 12v436q0 13 12 13h63z" />
    <glyph glyph-name="quotesingle" unicode="'" horiz-adv-x="245" 
d="M97 534q-12 0 -12 12l-10 166q0 11 13 11h71q11 0 11 -12l-10 -164q0 -13 -12 -13h-51z" />
    <glyph glyph-name="quotedbl" unicode="&#x22;" horiz-adv-x="415" 
d="M97 534q-12 0 -12 12l-10 166q0 11 13 11h71q11 0 11 -12l-10 -164q0 -13 -12 -13h-51zM267 534q-12 0 -12 12l-10 166q0 11 13 11h71q11 0 11 -12l-10 -164q0 -13 -12 -13h-51z" />
    <glyph glyph-name="quotesinglbase" unicode="&#x201a;" horiz-adv-x="200" 
d="M91 -6q-20 3 -35.5 17.5t-15.5 40.5q0 25 17.5 42t41.5 17q29 0 45 -19.5t16 -42.5q0 -27 -10 -49.5t-22 -38.5t-23 -25t-14 -9q-13 0 -13 13q0 6 7.5 19t5.5 35z" />
    <glyph glyph-name="quotedblbase" unicode="&#x201e;" horiz-adv-x="370" 
d="M91 -6q-20 3 -35.5 17.5t-15.5 40.5q0 25 17.5 42t41.5 17q29 0 45 -19.5t16 -42.5q0 -27 -10 -49.5t-22 -38.5t-23 -25t-14 -9q-13 0 -13 13q0 6 7.5 19t5.5 35zM261 -6q-20 3 -35.5 17.5t-15.5 40.5q0 25 17.5 42t41.5 17q29 0 45 -19.5t16 -42.5q0 -27 -10 -49.5
t-22 -38.5t-23 -25t-14 -9q-13 0 -13 13q0 6 7.5 19t5.5 35z" />
    <glyph glyph-name="at" unicode="@" horiz-adv-x="941" 
d="M613 214q-2 -25 14 -43t58 -18q24 0 45.5 11.5t38 34t26 54.5t9.5 73q0 70 -21 127t-61.5 97.5t-99.5 63t-135 22.5q-80 0 -143 -27.5t-107.5 -76.5t-68 -117t-23.5 -148q0 -69 22 -129t65 -104.5t106.5 -70t147.5 -25.5q32 0 63.5 3.5t49.5 9.5q12 3 12 -7l3 -48
q0 -8 -5 -10q-18 -8 -50 -14.5t-72 -6.5q-98 0 -175.5 32t-131 86t-82 125t-28.5 149q0 102 30 184.5t85 140.5t133.5 89.5t175.5 31.5q90 0 160 -28.5t118.5 -78.5t73.5 -119t25 -151q0 -58 -16 -102t-42.5 -74t-61 -45.5t-71.5 -15.5t-65 12t-44 32q-17 -16 -47.5 -30
t-75.5 -14q-39 0 -71 13.5t-54.5 39.5t-33 64t-5.5 87q4 37 19 69t39.5 56t56.5 37.5t69 13.5q26 0 52.5 -7t46.5 -22q3 16 13 16h50q9 0 8 -9zM558 373q-16 14 -39.5 22.5t-44.5 8.5q-50 0 -82.5 -31t-37.5 -82q-7 -66 18.5 -102t87.5 -36q20 0 42 8.5t36 22.5z" />
    <glyph glyph-name="uni00A0" unicode="&#xa0;" horiz-adv-x="210" 
 />
    <glyph glyph-name="ellipsis" unicode="&#x2026;" horiz-adv-x="860" 
d="M170 -7q-22 0 -41 16.5t-19 42.5q0 25 17.5 42t42.5 17q23 0 41.5 -16.5t18.5 -42.5t-18.5 -42.5t-41.5 -16.5zM430 -7q-22 0 -41 16.5t-19 42.5q0 25 17.5 42t42.5 17q23 0 41.5 -16.5t18.5 -42.5t-18.5 -42.5t-41.5 -16.5zM690 -7q-22 0 -41 16.5t-19 42.5
q0 25 17.5 42t42.5 17q23 0 41.5 -16.5t18.5 -42.5t-18.5 -42.5t-41.5 -16.5z" />
    <glyph glyph-name="periodcentered" unicode="&#xb7;" horiz-adv-x="200" 
d="M100 291q-22 0 -41 16.5t-19 42.5q0 25 17.5 42t42.5 17q23 0 41.5 -16.5t18.5 -42.5t-18.5 -42.5t-41.5 -16.5z" />
    <glyph glyph-name="equal" unicode="=" horiz-adv-x="661" 
d="M102 418q-12 0 -12 12v60q0 12 12 12h457q12 0 12 -12v-60q0 -12 -12 -12h-457zM102 166q-12 0 -12 12v60q0 12 12 12h457q12 0 12 -12v-60q0 -12 -12 -12h-457z" />
    <glyph glyph-name="plus" unicode="+" horiz-adv-x="661" 
d="M372 358h177q12 0 12 -12v-60q0 -12 -12 -12h-177v-168q0 -12 -12 -12h-60q-12 0 -12 12v168h-176q-12 0 -12 12v60q0 12 12 12h176v168q0 12 12 12h60q12 0 12 -12v-168z" />
    <glyph glyph-name="slash" unicode="/" horiz-adv-x="425" 
d="M114 -79q-4 -11 -17 -11h-57q-13 0 -8 12l280 765q4 13 15 13h58q12 0 8 -12z" />
    <glyph glyph-name="underscore" unicode="_" horiz-adv-x="500" 
d="M0 -116v50h500v-50h-500z" />
    <glyph glyph-name="parenleft" unicode="(" horiz-adv-x="373" 
d="M332 -84q3 -4 0 -9.5t-9 -6.5l-75 -10q-6 0 -9 5q-33 37 -60.5 86.5t-47 106t-30.5 117t-11 119.5q0 52 9 107.5t26 110t41.5 106.5t56.5 96q4 6 9 6l77 -10q5 0 9.5 -3.5t1.5 -7.5q-33 -40 -60 -89t-46 -102t-29.5 -108t-10.5 -108q0 -51 10 -104.5t29.5 -106.5
t49.5 -103t69 -92z" />
    <glyph glyph-name="parenright" unicode=")" horiz-adv-x="373" 
d="M40 724q-3 4 0 9.5t9 6.5l76 10q6 0 9 -5q33 -38 60.5 -87.5t47 -105.5t30.5 -116.5t11 -119.5q0 -52 -9 -107.5t-26 -110t-41.5 -106.5t-56.5 -96q-4 -6 -9 -6l-78 10q-5 0 -9.5 3.5t-1.5 7.5q33 40 60 89t46.5 102t30 108t10.5 108q0 51 -10 104.5t-30 106.5t-50 103
t-69 92z" />
    <glyph glyph-name="numbersign" unicode="#" horiz-adv-x="621" 
d="M469 502h90q12 0 12 -12v-60q0 -12 -12 -12h-111l-41 -168h112q12 0 12 -12v-60q0 -12 -12 -12h-132l-38 -155q-4 -11 -17 -11h-37q-13 0 -8 12l38 154h-119l-38 -155q-4 -11 -17 -11h-37q-13 0 -8 12l38 154h-82q-12 0 -12 12v60q0 12 12 12h103l41 168h-104
q-12 0 -12 12v60q0 12 12 12h125l46 185q4 13 15 13h38q12 0 8 -12l-46 -186h120l46 185q4 13 15 13h38q12 0 8 -12zM226 250h120l41 168h-120z" />
    <glyph glyph-name="dollar" unicode="$" horiz-adv-x="541" 
d="M311 643q16 0 33.5 -3t34 -6.5t29.5 -8.5t21 -9q13 -8 15.5 -12.5t2.5 -14.5t-6 -26t-11 -24t-17 -6.5t-24 7.5q-26 12 -56.5 17.5t-57.5 5.5q-53 0 -88 -20t-35 -68q0 -35 27.5 -52.5t96.5 -26.5q55 -7 97 -17.5t70 -29t42.5 -46.5t14.5 -70q0 -38 -16 -68t-42 -51.5
t-60 -34t-71 -14.5v-48q0 -12 -6.5 -19.5t-16.5 -7.5h-36q-11 0 -17.5 6t-6.5 20v46q-46 1 -81.5 9.5t-49.5 19.5q-6 5 -10.5 11.5t-4.5 14.5t4.5 23t15.5 24q5 5 14.5 6.5t18.5 -3.5q51 -25 134 -25q62 0 101 23t39 68q0 23 -11 37t-32 23t-50.5 14.5t-66.5 10.5
q-46 6 -80.5 17.5t-58 30t-35.5 46.5t-12 68q0 70 44.5 109.5t121.5 49.5v57q0 12 7 17.5t16 5.5h33q26 0 26 -24v-52v0z" />
    <glyph glyph-name="percent" unicode="%" horiz-adv-x="726" 
d="M199 11q-7 -11 -18 -11h-56q-6 0 -8.5 3.5t0.5 8.5l406 675q8 13 19 13h56q13 0 6 -12zM190 715q29 0 53.5 -12t42 -32t27.5 -48t10 -59q0 -29 -10 -55t-28 -45.5t-43 -30.5t-55 -11q-71 0 -110.5 38.5t-39.5 104.5q0 32 11 59.5t31.5 47.5t48.5 31.5t62 11.5zM181 645
q-33 0 -53 -23.5t-20 -55.5t19.5 -55t53.5 -23q32 0 53 23t21 55t-20.5 55.5t-53.5 23.5zM547 282q28 0 53.5 -10.5t44.5 -29.5t30 -46.5t11 -60.5q0 -30 -9.5 -56.5t-28 -46t-45.5 -31t-61 -11.5q-33 0 -59.5 11t-44.5 30.5t-28 44.5t-10 54q0 28 10.5 55.5t29.5 49
t46 34.5t61 13zM547 212q-15 0 -28.5 -6t-24.5 -16t-17.5 -24.5t-6.5 -30.5q0 -35 21 -56.5t51 -21.5q35 0 55.5 22t20.5 56q0 30 -19.5 53.5t-51.5 23.5z" />
    <glyph glyph-name="asterisk" unicode="*" horiz-adv-x="504" 
d="M276 554l129 62q4 2 7.5 0t5.5 -7l20 -63q4 -9 -6 -12l-138 -27l99 -103q6 -8 -3 -15l-54 -39q-7 -6 -13 3l-68 123l-68 -126q-2 -4 -6.5 -4t-8.5 2l-53 39q-8 5 -1 14l95 102l-141 26q-5 1 -6.5 5t0.5 9l20 62q3 10 12 6l128 -60l-19 142q-1 5 2.5 7.5t8.5 2.5h66
q10 0 9 -10z" />
    <glyph glyph-name="germandbls" unicode="&#xdf;" horiz-adv-x="599" 
d="M274 75q2 8 10 5q19 -8 41 -12.5t42 -4.5q44 0 68 19.5t24 54.5q0 24 -14 39.5t-34.5 27t-45 23t-45 27.5t-34.5 39.5t-14 60.5q0 56 35 91.5t96 47.5q0 37 -8.5 63t-24 42.5t-36.5 24.5t-46 8q-23 0 -45 -8.5t-39.5 -29t-28 -55.5t-11.5 -88l-5 -439q0 -11 -12 -11h-62
q-11 0 -11 11l5 436q1 70 18 120.5t45.5 82.5t66.5 47t82 15q47 0 83 -16.5t60 -45.5t36.5 -68.5t12.5 -85.5v-65q0 -8 -8 -8q-54 0 -84.5 -15t-30.5 -48q0 -22 14 -37t35 -26.5t45.5 -23.5t45.5 -28.5t35 -40.5t14 -61q0 -75 -47.5 -116.5t-135.5 -41.5q-23 0 -49.5 4
t-49.5 12q-7 2 -6 9z" />
    <glyph glyph-name="Adieresis" unicode="&#xc4;" horiz-adv-x="587" 
d="M566 12q2 -6 -2 -9t-10 -3h-67q-9 0 -12 10l-45 141h-275l-44 -141q-3 -10 -12 -10h-66q-6 0 -10 3.5t-2 9.5l230 677q2 10 12 10h75q10 0 12 -10zM405 238l-108 349l-113 -349h221zM201 765q-20 0 -36.5 14.5t-16.5 37.5q0 22 15.5 37t37.5 15q20 0 36.5 -14.5
t16.5 -37.5t-16.5 -37.5t-36.5 -14.5zM401 765q-20 0 -36.5 14.5t-16.5 37.5q0 22 15.5 37t37.5 15q20 0 36.5 -14.5t16.5 -37.5t-16.5 -37.5t-36.5 -14.5z" />
    <glyph glyph-name="Aring" unicode="&#xc5;" horiz-adv-x="587" 
d="M566 12q2 -6 -2 -9t-10 -3h-67q-9 0 -12 10l-45 141h-275l-44 -141q-3 -10 -12 -10h-66q-6 0 -10 3.5t-2 9.5l230 677q2 10 12 10h75q10 0 12 -10zM405 238l-108 349l-113 -349h221zM302 769q-21 0 -40 6t-33.5 17.5t-23 28.5t-8.5 40q0 41 30.5 66.5t73.5 25.5
q21 0 40 -6.5t33.5 -18.5t23 -29t8.5 -39q0 -21 -8.5 -38t-23 -29t-33 -18t-39.5 -6zM302 813q23 0 38 13.5t15 33.5q0 21 -14.5 35t-39.5 14t-39 -14t-14 -34q0 -22 15.5 -35t38.5 -13z" />
    <glyph glyph-name="udieresis" unicode="&#xfc;" 
d="M58 482q0 12 13 12h62q10 0 10 -12l7 -286q3 -120 114 -120q53 0 94.5 24t63.5 53v329q0 12 12 12h62q13 0 13 -12v-470q0 -12 -12 -12h-61q-12 0 -12 12v45q-31 -30 -76.5 -47t-95.5 -17q-90 0 -138.5 54t-50.5 153zM187 559q-20 0 -36.5 14.5t-16.5 37.5q0 22 15.5 37
t37.5 15q20 0 36.5 -14.5t16.5 -37.5t-16.5 -37.5t-36.5 -14.5zM387 559q-20 0 -36.5 14.5t-16.5 37.5q0 22 15.5 37t37.5 15q20 0 36.5 -14.5t16.5 -37.5t-16.5 -37.5t-36.5 -14.5z" />
    <glyph glyph-name="Eacute" unicode="&#xc9;" horiz-adv-x="558" 
d="M498 12q0 -12 -12 -12h-396q-12 0 -12 12l-7 675q0 13 12 13h413q12 0 12 -13v-57q0 -12 -12 -12h-335l2 -230h297q12 0 12 -12v-60q0 -12 -12 -12h-296l2 -222h320q12 0 12 -12v-58zM304 778q-10 -8 -18.5 -11t-21.5 -3h-37q-9 0 -12 5.5t5 15.5l88 103q7 8 14.5 12.5
t23.5 4.5h78q13 0 17 -7.5t-5 -14.5z" />
    <glyph glyph-name="Ntilde" unicode="&#xd1;" horiz-adv-x="666" 
d="M588 11q0 -11 -12 -11h-62q-8 0 -12 7l-336 519l-4 -515q0 -11 -12 -11h-62q-13 0 -13 12v675q0 13 12 13h69q7 0 10 -7l338 -523v518q0 12 11 12h67q12 0 12 -11zM499 890q9 0 11.5 -5.5t2.5 -16.5q0 -8 -5 -24t-16.5 -31.5t-30.5 -27.5t-47 -12q-24 0 -43.5 6t-36.5 13
l-33 13t-32 6q-28 0 -41 -32q-3 -11 -15 -11h-35q-17 0 -17 22q0 6 5.5 22.5t18 34.5t33 32t50.5 14q24 0 43.5 -6t36.5 -13.5t32 -13.5t32 -6q16 0 23.5 5.5t12.5 20.5q3 10 15 10h36z" />
    <glyph glyph-name="Odieresis" unicode="&#xd6;" horiz-adv-x="680" 
d="M367 703q73 0 124.5 -34t84.5 -88t48.5 -122t15.5 -136q0 -70 -20 -131.5t-57 -107.5t-89.5 -72.5t-117.5 -26.5q-75 0 -134 25.5t-99.5 71.5t-61.5 110t-21 140q0 78 22 145.5t63.5 118t102.5 79t139 28.5zM343 70q100 0 153 67.5t53 182.5q0 53 -10 106t-33 95
t-59.5 68t-89.5 26q-54 0 -96.5 -22.5t-71 -61.5t-43.5 -92t-15 -114q0 -65 17 -113t46 -79.5t67.5 -47t81.5 -15.5zM250 765q-20 0 -36.5 14.5t-16.5 37.5q0 22 15.5 37t37.5 15q20 0 36.5 -14.5t16.5 -37.5t-16.5 -37.5t-36.5 -14.5zM450 765q-20 0 -36.5 14.5t-16.5 37.5
q0 22 15.5 37t37.5 15q20 0 36.5 -14.5t16.5 -37.5t-16.5 -37.5t-36.5 -14.5z" />
    <glyph glyph-name="Udieresis" unicode="&#xdc;" horiz-adv-x="660" 
d="M590 252q2 -144 -62 -212t-194 -68q-61 0 -110 18.5t-83 54.5t-52.5 88t-18.5 119v435q0 13 11 13h66q12 0 12 -13v-448q0 -80 47 -129t128 -49q48 0 80.5 13t52 36.5t28 56.5t8.5 72l-5 448q0 13 12 13h64q11 0 11 -13zM230 765q-20 0 -36.5 14.5t-16.5 37.5
q0 22 15.5 37t37.5 15q20 0 36.5 -14.5t16.5 -37.5t-16.5 -37.5t-36.5 -14.5zM430 765q-20 0 -36.5 14.5t-16.5 37.5q0 22 15.5 37t37.5 15q20 0 36.5 -14.5t16.5 -37.5t-16.5 -37.5t-36.5 -14.5z" />
    <glyph glyph-name="aacute" unicode="&#xe1;" horiz-adv-x="501" 
d="M441 12q0 -12 -12 -12h-60q-5 0 -8 9q-20 -10 -55.5 -18t-70.5 -8q-42 0 -78 11.5t-62 32.5t-40.5 49.5t-14.5 62.5q0 45 16 77.5t45 54.5t68.5 32.5t86.5 10.5q26 0 53 -2.5t44 -4.5q0 128 -99 128q-35 0 -63.5 -14.5t-39.5 -54.5h-71q-6 0 -9.5 2t-3.5 10q0 15 12 43.5
t39 52.5q28 24 64.5 35.5t74.5 11.5q46 0 80.5 -14.5t57 -41t33.5 -63t11 -80.5zM353 227q-13 3 -40.5 6t-51.5 3q-60 0 -95.5 -24.5t-35.5 -68.5q0 -34 30 -55.5t94 -21.5q29 0 56 8t43 16v137zM267 572q-10 -8 -18.5 -11t-21.5 -3h-37q-9 0 -12 5.5t5 15.5l88 103
q7 8 14.5 12.5t23.5 4.5h78q13 0 17 -7.5t-5 -14.5z" />
    <glyph glyph-name="agrave" unicode="&#xe0;" horiz-adv-x="501" 
d="M441 12q0 -12 -12 -12h-60q-5 0 -8 9q-20 -10 -55.5 -18t-70.5 -8q-42 0 -78 11.5t-62 32.5t-40.5 49.5t-14.5 62.5q0 45 16 77.5t45 54.5t68.5 32.5t86.5 10.5q26 0 53 -2.5t44 -4.5q0 128 -99 128q-35 0 -63.5 -14.5t-39.5 -54.5h-71q-6 0 -9.5 2t-3.5 10q0 15 12 43.5
t39 52.5q28 24 64.5 35.5t74.5 11.5q46 0 80.5 -14.5t57 -41t33.5 -63t11 -80.5zM353 227q-13 3 -40.5 6t-51.5 3q-60 0 -95.5 -24.5t-35.5 -68.5q0 -34 30 -55.5t94 -21.5q29 0 56 8t43 16v137zM113 677q-9 7 -5 14.5t17 7.5h83q17 0 24.5 -4.5t13.5 -12.5l89 -103
q8 -9 4.5 -15t-12.5 -6h-36q-14 0 -22 3t-18 11z" />
    <glyph glyph-name="acircumflex" unicode="&#xe2;" horiz-adv-x="501" 
d="M441 12q0 -12 -12 -12h-60q-5 0 -8 9q-20 -10 -55.5 -18t-70.5 -8q-42 0 -78 11.5t-62 32.5t-40.5 49.5t-14.5 62.5q0 45 16 77.5t45 54.5t68.5 32.5t86.5 10.5q26 0 53 -2.5t44 -4.5q0 128 -99 128q-35 0 -63.5 -14.5t-39.5 -54.5h-71q-6 0 -9.5 2t-3.5 10q0 15 12 43.5
t39 52.5q28 24 64.5 35.5t74.5 11.5q46 0 80.5 -14.5t57 -41t33.5 -63t11 -80.5zM353 227q-13 3 -40.5 6t-51.5 3q-60 0 -95.5 -24.5t-35.5 -68.5q0 -34 30 -55.5t94 -21.5q29 0 56 8t43 16v137zM262 625l-63 -53q-17 -14 -40 -14h-27q-9 0 -12 5.5t5 15.5l108 123
q15 17 28 17h2q14 0 28 -17l109 -123q8 -8 4.5 -14.5t-12.5 -6.5h-29q-14 0 -22.5 3t-17.5 11z" />
    <glyph glyph-name="adieresis" unicode="&#xe4;" horiz-adv-x="501" 
d="M441 12q0 -12 -12 -12h-60q-5 0 -8 9q-20 -10 -55.5 -18t-70.5 -8q-42 0 -78 11.5t-62 32.5t-40.5 49.5t-14.5 62.5q0 45 16 77.5t45 54.5t68.5 32.5t86.5 10.5q26 0 53 -2.5t44 -4.5q0 128 -99 128q-35 0 -63.5 -14.5t-39.5 -54.5h-71q-6 0 -9.5 2t-3.5 10q0 15 12 43.5
t39 52.5q28 24 64.5 35.5t74.5 11.5q46 0 80.5 -14.5t57 -41t33.5 -63t11 -80.5zM353 227q-13 3 -40.5 6t-51.5 3q-60 0 -95.5 -24.5t-35.5 -68.5q0 -34 30 -55.5t94 -21.5q29 0 56 8t43 16v137zM159 559q-20 0 -36.5 14.5t-16.5 37.5q0 22 15.5 37t37.5 15q20 0 36.5 -14.5
t16.5 -37.5t-16.5 -37.5t-36.5 -14.5zM359 559q-20 0 -36.5 14.5t-16.5 37.5q0 22 15.5 37t37.5 15q20 0 36.5 -14.5t16.5 -37.5t-16.5 -37.5t-36.5 -14.5z" />
    <glyph glyph-name="atilde" unicode="&#xe3;" horiz-adv-x="501" 
d="M441 12q0 -12 -12 -12h-60q-5 0 -8 9q-20 -10 -55.5 -18t-70.5 -8q-42 0 -78 11.5t-62 32.5t-40.5 49.5t-14.5 62.5q0 45 16 77.5t45 54.5t68.5 32.5t86.5 10.5q26 0 53 -2.5t44 -4.5q0 128 -99 128q-35 0 -63.5 -14.5t-39.5 -54.5h-71q-6 0 -9.5 2t-3.5 10q0 15 12 43.5
t39 52.5q28 24 64.5 35.5t74.5 11.5q46 0 80.5 -14.5t57 -41t33.5 -63t11 -80.5zM353 227q-13 3 -40.5 6t-51.5 3q-60 0 -95.5 -24.5t-35.5 -68.5q0 -34 30 -55.5t94 -21.5q29 0 56 8t43 16v137zM420 684q9 0 11.5 -5.5t2.5 -16.5q0 -8 -5 -24t-16.5 -31.5t-30.5 -27.5
t-47 -12q-24 0 -43.5 6t-36.5 13l-33 13t-32 6q-28 0 -41 -32q-3 -11 -15 -11h-35q-17 0 -17 22q0 6 5.5 22.5t18 34.5t33 32t50.5 14q24 0 43.5 -6t36.5 -13.5t32 -13.5t32 -6q16 0 23.5 5.5t12.5 20.5q3 10 15 10h36z" />
    <glyph glyph-name="aring" unicode="&#xe5;" horiz-adv-x="501" 
d="M441 12q0 -12 -12 -12h-60q-5 0 -8 9q-20 -10 -55.5 -18t-70.5 -8q-42 0 -78 11.5t-62 32.5t-40.5 49.5t-14.5 62.5q0 45 16 77.5t45 54.5t68.5 32.5t86.5 10.5q26 0 53 -2.5t44 -4.5q0 128 -99 128q-35 0 -63.5 -14.5t-39.5 -54.5h-71q-6 0 -9.5 2t-3.5 10q0 15 12 43.5
t39 52.5q28 24 64.5 35.5t74.5 11.5q46 0 80.5 -14.5t57 -41t33.5 -63t11 -80.5zM353 227q-13 3 -40.5 6t-51.5 3q-60 0 -95.5 -24.5t-35.5 -68.5q0 -34 30 -55.5t94 -21.5q29 0 56 8t43 16v137zM261 563q-21 0 -40 6t-33.5 17.5t-23 28.5t-8.5 40q0 41 30.5 66.5t73.5 25.5
q21 0 40 -6.5t33.5 -18.5t23 -29t8.5 -39q0 -21 -8.5 -38t-23 -29t-33 -18t-39.5 -6zM261 607q23 0 38 13.5t15 33.5q0 21 -14.5 35t-39.5 14t-39 -14t-14 -34q0 -22 15.5 -35t38.5 -13z" />
    <glyph glyph-name="eacute" unicode="&#xe9;" horiz-adv-x="469" 
d="M131 301q17 -3 48.5 -5.5t58.5 -2.5q113 0 113 75q0 29 -22.5 49.5t-67.5 20.5q-54 0 -88 -37t-42 -100zM130 224q1 -32 10.5 -60.5t28.5 -49.5t47.5 -33.5t68.5 -12.5q34 0 59.5 5t51.5 14q4 2 8 0t4 -7l5 -60q0 -6 -3 -7q-21 -13 -54.5 -21t-78.5 -8q-52 0 -95.5 18
t-75 52.5t-49 85.5t-17.5 116q0 51 14.5 98.5t43 84t71.5 58.5t101 22q44 0 75 -13t51 -34.5t29 -50.5t9 -61q0 -66 -48 -105.5t-135 -39.5q-32 0 -66 2.5t-55 6.5zM275 572q-10 -8 -18.5 -11t-21.5 -3h-37q-9 0 -12 5.5t5 15.5l88 103q7 8 14.5 12.5t23.5 4.5h78
q13 0 17 -7.5t-5 -14.5z" />
    <glyph glyph-name="egrave" unicode="&#xe8;" horiz-adv-x="469" 
d="M131 301q17 -3 48.5 -5.5t58.5 -2.5q113 0 113 75q0 29 -22.5 49.5t-67.5 20.5q-54 0 -88 -37t-42 -100zM130 224q1 -32 10.5 -60.5t28.5 -49.5t47.5 -33.5t68.5 -12.5q34 0 59.5 5t51.5 14q4 2 8 0t4 -7l5 -60q0 -6 -3 -7q-21 -13 -54.5 -21t-78.5 -8q-52 0 -95.5 18
t-75 52.5t-49 85.5t-17.5 116q0 51 14.5 98.5t43 84t71.5 58.5t101 22q44 0 75 -13t51 -34.5t29 -50.5t9 -61q0 -66 -48 -105.5t-135 -39.5q-32 0 -66 2.5t-55 6.5zM110 677q-9 7 -5 14.5t17 7.5h83q17 0 24.5 -4.5t13.5 -12.5l89 -103q8 -9 4.5 -15t-12.5 -6h-36
q-14 0 -22 3t-18 11z" />
    <glyph glyph-name="ecircumflex" unicode="&#xea;" horiz-adv-x="469" 
d="M131 301q17 -3 48.5 -5.5t58.5 -2.5q113 0 113 75q0 29 -22.5 49.5t-67.5 20.5q-54 0 -88 -37t-42 -100zM130 224q1 -32 10.5 -60.5t28.5 -49.5t47.5 -33.5t68.5 -12.5q34 0 59.5 5t51.5 14q4 2 8 0t4 -7l5 -60q0 -6 -3 -7q-21 -13 -54.5 -21t-78.5 -8q-52 0 -95.5 18
t-75 52.5t-49 85.5t-17.5 116q0 51 14.5 98.5t43 84t71.5 58.5t101 22q44 0 75 -13t51 -34.5t29 -50.5t9 -61q0 -66 -48 -105.5t-135 -39.5q-32 0 -66 2.5t-55 6.5zM265 625l-63 -53q-17 -14 -40 -14h-27q-9 0 -12 5.5t5 15.5l108 123q15 17 28 17h2q14 0 28 -17l109 -123
q8 -8 4.5 -14.5t-12.5 -6.5h-29q-14 0 -22.5 3t-17.5 11z" />
    <glyph glyph-name="edieresis" unicode="&#xeb;" horiz-adv-x="469" 
d="M131 301q17 -3 48.5 -5.5t58.5 -2.5q113 0 113 75q0 29 -22.5 49.5t-67.5 20.5q-54 0 -88 -37t-42 -100zM130 224q1 -32 10.5 -60.5t28.5 -49.5t47.5 -33.5t68.5 -12.5q34 0 59.5 5t51.5 14q4 2 8 0t4 -7l5 -60q0 -6 -3 -7q-21 -13 -54.5 -21t-78.5 -8q-52 0 -95.5 18
t-75 52.5t-49 85.5t-17.5 116q0 51 14.5 98.5t43 84t71.5 58.5t101 22q44 0 75 -13t51 -34.5t29 -50.5t9 -61q0 -66 -48 -105.5t-135 -39.5q-32 0 -66 2.5t-55 6.5zM165 559q-20 0 -36.5 14.5t-16.5 37.5q0 22 15.5 37t37.5 15q20 0 36.5 -14.5t16.5 -37.5t-16.5 -37.5
t-36.5 -14.5zM365 559q-20 0 -36.5 14.5t-16.5 37.5q0 22 15.5 37t37.5 15q20 0 36.5 -14.5t16.5 -37.5t-16.5 -37.5t-36.5 -14.5z" />
    <glyph glyph-name="iacute" unicode="&#xed;" horiz-adv-x="217" 
d="M140 461q12 0 12 -13v-437q0 -11 -13 -11h-62q-12 0 -12 12v436q0 13 12 13h63zM149 572q-10 -8 -18.5 -11t-21.5 -3h-37q-9 0 -12 5.5t5 15.5l88 103q7 8 14.5 12.5t23.5 4.5h78q13 0 17 -7.5t-5 -14.5z" />
    <glyph glyph-name="igrave" unicode="&#xec;" horiz-adv-x="217" 
d="M140 461q12 0 12 -13v-437q0 -11 -13 -11h-62q-12 0 -12 12v436q0 13 12 13h63zM-69 677q-9 7 -5 14.5t17 7.5h83q17 0 24.5 -4.5t13.5 -12.5l89 -103q8 -9 4.5 -15t-12.5 -6h-36q-14 0 -22 3t-18 11z" />
    <glyph glyph-name="icircumflex" unicode="&#xee;" horiz-adv-x="217" 
d="M140 461q12 0 12 -13v-437q0 -11 -13 -11h-62q-12 0 -12 12v436q0 13 12 13h63zM113 625l-63 -53q-17 -14 -40 -14h-27q-9 0 -12 5.5t5 15.5l108 123q15 17 28 17h2q14 0 28 -17l109 -123q8 -8 4.5 -14.5t-12.5 -6.5h-29q-14 0 -22.5 3t-17.5 11z" />
    <glyph glyph-name="idieresis" unicode="&#xef;" horiz-adv-x="217" 
d="M140 461q12 0 12 -13v-437q0 -11 -13 -11h-62q-12 0 -12 12v436q0 13 12 13h63zM10 559q-20 0 -36.5 14.5t-16.5 37.5q0 22 15.5 37t37.5 15q20 0 36.5 -14.5t16.5 -37.5t-16.5 -37.5t-36.5 -14.5zM210 559q-20 0 -36.5 14.5t-16.5 37.5q0 22 15.5 37t37.5 15
q20 0 36.5 -14.5t16.5 -37.5t-16.5 -37.5t-36.5 -14.5z" />
    <glyph glyph-name="ntilde" unicode="&#xf1;" 
d="M312 419q-20 0 -41.5 -7t-42.5 -19t-40.5 -28t-35.5 -33v-320q0 -12 -12 -12h-62q-13 0 -13 12v470q0 12 12 12h61q12 0 12 -12v-53q34 29 77 51t95 22q47 0 82.5 -16.5t59 -46t36 -71t12.5 -91.5l2 -265q0 -12 -12 -12h-63q-10 0 -10 12l-3 269q-1 64 -30.5 101
t-83.5 37zM455 684q9 0 11.5 -5.5t2.5 -16.5q0 -8 -5 -24t-16.5 -31.5t-30.5 -27.5t-47 -12q-24 0 -43.5 6t-36.5 13l-33 13t-32 6q-28 0 -41 -32q-3 -11 -15 -11h-35q-17 0 -17 22q0 6 5.5 22.5t18 34.5t33 32t50.5 14q24 0 43.5 -6t36.5 -13.5t32 -13.5t32 -6
q16 0 23.5 5.5t12.5 20.5q3 10 15 10h36z" />
    <glyph glyph-name="oacute" unicode="&#xf3;" horiz-adv-x="544" 
d="M504 252q0 -54 -16.5 -102.5t-46 -85t-70 -58t-88.5 -21.5q-56 0 -101 19t-76.5 53.5t-48.5 82.5t-17 106q0 57 18.5 106.5t51.5 86.5t78.5 58.5t98.5 21.5q48 0 88 -18.5t68.5 -53.5t44.5 -84.5t16 -110.5zM413 255q0 90 -32 133.5t-101 43.5q-33 0 -60 -13.5t-47 -38
t-31 -59t-11 -76.5q0 -46 11.5 -78.5t32 -53.5t47 -31t56.5 -10q32 0 57 14.5t42.5 39.5t26.5 58.5t9 70.5zM307 572q-10 -8 -18.5 -11t-21.5 -3h-37q-9 0 -12 5.5t5 15.5l88 103q7 8 14.5 12.5t23.5 4.5h78q13 0 17 -7.5t-5 -14.5z" />
    <glyph glyph-name="ograve" unicode="&#xf2;" horiz-adv-x="544" 
d="M504 252q0 -54 -16.5 -102.5t-46 -85t-70 -58t-88.5 -21.5q-56 0 -101 19t-76.5 53.5t-48.5 82.5t-17 106q0 57 18.5 106.5t51.5 86.5t78.5 58.5t98.5 21.5q48 0 88 -18.5t68.5 -53.5t44.5 -84.5t16 -110.5zM413 255q0 90 -32 133.5t-101 43.5q-33 0 -60 -13.5t-47 -38
t-31 -59t-11 -76.5q0 -46 11.5 -78.5t32 -53.5t47 -31t56.5 -10q32 0 57 14.5t42.5 39.5t26.5 58.5t9 70.5zM123 677q-9 7 -5 14.5t17 7.5h83q17 0 24.5 -4.5t13.5 -12.5l89 -103q8 -9 4.5 -15t-12.5 -6h-36q-14 0 -22 3t-18 11z" />
    <glyph glyph-name="ocircumflex" unicode="&#xf4;" horiz-adv-x="544" 
d="M504 252q0 -54 -16.5 -102.5t-46 -85t-70 -58t-88.5 -21.5q-56 0 -101 19t-76.5 53.5t-48.5 82.5t-17 106q0 57 18.5 106.5t51.5 86.5t78.5 58.5t98.5 21.5q48 0 88 -18.5t68.5 -53.5t44.5 -84.5t16 -110.5zM413 255q0 90 -32 133.5t-101 43.5q-33 0 -60 -13.5t-47 -38
t-31 -59t-11 -76.5q0 -46 11.5 -78.5t32 -53.5t47 -31t56.5 -10q32 0 57 14.5t42.5 39.5t26.5 58.5t9 70.5zM282 625l-63 -53q-17 -14 -40 -14h-27q-9 0 -12 5.5t5 15.5l108 123q15 17 28 17h2q14 0 28 -17l109 -123q8 -8 4.5 -14.5t-12.5 -6.5h-29q-14 0 -22.5 3t-17.5 11z
" />
    <glyph glyph-name="odieresis" unicode="&#xf6;" horiz-adv-x="544" 
d="M504 252q0 -54 -16.5 -102.5t-46 -85t-70 -58t-88.5 -21.5q-56 0 -101 19t-76.5 53.5t-48.5 82.5t-17 106q0 57 18.5 106.5t51.5 86.5t78.5 58.5t98.5 21.5q48 0 88 -18.5t68.5 -53.5t44.5 -84.5t16 -110.5zM413 255q0 90 -32 133.5t-101 43.5q-33 0 -60 -13.5t-47 -38
t-31 -59t-11 -76.5q0 -46 11.5 -78.5t32 -53.5t47 -31t56.5 -10q32 0 57 14.5t42.5 39.5t26.5 58.5t9 70.5zM182 559q-20 0 -36.5 14.5t-16.5 37.5q0 22 15.5 37t37.5 15q20 0 36.5 -14.5t16.5 -37.5t-16.5 -37.5t-36.5 -14.5zM382 559q-20 0 -36.5 14.5t-16.5 37.5
q0 22 15.5 37t37.5 15q20 0 36.5 -14.5t16.5 -37.5t-16.5 -37.5t-36.5 -14.5z" />
    <glyph glyph-name="otilde" unicode="&#xf5;" horiz-adv-x="544" 
d="M504 252q0 -54 -16.5 -102.5t-46 -85t-70 -58t-88.5 -21.5q-56 0 -101 19t-76.5 53.5t-48.5 82.5t-17 106q0 57 18.5 106.5t51.5 86.5t78.5 58.5t98.5 21.5q48 0 88 -18.5t68.5 -53.5t44.5 -84.5t16 -110.5zM413 255q0 90 -32 133.5t-101 43.5q-33 0 -60 -13.5t-47 -38
t-31 -59t-11 -76.5q0 -46 11.5 -78.5t32 -53.5t47 -31t56.5 -10q32 0 57 14.5t42.5 39.5t26.5 58.5t9 70.5zM444 684q9 0 11.5 -5.5t2.5 -16.5q0 -8 -5 -24t-16.5 -31.5t-30.5 -27.5t-47 -12q-24 0 -43.5 6t-36.5 13l-33 13t-32 6q-28 0 -41 -32q-3 -11 -15 -11h-35
q-17 0 -17 22q0 6 5.5 22.5t18 34.5t33 32t50.5 14q24 0 43.5 -6t36.5 -13.5t32 -13.5t32 -6q16 0 23.5 5.5t12.5 20.5q3 10 15 10h36z" />
    <glyph glyph-name="uacute" unicode="&#xfa;" 
d="M58 482q0 12 13 12h62q10 0 10 -12l7 -286q3 -120 114 -120q53 0 94.5 24t63.5 53v329q0 12 12 12h62q13 0 13 -12v-470q0 -12 -12 -12h-61q-12 0 -12 12v45q-31 -30 -76.5 -47t-95.5 -17q-90 0 -138.5 54t-50.5 153zM312 572q-10 -8 -18.5 -11t-21.5 -3h-37
q-9 0 -12 5.5t5 15.5l88 103q7 8 14.5 12.5t23.5 4.5h78q13 0 17 -7.5t-5 -14.5z" />
    <glyph glyph-name="ugrave" unicode="&#xf9;" 
d="M58 482q0 12 13 12h62q10 0 10 -12l7 -286q3 -120 114 -120q53 0 94.5 24t63.5 53v329q0 12 12 12h62q13 0 13 -12v-470q0 -12 -12 -12h-61q-12 0 -12 12v45q-31 -30 -76.5 -47t-95.5 -17q-90 0 -138.5 54t-50.5 153zM138 677q-9 7 -5 14.5t17 7.5h83q17 0 24.5 -4.5
t13.5 -12.5l89 -103q8 -9 4.5 -15t-12.5 -6h-36q-14 0 -22 3t-18 11z" />
    <glyph glyph-name="ucircumflex" unicode="&#xfb;" 
d="M58 482q0 12 13 12h62q10 0 10 -12l7 -286q3 -120 114 -120q53 0 94.5 24t63.5 53v329q0 12 12 12h62q13 0 13 -12v-470q0 -12 -12 -12h-61q-12 0 -12 12v45q-31 -30 -76.5 -47t-95.5 -17q-90 0 -138.5 54t-50.5 153zM287 625l-63 -53q-17 -14 -40 -14h-27q-9 0 -12 5.5
t5 15.5l108 123q15 17 28 17h2q14 0 28 -17l109 -123q8 -8 4.5 -14.5t-12.5 -6.5h-29q-14 0 -22.5 3t-17.5 11z" />
    <glyph glyph-name="cedilla" unicode="&#xb8;" horiz-adv-x="368" 
d="M160 -187q-10 -8 -18.5 -11t-21.5 -3h-37q-9 0 -12 5.5t5 15.5l88 103q7 8 14.5 12.5t23.5 4.5h78q13 0 17 -7.5t-5 -14.5z" />
    <glyph glyph-name="ccedilla" unicode="&#xe7;" horiz-adv-x="429" 
d="M389 26q0 -7 -5 -10q-20 -14 -49.5 -22.5t-66.5 -8.5q-54 0 -96 18t-71.5 49.5t-45 75.5t-15.5 97q0 68 19 123t53.5 93.5t82.5 59t106 20.5q22 0 43.5 -2.5t32.5 -6.5q6 -2 6 -7v-72q0 -7 -7 -7q-9 0 -24.5 5t-47.5 5q-41 0 -73 -15t-54.5 -42t-34.5 -65.5t-12 -85.5
q0 -34 8.5 -63t26 -50t44.5 -33t64 -12q28 0 54.5 7t44.5 16q5 2 8.5 0t3.5 -7zM190 -187q-10 -8 -18.5 -11t-21.5 -3h-37q-9 0 -12 5.5t5 15.5l88 103q7 8 14.5 12.5t23.5 4.5h78q13 0 17 -7.5t-5 -14.5z" />
    <glyph glyph-name="Ccedilla" unicode="&#xc7;" horiz-adv-x="543" 
d="M513 31q0 -7 -4 -9q-12 -8 -30.5 -14.5t-41 -11.5t-46.5 -8t-48 -3q-67 0 -122.5 21.5t-95.5 63.5t-62.5 103.5t-22.5 141.5q0 90 26.5 161t73 120.5t109.5 76t137 26.5q33 0 65 -3.5t48 -8.5q7 -3 7 -9v-68q0 -11 -10 -11q-9 0 -34.5 6.5t-64.5 6.5q-59 0 -107.5 -21
t-84 -58.5t-55 -90t-19.5 -116.5q0 -123 57 -186t176 -63q33 0 69 8.5t57 19.5q6 3 11 1t5 -10zM272 -187q-10 -8 -18.5 -11t-21.5 -3h-37q-9 0 -12 5.5t5 15.5l88 103q7 8 14.5 12.5t23.5 4.5h78q13 0 17 -7.5t-5 -14.5z" />
    <glyph glyph-name="ydieresis" unicode="&#xff;" horiz-adv-x="565" 
d="M501 61q1 -74 -15 -128.5t-45 -90.5t-69.5 -53.5t-88.5 -17.5q-23 0 -46.5 3t-40.5 8q-9 3 -9 12v60q0 13 14 13q8 0 22 -4.5t45 -4.5q69 0 108 43.5t38 140.5q-26 -29 -66.5 -43t-83.5 -14q-105 0 -154.5 56t-49.5 166v277q0 10 12 10h63q12 0 12 -12l-1 -275
q0 -33 5.5 -58.5t19.5 -43.5t39 -27.5t63 -9.5q42 0 79.5 21.5t60.5 56.5l-3 337q-1 11 10 11h63q13 0 14 -11zM183 559q-20 0 -36.5 14.5t-16.5 37.5q0 22 15.5 37t37.5 15q20 0 36.5 -14.5t16.5 -37.5t-16.5 -37.5t-36.5 -14.5zM383 559q-20 0 -36.5 14.5t-16.5 37.5
q0 22 15.5 37t37.5 15q20 0 36.5 -14.5t16.5 -37.5t-16.5 -37.5t-36.5 -14.5z" />
    <glyph glyph-name="Ydieresis" unicode="&#x178;" horiz-adv-x="528" 
d="M511 688l-46 -91.5l-52.5 -102.5l-56.5 -107.5l-57 -106.5l2 -269q0 -11 -12 -11h-64q-12 0 -12 11v269l-107.5 219.5l-88.5 188.5q-3 6 1.5 9t10.5 3h72q9 0 11 -8l146 -331l161 331q4 8 12 8h68q6 0 10.5 -3t1.5 -9zM167 765q-20 0 -36.5 14.5t-16.5 37.5q0 22 15.5 37
t37.5 15q20 0 36.5 -14.5t16.5 -37.5t-16.5 -37.5t-36.5 -14.5zM367 765q-20 0 -36.5 14.5t-16.5 37.5q0 22 15.5 37t37.5 15q20 0 36.5 -14.5t16.5 -37.5t-16.5 -37.5t-36.5 -14.5z" />
    <glyph glyph-name="Acircumflex" unicode="&#xc2;" horiz-adv-x="587" 
d="M566 12q2 -6 -2 -9t-10 -3h-67q-9 0 -12 10l-45 141h-275l-44 -141q-3 -10 -12 -10h-66q-6 0 -10 3.5t-2 9.5l230 677q2 10 12 10h75q10 0 12 -10zM405 238l-108 349l-113 -349h221zM299 831l-63 -53q-17 -14 -40 -14h-27q-9 0 -12 5.5t5 15.5l108 123q15 17 28 17h2
q14 0 28 -17l109 -123q8 -8 4.5 -14.5t-12.5 -6.5h-29q-14 0 -22.5 3t-17.5 11z" />
    <glyph glyph-name="Ecircumflex" unicode="&#xca;" horiz-adv-x="558" 
d="M498 12q0 -12 -12 -12h-396q-12 0 -12 12l-7 675q0 13 12 13h413q12 0 12 -13v-57q0 -12 -12 -12h-335l2 -230h297q12 0 12 -12v-60q0 -12 -12 -12h-296l2 -222h320q12 0 12 -12v-58zM289 831l-63 -53q-17 -14 -40 -14h-27q-9 0 -12 5.5t5 15.5l108 123q15 17 28 17h2
q14 0 28 -17l109 -123q8 -8 4.5 -14.5t-12.5 -6.5h-29q-14 0 -22.5 3t-17.5 11z" />
    <glyph glyph-name="Aacute" unicode="&#xc1;" horiz-adv-x="587" 
d="M566 12q2 -6 -2 -9t-10 -3h-67q-9 0 -12 10l-45 141h-275l-44 -141q-3 -10 -12 -10h-66q-6 0 -10 3.5t-2 9.5l230 677q2 10 12 10h75q10 0 12 -10zM405 238l-108 349l-113 -349h221zM330 778q-10 -8 -18.5 -11t-21.5 -3h-37q-9 0 -12 5.5t5 15.5l88 103q7 8 14.5 12.5
t23.5 4.5h78q13 0 17 -7.5t-5 -14.5z" />
    <glyph glyph-name="Edieresis" unicode="&#xcb;" horiz-adv-x="558" 
d="M498 12q0 -12 -12 -12h-396q-12 0 -12 12l-7 675q0 13 12 13h413q12 0 12 -13v-57q0 -12 -12 -12h-335l2 -230h297q12 0 12 -12v-60q0 -12 -12 -12h-296l2 -222h320q12 0 12 -12v-58zM189 765q-20 0 -36.5 14.5t-16.5 37.5q0 22 15.5 37t37.5 15q20 0 36.5 -14.5
t16.5 -37.5t-16.5 -37.5t-36.5 -14.5zM389 765q-20 0 -36.5 14.5t-16.5 37.5q0 22 15.5 37t37.5 15q20 0 36.5 -14.5t16.5 -37.5t-16.5 -37.5t-36.5 -14.5z" />
    <glyph glyph-name="Egrave" unicode="&#xc8;" horiz-adv-x="558" 
d="M498 12q0 -12 -12 -12h-396q-12 0 -12 12l-7 675q0 13 12 13h413q12 0 12 -13v-57q0 -12 -12 -12h-335l2 -230h297q12 0 12 -12v-60q0 -12 -12 -12h-296l2 -222h320q12 0 12 -12v-58zM140 883q-9 7 -5 14.5t17 7.5h83q17 0 24.5 -4.5t13.5 -12.5l89 -103q8 -9 4.5 -15
t-12.5 -6h-36q-14 0 -22 3t-18 11z" />
    <glyph glyph-name="Iacute" unicode="&#xcd;" horiz-adv-x="240" 
d="M165 11q0 -11 -13 -11h-65q-12 0 -12 12v675q0 13 12 13h66q11 0 11 -12zM162 778q-10 -8 -18.5 -11t-21.5 -3h-37q-9 0 -12 5.5t5 15.5l88 103q7 8 14.5 12.5t23.5 4.5h78q13 0 17 -7.5t-5 -14.5z" />
    <glyph glyph-name="Icircumflex" unicode="&#xce;" horiz-adv-x="240" 
d="M165 11q0 -11 -13 -11h-65q-12 0 -12 12v675q0 13 12 13h66q11 0 11 -12zM121 831l-63 -53q-17 -14 -40 -14h-27q-9 0 -12 5.5t5 15.5l108 123q15 17 28 17h2q14 0 28 -17l109 -123q8 -8 4.5 -14.5t-12.5 -6.5h-29q-14 0 -22.5 3t-17.5 11z" />
    <glyph glyph-name="Idieresis" unicode="&#xcf;" horiz-adv-x="240" 
d="M165 11q0 -11 -13 -11h-65q-12 0 -12 12v675q0 13 12 13h66q11 0 11 -12zM21 765q-20 0 -36.5 14.5t-16.5 37.5q0 22 15.5 37t37.5 15q20 0 36.5 -14.5t16.5 -37.5t-16.5 -37.5t-36.5 -14.5zM221 765q-20 0 -36.5 14.5t-16.5 37.5q0 22 15.5 37t37.5 15q20 0 36.5 -14.5
t16.5 -37.5t-16.5 -37.5t-36.5 -14.5z" />
    <glyph glyph-name="Igrave" unicode="&#xcc;" horiz-adv-x="240" 
d="M165 11q0 -11 -13 -11h-65q-12 0 -12 12v675q0 13 12 13h66q11 0 11 -12zM-59 883q-9 7 -5 14.5t17 7.5h83q17 0 24.5 -4.5t13.5 -12.5l89 -103q8 -9 4.5 -15t-12.5 -6h-36q-14 0 -22 3t-18 11z" />
    <glyph glyph-name="Oacute" unicode="&#xd3;" horiz-adv-x="680" 
d="M367 703q73 0 124.5 -34t84.5 -88t48.5 -122t15.5 -136q0 -70 -20 -131.5t-57 -107.5t-89.5 -72.5t-117.5 -26.5q-75 0 -134 25.5t-99.5 71.5t-61.5 110t-21 140q0 78 22 145.5t63.5 118t102.5 79t139 28.5zM343 70q100 0 153 67.5t53 182.5q0 53 -10 106t-33 95
t-59.5 68t-89.5 26q-54 0 -96.5 -22.5t-71 -61.5t-43.5 -92t-15 -114q0 -65 17 -113t46 -79.5t67.5 -47t81.5 -15.5zM375 778q-10 -8 -18.5 -11t-21.5 -3h-37q-9 0 -12 5.5t5 15.5l88 103q7 8 14.5 12.5t23.5 4.5h78q13 0 17 -7.5t-5 -14.5z" />
    <glyph glyph-name="Ocircumflex" unicode="&#xd4;" horiz-adv-x="680" 
d="M367 703q73 0 124.5 -34t84.5 -88t48.5 -122t15.5 -136q0 -70 -20 -131.5t-57 -107.5t-89.5 -72.5t-117.5 -26.5q-75 0 -134 25.5t-99.5 71.5t-61.5 110t-21 140q0 78 22 145.5t63.5 118t102.5 79t139 28.5zM343 70q100 0 153 67.5t53 182.5q0 53 -10 106t-33 95
t-59.5 68t-89.5 26q-54 0 -96.5 -22.5t-71 -61.5t-43.5 -92t-15 -114q0 -65 17 -113t46 -79.5t67.5 -47t81.5 -15.5zM350 831l-63 -53q-17 -14 -40 -14h-27q-9 0 -12 5.5t5 15.5l108 123q15 17 28 17h2q14 0 28 -17l109 -123q8 -8 4.5 -14.5t-12.5 -6.5h-29q-14 0 -22.5 3
t-17.5 11z" />
    <glyph glyph-name="Ograve" unicode="&#xd2;" horiz-adv-x="680" 
d="M367 703q73 0 124.5 -34t84.5 -88t48.5 -122t15.5 -136q0 -70 -20 -131.5t-57 -107.5t-89.5 -72.5t-117.5 -26.5q-75 0 -134 25.5t-99.5 71.5t-61.5 110t-21 140q0 78 22 145.5t63.5 118t102.5 79t139 28.5zM343 70q100 0 153 67.5t53 182.5q0 53 -10 106t-33 95
t-59.5 68t-89.5 26q-54 0 -96.5 -22.5t-71 -61.5t-43.5 -92t-15 -114q0 -65 17 -113t46 -79.5t67.5 -47t81.5 -15.5zM191 883q-9 7 -5 14.5t17 7.5h83q17 0 24.5 -4.5t13.5 -12.5l89 -103q8 -9 4.5 -15t-12.5 -6h-36q-14 0 -22 3t-18 11z" />
    <glyph glyph-name="Uacute" unicode="&#xda;" horiz-adv-x="660" 
d="M590 252q2 -144 -62 -212t-194 -68q-61 0 -110 18.5t-83 54.5t-52.5 88t-18.5 119v435q0 13 11 13h66q12 0 12 -13v-448q0 -80 47 -129t128 -49q48 0 80.5 13t52 36.5t28 56.5t8.5 72l-5 448q0 13 12 13h64q11 0 11 -13zM365 778q-10 -8 -18.5 -11t-21.5 -3h-37
q-9 0 -12 5.5t5 15.5l88 103q7 8 14.5 12.5t23.5 4.5h78q13 0 17 -7.5t-5 -14.5z" />
    <glyph glyph-name="Ucircumflex" unicode="&#xdb;" horiz-adv-x="660" 
d="M590 252q2 -144 -62 -212t-194 -68q-61 0 -110 18.5t-83 54.5t-52.5 88t-18.5 119v435q0 13 11 13h66q12 0 12 -13v-448q0 -80 47 -129t128 -49q48 0 80.5 13t52 36.5t28 56.5t8.5 72l-5 448q0 13 12 13h64q11 0 11 -13zM329 831l-63 -53q-17 -14 -40 -14h-27
q-9 0 -12 5.5t5 15.5l108 123q15 17 28 17h2q14 0 28 -17l109 -123q8 -8 4.5 -14.5t-12.5 -6.5h-29q-14 0 -22.5 3t-17.5 11z" />
    <glyph glyph-name="Ugrave" unicode="&#xd9;" horiz-adv-x="660" 
d="M590 252q2 -144 -62 -212t-194 -68q-61 0 -110 18.5t-83 54.5t-52.5 88t-18.5 119v435q0 13 11 13h66q12 0 12 -13v-448q0 -80 47 -129t128 -49q48 0 80.5 13t52 36.5t28 56.5t8.5 72l-5 448q0 13 12 13h64q11 0 11 -13zM160 883q-9 7 -5 14.5t17 7.5h83q17 0 24.5 -4.5
t13.5 -12.5l89 -103q8 -9 4.5 -15t-12.5 -6h-36q-14 0 -22 3t-18 11z" />
    <glyph glyph-name="Agrave" unicode="&#xc0;" horiz-adv-x="587" 
d="M566 12q2 -6 -2 -9t-10 -3h-67q-9 0 -12 10l-45 141h-275l-44 -141q-3 -10 -12 -10h-66q-6 0 -10 3.5t-2 9.5l230 677q2 10 12 10h75q10 0 12 -10zM405 238l-108 349l-113 -349h221zM133 883q-9 7 -5 14.5t17 7.5h83q17 0 24.5 -4.5t13.5 -12.5l89 -103q8 -9 4.5 -15
t-12.5 -6h-36q-14 0 -22 3t-18 11z" />
    <glyph glyph-name="Atilde" unicode="&#xc3;" horiz-adv-x="587" 
d="M566 12q2 -6 -2 -9t-10 -3h-67q-9 0 -12 10l-45 141h-275l-44 -141q-3 -10 -12 -10h-66q-6 0 -10 3.5t-2 9.5l230 677q2 10 12 10h75q10 0 12 -10zM405 238l-108 349l-113 -349h221zM459 890q9 0 11.5 -5.5t2.5 -16.5q0 -8 -5 -24t-16.5 -31.5t-30.5 -27.5t-47 -12
q-24 0 -43.5 6t-36.5 13l-33 13t-32 6q-28 0 -41 -32q-3 -11 -15 -11h-35q-17 0 -17 22q0 6 5.5 22.5t18 34.5t33 32t50.5 14q24 0 43.5 -6t36.5 -13.5t32 -13.5t32 -6q16 0 23.5 5.5t12.5 20.5q3 10 15 10h36z" />
    <glyph glyph-name="Otilde" unicode="&#xd5;" horiz-adv-x="680" 
d="M367 703q73 0 124.5 -34t84.5 -88t48.5 -122t15.5 -136q0 -70 -20 -131.5t-57 -107.5t-89.5 -72.5t-117.5 -26.5q-75 0 -134 25.5t-99.5 71.5t-61.5 110t-21 140q0 78 22 145.5t63.5 118t102.5 79t139 28.5zM343 70q100 0 153 67.5t53 182.5q0 53 -10 106t-33 95
t-59.5 68t-89.5 26q-54 0 -96.5 -22.5t-71 -61.5t-43.5 -92t-15 -114q0 -65 17 -113t46 -79.5t67.5 -47t81.5 -15.5zM512 890q9 0 11.5 -5.5t2.5 -16.5q0 -8 -5 -24t-16.5 -31.5t-30.5 -27.5t-47 -12q-24 0 -43.5 6t-36.5 13l-33 13t-32 6q-28 0 -41 -32q-3 -11 -15 -11h-35
q-17 0 -17 22q0 6 5.5 22.5t18 34.5t33 32t50.5 14q24 0 43.5 -6t36.5 -13.5t32 -13.5t32 -6q16 0 23.5 5.5t12.5 20.5q3 10 15 10h36z" />
    <glyph glyph-name="OE" unicode="&#x152;" horiz-adv-x="1033" 
d="M968 12q0 -12 -12 -12h-396q-12 0 -12 12l-1 54q-32 -38 -77 -59.5t-104 -21.5q-75 0 -134 25.5t-99.5 71.5t-61.5 110t-21 140q0 78 22 145.5t63.5 118t102.5 79t139 28.5q55 0 95 -19.5t69 -53.5v57q0 13 12 13h413q12 0 12 -13v-57q0 -12 -12 -12h-335l2 -230h297
q12 0 12 -12v-60q0 -12 -12 -12h-296l2 -222h320q12 0 12 -12v-58zM353 70q99 0 145.5 67t46.5 181v4q0 53 -8 105.5t-28.5 94t-55 67.5t-86.5 26q-54 0 -96.5 -22.5t-71 -61.5t-43.5 -92t-15 -114q0 -65 17 -113t46 -79.5t67.5 -47t81.5 -15.5z" />
    <glyph glyph-name="AE" unicode="&#xc6;" horiz-adv-x="915" 
d="M828 12q0 -12 -12 -12h-396q-12 0 -12 12l-2 139h-200l-61 -141q-4 -10 -14 -10h-76q-6 0 -9 3.5t-1 9.5l313 677q3 10 14 10h454q12 0 12 -13v-57q0 -12 -12 -12h-335l2 -230h297q12 0 12 -12v-60q0 -12 -12 -12h-296l2 -222h320q12 0 12 -12v-58zM405 238l-3 349
l-156 -349h159z" />
    <glyph glyph-name="notequal" unicode="&#x2260;" horiz-adv-x="661" 
d="M427 502h132q12 0 12 -12v-60q0 -12 -12 -12h-162l-61 -168h223q12 0 12 -12v-60q0 -12 -12 -12h-254l-56 -155q-4 -11 -17 -11h-47q-13 0 -8 12l56 154h-131q-12 0 -12 12v60q0 12 12 12h162l62 168h-224q-12 0 -12 12v60q0 12 12 12h255l56 153q4 13 15 13h48
q12 0 8 -12z" />
    <glyph glyph-name="oe" unicode="&#x153;" horiz-adv-x="843" 
d="M495 224q1 -32 10.5 -60.5t28 -49.5t47 -33.5t68.5 -12.5q34 0 59.5 5t51.5 14q4 2 8 0t4 -7l5 -60q0 -6 -3 -7q-21 -13 -54.5 -21t-78.5 -8q-63 0 -112 25.5t-81 74.5q-29 -45 -73 -72t-98 -27q-56 0 -101 19t-76.5 53.5t-48.5 82.5t-17 106q0 57 18.5 106.5t51.5 86.5
t78.5 58.5t98.5 21.5q55 0 98.5 -24.5t72.5 -69.5q28 42 73.5 68t108.5 26q44 0 75 -13t51 -34.5t29 -50.5t9 -61q0 -66 -48 -105.5t-135 -39.5q-32 0 -65.5 2.5t-54.5 6.5zM404 255q0 90 -30.5 133.5t-99.5 43.5q-33 0 -60 -13.5t-47 -38t-31 -59t-11 -76.5
q0 -46 11.5 -78.5t32 -53.5t47 -31t56.5 -10q32 0 56.5 14.5t41.5 39.5t25.5 58.5t8.5 70.5zM496 301q17 -3 48 -5.5t58 -2.5q113 0 113 75q0 29 -22.5 49.5t-67.5 20.5q-54 0 -87.5 -37t-41.5 -100z" />
    <glyph glyph-name="ae" unicode="&#xe6;" horiz-adv-x="821" 
d="M449 224q1 -32 10.5 -60.5t28.5 -49.5t47.5 -33.5t68.5 -12.5q34 0 59.5 5t51.5 14q4 2 8 0t4 -7l5 -60q0 -6 -3 -7q-21 -13 -54.5 -21t-78.5 -8q-96 0 -154 57q-35 -24 -85.5 -41t-110.5 -17q-42 0 -78 11.5t-62 32.5t-40.5 49.5t-14.5 62.5q0 45 16 77.5t45 54.5
t68.5 32.5t86.5 10.5q26 0 53 -2.5t44 -4.5q0 128 -99 128q-35 0 -63.5 -14.5t-39.5 -54.5h-71q-6 0 -9.5 2t-3.5 10q0 15 12 43.5t39 52.5q28 24 64.5 35.5t74.5 11.5q57 0 94.5 -22t57.5 -60q28 37 69.5 58.5t99.5 21.5q44 0 75 -13t51 -34.5t29 -50.5t9 -61
q0 -66 -48 -105.5t-135 -39.5q-32 0 -66 2.5t-55 6.5zM397 101q-13 22 -22 54.5t-11 71.5q-13 3 -40.5 6t-51.5 3q-60 0 -95.5 -24.5t-35.5 -68.5q0 -34 30 -55.5t94 -21.5q29 0 66 9t66 26zM450 301q17 -3 48.5 -5.5t58.5 -2.5q113 0 113 75q0 29 -22.5 49.5t-67.5 20.5
q-54 0 -88 -37t-42 -100z" />
    <glyph glyph-name="Oslash" unicode="&#xd8;" horiz-adv-x="680" 
d="M538 631q27 -28 46 -63.5t31.5 -76t18.5 -83.5t6 -85q0 -70 -20 -131.5t-57 -107.5t-89.5 -72.5t-117.5 -26.5q-67 0 -125 22l-22 -46q-4 -11 -17 -11h-67q-13 0 -8 12l42 85q-58 46 -88.5 119t-30.5 166q0 78 22 145.5t63.5 118t102.5 79t139 28.5q29 0 55 -6t49 -17
l24 47q4 13 15 13h68q12 0 8 -12zM131 325q0 -68 18 -117t50 -81l232 471q-34 17 -74 17q-54 0 -96.5 -22.5t-71 -61.5t-43.5 -92t-15 -114zM343 70q100 0 153 67.5t53 182.5q0 60 -13 118.5t-42 101.5l-225 -457q33 -13 74 -13z" />
    <glyph glyph-name="bracketleft" unicode="[" horiz-adv-x="393" 
d="M193 -100h138q12 0 12 -12v-56q0 -12 -12 -12h-209q-12 0 -12 12v855q0 13 12 13h209q12 0 12 -13v-55q0 -12 -12 -12h-138v-720z" />
    <glyph glyph-name="bracketright" unicode="]" horiz-adv-x="393" 
d="M200 620h-138q-12 0 -12 12v55q0 13 12 13h209q12 0 12 -13v-855q0 -12 -12 -12h-209q-12 0 -12 12v56q0 12 12 12h138v720z" />
    <glyph glyph-name="yen" unicode="&#xa5;" horiz-adv-x="596" 
d="M336 134l1 -123q0 -11 -12 -11h-64q-12 0 -12 11v123h-184q-12 0 -12 12v60q0 12 12 12h184v62l-18 36h-166q-12 0 -12 12v60q0 12 12 12h125l-73 144l-67 126q-7 12 -2 21t16 9h51q10 0 15 -4t10 -15l154 -320l165 324q7 15 20 15h51q14 0 17.5 -9t-4.5 -23
l-72.5 -127.5l-75.5 -140.5h127q12 0 12 -12v-60q0 -12 -12 -12h-170l-17 -36v-62h187q12 0 12 -12v-60q0 -12 -12 -12h-186z" />
    <glyph glyph-name="backslash" unicode="\" horiz-adv-x="425" 
d="M32 688q-5 12 8 12h58q11 0 15 -13l280 -765q5 -12 -8 -12h-57q-13 0 -17 11z" />
    <glyph glyph-name="less" unicode="&#x3c;" horiz-adv-x="624" 
d="M89 273q-9 5 -9 13v71q0 5 2.5 7.5t6.5 4.5l423 240q5 3 8.5 -1.5t3.5 -10.5v-71q0 -5 -2.5 -7t-6.5 -4l-356 -190l356 -205q4 -2 6.5 -4.5t2.5 -7.5v-72q0 -6 -3.5 -10.5t-8.5 -1.5z" />
    <glyph glyph-name="greater" unicode="&#x3e;" horiz-adv-x="624" 
d="M535 360q9 -5 9 -13v-71q0 -5 -2.5 -7.5t-6.5 -4.5l-423 -240q-5 -3 -8.5 1.5t-3.5 10.5v71q0 5 2.5 7t6.5 4l356 190l-356 205q-4 2 -6.5 4.5t-2.5 7.5v72q0 6 3.5 10.5t8.5 1.5z" />
    <glyph glyph-name="perthousand" unicode="&#x2030;" horiz-adv-x="946" 
d="M771 283q29 0 53.5 -12t42 -32t27.5 -48t10 -59q0 -29 -10 -55t-28 -45.5t-43 -30.5t-55 -11q-40 0 -69 13t-47 36q-18 -23 -45 -36t-65 -13q-33 0 -59.5 11t-44.5 30.5t-28 44.5t-10 54q0 28 10.5 55.5t29.5 49t46 34.5t61 13q33 0 60.5 -14t46.5 -39q19 25 48.5 39.5
t68.5 14.5zM190 715q29 0 53.5 -12t42 -32t27.5 -48t10 -59q0 -29 -10 -55t-28 -45.5t-43 -30.5t-55 -11q-71 0 -110.5 38.5t-39.5 104.5q0 32 11 59.5t31.5 47.5t48.5 31.5t62 11.5zM199 11q-7 -11 -18 -11h-56q-6 0 -8.5 3.5t0.5 8.5l406 675q8 13 19 13h56q13 0 6 -12z
M762 213q-33 0 -53 -23.5t-20 -55.5t19.5 -55t53.5 -23q32 0 53 23t21 55t-20.5 55.5t-53.5 23.5zM181 645q-33 0 -53 -23.5t-20 -55.5t19.5 -55t53.5 -23q32 0 53 23t21 55t-20.5 55.5t-53.5 23.5zM547 212q-15 0 -28.5 -6t-24.5 -16t-17.5 -24.5t-6.5 -30.5
q0 -35 21 -56.5t51 -21.5q35 0 55.5 22t20.5 56q0 30 -19.5 53.5t-51.5 23.5z" />
    <glyph glyph-name="oslash" unicode="&#xf8;" horiz-adv-x="544" 
d="M504 252q0 -54 -16.5 -102.5t-46 -85t-70 -58t-88.5 -21.5q-41 0 -77 11l-33 -75q-4 -11 -17 -11h-57q-13 0 -8 12l47 106q-47 34 -72.5 90t-25.5 128q0 57 18.5 106.5t51.5 86.5t78.5 58.5t98.5 21.5q35 0 64 -10l32 72q3 7 6 10t9 3h58q12 0 8 -12l-48 -108
q42 -34 65 -90.5t23 -131.5zM131 245q0 -47 12 -79.5t32 -53.5l140 316q-15 4 -35 4q-33 0 -60 -13.5t-47 -38t-31 -59t-11 -76.5zM413 255q0 91 -34 135l-138 -314q16 -4 37 -4q32 0 57 14.5t42.5 39.5t26.5 58.5t9 70.5z" />
    <glyph glyph-name="registered" unicode="&#xae;" horiz-adv-x="823" 
d="M70 348q0 75 25.5 138.5t70.5 109t107 71t136 25.5q78 0 141.5 -25.5t108.5 -71.5t69.5 -110t24.5 -140q0 -72 -24.5 -133.5t-69 -106.5t-106.5 -70.5t-136 -25.5q-81 0 -145.5 24t-109.5 68t-68.5 107t-23.5 140zM125 343q0 -65 19.5 -117t57 -88.5t91.5 -56t123 -19.5
q63 0 115 20.5t89.5 58t58.5 89.5t21 115q0 65 -19 119.5t-56 93.5t-91.5 61t-124.5 22q-65 0 -117 -22.5t-89.5 -62.5t-57.5 -94.5t-20 -118.5zM578 173q3 -4 1 -8.5t-8 -4.5h-52q-4 0 -7 3l-89 123q-20 -3 -45.5 -4.5t-37.5 -1.5l-1 -113q0 -7 -7 -7h-42q-8 0 -8 7l-1 374
q0 7 8 7h57q52 0 93.5 -5.5t70.5 -20.5t45 -41t16 -67q0 -80 -91 -113zM341 334q38 1 69.5 5t54 13t34.5 24t12 40q0 46 -40 62t-128 16z" />
    <glyph glyph-name="copyright" unicode="&#xa9;" horiz-adv-x="823" 
d="M70 348q0 75 28 138.5t76 109t112.5 71t138.5 25.5q78 0 139 -25.5t103 -71.5t64 -110t22 -140q0 -72 -24.5 -133.5t-69 -106.5t-106.5 -70.5t-136 -25.5q-81 0 -145.5 24t-109.5 68t-68.5 107t-23.5 140zM125 343q0 -65 19.5 -117t57 -88.5t91.5 -56t123 -19.5
q63 0 115 20.5t89.5 58t58.5 89.5t21 115q0 65 -16.5 119.5t-50.5 93.5t-86 61t-122 22q-65 0 -119.5 -22.5t-95 -62.5t-63 -94.5t-22.5 -118.5zM543 180q0 -8 -5 -11q-18 -11 -44.5 -16.5t-59.5 -5.5q-94 0 -145.5 50.5t-51.5 133.5q0 105 56.5 162t162.5 57q23 0 44 -3
t32 -6q7 -2 7 -8v-52q0 -8 -8 -8t-25.5 5t-46.5 5q-73 0 -111.5 -37.5t-38.5 -111.5q0 -54 33 -87t96 -33q26 0 49.5 4t40.5 12q9 3 11 -7z" />
    <glyph glyph-name="trademark" unicode="&#x2122;" horiz-adv-x="687" 
d="M281 648q0 -5 -6 -5h-75v-231q0 -5 -7 -5h-53q-6 0 -6 5v231h-94q-6 0 -6 5v47q0 5 6 5h235q6 0 6 -5v-47zM621 700q6 0 6 -5l-1 -283q0 -5 -5 -5h-49q-6 0 -6 5l-1 180q0 2 1 7.5t2 8.5q-2 -2 -4 -9l-61 -149q-2 -3 -7 -3h-43q-4 0 -5 3l-63 151q-2 6 -3 7q2 -10 2 -15
v-181q0 -5 -6 -5h-48q-6 0 -6 5v283q0 5 7 5h72q3 0 6 -3l66 -160l66 160q1 3 6 3h74z" />
    <glyph glyph-name="Thorn" unicode="&#xde;" horiz-adv-x="573" 
d="M151 697q11 0 11 -11l2 -91q86 0 156 -14.5t119 -44.5t75.5 -75.5t26.5 -107.5q0 -123 -94 -180.5t-286 -61.5l-3 -100q0 -11 -11 -11h-60q-13 0 -13 11l-1 675q0 11 13 11h65zM445 348q0 87 -72 127t-209 38l-2 -319q148 0 215.5 36.5t67.5 117.5z" />
    <glyph glyph-name="thorn" unicode="&#xfe;" horiz-adv-x="549" 
d="M152 90q16 -7 43 -12.5t68 -5.5q75 0 116 46.5t41 127.5q0 83 -39.5 124.5t-102.5 41.5q-32 0 -65.5 -7t-60.5 -20v-295zM150 468q29 14 68 20.5t76 6.5q98 0 156.5 -63.5t58.5 -183.5q0 -63 -17 -112t-48.5 -82.5t-75.5 -51t-98 -17.5q-38 0 -66.5 3t-51.5 11v-208
q0 -12 -12 -12h-63q-12 0 -12 12v897q0 12 12 12h63q8 0 10 -9v-223z" />
    <glyph glyph-name="caron" unicode="&#x2c7;" horiz-adv-x="447" 
d="M223 643l63 53q17 14 40 14h27q9 0 12 -5.5t-5 -15.5l-108 -123q-15 -17 -28 -17h-2q-14 0 -28 17l-109 123q-8 8 -4.5 14.5t12.5 6.5h29q14 0 22.5 -3t17.5 -11z" />
    <glyph glyph-name="Zcaron" unicode="&#x17d;" horiz-adv-x="540" 
d="M497 12q0 -12 -12 -12h-413q-12 0 -12 12v59q0 5 4 11l332 536h-349q-12 0 -12 12v59q0 11 13 11h441q11 0 11 -12v-55q0 -6 -4 -11l-335 -540h325q11 0 11 -11v-59zM269 849l63 53q17 14 40 14h27q9 0 12 -5.5t-5 -15.5l-108 -123q-15 -17 -28 -17h-2q-14 0 -28 17
l-109 123q-8 8 -4.5 14.5t12.5 6.5h29q14 0 22.5 -3t17.5 -11z" />
    <glyph glyph-name="zcaron" unicode="&#x17e;" horiz-adv-x="479" 
d="M434 12q0 -12 -12 -12h-354q-12 0 -12 12v66q0 5 4 8l262 321h-266q-13 0 -13 12l1 63q0 12 12 12h367q11 0 11 -12v-65q0 -5 -4 -8l-264 -322h257q11 0 11 -12v-63zM238 643l63 53q17 14 40 14h27q9 0 12 -5.5t-5 -15.5l-108 -123q-15 -17 -28 -17h-2q-14 0 -28 17
l-109 123q-8 8 -4.5 14.5t12.5 6.5h29q14 0 22.5 -3t17.5 -11z" />
    <glyph glyph-name="questiondown" unicode="&#xbf;" horiz-adv-x="541" 
d="M315 297q9 0 12 -8q2 -5 4 -15t3.5 -23t2.5 -26.5t1 -24.5q0 -50 -29 -82t-84 -58q-24 -11 -42 -21t-30 -22t-17.5 -26.5t-5.5 -34.5q0 -40 36.5 -68t114.5 -28q41 0 85 16.5t80 48.5q3 2 7.5 3.5t7.5 -3.5l35 -48q4 -8 -2 -14q-20 -19 -45.5 -34.5t-54 -27t-58.5 -17.5
t-59 -6q-61 0 -105.5 14.5t-74 39t-43.5 57t-14 68.5q0 56 29.5 93.5t95.5 68.5q42 20 63 42t21 58q0 23 -4.5 42t-4.5 23q0 13 11 13h64zM273 508q20 0 36.5 -14.5t16.5 -37.5q0 -22 -15.5 -37t-37.5 -15q-20 0 -36.5 14.5t-16.5 37.5t16.5 37.5t36.5 14.5z" />
    <glyph glyph-name="exclamdown" unicode="&#xa1;" horiz-adv-x="256" 
d="M159 278q12 0 12 -12v-476q0 -11 -13 -11h-62q-11 0 -11 12l-1 474q0 13 12 13h63zM128 509q20 0 36.5 -14.5t16.5 -37.5q0 -22 -15.5 -37t-37.5 -15q-20 0 -36.5 14.5t-16.5 37.5t16.5 37.5t36.5 14.5z" />
    <glyph glyph-name="bullet" unicode="&#x2022;" horiz-adv-x="530" 
d="M270 165q-35 0 -65 10.5t-52 30.5t-35 48.5t-13 65.5q0 78 43.5 121.5t118.5 43.5q72 0 115 -45t43 -121q0 -69 -41.5 -111.5t-113.5 -42.5z" />
    <glyph glyph-name="scaron" unicode="&#x161;" horiz-adv-x="451" 
d="M44 361q0 35 14.5 64t40 50t61 32.5t77.5 10.5q47 0 95 -18t81 -45q5 -5 1 -12l-33 -52q-5 -8 -12 -1q-30 24 -67 38.5t-72 14.5q-42 0 -70 -21.5t-28 -54.5q0 -24 20.5 -37.5t51 -23t66 -19.5t66 -26.5t51 -43.5t20.5 -71q0 -75 -47.5 -118t-135.5 -43q-48 0 -90 15.5
t-74 42.5q-6 6 0 12l33 49q6 6 12 0q24 -19 54.5 -30t65.5 -11q44 0 68 19.5t24 54.5q0 28 -21.5 47t-77.5 33q-94 23 -134 57t-40 87zM235 643l63 53q17 14 40 14h27q9 0 12 -5.5t-5 -15.5l-108 -123q-15 -17 -28 -17h-2q-14 0 -28 17l-109 123q-8 8 -4.5 14.5t12.5 6.5h29
q14 0 22.5 -3t17.5 -11z" />
    <glyph glyph-name="Scaron" unicode="&#x160;" horiz-adv-x="593" 
d="M554 189q-1 -45 -16.5 -82.5t-46.5 -65t-78 -42.5t-111 -15q-142 0 -231 93q-3 3 -3 7.5t3 7.5l37 47q8 8 16 1q32 -34 78.5 -53t103.5 -19q77 0 119 31t42 84q0 40 -31.5 61.5t-79 35.5t-102.5 26t-102.5 33t-79 56.5t-31.5 96.5q0 51 20.5 91t55.5 67t83 41t104 14
q72 0 135.5 -23.5t111.5 -69.5q3 -3 2 -8t-3 -7l-39 -48q-3 -4 -8 -3.5t-8 2.5q-40 36 -88.5 55.5t-105.5 19.5q-74 0 -120.5 -31.5t-46.5 -94.5q0 -25 13 -43.5t35 -31.5t51.5 -22t62.5 -15q63 -12 111.5 -26.5t81.5 -37t49.5 -54.5t15.5 -78zM308 849l63 53q17 14 40 14
h27q9 0 12 -5.5t-5 -15.5l-108 -123q-15 -17 -28 -17h-2q-14 0 -28 17l-109 123q-8 8 -4.5 14.5t12.5 6.5h29q14 0 22.5 -3t17.5 -11z" />
    <glyph glyph-name="Yacute" unicode="&#xdd;" horiz-adv-x="528" 
d="M511 688l-46 -91.5l-52.5 -102.5l-56.5 -107.5l-57 -106.5l2 -269q0 -11 -12 -11h-64q-12 0 -12 11v269l-107.5 219.5l-88.5 188.5q-3 6 1.5 9t10.5 3h72q9 0 11 -8l146 -331l161 331q4 8 12 8h68q6 0 10.5 -3t1.5 -9zM289 778q-10 -8 -18.5 -11t-21.5 -3h-37
q-9 0 -12 5.5t5 15.5l88 103q7 8 14.5 12.5t23.5 4.5h78q13 0 17 -7.5t-5 -14.5z" />
    <glyph glyph-name="yacute" unicode="&#xfd;" horiz-adv-x="565" 
d="M501 61q1 -74 -15 -128.5t-45 -90.5t-69.5 -53.5t-88.5 -17.5q-23 0 -46.5 3t-40.5 8q-9 3 -9 12v60q0 13 14 13q8 0 22 -4.5t45 -4.5q69 0 108 43.5t38 140.5q-26 -29 -66.5 -43t-83.5 -14q-105 0 -154.5 56t-49.5 166v277q0 10 12 10h63q12 0 12 -12l-1 -275
q0 -33 5.5 -58.5t19.5 -43.5t39 -27.5t63 -9.5q42 0 79.5 21.5t60.5 56.5l-3 337q-1 11 10 11h63q13 0 14 -11zM308 572q-10 -8 -18.5 -11t-21.5 -3h-37q-9 0 -12 5.5t5 15.5l88 103q7 8 14.5 12.5t23.5 4.5h78q13 0 17 -7.5t-5 -14.5z" />
    <glyph glyph-name="Lslash" unicode="&#x141;" horiz-adv-x="498" 
d="M468 13q0 -13 -13 -13h-362q-12 0 -12 13l2 270l-77 -30q-11 -4 -16 7l-17 48q-4 10 7 15l104 41l3 324q0 12 13 12h67q12 0 12 -12l-5 -289l124 49q12 4 16 -7l17 -47q4 -11 -7 -16l-151 -60l-4 -233h286q13 0 13 -13v-59z" />
    <glyph glyph-name="lslash" unicode="&#x142;" horiz-adv-x="237" 
d="M162 399l67 29q12 4 16 -7l17 -47q4 -11 -7 -16l-93 -40v-305q0 -13 -12 -13h-64q-11 0 -11 13v269l-69 -29q-11 -4 -16 7l-17 48q-4 10 7 15l95 40v348q0 12 11 12h64q12 0 12 -13v-311z" />
    <glyph glyph-name="Eth" unicode="&#xd0;" horiz-adv-x="625" 
d="M145 700q77 0 154 -22t138.5 -65.5t99.5 -109t38 -152.5q0 -93 -38 -159.5t-98.5 -109t-135.5 -62.5t-149 -20h-57q-12 0 -12 11v293h-73q-12 0 -12 12v60q0 12 12 12h73v300q0 12 12 12h48zM487 349q0 64 -25 112t-68 81t-100 50.5t-121 20.5v-225h131q12 0 12 -12v-60
q0 -12 -12 -12h-131v-222q76 3 135 24.5t98.5 57.5t60 83.5t20.5 101.5z" />
    <glyph glyph-name="bar" unicode="|" horiz-adv-x="310" 
d="M200 -148q0 -13 -12 -13h-67q-11 0 -11 13v919q0 12 11 12h67q12 0 12 -13v-918z" />
    <glyph glyph-name="cent" unicode="&#xa2;" horiz-adv-x="491" 
d="M146 339q0 -78 40.5 -123.5t110.5 -45.5q31 0 57.5 4.5t44.5 12.5q13 5 19.5 3t11.5 -8q5 -7 8 -20.5t3 -22.5q0 -15 -23 -25q-7 -3 -19 -6.5t-25.5 -5.5l-27.5 -4t-25 -2v-71q0 -10 -6.5 -17.5t-18.5 -7.5h-33q-12 0 -18.5 6.5t-6.5 15.5v75q-39 7 -71.5 27.5t-56.5 51
t-37 71.5t-13 89q0 108 51 179t138 89v67q0 17 6.5 23t19.5 6h32q13 0 18.5 -8t5.5 -22v-64q22 -1 47 -5t42 -11q12 -5 17 -10t5 -16q0 -10 -3.5 -22t-9.5 -19q-12 -14 -36 -6q-11 3 -32 7t-53 4q-35 0 -65 -12t-51.5 -36t-33.5 -59.5t-12 -81.5z" />
    <glyph glyph-name="eth" unicode="&#xf0;" horiz-adv-x="532" 
d="M327 584q34 -36 64.5 -78.5t53 -89t35.5 -97.5t13 -104q0 -45 -14 -86.5t-41.5 -73.5t-67.5 -51t-92 -19q-54 0 -98 17.5t-75 48.5t-48 73.5t-17 93.5q0 52 14.5 96.5t42 77t66.5 51t88 18.5q47 0 87 -17q-37 57 -90 107l-113 -47q-10 -4 -16 6l-28 43q-3 5 -0.5 9t7.5 6
l87 36q-42 32 -89 59q-4 2 -3.5 8t6.5 8l53 33q5 2 10 0.5t9 -3.5q51 -32 97 -70l106 44q14 5 21 -5l28 -42q4 -5 1 -9t-8 -6zM404 219q0 33 -8.5 62.5t-26 52t-44 36t-63.5 13.5q-35 0 -60 -13t-41 -35.5t-23.5 -53t-7.5 -65.5q0 -33 10 -61t28.5 -48.5t44.5 -32t59 -11.5
q35 0 60 13.5t41 35.5t23.5 50t7.5 57z" />
    <glyph glyph-name="degree" unicode="&#xb0;" horiz-adv-x="412" 
d="M210 715q27 0 51 -10t42 -28.5t28.5 -45t10.5 -58.5q0 -29 -9 -54.5t-26.5 -44t-43 -29.5t-59.5 -11q-31 0 -56 10.5t-42 29t-26.5 42.5t-9.5 51q0 28 10 54.5t28 47.5t44 33.5t58 12.5zM209 647q-29 0 -51.5 -21.5t-22.5 -54.5t20.5 -53.5t49.5 -20.5q33 0 53 21t20 53
q0 29 -18.5 52.5t-50.5 23.5z" />
    <glyph glyph-name="hungarumlaut" unicode="&#x2dd;" horiz-adv-x="584" 
d="M173 572q-9 -9 -18 -11.5t-22 -2.5h-37q-9 0 -11.5 5t4.5 16l68 103q5 8 13.5 12.5t24.5 4.5h68q13 0 16.5 -7t-4.5 -15zM376 572q-9 -9 -18 -11.5t-22 -2.5h-37q-9 0 -11.5 5t4.5 16l68 103q5 8 13.5 12.5t24.5 4.5h68q13 0 16.5 -7t-4.5 -15z" />
    <glyph glyph-name="dotaccent" unicode="&#x2d9;" horiz-adv-x="283" 
d="M140 559q-20 0 -36.5 14.5t-16.5 37.5q0 22 15.5 37t37.5 15q20 0 36.5 -14.5t16.5 -37.5t-16.5 -37.5t-36.5 -14.5z" />
    <glyph glyph-name="approxequal" unicode="&#x2248;" horiz-adv-x="661" 
d="M581 407q0 -16 -15 -26q-22 -14 -56.5 -21t-77.5 -7q-33 0 -59 6.5t-49 14t-45 14t-46 6.5q-45 0 -79 -10t-60 -22q-5 -2 -9.5 2t-4.5 9v42q0 10 3 15t10 10q32 20 68 31.5t81 11.5q33 0 61.5 -6.5t53 -14.5t47 -14.5t45.5 -6.5q34 0 64.5 6.5t54.5 17.5q5 2 9 -1t4 -8
v-49zM581 207q0 -16 -15 -26q-22 -14 -56.5 -21t-77.5 -7q-33 0 -59 6.5t-49 14t-45 14t-46 6.5q-45 0 -79 -10t-60 -22q-5 -2 -9.5 2t-4.5 9v42q0 10 3 15t10 10q32 20 68 31.5t81 11.5q33 0 61.5 -6.5t53 -14.5t47 -14.5t45.5 -6.5q34 0 64.5 6.5t54.5 17.5q5 2 9 -1t4 -8
v-49z" />
    <glyph glyph-name="braceleft" unicode="{" horiz-adv-x="416" 
d="M156 267q40 -8 65 -37.5t25 -81.5v-112q0 -74 23 -105t57 -31h28q12 0 12 -12v-56q0 -12 -12 -12h-46q-33 0 -59.5 14t-45.5 39.5t-29.5 61t-10.5 78.5v116q0 37 -22.5 64.5t-67.5 33.5q-13 2 -13 16v56q0 5 3 8.5t10 4.5q49 7 69.5 33.5t20.5 59.5v109q0 49 14 84
t36 57.5t49.5 33.5t54.5 11h37q12 0 12 -13v-55q0 -12 -12 -12h-23q-38 0 -61.5 -30t-23.5 -93v-114q0 -94 -90 -112v-4z" />
    <glyph glyph-name="braceright" unicode="}" horiz-adv-x="416" 
d="M266 271q-48 6 -72 37.5t-24 77.5v91q0 75 -19.5 109t-65.5 34h-23q-12 0 -12 12v55q0 13 12 13h30q82 0 121.5 -53t39.5 -153v-89q0 -29 20.5 -55t69.5 -33q7 -1 10 -4.5t3 -8.5v-65q0 -14 -13 -16q-45 -6 -67.5 -34t-22.5 -60v-85q0 -103 -38 -163.5t-113 -60.5h-40
q-12 0 -12 12v56q0 12 12 12h28q38 0 59 38t21 118v92q0 28 8 48.5t21.5 34t31 22t35.5 14.5v4z" />
    <glyph glyph-name="guilsinglleft" unicode="&#x2039;" horiz-adv-x="387" 
d="M75 235q-10 16 0 34l144 214q6 11 18 11h71q5 0 6.5 -4.5t-0.5 -8.5l-156 -229l157 -241q5 -11 -6 -11h-74q-12 0 -16 9z" />
    <glyph glyph-name="guilsinglright" unicode="&#x203a;" horiz-adv-x="387" 
d="M312 259q10 -16 0 -34l-144 -214q-6 -11 -18 -11h-71q-5 0 -6.5 4.5t0.5 8.5l156 229l-157 241q-6 11 6 11h74q11 0 16 -9z" />
    <glyph glyph-name="guillemotleft" unicode="&#xab;" horiz-adv-x="587" 
d="M75 235q-10 16 0 34l144 214q6 11 18 11h71q5 0 6.5 -4.5t-0.5 -8.5l-156 -229l157 -241q5 -11 -6 -11h-74q-12 0 -16 9zM275 235q-10 16 0 34l144 214q6 11 18 11h71q5 0 6.5 -4.5t-0.5 -8.5l-156 -229l157 -241q5 -11 -6 -11h-74q-12 0 -16 9z" />
    <glyph glyph-name="guillemotright" unicode="&#xbb;" horiz-adv-x="587" 
d="M512 259q10 -16 0 -34l-144 -214q-6 -11 -18 -11h-71q-5 0 -6.5 4.5t0.5 8.5l156 229l-157 241q-6 11 6 11h74q11 0 16 -9zM312 259q10 -16 0 -34l-144 -214q-6 -11 -18 -11h-71q-5 0 -6.5 4.5t0.5 8.5l156 229l-157 241q-6 11 6 11h74q11 0 16 -9z" />
    <glyph glyph-name="asciicircum" unicode="^" horiz-adv-x="646" 
d="M321 623l-121 -179q-8 -10 -17.5 -12.5t-22.5 -2.5h-43q-9 0 -12 5.5t5 16.5l168 232q7 9 14 13t20 4h22q14 0 20.5 -4t13.5 -13l169 -232q7 -9 4 -15.5t-12 -6.5h-45q-14 0 -23 2.5t-17 12.5z" />
    <glyph glyph-name="asciitilde" unicode="~" horiz-adv-x="710" 
d="M618 454q9 0 15.5 -5.5t6.5 -16.5q0 -26 -9 -54.5t-29.5 -52t-53.5 -38.5t-81 -15q-34 0 -65.5 12t-60 27t-54.5 27t-50 12q-38 0 -60 -21t-36 -56q-3 -11 -15 -11h-33q-10 0 -16.5 6t-6.5 16q0 23 9 52.5t29 55t52.5 43t80.5 17.5q36 0 65.5 -12.5t57 -27l53.5 -27
t55 -12.5q47 0 69 21t30 50q3 10 15 10h32z" />
    <glyph glyph-name="Euro" unicode="&#x20ac;" horiz-adv-x="600" 
d="M235 226q14 -73 54.5 -114t118.5 -41q31 0 60 6t46 13q11 5 20.5 4t14.5 -9q3 -5 6 -15.5t3 -20.5q0 -9 -3 -16.5t-15 -13.5q-19 -10 -57 -19.5t-92 -9.5t-96.5 17t-74 48t-52 74.5t-29.5 97.5l-56 1q-33 0 -33 32v27q0 21 36 20l45 -1q-1 21 -0.5 42.5t2.5 36.5h-49
q-17 0 -25.5 5.5t-8.5 22.5v25q0 25 35 24h60q12 55 35.5 101t59 79t83.5 51.5t109 18.5q37 0 68.5 -4t43.5 -8q18 -6 18 -29q0 -12 -4.5 -26.5t-13.5 -22.5q-5 -5 -12.5 -4.5t-17.5 2.5q-32 8 -73 8q-35 0 -66.5 -8t-58 -27.5t-47 -51.5t-31.5 -79h190q22 0 31 -6t9 -21
v-25q0 -14 -9 -19.5t-32 -5.5h-200q-3 -40 0 -81l191 -3q22 -1 30.5 -6.5t8.5 -19.5v-26q0 -14 -9.5 -20t-32.5 -5z" />
    <glyph glyph-name="breve" unicode="&#x2d8;" horiz-adv-x="447" 
d="M123 710q14 0 20.5 -3.5t9.5 -15.5q7 -26 24 -42.5t49 -16.5t47.5 16t26.5 48q3 9 10 11.5t20 2.5h24q9 0 13 -4.5t1 -16.5q-14 -64 -52 -93t-92 -29q-57 0 -94.5 31.5t-49.5 90.5q-5 21 11 21h32z" />
    <glyph glyph-name="ogonek" unicode="&#x2db;" horiz-adv-x="368" 
d="M232 5q-23 -28 -38 -51t-15 -46q0 -29 18 -38.5t50 -11.5q10 -1 13 -4t3 -11v-38q0 -17 -23 -17q-66 0 -104.5 27.5t-38.5 75.5q0 34 22 62t49 58q8 8 12.5 12t10.5 4h29q13 0 16 -7t-4 -15z" />
    <glyph glyph-name="commaaccent" horiz-adv-x="236" 
d="M110 -183q-17 3 -31 15.5t-14 35.5q0 22 15.5 37t37.5 15q25 0 39 -17t14 -37q0 -24 -8.5 -44t-19.5 -34t-20.5 -22t-12.5 -8q-12 0 -12 11q0 5 6.5 16.5t5.5 31.5z" />
    <glyph glyph-name="macron" unicode="&#xaf;" horiz-adv-x="461" 
d="M102 589q-12 0 -12 12v46q0 12 12 12h257q12 0 12 -12v-46q0 -12 -12 -12h-257z" />
    <glyph glyph-name="Abreve" unicode="&#x102;" horiz-adv-x="587" 
d="M566 12q2 -6 -2 -9t-10 -3h-67q-9 0 -12 10l-45 141h-275l-44 -141q-3 -10 -12 -10h-66q-6 0 -10 3.5t-2 9.5l230 677q2 10 12 10h75q10 0 12 -10zM405 238l-108 349l-113 -349h221zM198 916q14 0 20.5 -3.5t9.5 -15.5q7 -26 24 -42.5t49 -16.5t47.5 16t26.5 48
q3 9 10 11.5t20 2.5h24q9 0 13 -4.5t1 -16.5q-14 -64 -52 -93t-92 -29q-57 0 -94.5 31.5t-49.5 90.5q-5 21 11 21h32z" />
    <glyph glyph-name="Amacron" unicode="&#x100;" horiz-adv-x="587" 
d="M566 12q2 -6 -2 -9t-10 -3h-67q-9 0 -12 10l-45 141h-275l-44 -141q-3 -10 -12 -10h-66q-6 0 -10 3.5t-2 9.5l230 677q2 10 12 10h75q10 0 12 -10zM405 238l-108 349l-113 -349h221zM170 795q-12 0 -12 12v46q0 12 12 12h257q12 0 12 -12v-46q0 -12 -12 -12h-257z" />
    <glyph glyph-name="Aogonek" unicode="&#x104;" horiz-adv-x="587" 
d="M111 10q-3 -10 -12 -10h-66q-6 0 -10 3.5t-2 9.5l230 677q2 10 12 10h75q10 0 12 -10l214 -671q3 -7 -2 -14q-23 -28 -38 -51t-15 -46q0 -29 18 -38.5t50 -11.5q10 -1 13 -4t3 -11v-38q0 -17 -23 -17q-66 0 -104.5 27.5t-38.5 75.5q0 31 18.5 56.5t42.5 52.5h-2
q-8 0 -11 10l-45 141h-275zM405 238l-108 349l-113 -349h221z" />
    <glyph glyph-name="Cacute" unicode="&#x106;" horiz-adv-x="543" 
d="M513 31q0 -7 -4 -9q-12 -8 -30.5 -14.5t-41 -11.5t-46.5 -8t-48 -3q-67 0 -122.5 21.5t-95.5 63.5t-62.5 103.5t-22.5 141.5q0 90 26.5 161t73 120.5t109.5 76t137 26.5q33 0 65 -3.5t48 -8.5q7 -3 7 -9v-68q0 -11 -10 -11q-9 0 -34.5 6.5t-64.5 6.5q-59 0 -107.5 -21
t-84 -58.5t-55 -90t-19.5 -116.5q0 -123 57 -186t176 -63q33 0 69 8.5t57 19.5q6 3 11 1t5 -10zM362 778q-10 -8 -18.5 -11t-21.5 -3h-37q-9 0 -12 5.5t5 15.5l88 103q7 8 14.5 12.5t23.5 4.5h78q13 0 17 -7.5t-5 -14.5z" />
    <glyph glyph-name="Ccaron" unicode="&#x10c;" horiz-adv-x="543" 
d="M513 31q0 -7 -4 -9q-12 -8 -30.5 -14.5t-41 -11.5t-46.5 -8t-48 -3q-67 0 -122.5 21.5t-95.5 63.5t-62.5 103.5t-22.5 141.5q0 90 26.5 161t73 120.5t109.5 76t137 26.5q33 0 65 -3.5t48 -8.5q7 -3 7 -9v-68q0 -11 -10 -11q-9 0 -34.5 6.5t-64.5 6.5q-59 0 -107.5 -21
t-84 -58.5t-55 -90t-19.5 -116.5q0 -123 57 -186t176 -63q33 0 69 8.5t57 19.5q6 3 11 1t5 -10zM335 849l63 53q17 14 40 14h27q9 0 12 -5.5t-5 -15.5l-108 -123q-15 -17 -28 -17h-2q-14 0 -28 17l-109 123q-8 8 -4.5 14.5t12.5 6.5h29q14 0 22.5 -3t17.5 -11z" />
    <glyph glyph-name="Ccircumflex" unicode="&#x108;" horiz-adv-x="543" 
d="M513 31q0 -7 -4 -9q-12 -8 -30.5 -14.5t-41 -11.5t-46.5 -8t-48 -3q-67 0 -122.5 21.5t-95.5 63.5t-62.5 103.5t-22.5 141.5q0 90 26.5 161t73 120.5t109.5 76t137 26.5q33 0 65 -3.5t48 -8.5q7 -3 7 -9v-68q0 -11 -10 -11q-9 0 -34.5 6.5t-64.5 6.5q-59 0 -107.5 -21
t-84 -58.5t-55 -90t-19.5 -116.5q0 -123 57 -186t176 -63q33 0 69 8.5t57 19.5q6 3 11 1t5 -10zM336 831l-63 -53q-17 -14 -40 -14h-27q-9 0 -12 5.5t5 15.5l108 123q15 17 28 17h2q14 0 28 -17l109 -123q8 -8 4.5 -14.5t-12.5 -6.5h-29q-14 0 -22.5 3t-17.5 11z" />
    <glyph glyph-name="Cdotaccent" unicode="&#x10a;" horiz-adv-x="543" 
d="M513 31q0 -7 -4 -9q-12 -8 -30.5 -14.5t-41 -11.5t-46.5 -8t-48 -3q-67 0 -122.5 21.5t-95.5 63.5t-62.5 103.5t-22.5 141.5q0 90 26.5 161t73 120.5t109.5 76t137 26.5q33 0 65 -3.5t48 -8.5q7 -3 7 -9v-68q0 -11 -10 -11q-9 0 -34.5 6.5t-64.5 6.5q-59 0 -107.5 -21
t-84 -58.5t-55 -90t-19.5 -116.5q0 -123 57 -186t176 -63q33 0 69 8.5t57 19.5q6 3 11 1t5 -10zM329 765q-20 0 -36.5 14.5t-16.5 37.5q0 22 15.5 37t37.5 15q20 0 36.5 -14.5t16.5 -37.5t-16.5 -37.5t-36.5 -14.5z" />
    <glyph glyph-name="Dcaron" unicode="&#x10e;" horiz-adv-x="605" 
d="M135 700q77 0 154 -22t138.5 -65.5t99.5 -109t38 -152.5q0 -93 -38 -159.5t-98.5 -109t-135.5 -62.5t-149 -20h-57q-12 0 -12 11v677q0 12 12 12h48zM477 349q0 64 -25 112t-68 81t-100 50.5t-121 20.5v-531q76 3 135 24.5t98.5 57.5t60 83.5t20.5 101.5zM281 849l63 53
q17 14 40 14h27q9 0 12 -5.5t-5 -15.5l-108 -123q-15 -17 -28 -17h-2q-14 0 -28 17l-109 123q-8 8 -4.5 14.5t12.5 6.5h29q14 0 22.5 -3t17.5 -11z" />
    <glyph glyph-name="Dcroat" unicode="&#x110;" horiz-adv-x="605" 
d="M135 700q77 0 154 -22t138.5 -65.5t99.5 -109t38 -152.5q0 -93 -38 -159.5t-98.5 -109t-135.5 -62.5t-149 -20h-57q-12 0 -12 11v677q0 12 12 12h48zM477 349q0 64 -25 112t-68 81t-100 50.5t-121 20.5v-531q76 3 135 24.5t98.5 57.5t60 83.5t20.5 101.5zM154 795
q-12 0 -12 12v46q0 12 12 12h257q12 0 12 -12v-46q0 -12 -12 -12h-257z" />
    <glyph glyph-name="Ebreve" unicode="&#x114;" horiz-adv-x="558" 
d="M498 12q0 -12 -12 -12h-396q-12 0 -12 12l-7 675q0 13 12 13h413q12 0 12 -13v-57q0 -12 -12 -12h-335l2 -230h297q12 0 12 -12v-60q0 -12 -12 -12h-296l2 -222h320q12 0 12 -12v-58zM188 916q14 0 20.5 -3.5t9.5 -15.5q7 -26 24 -42.5t49 -16.5t47.5 16t26.5 48
q3 9 10 11.5t20 2.5h24q9 0 13 -4.5t1 -16.5q-14 -64 -52 -93t-92 -29q-57 0 -94.5 31.5t-49.5 90.5q-5 21 11 21h32z" />
    <glyph glyph-name="Ecaron" unicode="&#x11a;" horiz-adv-x="558" 
d="M498 12q0 -12 -12 -12h-396q-12 0 -12 12l-7 675q0 13 12 13h413q12 0 12 -13v-57q0 -12 -12 -12h-335l2 -230h297q12 0 12 -12v-60q0 -12 -12 -12h-296l2 -222h320q12 0 12 -12v-58zM288 849l63 53q17 14 40 14h27q9 0 12 -5.5t-5 -15.5l-108 -123q-15 -17 -28 -17h-2
q-14 0 -28 17l-109 123q-8 8 -4.5 14.5t12.5 6.5h29q14 0 22.5 -3t17.5 -11z" />
    <glyph glyph-name="Edotaccent" unicode="&#x116;" horiz-adv-x="558" 
d="M498 12q0 -12 -12 -12h-396q-12 0 -12 12l-7 675q0 13 12 13h413q12 0 12 -13v-57q0 -12 -12 -12h-335l2 -230h297q12 0 12 -12v-60q0 -12 -12 -12h-296l2 -222h320q12 0 12 -12v-58zM287 765q-20 0 -36.5 14.5t-16.5 37.5q0 22 15.5 37t37.5 15q20 0 36.5 -14.5
t16.5 -37.5t-16.5 -37.5t-36.5 -14.5z" />
    <glyph glyph-name="Emacron" unicode="&#x112;" horiz-adv-x="558" 
d="M498 12q0 -12 -12 -12h-396q-12 0 -12 12l-7 675q0 13 12 13h413q12 0 12 -13v-57q0 -12 -12 -12h-335l2 -230h297q12 0 12 -12v-60q0 -12 -12 -12h-296l2 -222h320q12 0 12 -12v-58zM160 795q-12 0 -12 12v46q0 12 12 12h257q12 0 12 -12v-46q0 -12 -12 -12h-257z" />
    <glyph glyph-name="Eogonek" unicode="&#x118;" horiz-adv-x="558" 
d="M498 20q0 -9 -5 -15q-23 -28 -38 -51t-15 -46q0 -29 18 -38.5t50 -11.5q10 -1 13 -4t3 -11v-38q0 -17 -23 -17q-66 0 -104.5 27.5t-38.5 75.5q0 31 18.5 56.5t42.5 52.5h-329q-12 0 -12 12l-7 675q0 13 12 13h413q12 0 12 -13v-57q0 -12 -12 -12h-335l2 -230h297
q12 0 12 -12v-60q0 -12 -12 -12h-296l2 -222h320q12 0 12 -12v-50z" />
    <glyph glyph-name="Gbreve" unicode="&#x11e;" horiz-adv-x="648" 
d="M583 54q0 -13 -11 -20q-28 -19 -79.5 -33.5t-110.5 -14.5q-84 0 -148 24.5t-107 67.5t-65 102.5t-22 130.5q0 89 30.5 161t83 122.5t123.5 78t152 27.5q15 0 33.5 -1t36 -2.5t32.5 -3.5t25 -5q7 -2 7 -9v-66q0 -11 -10 -11t-40 7t-78 7q-63 0 -118 -20.5t-95.5 -60
t-64 -97.5t-23.5 -132q0 -48 14.5 -90.5t46 -74t80.5 -49.5t118 -18q27 0 53 4.5t43 9.5v198l-166 -5q-5 0 -8 4t-3 9l3 65q0 11 11 11l245 8q12 0 12 -11v-313zM253 916q14 0 20.5 -3.5t9.5 -15.5q7 -26 24 -42.5t49 -16.5t47.5 16t26.5 48q3 9 10 11.5t20 2.5h24
q9 0 13 -4.5t1 -16.5q-14 -64 -52 -93t-92 -29q-57 0 -94.5 31.5t-49.5 90.5q-5 21 11 21h32z" />
    <glyph glyph-name="Gcircumflex" unicode="&#x11c;" horiz-adv-x="648" 
d="M583 54q0 -13 -11 -20q-28 -19 -79.5 -33.5t-110.5 -14.5q-84 0 -148 24.5t-107 67.5t-65 102.5t-22 130.5q0 89 30.5 161t83 122.5t123.5 78t152 27.5q15 0 33.5 -1t36 -2.5t32.5 -3.5t25 -5q7 -2 7 -9v-66q0 -11 -10 -11t-40 7t-78 7q-63 0 -118 -20.5t-95.5 -60
t-64 -97.5t-23.5 -132q0 -48 14.5 -90.5t46 -74t80.5 -49.5t118 -18q27 0 53 4.5t43 9.5v198l-166 -5q-5 0 -8 4t-3 9l3 65q0 11 11 11l245 8q12 0 12 -11v-313zM364 831l-63 -53q-17 -14 -40 -14h-27q-9 0 -12 5.5t5 15.5l108 123q15 17 28 17h2q14 0 28 -17l109 -123
q8 -8 4.5 -14.5t-12.5 -6.5h-29q-14 0 -22.5 3t-17.5 11z" />
    <glyph glyph-name="Gcommaaccent" unicode="&#x122;" horiz-adv-x="648" 
d="M583 54q0 -13 -11 -20q-28 -19 -79.5 -33.5t-110.5 -14.5q-84 0 -148 24.5t-107 67.5t-65 102.5t-22 130.5q0 89 30.5 161t83 122.5t123.5 78t152 27.5q15 0 33.5 -1t36 -2.5t32.5 -3.5t25 -5q7 -2 7 -9v-66q0 -11 -10 -11t-40 7t-78 7q-63 0 -118 -20.5t-95.5 -60
t-64 -97.5t-23.5 -132q0 -48 14.5 -90.5t46 -74t80.5 -49.5t118 -18q27 0 53 4.5t43 9.5v198l-166 -5q-5 0 -8 4t-3 9l3 65q0 11 11 11l245 8q12 0 12 -11v-313zM338 -183q-17 3 -31 15.5t-14 35.5q0 22 15.5 37t37.5 15q25 0 39 -17t14 -37q0 -24 -8.5 -44t-19.5 -34
t-20.5 -22t-12.5 -8q-12 0 -12 11q0 5 6.5 16.5t5.5 31.5z" />
    <glyph glyph-name="Gdotaccent" unicode="&#x120;" horiz-adv-x="648" 
d="M583 54q0 -13 -11 -20q-28 -19 -79.5 -33.5t-110.5 -14.5q-84 0 -148 24.5t-107 67.5t-65 102.5t-22 130.5q0 89 30.5 161t83 122.5t123.5 78t152 27.5q15 0 33.5 -1t36 -2.5t32.5 -3.5t25 -5q7 -2 7 -9v-66q0 -11 -10 -11t-40 7t-78 7q-63 0 -118 -20.5t-95.5 -60
t-64 -97.5t-23.5 -132q0 -48 14.5 -90.5t46 -74t80.5 -49.5t118 -18q27 0 53 4.5t43 9.5v198l-166 -5q-5 0 -8 4t-3 9l3 65q0 11 11 11l245 8q12 0 12 -11v-313zM362 765q-20 0 -36.5 14.5t-16.5 37.5q0 22 15.5 37t37.5 15q20 0 36.5 -14.5t16.5 -37.5t-16.5 -37.5
t-36.5 -14.5z" />
    <glyph glyph-name="Hbar" unicode="&#x126;" horiz-adv-x="666" 
d="M582 12q0 -12 -12 -12h-60q-12 0 -12 12l5 303l-342 -3l-2 -300q0 -12 -11 -12h-60q-13 0 -13 12v676q0 12 12 12h67q12 0 12 -12l-3 -297l341 3l5 294q0 12 12 12h67q11 0 11 -12zM207 795q-12 0 -12 12v46q0 12 12 12h257q12 0 12 -12v-46q0 -12 -12 -12h-257z" />
    <glyph glyph-name="Hcircumflex" unicode="&#x124;" horiz-adv-x="666" 
d="M582 12q0 -12 -12 -12h-60q-12 0 -12 12l5 303l-342 -3l-2 -300q0 -12 -11 -12h-60q-13 0 -13 12v676q0 12 12 12h67q12 0 12 -12l-3 -297l341 3l5 294q0 12 12 12h67q11 0 11 -12zM333 831l-63 -53q-17 -14 -40 -14h-27q-9 0 -12 5.5t5 15.5l108 123q15 17 28 17h2
q14 0 28 -17l109 -123q8 -8 4.5 -14.5t-12.5 -6.5h-29q-14 0 -22.5 3t-17.5 11z" />
    <glyph glyph-name="Ibreve" unicode="&#x12c;" horiz-adv-x="240" 
d="M165 11q0 -11 -13 -11h-65q-12 0 -12 12v675q0 13 12 13h66q11 0 11 -12zM19 916q14 0 20.5 -3.5t9.5 -15.5q7 -26 24 -42.5t49 -16.5t47.5 16t26.5 48q3 9 10 11.5t20 2.5h24q9 0 13 -4.5t1 -16.5q-14 -64 -52 -93t-92 -29q-57 0 -94.5 31.5t-49.5 90.5q-5 21 11 21h32z
" />
    <glyph glyph-name="Idotaccent" unicode="&#x130;" horiz-adv-x="240" 
d="M165 11q0 -11 -13 -11h-65q-12 0 -12 12v675q0 13 12 13h66q11 0 11 -12zM120 765q-20 0 -36.5 14.5t-16.5 37.5q0 22 15.5 37t37.5 15q20 0 36.5 -14.5t16.5 -37.5t-16.5 -37.5t-36.5 -14.5z" />
    <glyph glyph-name="Imacron" unicode="&#x12a;" horiz-adv-x="240" 
d="M165 11q0 -11 -13 -11h-65q-12 0 -12 12v675q0 13 12 13h66q11 0 11 -12zM-8 795q-12 0 -12 12v46q0 12 12 12h257q12 0 12 -12v-46q0 -12 -12 -12h-257z" />
    <glyph glyph-name="Iogonek" unicode="&#x12e;" horiz-adv-x="240" 
d="M165 25q0 -14 -5 -20q-23 -28 -38 -51t-15 -46q0 -29 18 -38.5t50 -11.5q10 -1 13 -4t3 -11v-38q0 -17 -23 -17q-66 0 -104.5 27.5t-38.5 75.5q0 31 18.5 56.5t42.5 52.5h-2q-9 0 -9 12v675q0 13 12 13h66q11 0 11 -12z" />
    <glyph glyph-name="Itilde" unicode="&#x128;" horiz-adv-x="240" 
d="M165 11q0 -11 -13 -11h-65q-12 0 -12 12v675q0 13 12 13h66q11 0 11 -12zM283 890q9 0 11.5 -5.5t2.5 -16.5q0 -8 -5 -24t-16.5 -31.5t-30.5 -27.5t-47 -12q-24 0 -43.5 6t-36.5 13l-33 13t-32 6q-28 0 -41 -32q-3 -11 -15 -11h-35q-17 0 -17 22q0 6 5.5 22.5t18 34.5
t33 32t50.5 14q24 0 43.5 -6t36.5 -13.5t32 -13.5t32 -6q16 0 23.5 5.5t12.5 20.5q3 10 15 10h36z" />
    <glyph glyph-name="Jcircumflex" unicode="&#x134;" horiz-adv-x="406" 
d="M338 687q-1 -38 -2 -97t-2.5 -124.5t-3.5 -131t-3 -114.5q-2 -56 -14.5 -99t-39.5 -75q-23 -28 -60 -44t-88 -16q-32 0 -56 3t-40 11q-9 3 -9 13v64q0 13 14 13q5 0 29 -6t53 -6q30 0 53 8t39 26.5t24.5 49t8.5 74.5l5 451q0 5 4.5 9t9.5 4h65q13 0 13 -13zM288 831
l-63 -53q-17 -14 -40 -14h-27q-9 0 -12 5.5t5 15.5l108 123q15 17 28 17h2q14 0 28 -17l109 -123q8 -8 4.5 -14.5t-12.5 -6.5h-29q-14 0 -22.5 3t-17.5 11z" />
    <glyph glyph-name="Kcommaaccent" unicode="&#x136;" horiz-adv-x="557" 
d="M240 357l288 -345q4 -5 2.5 -8.5t-7.5 -3.5h-91q-10 0 -16 7l-251 312l-3 -1l-2 -306q0 -12 -11 -12h-63q-11 0 -11 12v677q0 11 12 11h68q11 0 11 -11l-3 -299l274 304q6 6 13 6h77q8 0 11 -6.5t-2 -11.5zM269 -183q-17 3 -31 15.5t-14 35.5q0 22 15.5 37t37.5 15
q25 0 39 -17t14 -37q0 -24 -8.5 -44t-19.5 -34t-20.5 -22t-12.5 -8q-12 0 -12 11q0 5 6.5 16.5t5.5 31.5z" />
    <glyph glyph-name="Lacute" unicode="&#x139;" horiz-adv-x="498" 
d="M468 13q0 -13 -13 -13h-362q-12 0 -12 13l6 675q0 12 13 12h67q12 0 12 -12l-10 -603h286q13 0 13 -13v-59zM194 778q-10 -8 -18.5 -11t-21.5 -3h-37q-9 0 -12 5.5t5 15.5l88 103q7 8 14.5 12.5t23.5 4.5h78q13 0 17 -7.5t-5 -14.5z" />
    <glyph glyph-name="Lcaron" unicode="&#x13d;" horiz-adv-x="498" 
d="M468 13q0 -13 -13 -13h-362q-12 0 -12 13l6 675q0 12 13 12h67q12 0 12 -12l-10 -603h286q13 0 13 -13v-59zM329 596q-20 3 -35.5 17.5t-15.5 40.5q0 25 17.5 42t41.5 17q29 0 45 -19.5t16 -42.5q0 -27 -10 -49.5t-22 -38.5t-23 -25t-14 -9q-13 0 -13 13q0 6 7.5 19
t5.5 35z" />
    <glyph glyph-name="Lcommaaccent" unicode="&#x13b;" horiz-adv-x="498" 
d="M468 13q0 -13 -13 -13h-362q-12 0 -12 13l6 675q0 12 13 12h67q12 0 12 -12l-10 -603h286q13 0 13 -13v-59zM253 -183q-17 3 -31 15.5t-14 35.5q0 22 15.5 37t37.5 15q25 0 39 -17t14 -37q0 -24 -8.5 -44t-19.5 -34t-20.5 -22t-12.5 -8q-12 0 -12 11q0 5 6.5 16.5
t5.5 31.5z" />
    <glyph glyph-name="Ldot" unicode="&#x13f;" horiz-adv-x="546" 
d="M468 13q0 -13 -13 -13h-362q-12 0 -12 13l6 675q0 12 13 12h67q12 0 12 -12l-10 -603h286q13 0 13 -13v-59zM339 411q-22 0 -41 16.5t-19 42.5q0 25 17.5 42t42.5 17q23 0 41.5 -16.5t18.5 -42.5t-18.5 -42.5t-41.5 -16.5z" />
    <glyph glyph-name="Nacute" unicode="&#x143;" horiz-adv-x="666" 
d="M588 11q0 -11 -12 -11h-62q-8 0 -12 7l-336 519l-4 -515q0 -11 -12 -11h-62q-13 0 -13 12v675q0 13 12 13h69q7 0 10 -7l338 -523v518q0 12 11 12h67q12 0 12 -11zM358 778q-10 -8 -18.5 -11t-21.5 -3h-37q-9 0 -12 5.5t5 15.5l88 103q7 8 14.5 12.5t23.5 4.5h78
q13 0 17 -7.5t-5 -14.5z" />
    <glyph glyph-name="Ncaron" unicode="&#x147;" horiz-adv-x="666" 
d="M588 11q0 -11 -12 -11h-62q-8 0 -12 7l-336 519l-4 -515q0 -11 -12 -11h-62q-13 0 -13 12v675q0 13 12 13h69q7 0 10 -7l338 -523v518q0 12 11 12h67q12 0 12 -11zM336 849l63 53q17 14 40 14h27q9 0 12 -5.5t-5 -15.5l-108 -123q-15 -17 -28 -17h-2q-14 0 -28 17
l-109 123q-8 8 -4.5 14.5t12.5 6.5h29q14 0 22.5 -3t17.5 -11z" />
    <glyph glyph-name="Ncommaaccent" unicode="&#x145;" horiz-adv-x="666" 
d="M588 11q0 -11 -12 -11h-62q-8 0 -12 7l-336 519l-4 -515q0 -11 -12 -11h-62q-13 0 -13 12v675q0 13 12 13h69q7 0 10 -7l338 -523v518q0 12 11 12h67q12 0 12 -11zM327 -183q-17 3 -31 15.5t-14 35.5q0 22 15.5 37t37.5 15q25 0 39 -17t14 -37q0 -24 -8.5 -44t-19.5 -34
t-20.5 -22t-12.5 -8q-12 0 -12 11q0 5 6.5 16.5t5.5 31.5z" />
    <glyph glyph-name="Obreve" unicode="&#x14e;" horiz-adv-x="680" 
d="M367 703q73 0 124.5 -34t84.5 -88t48.5 -122t15.5 -136q0 -70 -20 -131.5t-57 -107.5t-89.5 -72.5t-117.5 -26.5q-75 0 -134 25.5t-99.5 71.5t-61.5 110t-21 140q0 78 22 145.5t63.5 118t102.5 79t139 28.5zM343 70q100 0 153 67.5t53 182.5q0 53 -10 106t-33 95
t-59.5 68t-89.5 26q-54 0 -96.5 -22.5t-71 -61.5t-43.5 -92t-15 -114q0 -65 17 -113t46 -79.5t67.5 -47t81.5 -15.5zM249 916q14 0 20.5 -3.5t9.5 -15.5q7 -26 24 -42.5t49 -16.5t47.5 16t26.5 48q3 9 10 11.5t20 2.5h24q9 0 13 -4.5t1 -16.5q-14 -64 -52 -93t-92 -29
q-57 0 -94.5 31.5t-49.5 90.5q-5 21 11 21h32z" />
    <glyph glyph-name="Ohungarumlaut" unicode="&#x150;" horiz-adv-x="680" 
d="M367 703q73 0 124.5 -34t84.5 -88t48.5 -122t15.5 -136q0 -70 -20 -131.5t-57 -107.5t-89.5 -72.5t-117.5 -26.5q-75 0 -134 25.5t-99.5 71.5t-61.5 110t-21 140q0 78 22 145.5t63.5 118t102.5 79t139 28.5zM343 70q100 0 153 67.5t53 182.5q0 53 -10 106t-33 95
t-59.5 68t-89.5 26q-54 0 -96.5 -22.5t-71 -61.5t-43.5 -92t-15 -114q0 -65 17 -113t46 -79.5t67.5 -47t81.5 -15.5zM290 778q-9 -9 -18 -11.5t-22 -2.5h-37q-9 0 -11.5 5t4.5 16l68 103q5 8 13.5 12.5t24.5 4.5h68q13 0 16.5 -7t-4.5 -15zM493 778q-9 -9 -18 -11.5
t-22 -2.5h-37q-9 0 -11.5 5t4.5 16l68 103q5 8 13.5 12.5t24.5 4.5h68q13 0 16.5 -7t-4.5 -15z" />
    <glyph glyph-name="Omacron" unicode="&#x14c;" horiz-adv-x="680" 
d="M367 703q73 0 124.5 -34t84.5 -88t48.5 -122t15.5 -136q0 -70 -20 -131.5t-57 -107.5t-89.5 -72.5t-117.5 -26.5q-75 0 -134 25.5t-99.5 71.5t-61.5 110t-21 140q0 78 22 145.5t63.5 118t102.5 79t139 28.5zM343 70q100 0 153 67.5t53 182.5q0 53 -10 106t-33 95
t-59.5 68t-89.5 26q-54 0 -96.5 -22.5t-71 -61.5t-43.5 -92t-15 -114q0 -65 17 -113t46 -79.5t67.5 -47t81.5 -15.5zM225 795q-12 0 -12 12v46q0 12 12 12h257q12 0 12 -12v-46q0 -12 -12 -12h-257z" />
    <glyph glyph-name="Racute" unicode="&#x154;" horiz-adv-x="585" 
d="M547 20q5 -6 2 -13t-12 -7h-80q-7 0 -11 5l-152 208q-18 -4 -38 -7.5l-38 -6.5t-33 -4.5t-22 -1.5l-2 -182q0 -11 -12 -11h-60q-13 0 -13 11l-1 675q0 11 12 11h89q81 0 147.5 -13t114.5 -42t74 -76t26 -116t-42.5 -125.5t-113.5 -84.5zM165 276q60 2 111.5 14t89.5 34.5
t59.5 54.5t21.5 74q0 87 -71.5 124.5t-207.5 37.5zM299 778q-10 -8 -18.5 -11t-21.5 -3h-37q-9 0 -12 5.5t5 15.5l88 103q7 8 14.5 12.5t23.5 4.5h78q13 0 17 -7.5t-5 -14.5z" />
    <glyph glyph-name="Rcaron" unicode="&#x158;" horiz-adv-x="585" 
d="M547 20q5 -6 2 -13t-12 -7h-80q-7 0 -11 5l-152 208q-18 -4 -38 -7.5l-38 -6.5t-33 -4.5t-22 -1.5l-2 -182q0 -11 -12 -11h-60q-13 0 -13 11l-1 675q0 11 12 11h89q81 0 147.5 -13t114.5 -42t74 -76t26 -116t-42.5 -125.5t-113.5 -84.5zM165 276q60 2 111.5 14t89.5 34.5
t59.5 54.5t21.5 74q0 87 -71.5 124.5t-207.5 37.5zM282 849l63 53q17 14 40 14h27q9 0 12 -5.5t-5 -15.5l-108 -123q-15 -17 -28 -17h-2q-14 0 -28 17l-109 123q-8 8 -4.5 14.5t12.5 6.5h29q14 0 22.5 -3t17.5 -11z" />
    <glyph glyph-name="Rcommaaccent" unicode="&#x156;" horiz-adv-x="585" 
d="M547 20q5 -6 2 -13t-12 -7h-80q-7 0 -11 5l-152 208q-18 -4 -38 -7.5l-38 -6.5t-33 -4.5t-22 -1.5l-2 -182q0 -11 -12 -11h-60q-13 0 -13 11l-1 675q0 11 12 11h89q81 0 147.5 -13t114.5 -42t74 -76t26 -116t-42.5 -125.5t-113.5 -84.5zM165 276q60 2 111.5 14t89.5 34.5
t59.5 54.5t21.5 74q0 87 -71.5 124.5t-207.5 37.5zM284 -183q-17 3 -31 15.5t-14 35.5q0 22 15.5 37t37.5 15q25 0 39 -17t14 -37q0 -24 -8.5 -44t-19.5 -34t-20.5 -22t-12.5 -8q-12 0 -12 11q0 5 6.5 16.5t5.5 31.5z" />
    <glyph glyph-name="Sacute" unicode="&#x15a;" horiz-adv-x="593" 
d="M554 189q-1 -45 -16.5 -82.5t-46.5 -65t-78 -42.5t-111 -15q-142 0 -231 93q-3 3 -3 7.5t3 7.5l37 47q8 8 16 1q32 -34 78.5 -53t103.5 -19q77 0 119 31t42 84q0 40 -31.5 61.5t-79 35.5t-102.5 26t-102.5 33t-79 56.5t-31.5 96.5q0 51 20.5 91t55.5 67t83 41t104 14
q72 0 135.5 -23.5t111.5 -69.5q3 -3 2 -8t-3 -7l-39 -48q-3 -4 -8 -3.5t-8 2.5q-40 36 -88.5 55.5t-105.5 19.5q-74 0 -120.5 -31.5t-46.5 -94.5q0 -25 13 -43.5t35 -31.5t51.5 -22t62.5 -15q63 -12 111.5 -26.5t81.5 -37t49.5 -54.5t15.5 -78zM333 778q-10 -8 -18.5 -11
t-21.5 -3h-37q-9 0 -12 5.5t5 15.5l88 103q7 8 14.5 12.5t23.5 4.5h78q13 0 17 -7.5t-5 -14.5z" />
    <glyph glyph-name="Scedilla" unicode="&#x15e;" horiz-adv-x="593" 
d="M554 189q-1 -45 -16.5 -82.5t-46.5 -65t-78 -42.5t-111 -15q-142 0 -231 93q-3 3 -3 7.5t3 7.5l37 47q8 8 16 1q32 -34 78.5 -53t103.5 -19q77 0 119 31t42 84q0 40 -31.5 61.5t-79 35.5t-102.5 26t-102.5 33t-79 56.5t-31.5 96.5q0 51 20.5 91t55.5 67t83 41t104 14
q72 0 135.5 -23.5t111.5 -69.5q3 -3 2 -8t-3 -7l-39 -48q-3 -4 -8 -3.5t-8 2.5q-40 36 -88.5 55.5t-105.5 19.5q-74 0 -120.5 -31.5t-46.5 -94.5q0 -25 13 -43.5t35 -31.5t51.5 -22t62.5 -15q63 -12 111.5 -26.5t81.5 -37t49.5 -54.5t15.5 -78zM243 -187q-10 -8 -18.5 -11
t-21.5 -3h-37q-9 0 -12 5.5t5 15.5l88 103q7 8 14.5 12.5t23.5 4.5h78q13 0 17 -7.5t-5 -14.5z" />
    <glyph glyph-name="Scircumflex" unicode="&#x15c;" horiz-adv-x="593" 
d="M554 189q-1 -45 -16.5 -82.5t-46.5 -65t-78 -42.5t-111 -15q-142 0 -231 93q-3 3 -3 7.5t3 7.5l37 47q8 8 16 1q32 -34 78.5 -53t103.5 -19q77 0 119 31t42 84q0 40 -31.5 61.5t-79 35.5t-102.5 26t-102.5 33t-79 56.5t-31.5 96.5q0 51 20.5 91t55.5 67t83 41t104 14
q72 0 135.5 -23.5t111.5 -69.5q3 -3 2 -8t-3 -7l-39 -48q-3 -4 -8 -3.5t-8 2.5q-40 36 -88.5 55.5t-105.5 19.5q-74 0 -120.5 -31.5t-46.5 -94.5q0 -25 13 -43.5t35 -31.5t51.5 -22t62.5 -15q63 -12 111.5 -26.5t81.5 -37t49.5 -54.5t15.5 -78zM307 831l-63 -53
q-17 -14 -40 -14h-27q-9 0 -12 5.5t5 15.5l108 123q15 17 28 17h2q14 0 28 -17l109 -123q8 -8 4.5 -14.5t-12.5 -6.5h-29q-14 0 -22.5 3t-17.5 11z" />
    <glyph glyph-name="Scommaaccent" unicode="&#x218;" horiz-adv-x="593" 
d="M554 189q-1 -45 -16.5 -82.5t-46.5 -65t-78 -42.5t-111 -15q-142 0 -231 93q-3 3 -3 7.5t3 7.5l37 47q8 8 16 1q32 -34 78.5 -53t103.5 -19q77 0 119 31t42 84q0 40 -31.5 61.5t-79 35.5t-102.5 26t-102.5 33t-79 56.5t-31.5 96.5q0 51 20.5 91t55.5 67t83 41t104 14
q72 0 135.5 -23.5t111.5 -69.5q3 -3 2 -8t-3 -7l-39 -48q-3 -4 -8 -3.5t-8 2.5q-40 36 -88.5 55.5t-105.5 19.5q-74 0 -120.5 -31.5t-46.5 -94.5q0 -25 13 -43.5t35 -31.5t51.5 -22t62.5 -15q63 -12 111.5 -26.5t81.5 -37t49.5 -54.5t15.5 -78zM292 -183q-17 3 -31 15.5
t-14 35.5q0 22 15.5 37t37.5 15q25 0 39 -17t14 -37q0 -24 -8.5 -44t-19.5 -34t-20.5 -22t-12.5 -8q-12 0 -12 11q0 5 6.5 16.5t5.5 31.5z" />
    <glyph glyph-name="Tbar" unicode="&#x166;" horiz-adv-x="516" 
d="M506 635q0 -12 -13 -12h-190v-611q0 -12 -12 -12h-67q-12 0 -12 12v611h-200q-12 0 -12 12v54q0 11 12 11h481q13 0 13 -11v-54zM129 795q-12 0 -12 12v46q0 12 12 12h257q12 0 12 -12v-46q0 -12 -12 -12h-257z" />
    <glyph glyph-name="Tcaron" unicode="&#x164;" horiz-adv-x="516" 
d="M506 635q0 -12 -13 -12h-190v-611q0 -12 -12 -12h-67q-12 0 -12 12v611h-200q-12 0 -12 12v54q0 11 12 11h481q13 0 13 -11v-54zM257 849l63 53q17 14 40 14h27q9 0 12 -5.5t-5 -15.5l-108 -123q-15 -17 -28 -17h-2q-14 0 -28 17l-109 123q-8 8 -4.5 14.5t12.5 6.5h29
q14 0 22.5 -3t17.5 -11z" />
    <glyph glyph-name="Tcommaaccent" unicode="&#x162;" horiz-adv-x="516" 
d="M506 635q0 -12 -13 -12h-190v-611q0 -12 -12 -12h-67q-12 0 -12 12v611h-200q-12 0 -12 12v54q0 11 12 11h481q13 0 13 -11v-54zM247 -183q-17 3 -31 15.5t-14 35.5q0 22 15.5 37t37.5 15q25 0 39 -17t14 -37q0 -24 -8.5 -44t-19.5 -34t-20.5 -22t-12.5 -8q-12 0 -12 11
q0 5 6.5 16.5t5.5 31.5z" />
    <glyph glyph-name="Ubreve" unicode="&#x16c;" horiz-adv-x="660" 
d="M590 252q2 -144 -62 -212t-194 -68q-61 0 -110 18.5t-83 54.5t-52.5 88t-18.5 119v435q0 13 11 13h66q12 0 12 -13v-448q0 -80 47 -129t128 -49q48 0 80.5 13t52 36.5t28 56.5t8.5 72l-5 448q0 13 12 13h64q11 0 11 -13zM228 916q14 0 20.5 -3.5t9.5 -15.5
q7 -26 24 -42.5t49 -16.5t47.5 16t26.5 48q3 9 10 11.5t20 2.5h24q9 0 13 -4.5t1 -16.5q-14 -64 -52 -93t-92 -29q-57 0 -94.5 31.5t-49.5 90.5q-5 21 11 21h32z" />
    <glyph glyph-name="Uhungarumlaut" unicode="&#x170;" horiz-adv-x="660" 
d="M590 252q2 -144 -62 -212t-194 -68q-61 0 -110 18.5t-83 54.5t-52.5 88t-18.5 119v435q0 13 11 13h66q12 0 12 -13v-448q0 -80 47 -129t128 -49q48 0 80.5 13t52 36.5t28 56.5t8.5 72l-5 448q0 13 12 13h64q11 0 11 -13zM270 778q-9 -9 -18 -11.5t-22 -2.5h-37
q-9 0 -11.5 5t4.5 16l68 103q5 8 13.5 12.5t24.5 4.5h68q13 0 16.5 -7t-4.5 -15zM473 778q-9 -9 -18 -11.5t-22 -2.5h-37q-9 0 -11.5 5t4.5 16l68 103q5 8 13.5 12.5t24.5 4.5h68q13 0 16.5 -7t-4.5 -15z" />
    <glyph glyph-name="Umacron" unicode="&#x16a;" horiz-adv-x="660" 
d="M590 252q2 -144 -62 -212t-194 -68q-61 0 -110 18.5t-83 54.5t-52.5 88t-18.5 119v435q0 13 11 13h66q12 0 12 -13v-448q0 -80 47 -129t128 -49q48 0 80.5 13t52 36.5t28 56.5t8.5 72l-5 448q0 13 12 13h64q11 0 11 -13zM201 795q-12 0 -12 12v46q0 12 12 12h257
q12 0 12 -12v-46q0 -12 -12 -12h-257z" />
    <glyph glyph-name="Uogonek" unicode="&#x172;" horiz-adv-x="660" 
d="M590 252q1 -186 -108 -247q-23 -28 -38 -51t-15 -46q0 -29 18 -38.5t50 -11.5q10 -1 13 -4t3 -11v-38q0 -17 -23 -17q-66 0 -104.5 27.5t-38.5 75.5q0 23 11 43.5t28 40.5q-24 -3 -52 -3q-61 0 -110 18.5t-83 54.5t-52.5 88t-18.5 119v435q0 13 11 13h66q12 0 12 -13
v-448q0 -80 47 -129t128 -49q48 0 80.5 13t52 36.5t28 56.5t8.5 72l-5 448q0 13 12 13h64q11 0 11 -13z" />
    <glyph glyph-name="Uring" unicode="&#x16e;" horiz-adv-x="660" 
d="M590 252q2 -144 -62 -212t-194 -68q-61 0 -110 18.5t-83 54.5t-52.5 88t-18.5 119v435q0 13 11 13h66q12 0 12 -13v-448q0 -80 47 -129t128 -49q48 0 80.5 13t52 36.5t28 56.5t8.5 72l-5 448q0 13 12 13h64q11 0 11 -13zM330 769q-21 0 -40 6t-33.5 17.5t-23 28.5
t-8.5 40q0 41 30.5 66.5t73.5 25.5q21 0 40 -6.5t33.5 -18.5t23 -29t8.5 -39q0 -21 -8.5 -38t-23 -29t-33 -18t-39.5 -6zM330 813q23 0 38 13.5t15 33.5q0 21 -14.5 35t-39.5 14t-39 -14t-14 -34q0 -22 15.5 -35t38.5 -13z" />
    <glyph glyph-name="Utilde" unicode="&#x168;" horiz-adv-x="660" 
d="M590 252q2 -144 -62 -212t-194 -68q-61 0 -110 18.5t-83 54.5t-52.5 88t-18.5 119v435q0 13 11 13h66q12 0 12 -13v-448q0 -80 47 -129t128 -49q48 0 80.5 13t52 36.5t28 56.5t8.5 72l-5 448q0 13 12 13h64q11 0 11 -13zM497 890q9 0 11.5 -5.5t2.5 -16.5q0 -8 -5 -24
t-16.5 -31.5t-30.5 -27.5t-47 -12q-24 0 -43.5 6t-36.5 13l-33 13t-32 6q-28 0 -41 -32q-3 -11 -15 -11h-35q-17 0 -17 22q0 6 5.5 22.5t18 34.5t33 32t50.5 14q24 0 43.5 -6t36.5 -13.5t32 -13.5t32 -6q16 0 23.5 5.5t12.5 20.5q3 10 15 10h36z" />
    <glyph glyph-name="Wacute" unicode="&#x1e82;" horiz-adv-x="820" 
d="M182 0q-11 0 -12 12l-142 675q-2 13 10 13h67q12 0 13 -11l103 -490q3 -16 2 -33q2 2 6 13l148 367q3 8 12 8h57q8 0 11 -8l134 -368q4 -11 8 -16q-2 14 1 29l107 498q1 11 14 11h61q14 0 12 -14l-148 -674q-2 -12 -14 -12h-59q-9 0 -12 8l-148 413l-161 -413
q-3 -8 -11 -8h-59zM464 778q-10 -8 -18.5 -11t-21.5 -3h-37q-9 0 -12 5.5t5 15.5l88 103q7 8 14.5 12.5t23.5 4.5h78q13 0 17 -7.5t-5 -14.5z" />
    <glyph glyph-name="Wcircumflex" unicode="&#x174;" horiz-adv-x="820" 
d="M182 0q-11 0 -12 12l-142 675q-2 13 10 13h67q12 0 13 -11l103 -490q3 -16 2 -33q2 2 6 13l148 367q3 8 12 8h57q8 0 11 -8l134 -368q4 -11 8 -16q-2 14 1 29l107 498q1 11 14 11h61q14 0 12 -14l-148 -674q-2 -12 -14 -12h-59q-9 0 -12 8l-148 413l-161 -413
q-3 -8 -11 -8h-59zM416 831l-63 -53q-17 -14 -40 -14h-27q-9 0 -12 5.5t5 15.5l108 123q15 17 28 17h2q14 0 28 -17l109 -123q8 -8 4.5 -14.5t-12.5 -6.5h-29q-14 0 -22.5 3t-17.5 11z" />
    <glyph glyph-name="Wdieresis" unicode="&#x1e84;" horiz-adv-x="820" 
d="M182 0q-11 0 -12 12l-142 675q-2 13 10 13h67q12 0 13 -11l103 -490q3 -16 2 -33q2 2 6 13l148 367q3 8 12 8h57q8 0 11 -8l134 -368q4 -11 8 -16q-2 14 1 29l107 498q1 11 14 11h61q14 0 12 -14l-148 -674q-2 -12 -14 -12h-59q-9 0 -12 8l-148 413l-161 -413
q-3 -8 -11 -8h-59zM315 765q-20 0 -36.5 14.5t-16.5 37.5q0 22 15.5 37t37.5 15q20 0 36.5 -14.5t16.5 -37.5t-16.5 -37.5t-36.5 -14.5zM515 765q-20 0 -36.5 14.5t-16.5 37.5q0 22 15.5 37t37.5 15q20 0 36.5 -14.5t16.5 -37.5t-16.5 -37.5t-36.5 -14.5z" />
    <glyph glyph-name="Wgrave" unicode="&#x1e80;" horiz-adv-x="820" 
d="M182 0q-11 0 -12 12l-142 675q-2 13 10 13h67q12 0 13 -11l103 -490q3 -16 2 -33q2 2 6 13l148 367q3 8 12 8h57q8 0 11 -8l134 -368q4 -11 8 -16q-2 14 1 29l107 498q1 11 14 11h61q14 0 12 -14l-148 -674q-2 -12 -14 -12h-59q-9 0 -12 8l-148 413l-161 -413
q-3 -8 -11 -8h-59zM244 883q-9 7 -5 14.5t17 7.5h83q17 0 24.5 -4.5t13.5 -12.5l89 -103q8 -9 4.5 -15t-12.5 -6h-36q-14 0 -22 3t-18 11z" />
    <glyph glyph-name="Ycircumflex" unicode="&#x176;" horiz-adv-x="528" 
d="M511 688l-46 -91.5l-52.5 -102.5l-56.5 -107.5l-57 -106.5l2 -269q0 -11 -12 -11h-64q-12 0 -12 11v269l-107.5 219.5l-88.5 188.5q-3 6 1.5 9t10.5 3h72q9 0 11 -8l146 -331l161 331q4 8 12 8h68q6 0 10.5 -3t1.5 -9zM264 831l-63 -53q-17 -14 -40 -14h-27q-9 0 -12 5.5
t5 15.5l108 123q15 17 28 17h2q14 0 28 -17l109 -123q8 -8 4.5 -14.5t-12.5 -6.5h-29q-14 0 -22.5 3t-17.5 11z" />
    <glyph glyph-name="Ygrave" unicode="&#x1ef2;" horiz-adv-x="528" 
d="M511 688l-46 -91.5l-52.5 -102.5l-56.5 -107.5l-57 -106.5l2 -269q0 -11 -12 -11h-64q-12 0 -12 11v269l-107.5 219.5l-88.5 188.5q-3 6 1.5 9t10.5 3h72q9 0 11 -8l146 -331l161 331q4 8 12 8h68q6 0 10.5 -3t1.5 -9zM112 883q-9 7 -5 14.5t17 7.5h83q17 0 24.5 -4.5
t13.5 -12.5l89 -103q8 -9 4.5 -15t-12.5 -6h-36q-14 0 -22 3t-18 11z" />
    <glyph glyph-name="Zacute" unicode="&#x179;" horiz-adv-x="540" 
d="M497 12q0 -12 -12 -12h-413q-12 0 -12 12v59q0 5 4 11l332 536h-349q-12 0 -12 12v59q0 11 13 11h441q11 0 11 -12v-55q0 -6 -4 -11l-335 -540h325q11 0 11 -11v-59zM285 778q-10 -8 -18.5 -11t-21.5 -3h-37q-9 0 -12 5.5t5 15.5l88 103q7 8 14.5 12.5t23.5 4.5h78
q13 0 17 -7.5t-5 -14.5z" />
    <glyph glyph-name="Zdotaccent" unicode="&#x17b;" horiz-adv-x="540" 
d="M497 12q0 -12 -12 -12h-413q-12 0 -12 12v59q0 5 4 11l332 536h-349q-12 0 -12 12v59q0 11 13 11h441q11 0 11 -12v-55q0 -6 -4 -11l-335 -540h325q11 0 11 -11v-59zM268 765q-20 0 -36.5 14.5t-16.5 37.5q0 22 15.5 37t37.5 15q20 0 36.5 -14.5t16.5 -37.5t-16.5 -37.5
t-36.5 -14.5z" />
    <glyph glyph-name="abreve" unicode="&#x103;" horiz-adv-x="501" 
d="M441 12q0 -12 -12 -12h-60q-5 0 -8 9q-20 -10 -55.5 -18t-70.5 -8q-42 0 -78 11.5t-62 32.5t-40.5 49.5t-14.5 62.5q0 45 16 77.5t45 54.5t68.5 32.5t86.5 10.5q26 0 53 -2.5t44 -4.5q0 128 -99 128q-35 0 -63.5 -14.5t-39.5 -54.5h-71q-6 0 -9.5 2t-3.5 10q0 15 12 43.5
t39 52.5q28 24 64.5 35.5t74.5 11.5q46 0 80.5 -14.5t57 -41t33.5 -63t11 -80.5zM353 227q-13 3 -40.5 6t-51.5 3q-60 0 -95.5 -24.5t-35.5 -68.5q0 -34 30 -55.5t94 -21.5q29 0 56 8t43 16v137zM154 710q14 0 20.5 -3.5t9.5 -15.5q7 -26 24 -42.5t49 -16.5t47.5 16t26.5 48
q3 9 10 11.5t20 2.5h24q9 0 13 -4.5t1 -16.5q-14 -64 -52 -93t-92 -29q-57 0 -94.5 31.5t-49.5 90.5q-5 21 11 21h32z" />
    <glyph glyph-name="amacron" unicode="&#x101;" horiz-adv-x="501" 
d="M441 12q0 -12 -12 -12h-60q-5 0 -8 9q-20 -10 -55.5 -18t-70.5 -8q-42 0 -78 11.5t-62 32.5t-40.5 49.5t-14.5 62.5q0 45 16 77.5t45 54.5t68.5 32.5t86.5 10.5q26 0 53 -2.5t44 -4.5q0 128 -99 128q-35 0 -63.5 -14.5t-39.5 -54.5h-71q-6 0 -9.5 2t-3.5 10q0 15 12 43.5
t39 52.5q28 24 64.5 35.5t74.5 11.5q46 0 80.5 -14.5t57 -41t33.5 -63t11 -80.5zM353 227q-13 3 -40.5 6t-51.5 3q-60 0 -95.5 -24.5t-35.5 -68.5q0 -34 30 -55.5t94 -21.5q29 0 56 8t43 16v137zM123 589q-12 0 -12 12v46q0 12 12 12h257q12 0 12 -12v-46q0 -12 -12 -12
h-257z" />
    <glyph glyph-name="aogonek" unicode="&#x105;" horiz-adv-x="501" 
d="M353 227q-13 3 -40.5 6t-51.5 3q-60 0 -95.5 -24.5t-35.5 -68.5q0 -34 30 -55.5t94 -21.5q29 0 56 8t43 16v137zM441 18q0 -8 -4 -13q-22 -26 -37.5 -50t-15.5 -47q0 -29 18 -38.5t50 -11.5q10 -1 13 -4t3 -11v-38q0 -17 -23 -17q-66 0 -104.5 27.5t-38.5 75.5
q0 31 18.5 56.5t42.5 52.5h-3q-4 0 -4 7q-18 -8 -52 -16t-69 -8q-42 0 -78 11.5t-62 32.5t-40.5 49.5t-14.5 62.5q0 45 16 77.5t45 54.5t68.5 32.5t86.5 10.5q26 0 53 -2.5t44 -4.5q0 128 -99 128q-35 0 -63.5 -14.5t-39.5 -54.5h-71q-6 0 -9.5 2t-3.5 10q0 15 12 43.5
t39 52.5q28 24 64.5 35.5t74.5 11.5q46 0 80.5 -14.5t57 -41t33.5 -63t11 -80.5z" />
    <glyph glyph-name="cacute" unicode="&#x107;" horiz-adv-x="429" 
d="M389 26q0 -7 -5 -10q-20 -14 -49.5 -22.5t-66.5 -8.5q-54 0 -96 18t-71.5 49.5t-45 75.5t-15.5 97q0 68 19 123t53.5 93.5t82.5 59t106 20.5q22 0 43.5 -2.5t32.5 -6.5q6 -2 6 -7v-72q0 -7 -7 -7q-9 0 -24.5 5t-47.5 5q-41 0 -73 -15t-54.5 -42t-34.5 -65.5t-12 -85.5
q0 -34 8.5 -63t26 -50t44.5 -33t64 -12q28 0 54.5 7t44.5 16q5 2 8.5 0t3.5 -7zM270 572q-10 -8 -18.5 -11t-21.5 -3h-37q-9 0 -12 5.5t5 15.5l88 103q7 8 14.5 12.5t23.5 4.5h78q13 0 17 -7.5t-5 -14.5z" />
    <glyph glyph-name="ccaron" unicode="&#x10d;" horiz-adv-x="429" 
d="M389 26q0 -7 -5 -10q-20 -14 -49.5 -22.5t-66.5 -8.5q-54 0 -96 18t-71.5 49.5t-45 75.5t-15.5 97q0 68 19 123t53.5 93.5t82.5 59t106 20.5q22 0 43.5 -2.5t32.5 -6.5q6 -2 6 -7v-72q0 -7 -7 -7q-9 0 -24.5 5t-47.5 5q-41 0 -73 -15t-54.5 -42t-34.5 -65.5t-12 -85.5
q0 -34 8.5 -63t26 -50t44.5 -33t64 -12q28 0 54.5 7t44.5 16q5 2 8.5 0t3.5 -7zM254 643l63 53q17 14 40 14h27q9 0 12 -5.5t-5 -15.5l-108 -123q-15 -17 -28 -17h-2q-14 0 -28 17l-109 123q-8 8 -4.5 14.5t12.5 6.5h29q14 0 22.5 -3t17.5 -11z" />
    <glyph glyph-name="ccircumflex" unicode="&#x109;" horiz-adv-x="429" 
d="M389 26q0 -7 -5 -10q-20 -14 -49.5 -22.5t-66.5 -8.5q-54 0 -96 18t-71.5 49.5t-45 75.5t-15.5 97q0 68 19 123t53.5 93.5t82.5 59t106 20.5q22 0 43.5 -2.5t32.5 -6.5q6 -2 6 -7v-72q0 -7 -7 -7q-9 0 -24.5 5t-47.5 5q-41 0 -73 -15t-54.5 -42t-34.5 -65.5t-12 -85.5
q0 -34 8.5 -63t26 -50t44.5 -33t64 -12q28 0 54.5 7t44.5 16q5 2 8.5 0t3.5 -7zM255 625l-63 -53q-17 -14 -40 -14h-27q-9 0 -12 5.5t5 15.5l108 123q15 17 28 17h2q14 0 28 -17l109 -123q8 -8 4.5 -14.5t-12.5 -6.5h-29q-14 0 -22.5 3t-17.5 11z" />
    <glyph glyph-name="cdotaccent" unicode="&#x10b;" horiz-adv-x="429" 
d="M389 26q0 -7 -5 -10q-20 -14 -49.5 -22.5t-66.5 -8.5q-54 0 -96 18t-71.5 49.5t-45 75.5t-15.5 97q0 68 19 123t53.5 93.5t82.5 59t106 20.5q22 0 43.5 -2.5t32.5 -6.5q6 -2 6 -7v-72q0 -7 -7 -7q-9 0 -24.5 5t-47.5 5q-41 0 -73 -15t-54.5 -42t-34.5 -65.5t-12 -85.5
q0 -34 8.5 -63t26 -50t44.5 -33t64 -12q28 0 54.5 7t44.5 16q5 2 8.5 0t3.5 -7zM259 559q-20 0 -36.5 14.5t-16.5 37.5q0 22 15.5 37t37.5 15q20 0 36.5 -14.5t16.5 -37.5t-16.5 -37.5t-36.5 -14.5z" />
    <glyph glyph-name="dcaron" unicode="&#x10f;" horiz-adv-x="658" 
d="M409 0q-5 0 -8 6q-22 -8 -59 -16t-79 -8q-53 0 -94 18t-70 50t-44 75.5t-15 93.5q0 64 18 114.5t50 86t75.5 54t95.5 18.5q32 0 62.5 -4.5t55.5 -9.5v210q0 12 12 12h63q12 0 12 -12v-676q0 -12 -12 -12h-63zM397 388q-20 7 -50.5 12.5t-64.5 5.5q-36 0 -64.5 -14
t-48 -39t-29.5 -58.5t-10 -73.5q0 -69 37.5 -112t104.5 -43q18 0 36.5 2.5t35 6t30.5 8t23 8.5v297zM579 596q-20 3 -35.5 17.5t-15.5 40.5q0 25 17.5 42t41.5 17q29 0 45 -19.5t16 -42.5q0 -27 -10 -49.5t-22 -38.5t-23 -25t-14 -9q-13 0 -13 13q0 6 7.5 19t5.5 35z" />
    <glyph glyph-name="dcroat" unicode="&#x111;" horiz-adv-x="549" 
d="M484 556v-544q0 -12 -12 -12h-63q-5 0 -8 6q-22 -8 -59 -16t-79 -8q-53 0 -94 18t-70 50t-44 75.5t-15 93.5q0 64 18 114.5t50 86t75.5 54t95.5 18.5q32 0 62.5 -4.5t55.5 -9.5v78h-110q-12 0 -12 12v46q0 12 12 12h110v62q0 12 12 12h63q12 0 12 -12v-62h60q12 0 12 -12
v-46q0 -12 -12 -12h-60zM397 388q-20 7 -50.5 12.5t-64.5 5.5q-36 0 -64.5 -14t-48 -39t-29.5 -58.5t-10 -73.5q0 -69 37.5 -112t104.5 -43q18 0 36.5 2.5t35 6t30.5 8t23 8.5v297z" />
    <glyph glyph-name="ebreve" unicode="&#x115;" horiz-adv-x="469" 
d="M131 301q17 -3 48.5 -5.5t58.5 -2.5q113 0 113 75q0 29 -22.5 49.5t-67.5 20.5q-54 0 -88 -37t-42 -100zM130 224q1 -32 10.5 -60.5t28.5 -49.5t47.5 -33.5t68.5 -12.5q34 0 59.5 5t51.5 14q4 2 8 0t4 -7l5 -60q0 -6 -3 -7q-21 -13 -54.5 -21t-78.5 -8q-52 0 -95.5 18
t-75 52.5t-49 85.5t-17.5 116q0 51 14.5 98.5t43 84t71.5 58.5t101 22q44 0 75 -13t51 -34.5t29 -50.5t9 -61q0 -66 -48 -105.5t-135 -39.5q-32 0 -66 2.5t-55 6.5zM160 710q14 0 20.5 -3.5t9.5 -15.5q7 -26 24 -42.5t49 -16.5t47.5 16t26.5 48q3 9 10 11.5t20 2.5h24
q9 0 13 -4.5t1 -16.5q-14 -64 -52 -93t-92 -29q-57 0 -94.5 31.5t-49.5 90.5q-5 21 11 21h32z" />
    <glyph glyph-name="ecaron" unicode="&#x11b;" horiz-adv-x="469" 
d="M131 301q17 -3 48.5 -5.5t58.5 -2.5q113 0 113 75q0 29 -22.5 49.5t-67.5 20.5q-54 0 -88 -37t-42 -100zM130 224q1 -32 10.5 -60.5t28.5 -49.5t47.5 -33.5t68.5 -12.5q34 0 59.5 5t51.5 14q4 2 8 0t4 -7l5 -60q0 -6 -3 -7q-21 -13 -54.5 -21t-78.5 -8q-52 0 -95.5 18
t-75 52.5t-49 85.5t-17.5 116q0 51 14.5 98.5t43 84t71.5 58.5t101 22q44 0 75 -13t51 -34.5t29 -50.5t9 -61q0 -66 -48 -105.5t-135 -39.5q-32 0 -66 2.5t-55 6.5zM258 643l63 53q17 14 40 14h27q9 0 12 -5.5t-5 -15.5l-108 -123q-15 -17 -28 -17h-2q-14 0 -28 17l-109 123
q-8 8 -4.5 14.5t12.5 6.5h29q14 0 22.5 -3t17.5 -11z" />
    <glyph glyph-name="edotaccent" unicode="&#x117;" horiz-adv-x="469" 
d="M131 301q17 -3 48.5 -5.5t58.5 -2.5q113 0 113 75q0 29 -22.5 49.5t-67.5 20.5q-54 0 -88 -37t-42 -100zM130 224q1 -32 10.5 -60.5t28.5 -49.5t47.5 -33.5t68.5 -12.5q34 0 59.5 5t51.5 14q4 2 8 0t4 -7l5 -60q0 -6 -3 -7q-21 -13 -54.5 -21t-78.5 -8q-52 0 -95.5 18
t-75 52.5t-49 85.5t-17.5 116q0 51 14.5 98.5t43 84t71.5 58.5t101 22q44 0 75 -13t51 -34.5t29 -50.5t9 -61q0 -66 -48 -105.5t-135 -39.5q-32 0 -66 2.5t-55 6.5zM258 559q-20 0 -36.5 14.5t-16.5 37.5q0 22 15.5 37t37.5 15q20 0 36.5 -14.5t16.5 -37.5t-16.5 -37.5
t-36.5 -14.5z" />
    <glyph glyph-name="emacron" unicode="&#x113;" horiz-adv-x="469" 
d="M131 301q17 -3 48.5 -5.5t58.5 -2.5q113 0 113 75q0 29 -22.5 49.5t-67.5 20.5q-54 0 -88 -37t-42 -100zM130 224q1 -32 10.5 -60.5t28.5 -49.5t47.5 -33.5t68.5 -12.5q34 0 59.5 5t51.5 14q4 2 8 0t4 -7l5 -60q0 -6 -3 -7q-21 -13 -54.5 -21t-78.5 -8q-52 0 -95.5 18
t-75 52.5t-49 85.5t-17.5 116q0 51 14.5 98.5t43 84t71.5 58.5t101 22q44 0 75 -13t51 -34.5t29 -50.5t9 -61q0 -66 -48 -105.5t-135 -39.5q-32 0 -66 2.5t-55 6.5zM125 589q-12 0 -12 12v46q0 12 12 12h257q12 0 12 -12v-46q0 -12 -12 -12h-257z" />
    <glyph glyph-name="eogonek" unicode="&#x119;" horiz-adv-x="469" 
d="M408 5q-23 -28 -38 -51t-15 -46q0 -29 18 -38.5t50 -11.5q10 -1 13 -4t3 -11v-38q0 -17 -23 -17q-66 0 -104.5 27.5t-38.5 75.5q0 27 14 50t34 46q-21 -3 -44 -3q-52 0 -95.5 18t-75 52.5t-49 85.5t-17.5 116q0 51 14.5 98.5t43 84t71.5 58.5t101 22q44 0 75 -13
t51 -34.5t29 -50.5t9 -61q0 -66 -48 -105.5t-135 -39.5q-32 0 -66 2.5t-55 6.5q1 -32 10.5 -60.5t28.5 -49.5t47.5 -33.5t68.5 -12.5q34 0 59.5 5t51.5 14q4 2 8 0t4 -7l5 -60q0 -9 -5 -15zM131 301q17 -3 48.5 -5.5t58.5 -2.5q113 0 113 75q0 29 -22.5 49.5t-67.5 20.5
q-54 0 -88 -37t-42 -100z" />
    <glyph glyph-name="gbreve" unicode="&#x11f;" horiz-adv-x="550" 
d="M398 385q-24 16 -56.5 22.5t-66.5 6.5q-63 0 -103.5 -43t-40.5 -125q0 -34 9.5 -64t27.5 -52t44 -35t60 -13q37 0 71 11t55 31v261zM485 48q0 -72 -14.5 -123.5t-41.5 -84t-65 -48t-85 -15.5q-36 0 -60 3.5t-39 9.5q-9 3 -9 12v60q0 12 14 12q11 0 29 -5t59 -5
q38 0 62.5 13.5t38.5 36t19 52.5t5 62q-25 -14 -62 -22.5t-71 -8.5q-51 0 -93 17.5t-71 50.5t-45 79.5t-16 104.5t18 104.5t50 79.5t75.5 50.5t93.5 17.5q36 0 68.5 -5t54.5 -12h73q12 0 12 -12v-424zM189 710q14 0 20.5 -3.5t9.5 -15.5q7 -26 24 -42.5t49 -16.5t47.5 16
t26.5 48q3 9 10 11.5t20 2.5h24q9 0 13 -4.5t1 -16.5q-14 -64 -52 -93t-92 -29q-57 0 -94.5 31.5t-49.5 90.5q-5 21 11 21h32z" />
    <glyph glyph-name="gcircumflex" unicode="&#x11d;" horiz-adv-x="550" 
d="M398 385q-24 16 -56.5 22.5t-66.5 6.5q-63 0 -103.5 -43t-40.5 -125q0 -34 9.5 -64t27.5 -52t44 -35t60 -13q37 0 71 11t55 31v261zM485 48q0 -72 -14.5 -123.5t-41.5 -84t-65 -48t-85 -15.5q-36 0 -60 3.5t-39 9.5q-9 3 -9 12v60q0 12 14 12q11 0 29 -5t59 -5
q38 0 62.5 13.5t38.5 36t19 52.5t5 62q-25 -14 -62 -22.5t-71 -8.5q-51 0 -93 17.5t-71 50.5t-45 79.5t-16 104.5t18 104.5t50 79.5t75.5 50.5t93.5 17.5q36 0 68.5 -5t54.5 -12h73q12 0 12 -12v-424zM290 625l-63 -53q-17 -14 -40 -14h-27q-9 0 -12 5.5t5 15.5l108 123
q15 17 28 17h2q14 0 28 -17l109 -123q8 -8 4.5 -14.5t-12.5 -6.5h-29q-14 0 -22.5 3t-17.5 11z" />
    <glyph glyph-name="gcommaaccent" unicode="&#x123;" horiz-adv-x="550" 
d="M398 385q-24 16 -56.5 22.5t-66.5 6.5q-63 0 -103.5 -43t-40.5 -125q0 -34 9.5 -64t27.5 -52t44 -35t60 -13q37 0 71 11t55 31v261zM485 48q0 -72 -14.5 -123.5t-41.5 -84t-65 -48t-85 -15.5q-36 0 -60 3.5t-39 9.5q-9 3 -9 12v60q0 12 14 12q11 0 29 -5t59 -5
q38 0 62.5 13.5t38.5 36t19 52.5t5 62q-25 -14 -62 -22.5t-71 -8.5q-51 0 -93 17.5t-71 50.5t-45 79.5t-16 104.5t18 104.5t50 79.5t75.5 50.5t93.5 17.5q36 0 68.5 -5t54.5 -12h73q12 0 12 -12v-424zM304 692q20 -3 35.5 -17.5t15.5 -40.5q0 -25 -17.5 -42t-41.5 -17
q-29 0 -45 19.5t-16 42.5q0 27 10 49.5t22 38.5t23 25t14 9q13 0 13 -13q0 -6 -7.5 -19t-5.5 -35z" />
    <glyph glyph-name="gdotaccent" unicode="&#x121;" horiz-adv-x="550" 
d="M398 385q-24 16 -56.5 22.5t-66.5 6.5q-63 0 -103.5 -43t-40.5 -125q0 -34 9.5 -64t27.5 -52t44 -35t60 -13q37 0 71 11t55 31v261zM485 48q0 -72 -14.5 -123.5t-41.5 -84t-65 -48t-85 -15.5q-36 0 -60 3.5t-39 9.5q-9 3 -9 12v60q0 12 14 12q11 0 29 -5t59 -5
q38 0 62.5 13.5t38.5 36t19 52.5t5 62q-25 -14 -62 -22.5t-71 -8.5q-51 0 -93 17.5t-71 50.5t-45 79.5t-16 104.5t18 104.5t50 79.5t75.5 50.5t93.5 17.5q36 0 68.5 -5t54.5 -12h73q12 0 12 -12v-424zM288 559q-20 0 -36.5 14.5t-16.5 37.5q0 22 15.5 37t37.5 15
q20 0 36.5 -14.5t16.5 -37.5t-16.5 -37.5t-36.5 -14.5z" />
    <glyph glyph-name="hbar" unicode="&#x127;" 
d="M150 556v-115q31 35 75.5 56t96.5 21q47 0 81.5 -16.5t58 -46.5t35.5 -72t13 -92l5 -279q0 -12 -12 -12h-63q-10 0 -10 12l-7 283q-2 64 -29.5 102t-81.5 38q-45 0 -88 -24.5t-72 -68.5v-330q0 -12 -12 -12h-62q-13 0 -13 12v544h-72q-12 0 -12 12v46q0 12 12 12h72v78
q0 12 12 12h61q12 0 12 -12v-78h100q12 0 12 -12v-46q0 -12 -12 -12h-100z" />
    <glyph glyph-name="hcircumflex" unicode="&#x125;" 
d="M614 12q0 -12 -12 -12h-63q-10 0 -10 12l-7 283q-2 64 -29.5 102t-81.5 38q-45 0 -88 -24.5t-72 -68.5v-330q0 -12 -12 -12h-62q-13 0 -13 12v692q0 12 12 12h61q12 0 12 -12v-263q31 35 75.5 56t96.5 21q47 0 81.5 -16.5t58 -46.5t35.5 -72t13 -92zM209 801l-63 -53
q-17 -14 -40 -14h-27q-9 0 -12 5.5t5 15.5l108 123q15 17 28 17h2q14 0 28 -17l109 -123q8 -8 4.5 -14.5t-12.5 -6.5h-29q-14 0 -22.5 3t-17.5 11z" />
    <glyph glyph-name="ibreve" unicode="&#x12d;" horiz-adv-x="217" 
d="M140 461q12 0 12 -13v-437q0 -11 -13 -11h-62q-12 0 -12 12v436q0 13 12 13h63zM19 710q14 0 20.5 -3.5t9.5 -15.5q7 -26 24 -42.5t49 -16.5t47.5 16t26.5 48q3 9 10 11.5t20 2.5h24q9 0 13 -4.5t1 -16.5q-14 -64 -52 -93t-92 -29q-57 0 -94.5 31.5t-49.5 90.5
q-5 21 11 21h32z" />
    <glyph glyph-name="imacron" unicode="&#x12b;" horiz-adv-x="217" 
d="M140 461q12 0 12 -13v-437q0 -11 -13 -11h-62q-12 0 -12 12v436q0 13 12 13h63zM-6 589q-12 0 -12 12v46q0 12 12 12h257q12 0 12 -12v-46q0 -12 -12 -12h-257z" />
    <glyph glyph-name="iogonek" unicode="&#x12f;" horiz-adv-x="217" 
d="M148 5q-26 -27 -39.5 -50.5t-13.5 -46.5q0 -29 18 -38.5t50 -11.5q10 -1 13 -4t3 -11v-38q0 -17 -23 -17q-66 0 -104.5 27.5t-38.5 75.5q0 31 18.5 57t42.5 52h-2q-7 0 -7 10v438q0 13 12 13h63q12 0 12 -13v-428q0 -11 -4 -15zM108 596q-20 0 -36.5 14.5t-16.5 37.5
q0 22 15.5 37t37.5 15q20 0 36.5 -14.5t16.5 -37.5t-16.5 -37.5t-36.5 -14.5z" />
    <glyph glyph-name="itilde" unicode="&#x129;" horiz-adv-x="217" 
d="M140 461q12 0 12 -13v-437q0 -11 -13 -11h-62q-12 0 -12 12v436q0 13 12 13h63zM282 684q9 0 11.5 -5.5t2.5 -16.5q0 -8 -5 -24t-16.5 -31.5t-30.5 -27.5t-47 -12q-24 0 -43.5 6t-36.5 13l-33 13t-32 6q-28 0 -41 -32q-3 -11 -15 -11h-35q-17 0 -17 22q0 6 5.5 22.5
t18 34.5t33 32t50.5 14q24 0 43.5 -6t36.5 -13.5t32 -13.5t32 -6q16 0 23.5 5.5t12.5 20.5q3 10 15 10h36z" />
    <glyph glyph-name="jcircumflex" unicode="&#x135;" horiz-adv-x="222" 
d="M142 461q12 0 12 -13l5 -490q0 -46 -12.5 -80t-34.5 -56t-51.5 -33t-63.5 -11q-29 0 -54 4t-42 9q-9 3 -9 12v60q0 13 14 13q8 0 28 -5.5t52 -5.5q37 0 62 23.5t25 79.5l-7 481q0 12 11 12h65zM112 625l-63 -53q-17 -14 -40 -14h-27q-9 0 -12 5.5t5 15.5l108 123
q15 17 28 17h2q14 0 28 -17l109 -123q8 -8 4.5 -14.5t-12.5 -6.5h-29q-14 0 -22.5 3t-17.5 11z" />
    <glyph glyph-name="kcommaaccent" unicode="&#x137;" horiz-adv-x="494" 
d="M371 0q-5 0 -8 4l-211 205v-197q0 -12 -14 -12h-62q-11 0 -11 12l-1 678q0 10 11 10h67q6 0 9 -3.5t3 -8.5l-2 -377l206 202q6 7 11 7h94q7 0 9.5 -4.5t-0.5 -7.5l-252 -247l254 -241q7 -6 3 -13t-12 -7h-94zM243 -183q-17 3 -31 15.5t-14 35.5q0 22 15.5 37t37.5 15
q25 0 39 -17t14 -37q0 -24 -8.5 -44t-19.5 -34t-20.5 -22t-12.5 -8q-12 0 -12 11q0 5 6.5 16.5t5.5 31.5z" />
    <glyph glyph-name="lacute" unicode="&#x13a;" horiz-adv-x="217" 
d="M152 13q0 -13 -12 -13h-64q-11 0 -11 13v698q0 12 11 12h64q12 0 12 -13v-697zM147 772q-10 -8 -18.5 -11t-21.5 -3h-37q-9 0 -12 5.5t5 15.5l88 103q7 8 14.5 12.5t23.5 4.5h78q13 0 17 -7.5t-5 -14.5z" />
    <glyph glyph-name="lcaron" unicode="&#x13e;" horiz-adv-x="329" 
d="M152 13q0 -13 -12 -13h-64q-11 0 -11 13v698q0 12 11 12h64q12 0 12 -13v-697zM250 596q-20 3 -35.5 17.5t-15.5 40.5q0 25 17.5 42t41.5 17q29 0 45 -19.5t16 -42.5q0 -27 -10 -49.5t-22 -38.5t-23 -25t-14 -9q-13 0 -13 13q0 6 7.5 19t5.5 35z" />
    <glyph glyph-name="lcommaaccent" unicode="&#x13c;" horiz-adv-x="217" 
d="M152 13q0 -13 -12 -13h-64q-11 0 -11 13v698q0 12 11 12h64q12 0 12 -13v-697zM103 -183q-17 3 -31 15.5t-14 35.5q0 22 15.5 37t37.5 15q25 0 39 -17t14 -37q0 -24 -8.5 -44t-19.5 -34t-20.5 -22t-12.5 -8q-12 0 -12 11q0 5 6.5 16.5t5.5 31.5z" />
    <glyph glyph-name="ldot" unicode="&#x140;" horiz-adv-x="338" 
d="M152 13q0 -13 -12 -13h-64q-11 0 -11 13v698q0 12 11 12h64q12 0 12 -13v-697zM258 311q-22 0 -41 16.5t-19 42.5q0 25 17.5 42t42.5 17q23 0 41.5 -16.5t18.5 -42.5t-18.5 -42.5t-41.5 -16.5z" />
    <glyph glyph-name="nacute" unicode="&#x144;" 
d="M312 419q-20 0 -41.5 -7t-42.5 -19t-40.5 -28t-35.5 -33v-320q0 -12 -12 -12h-62q-13 0 -13 12v470q0 12 12 12h61q12 0 12 -12v-53q34 29 77 51t95 22q47 0 82.5 -16.5t59 -46t36 -71t12.5 -91.5l2 -265q0 -12 -12 -12h-63q-10 0 -10 12l-3 269q-1 64 -30.5 101
t-83.5 37zM302 572q-10 -8 -18.5 -11t-21.5 -3h-37q-9 0 -12 5.5t5 15.5l88 103q7 8 14.5 12.5t23.5 4.5h78q13 0 17 -7.5t-5 -14.5z" />
    <glyph glyph-name="ncaron" unicode="&#x148;" 
d="M312 419q-20 0 -41.5 -7t-42.5 -19t-40.5 -28t-35.5 -33v-320q0 -12 -12 -12h-62q-13 0 -13 12v470q0 12 12 12h61q12 0 12 -12v-53q34 29 77 51t95 22q47 0 82.5 -16.5t59 -46t36 -71t12.5 -91.5l2 -265q0 -12 -12 -12h-63q-10 0 -10 12l-3 269q-1 64 -30.5 101
t-83.5 37zM286 643l63 53q17 14 40 14h27q9 0 12 -5.5t-5 -15.5l-108 -123q-15 -17 -28 -17h-2q-14 0 -28 17l-109 123q-8 8 -4.5 14.5t12.5 6.5h29q14 0 22.5 -3t17.5 -11z" />
    <glyph glyph-name="ncommaaccent" unicode="&#x146;" 
d="M312 419q-20 0 -41.5 -7t-42.5 -19t-40.5 -28t-35.5 -33v-320q0 -12 -12 -12h-62q-13 0 -13 12v470q0 12 12 12h61q12 0 12 -12v-53q34 29 77 51t95 22q47 0 82.5 -16.5t59 -46t36 -71t12.5 -91.5l2 -265q0 -12 -12 -12h-63q-10 0 -10 12l-3 269q-1 64 -30.5 101
t-83.5 37zM276 -183q-17 3 -31 15.5t-14 35.5q0 22 15.5 37t37.5 15q25 0 39 -17t14 -37q0 -24 -8.5 -44t-19.5 -34t-20.5 -22t-12.5 -8q-12 0 -12 11q0 5 6.5 16.5t5.5 31.5z" />
    <glyph glyph-name="obreve" unicode="&#x14f;" horiz-adv-x="544" 
d="M504 252q0 -54 -16.5 -102.5t-46 -85t-70 -58t-88.5 -21.5q-56 0 -101 19t-76.5 53.5t-48.5 82.5t-17 106q0 57 18.5 106.5t51.5 86.5t78.5 58.5t98.5 21.5q48 0 88 -18.5t68.5 -53.5t44.5 -84.5t16 -110.5zM413 255q0 90 -32 133.5t-101 43.5q-33 0 -60 -13.5t-47 -38
t-31 -59t-11 -76.5q0 -46 11.5 -78.5t32 -53.5t47 -31t56.5 -10q32 0 57 14.5t42.5 39.5t26.5 58.5t9 70.5zM174 710q14 0 20.5 -3.5t9.5 -15.5q7 -26 24 -42.5t49 -16.5t47.5 16t26.5 48q3 9 10 11.5t20 2.5h24q9 0 13 -4.5t1 -16.5q-14 -64 -52 -93t-92 -29
q-57 0 -94.5 31.5t-49.5 90.5q-5 21 11 21h32z" />
    <glyph glyph-name="ohungarumlaut" unicode="&#x151;" horiz-adv-x="544" 
d="M504 252q0 -54 -16.5 -102.5t-46 -85t-70 -58t-88.5 -21.5q-56 0 -101 19t-76.5 53.5t-48.5 82.5t-17 106q0 57 18.5 106.5t51.5 86.5t78.5 58.5t98.5 21.5q48 0 88 -18.5t68.5 -53.5t44.5 -84.5t16 -110.5zM413 255q0 90 -32 133.5t-101 43.5q-33 0 -60 -13.5t-47 -38
t-31 -59t-11 -76.5q0 -46 11.5 -78.5t32 -53.5t47 -31t56.5 -10q32 0 57 14.5t42.5 39.5t26.5 58.5t9 70.5zM215 572q-9 -9 -18 -11.5t-22 -2.5h-37q-9 0 -11.5 5t4.5 16l68 103q5 8 13.5 12.5t24.5 4.5h68q13 0 16.5 -7t-4.5 -15zM418 572q-9 -9 -18 -11.5t-22 -2.5h-37
q-9 0 -11.5 5t4.5 16l68 103q5 8 13.5 12.5t24.5 4.5h68q13 0 16.5 -7t-4.5 -15z" />
    <glyph glyph-name="omacron" unicode="&#x14d;" horiz-adv-x="544" 
d="M504 252q0 -54 -16.5 -102.5t-46 -85t-70 -58t-88.5 -21.5q-56 0 -101 19t-76.5 53.5t-48.5 82.5t-17 106q0 57 18.5 106.5t51.5 86.5t78.5 58.5t98.5 21.5q48 0 88 -18.5t68.5 -53.5t44.5 -84.5t16 -110.5zM413 255q0 90 -32 133.5t-101 43.5q-33 0 -60 -13.5t-47 -38
t-31 -59t-11 -76.5q0 -46 11.5 -78.5t32 -53.5t47 -31t56.5 -10q32 0 57 14.5t42.5 39.5t26.5 58.5t9 70.5zM147 589q-12 0 -12 12v46q0 12 12 12h257q12 0 12 -12v-46q0 -12 -12 -12h-257z" />
    <glyph glyph-name="racute" unicode="&#x155;" horiz-adv-x="337" 
d="M325 426q0 -11 -12 -8t-30 3q-20 0 -39.5 -7.5t-37 -21.5t-31.5 -33t-22 -43v-304q0 -12 -11 -12h-63q-14 0 -14 12l1 497q0 11 12 11h65q13 0 13 -10l-2 -69q27 36 60 57t68 21q19 0 30.5 -3t11.5 -8zM230 572q-10 -8 -18.5 -11t-21.5 -3h-37q-9 0 -12 5.5t5 15.5
l88 103q7 8 14.5 12.5t23.5 4.5h78q13 0 17 -7.5t-5 -14.5z" />
    <glyph glyph-name="rcaron" unicode="&#x159;" horiz-adv-x="337" 
d="M330 426q0 -11 -12 -8t-30 3q-20 0 -39.5 -7.5t-37 -21.5t-31.5 -33t-22 -43v-304q0 -12 -11 -12h-63q-14 0 -14 12l1 497q0 11 12 11h65q13 0 13 -10l-2 -69q27 36 60 57t68 21q19 0 30.5 -3t11.5 -8zM210 643l63 53q17 14 40 14h27q9 0 12 -5.5t-5 -15.5l-108 -123
q-15 -17 -28 -17h-2q-14 0 -28 17l-109 123q-8 8 -4.5 14.5t12.5 6.5h29q14 0 22.5 -3t17.5 -11z" />
    <glyph glyph-name="rcommaaccent" unicode="&#x157;" horiz-adv-x="337" 
d="M326 426q0 -11 -12 -8t-30 3q-20 0 -39.5 -7.5t-37 -21.5t-31.5 -33t-22 -43v-304q0 -12 -11 -12h-63q-14 0 -14 12l1 497q0 11 12 11h65q13 0 13 -10l-2 -69q27 36 60 57t68 21q19 0 30.5 -3t11.5 -8zM110 -183q-17 3 -31 15.5t-14 35.5q0 22 15.5 37t37.5 15
q25 0 39 -17t14 -37q0 -24 -8.5 -44t-19.5 -34t-20.5 -22t-12.5 -8q-12 0 -12 11q0 5 6.5 16.5t5.5 31.5z" />
    <glyph glyph-name="sacute" unicode="&#x15b;" horiz-adv-x="451" 
d="M44 361q0 35 14.5 64t40 50t61 32.5t77.5 10.5q47 0 95 -18t81 -45q5 -5 1 -12l-33 -52q-5 -8 -12 -1q-30 24 -67 38.5t-72 14.5q-42 0 -70 -21.5t-28 -54.5q0 -24 20.5 -37.5t51 -23t66 -19.5t66 -26.5t51 -43.5t20.5 -71q0 -75 -47.5 -118t-135.5 -43q-48 0 -90 15.5
t-74 42.5q-6 6 0 12l33 49q6 6 12 0q24 -19 54.5 -30t65.5 -11q44 0 68 19.5t24 54.5q0 28 -21.5 47t-77.5 33q-94 23 -134 57t-40 87zM247 572q-10 -8 -18.5 -11t-21.5 -3h-37q-9 0 -12 5.5t5 15.5l88 103q7 8 14.5 12.5t23.5 4.5h78q13 0 17 -7.5t-5 -14.5z" />
    <glyph glyph-name="scedilla" unicode="&#x15f;" horiz-adv-x="451" 
d="M44 361q0 35 14.5 64t40 50t61 32.5t77.5 10.5q47 0 95 -18t81 -45q5 -5 1 -12l-33 -52q-5 -8 -12 -1q-30 24 -67 38.5t-72 14.5q-42 0 -70 -21.5t-28 -54.5q0 -24 20.5 -37.5t51 -23t66 -19.5t66 -26.5t51 -43.5t20.5 -71q0 -75 -47.5 -118t-135.5 -43q-48 0 -90 15.5
t-74 42.5q-6 6 0 12l33 49q6 6 12 0q24 -19 54.5 -30t65.5 -11q44 0 68 19.5t24 54.5q0 28 -21.5 47t-77.5 33q-94 23 -134 57t-40 87zM181 -187q-10 -8 -18.5 -11t-21.5 -3h-37q-9 0 -12 5.5t5 15.5l88 103q7 8 14.5 12.5t23.5 4.5h78q13 0 17 -7.5t-5 -14.5z" />
    <glyph glyph-name="scircumflex" unicode="&#x15d;" horiz-adv-x="451" 
d="M44 361q0 35 14.5 64t40 50t61 32.5t77.5 10.5q47 0 95 -18t81 -45q5 -5 1 -12l-33 -52q-5 -8 -12 -1q-30 24 -67 38.5t-72 14.5q-42 0 -70 -21.5t-28 -54.5q0 -24 20.5 -37.5t51 -23t66 -19.5t66 -26.5t51 -43.5t20.5 -71q0 -75 -47.5 -118t-135.5 -43q-48 0 -90 15.5
t-74 42.5q-6 6 0 12l33 49q6 6 12 0q24 -19 54.5 -30t65.5 -11q44 0 68 19.5t24 54.5q0 28 -21.5 47t-77.5 33q-94 23 -134 57t-40 87zM237 625l-63 -53q-17 -14 -40 -14h-27q-9 0 -12 5.5t5 15.5l108 123q15 17 28 17h2q14 0 28 -17l109 -123q8 -8 4.5 -14.5t-12.5 -6.5
h-29q-14 0 -22.5 3t-17.5 11z" />
    <glyph glyph-name="scommaaccent" unicode="&#x219;" horiz-adv-x="451" 
d="M44 361q0 35 14.5 64t40 50t61 32.5t77.5 10.5q47 0 95 -18t81 -45q5 -5 1 -12l-33 -52q-5 -8 -12 -1q-30 24 -67 38.5t-72 14.5q-42 0 -70 -21.5t-28 -54.5q0 -24 20.5 -37.5t51 -23t66 -19.5t66 -26.5t51 -43.5t20.5 -71q0 -75 -47.5 -118t-135.5 -43q-48 0 -90 15.5
t-74 42.5q-6 6 0 12l33 49q6 6 12 0q24 -19 54.5 -30t65.5 -11q44 0 68 19.5t24 54.5q0 28 -21.5 47t-77.5 33q-94 23 -134 57t-40 87zM210 -183q-17 3 -31 15.5t-14 35.5q0 22 15.5 37t37.5 15q25 0 39 -17t14 -37q0 -24 -8.5 -44t-19.5 -34t-20.5 -22t-12.5 -8
q-12 0 -12 11q0 5 6.5 16.5t5.5 31.5z" />
    <glyph glyph-name="tbar" unicode="&#x167;" horiz-adv-x="342" 
d="M194 236v-223q0 -13 -12 -13h-63q-12 0 -12 13v223h-73q-12 0 -12 12v46q0 12 12 12h73l1 114h-84q-11 0 -11 11l-4 46q0 13 13 13l85 3v97q0 13 12 13h63q12 0 12 -13v-95l125 3q12 0 11 -12l-2 -51q-1 -6 -3 -9t-8 -3l-122 -1l-1 -116h97q12 0 12 -12v-46
q0 -12 -12 -12h-97z" />
    <glyph glyph-name="tcaron" unicode="&#x165;" horiz-adv-x="368" 
d="M319 498q12 0 11 -12l-2 -51q-1 -6 -3 -9t-8 -3l-122 -1l-1 -409q0 -13 -12 -13h-63q-12 0 -12 13l1 407h-84q-11 0 -11 11l-4 46q0 13 13 13l85 3v97q0 13 12 13h63q12 0 12 -13v-95zM289 596q-20 3 -35.5 17.5t-15.5 40.5q0 25 17.5 42t41.5 17q29 0 45 -19.5t16 -42.5
q0 -27 -10 -49.5t-22 -38.5t-23 -25t-14 -9q-13 0 -13 13q0 6 7.5 19t5.5 35z" />
    <glyph glyph-name="tcommaaccent" unicode="&#x163;" horiz-adv-x="342" 
d="M319 498q12 0 11 -12l-2 -51q-1 -6 -3 -9t-8 -3l-122 -1l-1 -409q0 -13 -12 -13h-63q-12 0 -12 13l1 407h-84q-11 0 -11 11l-4 46q0 13 13 13l85 3v97q0 13 12 13h63q12 0 12 -13v-95zM143 -183q-17 3 -31 15.5t-14 35.5q0 22 15.5 37t37.5 15q25 0 39 -17t14 -37
q0 -24 -8.5 -44t-19.5 -34t-20.5 -22t-12.5 -8q-12 0 -12 11q0 5 6.5 16.5t5.5 31.5z" />
    <glyph glyph-name="ubreve" unicode="&#x16d;" 
d="M58 482q0 12 13 12h62q10 0 10 -12l7 -286q3 -120 114 -120q53 0 94.5 24t63.5 53v329q0 12 12 12h62q13 0 13 -12v-470q0 -12 -12 -12h-61q-12 0 -12 12v45q-31 -30 -76.5 -47t-95.5 -17q-90 0 -138.5 54t-50.5 153zM189 710q14 0 20.5 -3.5t9.5 -15.5q7 -26 24 -42.5
t49 -16.5t47.5 16t26.5 48q3 9 10 11.5t20 2.5h24q9 0 13 -4.5t1 -16.5q-14 -64 -52 -93t-92 -29q-57 0 -94.5 31.5t-49.5 90.5q-5 21 11 21h32z" />
    <glyph glyph-name="uhungarumlaut" unicode="&#x171;" 
d="M58 482q0 12 13 12h62q10 0 10 -12l7 -286q3 -120 114 -120q53 0 94.5 24t63.5 53v329q0 12 12 12h62q13 0 13 -12v-470q0 -12 -12 -12h-61q-12 0 -12 12v45q-31 -30 -76.5 -47t-95.5 -17q-90 0 -138.5 54t-50.5 153zM227 572q-9 -9 -18 -11.5t-22 -2.5h-37q-9 0 -11.5 5
t4.5 16l68 103q5 8 13.5 12.5t24.5 4.5h68q13 0 16.5 -7t-4.5 -15zM430 572q-9 -9 -18 -11.5t-22 -2.5h-37q-9 0 -11.5 5t4.5 16l68 103q5 8 13.5 12.5t24.5 4.5h68q13 0 16.5 -7t-4.5 -15z" />
    <glyph glyph-name="umacron" unicode="&#x16b;" 
d="M58 482q0 12 13 12h62q10 0 10 -12l7 -286q3 -120 114 -120q53 0 94.5 24t63.5 53v329q0 12 12 12h62q13 0 13 -12v-470q0 -12 -12 -12h-61q-12 0 -12 12v45q-31 -30 -76.5 -47t-95.5 -17q-90 0 -138.5 54t-50.5 153zM162 589q-12 0 -12 12v46q0 12 12 12h257
q12 0 12 -12v-46q0 -12 -12 -12h-257z" />
    <glyph glyph-name="uogonek" unicode="&#x173;" 
d="M506 5q-23 -28 -38 -51t-15 -46q0 -29 18 -38.5t50 -11.5q10 -1 13 -4t3 -11v-38q0 -17 -23 -17q-66 0 -104.5 27.5t-38.5 75.5q0 31 18.5 57t42.5 52h-2q-6 0 -6 9v48q-31 -30 -76.5 -47t-95.5 -17q-90 0 -138.5 54t-50.5 153l-5 282q0 12 13 12h62q10 0 10 -12l7 -286
q3 -120 114 -120q53 0 94.5 24t63.5 53v329q0 12 12 12h62q13 0 13 -12v-466q0 -7 -3 -11z" />
    <glyph glyph-name="uring" unicode="&#x16f;" 
d="M58 482q0 12 13 12h62q10 0 10 -12l7 -286q3 -120 114 -120q53 0 94.5 24t63.5 53v329q0 12 12 12h62q13 0 13 -12v-470q0 -12 -12 -12h-61q-12 0 -12 12v45q-31 -30 -76.5 -47t-95.5 -17q-90 0 -138.5 54t-50.5 153zM290 563q-21 0 -40 6t-33.5 17.5t-23 28.5t-8.5 40
q0 41 30.5 66.5t73.5 25.5q21 0 40 -6.5t33.5 -18.5t23 -29t8.5 -39q0 -21 -8.5 -38t-23 -29t-33 -18t-39.5 -6zM290 607q23 0 38 13.5t15 33.5q0 21 -14.5 35t-39.5 14t-39 -14t-14 -34q0 -22 15.5 -35t38.5 -13z" />
    <glyph glyph-name="utilde" unicode="&#x169;" 
d="M58 482q0 12 13 12h62q10 0 10 -12l7 -286q3 -120 114 -120q53 0 94.5 24t63.5 53v329q0 12 12 12h62q13 0 13 -12v-470q0 -12 -12 -12h-61q-12 0 -12 12v45q-31 -30 -76.5 -47t-95.5 -17q-90 0 -138.5 54t-50.5 153zM459 684q9 0 11.5 -5.5t2.5 -16.5q0 -8 -5 -24
t-16.5 -31.5t-30.5 -27.5t-47 -12q-24 0 -43.5 6t-36.5 13l-33 13t-32 6q-28 0 -41 -32q-3 -11 -15 -11h-35q-17 0 -17 22q0 6 5.5 22.5t18 34.5t33 32t50.5 14q24 0 43.5 -6t36.5 -13.5t32 -13.5t32 -6q16 0 23.5 5.5t12.5 20.5q3 10 15 10h36z" />
    <glyph glyph-name="wacute" unicode="&#x1e83;" horiz-adv-x="699" 
d="M135 0q-11 0 -12 12l-102 469q-2 13 10 13h64q12 0 13 -11l70 -348q2 -7 2.5 -15t0.5 -14l135 284q3 8 13 8h62q8 0 11 -8l116 -284q0 16 3 28l75 349q1 11 13 11h58q13 0 11 -14l-104 -468q-2 -12 -13 -12h-75q-8 0 -13 8l-118 290l-135 -290q-5 -8 -14 -8h-71zM398 572
q-10 -8 -18.5 -11t-21.5 -3h-37q-9 0 -12 5.5t5 15.5l88 103q7 8 14.5 12.5t23.5 4.5h78q13 0 17 -7.5t-5 -14.5z" />
    <glyph glyph-name="wcircumflex" unicode="&#x175;" horiz-adv-x="699" 
d="M135 0q-11 0 -12 12l-102 469q-2 13 10 13h64q12 0 13 -11l70 -348q2 -7 2.5 -15t0.5 -14l135 284q3 8 13 8h62q8 0 11 -8l116 -284q0 16 3 28l75 349q1 11 13 11h58q13 0 11 -14l-104 -468q-2 -12 -13 -12h-75q-8 0 -13 8l-118 290l-135 -290q-5 -8 -14 -8h-71zM359 625
l-63 -53q-17 -14 -40 -14h-27q-9 0 -12 5.5t5 15.5l108 123q15 17 28 17h2q14 0 28 -17l109 -123q8 -8 4.5 -14.5t-12.5 -6.5h-29q-14 0 -22.5 3t-17.5 11z" />
    <glyph glyph-name="wdieresis" unicode="&#x1e85;" horiz-adv-x="699" 
d="M135 0q-11 0 -12 12l-102 469q-2 13 10 13h64q12 0 13 -11l70 -348q2 -7 2.5 -15t0.5 -14l135 284q3 8 13 8h62q8 0 11 -8l116 -284q0 16 3 28l75 349q1 11 13 11h58q13 0 11 -14l-104 -468q-2 -12 -13 -12h-75q-8 0 -13 8l-118 290l-135 -290q-5 -8 -14 -8h-71zM260 559
q-20 0 -36.5 14.5t-16.5 37.5q0 22 15.5 37t37.5 15q20 0 36.5 -14.5t16.5 -37.5t-16.5 -37.5t-36.5 -14.5zM460 559q-20 0 -36.5 14.5t-16.5 37.5q0 22 15.5 37t37.5 15q20 0 36.5 -14.5t16.5 -37.5t-16.5 -37.5t-36.5 -14.5z" />
    <glyph glyph-name="wgrave" unicode="&#x1e81;" horiz-adv-x="699" 
d="M135 0q-11 0 -12 12l-102 469q-2 13 10 13h64q12 0 13 -11l70 -348q2 -7 2.5 -15t0.5 -14l135 284q3 8 13 8h62q8 0 11 -8l116 -284q0 16 3 28l75 349q1 11 13 11h58q13 0 11 -14l-104 -468q-2 -12 -13 -12h-75q-8 0 -13 8l-118 290l-135 -290q-5 -8 -14 -8h-71zM184 677
q-9 7 -5 14.5t17 7.5h83q17 0 24.5 -4.5t13.5 -12.5l89 -103q8 -9 4.5 -15t-12.5 -6h-36q-14 0 -22 3t-18 11z" />
    <glyph glyph-name="ycircumflex" unicode="&#x177;" horiz-adv-x="565" 
d="M501 61q1 -74 -15 -128.5t-45 -90.5t-69.5 -53.5t-88.5 -17.5q-23 0 -46.5 3t-40.5 8q-9 3 -9 12v60q0 13 14 13q8 0 22 -4.5t45 -4.5q69 0 108 43.5t38 140.5q-26 -29 -66.5 -43t-83.5 -14q-105 0 -154.5 56t-49.5 166v277q0 10 12 10h63q12 0 12 -12l-1 -275
q0 -33 5.5 -58.5t19.5 -43.5t39 -27.5t63 -9.5q42 0 79.5 21.5t60.5 56.5l-3 337q-1 11 10 11h63q13 0 14 -11zM285 625l-63 -53q-17 -14 -40 -14h-27q-9 0 -12 5.5t5 15.5l108 123q15 17 28 17h2q14 0 28 -17l109 -123q8 -8 4.5 -14.5t-12.5 -6.5h-29q-14 0 -22.5 3
t-17.5 11z" />
    <glyph glyph-name="ygrave" unicode="&#x1ef3;" horiz-adv-x="565" 
d="M501 61q1 -74 -15 -128.5t-45 -90.5t-69.5 -53.5t-88.5 -17.5q-23 0 -46.5 3t-40.5 8q-9 3 -9 12v60q0 13 14 13q8 0 22 -4.5t45 -4.5q69 0 108 43.5t38 140.5q-26 -29 -66.5 -43t-83.5 -14q-105 0 -154.5 56t-49.5 166v277q0 10 12 10h63q12 0 12 -12l-1 -275
q0 -33 5.5 -58.5t19.5 -43.5t39 -27.5t63 -9.5q42 0 79.5 21.5t60.5 56.5l-3 337q-1 11 10 11h63q13 0 14 -11zM123 677q-9 7 -5 14.5t17 7.5h83q17 0 24.5 -4.5t13.5 -12.5l89 -103q8 -9 4.5 -15t-12.5 -6h-36q-14 0 -22 3t-18 11z" />
    <glyph glyph-name="zacute" unicode="&#x17a;" horiz-adv-x="479" 
d="M434 12q0 -12 -12 -12h-354q-12 0 -12 12v66q0 5 4 8l262 321h-266q-13 0 -13 12l1 63q0 12 12 12h367q11 0 11 -12v-65q0 -5 -4 -8l-264 -322h257q11 0 11 -12v-63zM255 572q-10 -8 -18.5 -11t-21.5 -3h-37q-9 0 -12 5.5t5 15.5l88 103q7 8 14.5 12.5t23.5 4.5h78
q13 0 17 -7.5t-5 -14.5z" />
    <glyph glyph-name="zdotaccent" unicode="&#x17c;" horiz-adv-x="479" 
d="M434 12q0 -12 -12 -12h-354q-12 0 -12 12v66q0 5 4 8l262 321h-266q-13 0 -13 12l1 63q0 12 12 12h367q11 0 11 -12v-65q0 -5 -4 -8l-264 -322h257q11 0 11 -12v-63zM244 559q-20 0 -36.5 14.5t-16.5 37.5q0 22 15.5 37t37.5 15q20 0 36.5 -14.5t16.5 -37.5t-16.5 -37.5
t-36.5 -14.5z" />
    <glyph glyph-name="florin" unicode="&#x192;" horiz-adv-x="489" 
d="M284 380h82q22 0 22 -25v-32q0 -12 -5 -15t-18 -3l-87 3l-18 -239q-10 -126 -57.5 -186t-143.5 -60q-12 0 -21 2.5t-13 5.5q-8 6 -8 16q0 8 1.5 18t5.5 16q4 7 8.5 9t14.5 3q38 3 62 18t38 39.5t20 55.5t8 65l13 235l-65 -2q-14 0 -19.5 5.5t-5.5 19.5v29q0 13 5 17t21 4
h69l3 34q5 55 15.5 102.5t31 82t52.5 54.5t80 20q26 0 45.5 -7t30.5 -14q12 -8 12 -20q0 -22 -9 -35q-5 -7 -16 -7q-9 0 -21 3.5t-35 3.5q-26 0 -42.5 -11t-26.5 -34t-16 -58t-10 -82z" />
    <glyph glyph-name="ordfeminine" unicode="&#xaa;" horiz-adv-x="452" 
d="M387 326q0 -9 -10 -9h-50q-3 0 -6 7q-17 -8 -46.5 -14t-58.5 -6q-35 0 -64.5 9t-51.5 25t-34 38t-12 49q0 34 13.5 59.5t37.5 42.5t57 25t72 8q26 0 47.5 -1t32.5 -3q0 98 -82 98q-29 0 -53 -11t-33 -42h-59q-5 0 -8 1.5t-3 7.5q0 12 10 34t32 41q23 18 54 27t62 9
q39 0 67 -12.5t46.5 -34t28 -50.5t9.5 -63zM314 493q-11 2 -34 4.5t-43 2.5q-50 0 -79 -19t-29 -53q0 -26 24.5 -43t78.5 -17q24 0 46 6t36 13v106z" />
    <glyph glyph-name="ordmasculine" unicode="&#xba;" horiz-adv-x="457" 
d="M418 505q0 -40 -13.5 -76.5t-37.5 -64.5t-57 -44.5t-72 -16.5q-45 0 -82 15t-62.5 42t-39.5 64.5t-14 82.5t15 84t41 68t62.5 45.5t79.5 16.5q39 0 72 -16t57 -44.5t37.5 -68t13.5 -87.5zM346 507q0 71 -29 108.5t-85 37.5q-54 0 -87 -40t-33 -106q0 -36 10 -62
t26.5 -42.5t38.5 -24t46 -7.5q53 0 83 39t30 97z" />
    <glyph glyph-name="dagger" unicode="&#x2020;" horiz-adv-x="500" 
d="M280 504l158 7q12 0 12 -12v-50q0 -12 -12 -12l-158 7l7 -363q0 -12 -12 -12h-50q-12 0 -12 12l7 363l-158 -7q-12 0 -12 12v50q0 12 12 12l158 -7l-7 184q0 12 12 12h50q12 0 12 -12z" />
    <glyph glyph-name="daggerdbl" unicode="&#x2021;" horiz-adv-x="500" 
d="M62 437q-12 0 -12 12v50q0 12 12 12l158 -7l-7 184q0 12 12 12h50q12 0 12 -12l-7 -184l158 7q12 0 12 -12v-50q0 -12 -12 -12l-158 7v-188l158 7q12 0 12 -12v-50q0 -12 -12 -12l-158 7l7 -184q0 -12 -12 -12h-50q-12 0 -12 12l7 184l-158 -7q-12 0 -12 12v50
q0 12 12 12l158 -7v188z" />
    <glyph glyph-name="paragraph" unicode="&#xb6;" horiz-adv-x="494" 
d="M350 134q0 -37 -10.5 -65t-26 -48t-34 -31.5t-34.5 -14.5q-13 -3 -24 6q-5 5 -12 18.5t-7 21.5q0 18 12 22q33 10 48 39t14 73l-1 163q-44 -3 -79 8t-59.5 32t-37.5 51t-13 66q0 37 14 65.5t39.5 48t60 29t76.5 7.5v51q0 11 4 17.5t20 6.5h27q13 0 17 -7t4 -18v-51
q19 -2 39 -6t37 -10q8 -3 11.5 -9t3.5 -13t-3.5 -21.5t-8.5 -21.5q-4 -6 -11.5 -6.5t-18 1t-23 3.5t-26.5 2z" />
    <glyph glyph-name="divide" unicode="&#xf7;" horiz-adv-x="661" 
d="M112 274q-12 0 -12 12v60q0 12 12 12h437q12 0 12 -12v-60q0 -12 -12 -12h-437zM330 64q-20 0 -36.5 14.5t-16.5 37.5q0 22 15.5 37t37.5 15q20 0 36.5 -14.5t16.5 -37.5t-16.5 -37.5t-36.5 -14.5zM330 464q-20 0 -36.5 14.5t-16.5 37.5q0 22 15.5 37t37.5 15
q20 0 36.5 -14.5t16.5 -37.5t-16.5 -37.5t-36.5 -14.5z" />
    <glyph glyph-name="fraction" unicode="&#x2044;" horiz-adv-x="515" 
d="M95 11q-7 -11 -18 -11h-56q-6 0 -8.5 3.5t0.5 8.5l406 675q8 13 19 13h56q13 0 6 -12z" />
    <glyph glyph-name="sterling" unicode="&#xa3;" horiz-adv-x="498" 
d="M351 626q-26 0 -46 -11t-34.5 -38t-22.5 -72t-10 -112h135q19 0 27.5 -9.5t8.5 -26.5v-16q0 -18 -8.5 -24t-28.5 -6h-136q-2 -80 -18.5 -140.5t-45.5 -88.5h249q19 0 23.5 -7.5t4.5 -22.5l-1 -23q0 -17 -6 -23t-25 -6h-363q-8 0 -13 3t-7 14l-5 34q-2 14 3.5 21.5
t14.5 8.5q29 5 48 23t30.5 47t16.5 69.5t7 90.5h-63q-18 0 -27 8.5t-9 29.5v16q0 16 7 22t30 6h62q1 65 10 123t31 101.5t59.5 69t95.5 25.5q26 0 47.5 -3.5t34.5 -8.5q10 -4 14.5 -8.5t5.5 -13.5l3 -37q1 -25 -21 -25q-11 0 -27.5 5t-50.5 5z" />
    <glyph glyph-name="mu" unicode="&#xb5;" horiz-adv-x="577" 
d="M512 12q0 -12 -12 -12h-61q-12 0 -12 12v53q-34 -29 -77 -51t-95 -22q-35 0 -60.5 9t-45.5 26v-237q0 -11 -13 -11h-60q-12 0 -12 12v691q0 12 12 12h63q10 0 10 -12v-268q0 -64 31 -101.5t85 -37.5q20 0 41.5 7t42.5 19t40.5 28t35.5 33v320q0 12 12 12h62q13 0 13 -12
v-470z" />
    <glyph glyph-name="mu" unicode="&#x3bc;" horiz-adv-x="577" 
d="M512 12q0 -12 -12 -12h-61q-12 0 -12 12v53q-34 -29 -77 -51t-95 -22q-35 0 -60.5 9t-45.5 26v-237q0 -11 -13 -11h-60q-12 0 -12 12v691q0 12 12 12h63q10 0 10 -12v-268q0 -64 31 -101.5t85 -37.5q20 0 41.5 7t42.5 19t40.5 28t35.5 33v320q0 12 12 12h62q13 0 13 -12
v-470z" />
    <glyph glyph-name="space" unicode=" " horiz-adv-x="210" 
 />
    </font>
</defs>
</svg>
