<?xml version="1.0" standalone="no"?>
<!DOCTYPE svg PUBLIC "-//W3C//DTD SVG 1.1//EN" "http://www.w3.org/Graphics/SVG/1.1/DTD/svg11.dtd" >
<svg>
<metadata>
Created by FontForge 20090622 at Wed Jun 29 04:14:05 2016
 By deploy user
</metadata>
<defs>
<font id="DisneyJuniorRegularV" horiz-adv-x="584" >
  <font-face 
    font-family="Disney Junior Regular V2"
    font-weight="400"
    font-stretch="normal"
    units-per-em="1000"
    panose-1="0 0 0 0 0 0 0 0 0 0"
    ascent="750"
    descent="-250"
    x-height="494"
    cap-height="700"
    bbox="-94 -263 943 963"
    underline-thickness="50"
    underline-position="-50"
    unicode-range="U+0020-U+FB02"
  />
<missing-glyph horiz-adv-x="230" 
 />
    <glyph glyph-name="fi" unicode="fi" horiz-adv-x="558" 
d="M491 429q12 0 12 -13v-405q0 -11 -13 -11h-101q-12 0 -12 12v311l-148 -5v-307q0 -11 -12 -11h-105q-11 0 -11 11v305l-68 -1q-11 0 -11 11l-2 82q0 12 12 12l69 2q0 67 13 121t40 91.5t68 57.5t98 20q31 0 60.5 -4.5t43.5 -10.5q7 -4 7 -12v-94q0 -13 -12 -13
q-11 0 -33.5 5t-57.5 5q-22 0 -40.5 -7t-32 -23.5t-21 -44t-7.5 -68.5v-22z" />
    <glyph glyph-name="fl" unicode="fl" horiz-adv-x="618" 
d="M328 422q11 0 11 -12l-3 -88q0 -12 -12 -12l-95 3l-2 -302q0 -11 -12 -11h-105q-11 0 -11 11l2 306l-68 2q-11 0 -11 11l-2 81q0 12 12 12h70q2 67 10.5 120.5t29 91t55 57.5t88.5 20q23 0 45 -3t35 -8q7 -4 7 -12v-96q0 -13 -12 -13t-29.5 4t-37.5 4q-19 0 -31.5 -7
t-20 -24t-10.5 -44.5t-3 -67.5v-22zM563 13q0 -13 -12 -13h-116q-11 0 -11 13v698q0 12 11 12h116q12 0 12 -13v-697z" />
    <glyph glyph-name=".notdef" horiz-adv-x="230" 
 />
    <glyph glyph-name="exclam" unicode="!" horiz-adv-x="295" 
d="M90 224q-12 0 -12 12v476q0 11 13 11h116q11 0 11 -12l1 -474q0 -13 -12 -13h-117zM148 -11q-15 0 -30 5.5t-27 16t-19.5 24.5t-7.5 32q0 32 24 54.5t59 22.5q33 0 58.5 -22t25.5 -56q0 -17 -7 -31t-18.5 -24t-26.5 -16t-31 -6z" />
    <glyph glyph-name="ampersand" unicode="&#x26;" horiz-adv-x="662" 
d="M546 309q8 9 17 0l76 -72q8 -7 -1 -17l-35.5 -40t-35.5 -38l36 -28.5l39 -29.5q9 -7 1 -17l-73 -84q-7 -7 -17 0l-46 34.5l-44 34.5q-47 -33 -98 -52.5t-109 -19.5q-50 0 -93 14.5t-74.5 42t-49.5 66.5t-18 88q0 73 36 120t96 79q-31 67 -31 128q0 46 16.5 84.5t45.5 66
t69.5 43t88.5 15.5q47 0 84 -15t62 -40.5t38 -59t13 -71.5q0 -39 -13.5 -69t-37.5 -54t-58 -43t-76 -35q23 -27 51.5 -55.5l63.5 -60.5q20 20 39 41zM264 110q46 0 95 29q-84 75 -139 146q-24 -14 -38 -34t-14 -49q0 -42 27 -67t69 -25zM264 520q0 -36 20 -79q55 18 85.5 36
t30.5 54q0 29 -18 49t-48 20q-31 0 -50.5 -22t-19.5 -58z" />
    <glyph glyph-name="comma" unicode="," horiz-adv-x="237" 
d="M103 3q-29 3 -48.5 19.5t-19.5 43.5q0 32 24 54.5t59 22.5q19 0 34.5 -7t26.5 -18t17 -25t6 -29q0 -32 -14.5 -56t-32.5 -40.5t-34 -25t-19 -8.5q-12 0 -12 12q0 5 7.5 19.5t5.5 37.5z" />
    <glyph glyph-name="period" unicode="." horiz-adv-x="237" 
d="M119 -12q-15 0 -30 5.5t-27 16t-19.5 25t-7.5 31.5q0 16 6.5 30.5t17.5 25t26.5 16.5t32.5 6q33 0 58.5 -22t25.5 -56q0 -17 -7 -31t-18.5 -24.5t-26.5 -16.5t-31 -6z" />
    <glyph glyph-name="zero" unicode="0" horiz-adv-x="700" 
d="M368 702q66 0 120.5 -28.5t94 -78.5t61 -117.5t21.5 -145.5q0 -70 -22 -133t-61.5 -110.5t-95.5 -75.5t-124 -28q-78 0 -139 25.5t-102.5 71.5t-63.5 110.5t-22 142.5q0 76 23 143t66 117t105 78.5t139 28.5zM354 551q-40 0 -71.5 -17.5t-53.5 -48.5t-34 -72t-12 -87
q0 -44 11 -82t33 -65.5t54 -43t73 -15.5q38 0 68.5 16.5t52.5 45t33.5 65.5t11.5 79q0 48 -12 89t-34 71t-52.5 47.5t-67.5 17.5z" />
    <glyph glyph-name="one" unicode="1" horiz-adv-x="389" 
d="M296 11q0 -5 -3.5 -8t-8.5 -3h-130q-12 0 -12 12v557h-105q-12 0 -12 12q0 2 3 12.5t8.5 27l13 37.5l15.5 42h220q11 0 11 -12v-677z" />
    <glyph glyph-name="two" unicode="2" horiz-adv-x="601" 
d="M518 134q13 0 13 -12l-1 -110q0 -12 -12 -12h-458q-2 0 -5 1t-5 5q-1 4 -2.5 13t-2.5 19.5t-1.5 21.5t-0.5 20q0 42 14 85.5t45.5 85t83 80t126.5 69.5q55 25 75.5 47t20.5 52q0 40 -33.5 68.5t-85.5 28.5q-38 0 -83.5 -19.5t-87.5 -55.5q-8 -7 -15 0l-69 78q-3 3 -3 8
t3 8q23 24 52 44t61.5 34t67 22t68.5 8q58 0 109 -16t88.5 -45t59 -71t21.5 -93q0 -39 -11.5 -69t-31.5 -54.5t-48 -44t-62 -36.5l-83.5 -41.5t-62.5 -37t-40 -38t-15 -43.5h311z" />
    <glyph glyph-name="three" unicode="3" horiz-adv-x="608" 
d="M439 354q55 -19 87.5 -62t32.5 -91t-21 -87.5t-57.5 -68t-87 -44t-109.5 -15.5q-79 0 -147 30.5t-113 75.5q-4 3 -3.5 7.5t3.5 7.5l68 77q7 9 15 1q35 -31 84.5 -52.5t96.5 -21.5q59 0 89 27t30 62q0 37 -32 65t-102 28h-75q-12 0 -12 12v100q0 13 12 13h71q74 0 105 27
t31 64q0 16 -6.5 31.5t-20.5 28t-36 20t-52 7.5q-50 0 -95 -20t-80 -50q-8 -6 -15 1l-69 76q-7 9 0 16q21 21 49.5 40.5t61.5 33.5t69 22.5t73 8.5q63 0 113.5 -17.5t86 -47.5t54.5 -69t19 -82q0 -48 -30.5 -90.5t-87.5 -61.5v-2z" />
    <glyph glyph-name="four" unicode="4" horiz-adv-x="640" 
d="M605 180q0 -12 -12 -12h-79v-157q0 -11 -13 -11h-121q-12 0 -12 12v156h-298q-38 0 -49.5 17t5.5 46l281 458q3 5 9 8t12 3h174q11 0 11 -12l1 -397h79q12 0 12 -11v-100zM372 291l2 281l-169 -281h167z" />
    <glyph glyph-name="five" unicode="5" horiz-adv-x="613" 
d="M226 438q14 3 33 5.5t39 2.5q51 0 99.5 -15t86.5 -43.5t61 -70.5t23 -96q0 -47 -18 -90t-54 -75.5t-89.5 -51.5t-125.5 -19q-36 0 -72.5 8.5t-69.5 22.5t-60.5 32t-45.5 38q-3 3 -3 7.5t3 7.5l68 79q8 9 16 1q33 -33 77 -52.5t84 -19.5q62 0 95 30.5t33 76.5q0 24 -10 46
t-30.5 38t-51.5 25.5t-73 9.5q-37 0 -76 -7.5t-68 -16.5q-7 -2 -12 2t-5 12v363q0 12 13 12h428q12 0 12 -11l1 -109q0 -12 -12 -12h-296v-130z" />
    <glyph glyph-name="six" unicode="6" horiz-adv-x="639" 
d="M512 582q0 -5 -4 -8t-10 -2q-17 2 -38.5 3t-38.5 1q-43 0 -77.5 -11.5t-60.5 -32t-44.5 -48.5t-28.5 -61q38 26 78 36t82 10q59 0 103.5 -20t74.5 -53t45.5 -76.5t15.5 -90.5q0 -44 -18 -87.5t-52 -78t-82.5 -56t-109.5 -21.5q-54 0 -109.5 17.5t-100.5 55t-73.5 97
t-28.5 144.5q0 48 11.5 97.5t33.5 95t54.5 85t73.5 69t90.5 46.5t106.5 17h96q12 0 12 -13zM332 353q-28 0 -52.5 -9.5t-42.5 -24.5t-28 -34.5t-10 -38.5q0 -27 10.5 -49.5t29.5 -38t43.5 -24t53.5 -8.5q26 0 49 9t39.5 24t26 35t9.5 42q0 52 -33.5 84.5t-94.5 32.5z" />
    <glyph glyph-name="seven" unicode="7" horiz-adv-x="546" 
d="M255 12q-5 -12 -18 -12h-136q-5 0 -8.5 4.5t-0.5 9.5l267 554h-325q-12 0 -12 12v109q0 11 12 11h444q43 0 55 -17.5t-3 -53.5z" />
    <glyph glyph-name="eight" unicode="8" horiz-adv-x="627" 
d="M461 366q54 -19 90 -60t36 -102q0 -42 -18 -81.5t-52.5 -70t-85.5 -48.5t-117 -18q-68 0 -119.5 18.5t-86 48.5t-51.5 68.5t-17 79.5q0 59 33.5 102t93.5 63v2q-45 20 -71 60.5t-26 93.5q0 37 15 73t45 64t76 45.5t108 17.5t108.5 -18t77.5 -47t46.5 -65.5t15.5 -74.5
q0 -52 -26.5 -90.5t-74.5 -58.5v-2zM314 425q30 3 50.5 12t33 21.5t18 27t5.5 29.5q0 39 -28.5 65.5t-78.5 26.5q-44 0 -74.5 -24t-30.5 -66q0 -32 24 -59t81 -33zM314 303q-57 -5 -92 -31t-35 -69q0 -17 7.5 -33.5t23 -29.5t39.5 -21.5t57 -8.5q32 0 55.5 8.5t39 22t23 30
t7.5 32.5q0 41 -32 68t-93 32z" />
    <glyph glyph-name="nine" unicode="9" horiz-adv-x="639" 
d="M127 128q0 5 4 8t10 2q17 -2 38.5 -3t38.5 -1q43 0 77.5 11.5t60.5 32t44.5 48.5t28.5 61q-38 -26 -78 -36t-82 -10q-59 0 -103.5 20t-74.5 53t-45.5 76.5t-15.5 90.5q0 44 18 87.5t52 78t82.5 56t109.5 21.5q54 0 109.5 -17.5t100.5 -55t73.5 -97t28.5 -144.5
q0 -73 -26 -146t-74 -131.5t-116.5 -95.5t-153.5 -37h-96q-12 0 -12 13zM307 357q28 0 52.5 9.5t42.5 24.5t28 34t10 39q0 27 -10.5 49.5t-29.5 38t-44 24t-53 8.5q-26 0 -49 -9t-39.5 -24t-26 -35t-9.5 -42q0 -52 33.5 -84.5t94.5 -32.5z" />
    <glyph glyph-name="colon" unicode=":" horiz-adv-x="237" 
d="M119 -12q-15 0 -30 5.5t-27 16t-19.5 25t-7.5 31.5q0 16 6.5 30.5t17.5 25t26.5 16.5t32.5 6q33 0 58.5 -22t25.5 -56q0 -17 -7 -31t-18.5 -24.5t-26.5 -16.5t-31 -6zM119 385q-15 0 -30 5.5t-27 16t-19.5 25t-7.5 31.5q0 16 6.5 30.5t17.5 25t26.5 16.5t32.5 6
q33 0 58.5 -22t25.5 -56q0 -17 -7 -31t-18.5 -24.5t-26.5 -16.5t-31 -6z" />
    <glyph glyph-name="semicolon" unicode=";" horiz-adv-x="237" 
d="M103 3q-29 3 -48.5 19.5t-19.5 43.5q0 32 24 54.5t59 22.5q19 0 34.5 -7t26.5 -18t17 -25t6 -29q0 -32 -14.5 -56t-32.5 -40.5t-34 -25t-19 -8.5q-12 0 -12 12q0 5 7.5 19.5t5.5 37.5zM119 385q-15 0 -30 5.5t-27 16t-19.5 25t-7.5 31.5q0 16 6.5 30.5t17.5 25t26.5 16.5
t32.5 6q33 0 58.5 -22t25.5 -56q0 -17 -7 -31t-18.5 -24.5t-26.5 -16.5t-31 -6z" />
    <glyph glyph-name="question" unicode="?" horiz-adv-x="541" 
d="M191 214q-9 0 -12 8q-4 9 -7 30t-3 41q0 46 29.5 88.5t106.5 74.5q34 14 50.5 29.5t16.5 42.5q0 30 -27.5 52.5t-79.5 22.5q-44 0 -84.5 -18.5t-72.5 -44.5q-3 -2 -7 -3.5t-8 3.5l-64 74q-3 3 -2.5 7t3.5 7q19 20 45.5 37.5t57.5 30t63.5 20t62.5 7.5q57 0 104.5 -15
t81.5 -40.5t52.5 -61t18.5 -75.5q0 -35 -9.5 -60t-26 -44.5t-40 -34t-50.5 -27.5q-38 -18 -61.5 -38t-23.5 -56q0 -15 3 -27.5t3 -16.5q0 -13 -11 -13h-109zM252 -12q-15 0 -30 5.5t-27 16t-19.5 25t-7.5 31.5q0 16 6.5 30.5t17.5 25t26.5 16.5t32.5 6q33 0 58.5 -22
t25.5 -56q0 -17 -7 -31t-18.5 -24.5t-26.5 -16.5t-31 -6z" />
    <glyph glyph-name="A" unicode="A" horiz-adv-x="620" 
d="M604 12q2 -6 -2 -9t-10 -3h-129q-9 0 -12 10l-34 127h-215l-34 -127q-1 -10 -12 -10h-128q-6 0 -10 3.5t-2 9.5l193 677q2 10 12 10h186q10 0 12 -10zM390 260l-75 296l-82 -296h157z" />
    <glyph glyph-name="B" unicode="B" horiz-adv-x="605" 
d="M571 204q0 -60 -17 -99t-51 -62.5t-85.5 -33t-120.5 -9.5h-223q-12 0 -12 11v678q0 11 12 11h167q79 0 139 -7.5t100 -29.5t60 -60.5t20 -101.5q0 -48 -24.5 -84t-78.5 -58q62 -22 88 -64t26 -91zM419 500q0 34 -14 53.5t-41.5 28.5t-67.5 11t-91 2v-180q57 -1 97.5 0.5
t66.5 10t38 26t12 48.5zM422 210q0 36 -12.5 56t-38.5 29.5t-67 12t-99 2.5v-197h81q31 0 56 4.5t43 15.5t27.5 29.5t9.5 47.5z" />
    <glyph glyph-name="C" unicode="C" horiz-adv-x="548" 
d="M518 36q0 -6 -4 -9q-24 -19 -68.5 -30.5t-92.5 -11.5q-72 0 -131.5 23.5t-102 66.5t-66 103.5t-23.5 135.5q0 91 27 162.5t75 121t114.5 75.5t144.5 26q33 0 65 -3.5t48 -8.5q7 -3 7 -9v-125q0 -11 -10 -11q-9 0 -34.5 6.5t-64.5 6.5q-44 0 -84.5 -13.5t-72 -40.5
t-50.5 -68.5t-19 -96.5q0 -54 14 -92.5t40 -63t62.5 -36t81.5 -11.5q33 0 66.5 7.5t54.5 16.5q6 2 11 0.5t5 -9.5z" />
    <glyph glyph-name="D" unicode="D" horiz-adv-x="615" 
d="M192 700q70 0 140.5 -19.5t126.5 -61.5t91 -108t35 -160q0 -98 -33 -165.5t-87 -108.5t-123.5 -59t-143.5 -18h-121q-12 0 -12 11v677q0 12 12 12h115zM432 349q0 47 -17 85.5t-47 66t-70.5 42.5t-87.5 17v-421q58 2 100 19t69 44.5t40 65t13 81.5z" />
    <glyph glyph-name="E" unicode="E" horiz-adv-x="568" 
d="M518 12q0 -12 -12 -12h-428q-12 0 -12 12l-3 675q0 13 12 13h436q12 0 12 -13v-96q0 -12 -12 -12h-302l1 -172h255q12 0 12 -12v-98q0 -12 -12 -12h-254l1 -164h294q12 0 12 -12v-97z" />
    <glyph glyph-name="F" unicode="F" horiz-adv-x="539" 
d="M523 586q0 -11 -12 -11l-297 4l-4 -170l249 -2q11 0 11 -12l-1 -96q0 -11 -12 -11l-250 2l-4 -279q0 -11 -11 -11h-118q-12 0 -12 12l5 676q0 12 12 12h433q12 0 12 -13z" />
    <glyph glyph-name="G" unicode="G" horiz-adv-x="658" 
d="M603 59q0 -12 -10 -19q-15 -12 -37.5 -21.5t-49.5 -17t-56.5 -11.5t-58.5 -4q-84 0 -151 24.5t-113.5 68t-71.5 103t-25 130.5q0 90 30.5 162t84.5 122t128 77t161 27q15 0 33.5 -1t36 -2.5t32.5 -3.5t25 -5q7 -2 7 -9v-124q0 -11 -10 -11t-40 7t-78 7q-59 0 -107 -17
t-82 -50t-52.5 -80.5t-18.5 -108.5q0 -40 12.5 -75t37.5 -61t63 -41t90 -15q19 0 38 2.5t33 7.5v141l-127 -3q-5 0 -8 4t-3 9l4 95q0 11 11 11l260 8q12 0 12 -11v-315z" />
    <glyph glyph-name="H" unicode="H" horiz-adv-x="676" 
d="M605 12q0 -12 -12 -12h-120q-12 0 -12 12l2 278l-252 -2l-2 -276q0 -12 -11 -12h-120q-13 0 -13 12v676q0 12 12 12h127q12 0 12 -12l-3 -281l251 2l2 279q0 12 12 12h127q11 0 11 -12z" />
    <glyph glyph-name="I" unicode="I" horiz-adv-x="286" 
d="M221 11q0 -11 -13 -11h-131q-12 0 -12 12v675q0 13 12 13h132q11 0 11 -12z" />
    <glyph glyph-name="J" unicode="J" horiz-adv-x="426" 
d="M369 687q0 -47 -1.5 -106.5l-3 -122.5t-4 -125t-5.5 -113q-2 -54 -16 -99t-45 -78q-29 -30 -73.5 -43.5t-95.5 -13.5q-32 0 -56 3t-40 11q-9 3 -9 13v116q0 13 14 13q5 0 25 -4.5t44 -4.5q60 0 83 28.5t23 96.5l2 429q0 5 4.5 9t9.5 4h131q13 0 13 -13z" />
    <glyph glyph-name="K" unicode="K" horiz-adv-x="603" 
d="M350 354l238 -342q7 -12 -7 -12h-153q-9 0 -15 7l-185 282l-7 -1l-2 -276q0 -12 -11 -12h-132q-11 0 -11 12v677q0 11 12 11h137q11 0 11 -11l-3 -289l214 294q4 6 12 6h133q8 0 10.5 -6.5t-1.5 -11.5z" />
    <glyph glyph-name="L" unicode="L" horiz-adv-x="493" 
d="M473 13q0 -13 -13 -13h-385q-12 0 -12 13l3 675q0 12 13 12h126q12 0 12 -12l-7 -566h250q13 0 13 -13v-96z" />
    <glyph glyph-name="M" unicode="M" horiz-adv-x="830" 
d="M749 700q13 0 13 -12l6 -676q0 -12 -11 -12h-119q-12 0 -12 12l-7 414q0 6 1 17.5t3 18.5q-3 -5 -8 -21l-154 -401q-3 -9 -12 -9h-79q-7 0 -10 9l-149 407q-3 11 -6 16q2 -8 2.5 -19.5t0.5 -18.5l-2 -413q0 -12 -13 -12h-118q-12 0 -12 13l3 675q0 12 13 12h160
q8 0 11 -8l162 -423l170 423q3 8 11 8h156z" />
    <glyph glyph-name="N" unicode="N" horiz-adv-x="676" 
d="M608 11q0 -11 -12 -11h-117q-8 0 -12 7l-259 431l-4 -427q0 -11 -12 -11h-114q-13 0 -13 12v675q0 13 12 13h124q7 0 10 -7l260 -443v438q0 12 11 12h120q12 0 12 -11z" />
    <glyph glyph-name="O" unicode="O" horiz-adv-x="690" 
d="M369 703q73 0 127.5 -33t91 -86.5t54.5 -121t18 -135.5q0 -69 -21.5 -131.5t-60.5 -109t-94 -74t-123 -27.5q-78 0 -139.5 25t-104 71t-65 110.5t-22.5 142.5t23.5 145.5t67.5 117t107 78t141 28.5zM348 118q40 0 71.5 16t53.5 43.5t33 65t11 80.5q0 42 -10 83t-30 73
t-50.5 52t-71.5 20t-74 -17.5t-56 -48t-35.5 -71.5t-12.5 -88q0 -48 13.5 -86.5t36.5 -65.5t54 -41.5t67 -14.5z" />
    <glyph glyph-name="P" unicode="P" horiz-adv-x="582" 
d="M560 435q0 -63 -27 -111t-74.5 -80t-112 -48.5t-140.5 -17.5l-4 -167q0 -11 -11 -11h-114q-13 0 -13 11l1 675q0 11 13 11h96q88 0 159.5 -14t121.5 -45t77.5 -81t27.5 -122zM417 428q0 36 -14.5 62t-41.5 42.5t-65 24.5t-85 8l-4 -269q109 2 159.5 36t50.5 96z" />
    <glyph glyph-name="Q" unicode="Q" horiz-adv-x="690" 
d="M357 703q73 0 129.5 -32.5t95 -85t58.5 -119t20 -134.5q0 -96 -39 -175.5t-108 -123.5q22 -18 46.5 -26t55.5 -8q4 0 10 0.5t8 0.5q12 2 12 -9l-1 -99q0 -9 -9 -13q-17 -5 -48 -5q-39 0 -69.5 7t-57.5 21t-51 34.5t-49 48.5q-78 0 -139 25.5t-103.5 71.5t-65 111
t-22.5 143t21.5 145.5t63.5 116.5t103 77t139 28zM348 118q40 0 71.5 16.5t53.5 45t33 67t11 81.5q0 44 -12 84.5t-34.5 71t-54.5 49t-73 18.5t-72 -17.5t-52 -47.5t-31.5 -70.5t-10.5 -87.5q0 -48 13.5 -87t36.5 -66.5t54 -42t67 -14.5z" />
    <glyph glyph-name="R" unicode="R" horiz-adv-x="595" 
d="M569 20q5 -6 2 -13t-12 -7h-135q-7 0 -11 5l-123 184q-23 -5 -47.5 -8t-36.5 -3l-2 -167q0 -11 -12 -11h-114q-13 0 -13 11l-1 675q0 11 12 11h119q81 0 147.5 -13.5t114.5 -44.5t74 -81t26 -123q0 -69 -37 -121.5t-102 -84.5zM208 296q94 5 151 39t57 97q0 36 -14 61
t-40.5 41t-64.5 23.5t-86 7.5z" />
    <glyph glyph-name="S" unicode="S" horiz-adv-x="599" 
d="M571 199q-1 -45 -20 -84t-54.5 -68.5t-87 -46t-115.5 -16.5q-70 0 -134 25.5t-111 74.5q-3 3 -3 7.5t3 7.5l69 75q8 8 16 1q30 -28 72.5 -48t96.5 -20q51 0 79.5 22t28.5 56q0 24 -16.5 39.5t-43.5 27t-61.5 20t-70.5 19t-70.5 24.5t-61.5 36.5t-43 54.5t-16 79
q1 50 23.5 91t60.5 69.5t89 44t108 15.5q72 0 139 -26.5t114 -71.5q3 -3 2 -8t-3 -7l-70 -76q-3 -4 -8 -3.5t-8 2.5q-33 28 -76 46t-97 18q-48 1 -79 -22t-31 -62q-1 -35 31.5 -55t96.5 -34q62 -14 109.5 -30.5t79 -40.5t47.5 -57t15 -79z" />
    <glyph glyph-name="T" unicode="T" horiz-adv-x="516" 
d="M501 594q0 -12 -13 -12h-155v-570q0 -12 -12 -12h-125q-12 0 -12 12v570h-177q-12 0 -12 12v95q0 11 12 11h481q13 0 13 -11v-95z" />
    <glyph glyph-name="U" unicode="U" horiz-adv-x="670" 
d="M610 252q1 -144 -68 -213.5t-205 -69.5q-133 0 -205 71.5t-72 211.5v435q0 13 11 13h127q12 0 12 -13v-436q0 -69 34 -107t93 -38q66 0 95 38.5t29 106.5l-3 436q0 13 12 13h127q11 0 11 -13z" />
    <glyph glyph-name="V" unicode="V" horiz-adv-x="606" 
d="M406 10q-3 -10 -12 -10h-199q-9 0 -12 10l-167 678q-2 6 2 9t10 3h130q10 0 12 -11l124 -556l143 557q1 10 11 10h129q16 0 13 -15z" />
    <glyph glyph-name="W" unicode="W" horiz-adv-x="860" 
d="M150 0q-11 0 -12 12l-109 675q-2 13 10 13h126q12 0 13 -11l73 -441q1 -6 0 -18.5t-3 -21.5q5 3 8 14l126 334q3 8 12 8h79q8 0 11 -8l119 -331q4 -13 10 -19q-2 6 -3.5 18t-0.5 20l75 445q1 11 14 11h122q14 0 12 -14l-113 -674q-2 -12 -14 -12h-134q-9 0 -12 8
l-128 318l-133 -318q-3 -8 -11 -8h-137z" />
    <glyph glyph-name="X" unicode="X" horiz-adv-x="566" 
d="M545 21q4 -8 1 -14.5t-11 -6.5h-133q-6 0 -9 7l-112 230l-110 -231q-2 -6 -11 -6h-130q-9 0 -11.5 6.5t1.5 14.5l162 322l-162 323q-3 7 -1.5 14t11.5 7h131q8 0 11 -7l110 -236l112 236q3 7 9 7h132q7 0 10 -7t0 -14l-163 -323z" />
    <glyph glyph-name="Y" unicode="Y" horiz-adv-x="562" 
d="M553 688l-38.5 -88l-47.5 -104l-55.5 -115l-60.5 -121l2 -249q0 -11 -12 -11h-132q-12 0 -12 11v249l-53.5 115.5l-50 114l-44 106t-35.5 92.5q-2 6 2 9t10 3h136q9 0 11 -8l104 -306l117 306q4 8 12 8h135q6 0 10 -3t2 -9z" />
    <glyph glyph-name="Z" unicode="Z" horiz-adv-x="590" 
d="M548 12q0 -12 -12 -12h-474q-12 0 -12 12v127q0 5 4 9l321 421h-326q-12 0 -12 12v108q0 11 13 11h489q11 0 11 -12v-112q0 -5 -4 -9l-317 -423h308q11 0 11 -11v-121z" />
    <glyph glyph-name="a" unicode="a" horiz-adv-x="513" 
d="M461 12q0 -12 -12 -12h-93q-3 0 -6 5q-18 -9 -48 -15.5t-62 -6.5q-45 0 -83.5 11.5t-66 32.5t-43 49.5t-15.5 62.5q0 44 17 77.5t47 56.5t72 34.5t93 11.5q20 0 42.5 -2t37.5 -4q0 49 -18 78.5t-62 29.5q-27 0 -51 -13t-32 -50h-104q-6 0 -9.5 2t-3.5 10q0 17 10.5 46
t38.5 54q31 26 70 38.5t84 12.5q97 0 145.5 -51.5t49.5 -139.5zM341 217q-13 3 -33.5 5t-37.5 2q-48 0 -75.5 -21.5t-27.5 -59.5q0 -29 24 -48t70 -19q23 0 45.5 6.5t34.5 12.5v122z" />
    <glyph glyph-name="b" unicode="b" horiz-adv-x="554" 
d="M68 0q-12 0 -12 12l-3 676q0 12 12 12h110q12 0 12 -12l1 -210q19 5 42.5 9.5t47.5 4.5q55 0 100 -18t77.5 -52t50.5 -84t18 -114q0 -50 -16.5 -94t-46.5 -77t-72.5 -52t-94.5 -19q-32 0 -61 6t-49 15q-3 -3 -5 -3h-111zM190 122q20 -9 45.5 -14.5t51.5 -5.5
q49 0 79.5 33.5t30.5 90.5q0 66 -33 103.5t-92 37.5q-19 0 -43 -4t-41 -12z" />
    <glyph glyph-name="c" unicode="c" horiz-adv-x="429" 
d="M394 27q0 -7 -5 -10q-18 -14 -48.5 -23t-67.5 -9q-56 0 -100.5 18.5t-76.5 50.5t-49 76.5t-17 97.5q0 69 20 123t56 92t86 58t110 20q22 0 45.5 -2.5t34.5 -6.5q6 -2 6 -7v-109q0 -7 -7 -7q-9 0 -26.5 5t-49.5 5q-71 0 -112 -45.5t-41 -122.5q0 -58 32.5 -95t93.5 -37
q26 0 51 6.5t48 17.5q5 2 8.5 0t3.5 -7z" />
    <glyph glyph-name="d" unicode="d" horiz-adv-x="554" 
d="M377 0q-3 0 -6 3q-20 -8 -49.5 -14.5t-62.5 -6.5q-53 0 -95 18t-72 50t-46 75.5t-16 93.5q0 64 18.5 115t52 86t79 53.5t99.5 18.5q23 0 44.5 -3l41.5 -6v205q0 12 12 12h110q12 0 12 -12v-676q0 -12 -12 -12h-110zM365 353q-13 5 -37.5 9t-45.5 4q-60 0 -92.5 -41
t-32.5 -104q0 -54 30.5 -87t81.5 -33q26 0 52.5 6.5t43.5 14.5v231z" />
    <glyph glyph-name="e" unicode="e" horiz-adv-x="474" 
d="M153 297q13 -2 34.5 -4t40.5 -2q53 0 81.5 13.5t28.5 45.5q0 24 -19 41t-53 17q-44 0 -76 -28.5t-37 -82.5zM154 206q3 -22 12.5 -41.5t25 -34.5t38.5 -23.5t54 -8.5q34 0 64.5 8.5t62.5 23.5q4 2 8 0t4 -7l5 -90q0 -4 -3 -7q-22 -16 -63 -29t-86 -13q-53 0 -98 17
t-78 51t-51.5 85t-18.5 119q0 49 15.5 96.5t46 84.5t77 59.5t108.5 22.5q43 0 74.5 -14t52.5 -37t31.5 -52.5t10.5 -59.5q0 -70 -50.5 -113.5t-147.5 -43.5q-24 0 -50 2t-44 5z" />
    <glyph glyph-name="f" unicode="f" horiz-adv-x="367" 
d="M328 422q11 0 11 -12l-3 -88q0 -12 -12 -12l-95 3l-2 -302q0 -11 -12 -11h-105q-11 0 -11 11l2 306l-68 2q-11 0 -11 11l-2 81q0 12 12 12h70q2 67 10.5 120.5t29 91t55 57.5t88.5 20q23 0 45 -3t35 -8q7 -4 7 -12v-96q0 -13 -12 -13t-29.5 4t-37.5 4q-19 0 -31.5 -7
t-20 -24t-10.5 -44.5t-3 -67.5v-22z" />
    <glyph glyph-name="g" unicode="g" horiz-adv-x="555" 
d="M366 356q-20 11 -44 15.5t-47 4.5q-52 0 -84.5 -35t-32.5 -95q0 -57 29 -94t85 -37q26 0 51.5 7t42.5 20v214zM500 72q0 -81 -14 -137t-41 -91t-67 -51t-91 -16q-72 0 -104 13q-9 3 -9 12v100q0 12 14 12q11 0 30.5 -5t57.5 -5q27 0 44 8.5t27 23.5t14 36t5 45
q-23 -9 -51.5 -14.5t-54.5 -5.5q-51 0 -93.5 17t-73 49.5t-47 79t-16.5 106.5q0 58 19.5 104.5t53.5 79.5t79 50.5t95 17.5q31 0 57 -4.5t44 -12.5h110q12 0 12 -12v-400z" />
    <glyph glyph-name="h" unicode="h" horiz-adv-x="579" 
d="M529 11q0 -11 -12 -11h-114q-10 0 -10 12l-3 262q-2 59 -22 91t-62 32q-35 0 -65.5 -17t-51.5 -49v-319q0 -12 -12 -12h-109q-13 0 -13 12l-1 684q0 12 12 12h109q12 0 12 -12l1 -239q60 62 146 62q53 0 89.5 -20t59.5 -53.5t33 -78.5t11 -96z" />
    <glyph glyph-name="i" unicode="i" horiz-adv-x="251" 
d="M126 551q-15 0 -29.5 5.5t-26 15t-18.5 23.5t-7 31q0 31 23.5 52.5t56.5 21.5q16 0 30.5 -5.5t25.5 -15.5t18 -24t7 -30q0 -32 -24.5 -53t-55.5 -21zM184 461q12 0 12 -13v-437q0 -11 -13 -11h-116q-12 0 -12 12v436q0 13 12 13h117z" />
    <glyph glyph-name="j" unicode="j" horiz-adv-x="269" 
d="M200 461q12 0 12 -13l3 -426q0 -54 -11.5 -98.5t-36 -77t-62 -50.5t-89.5 -18q-29 0 -57 3.5t-44 9.5q-9 3 -9 12v100q0 13 14 13q8 0 30.5 -5.5t54.5 -5.5q37 0 54 23.5t17 79.5l-5 441q0 12 11 12h118zM142 551q-15 0 -29 5.5t-25.5 15t-18.5 23t-7 30.5
q0 31 23.5 52.5t56.5 21.5q15 0 29.5 -5.5t26 -15.5t18 -23.5t6.5 -29.5t-6.5 -29.5t-18 -23.5t-26 -15.5t-29.5 -5.5z" />
    <glyph glyph-name="k" unicode="k" horiz-adv-x="506" 
d="M350 0q-5 0 -8 4l-158 180v-172q0 -12 -14 -12h-104q-11 0 -11 12l-1 678q0 10 11 10h109q6 0 9 -3.5t3 -8.5l-2 -373l160 198q4 7 11 7h123q7 0 9 -4.5t0 -7.5l-202 -254l214 -234q6 -7 2.5 -13.5t-11.5 -6.5h-140z" />
    <glyph glyph-name="l" unicode="l" horiz-adv-x="248" 
d="M193 13q0 -13 -12 -13h-115q-11 0 -11 13v698q0 12 11 12h115q12 0 12 -13v-697z" />
    <glyph glyph-name="m" unicode="m" horiz-adv-x="911" 
d="M519 12q0 -12 -12 -12h-113q-10 0 -10 12v246q0 59 -19 90t-62 31q-35 0 -64 -20.5t-49 -52.5v-294q0 -12 -12 -12h-110q-13 0 -13 12v470q0 12 12 12h109q12 0 12 -12v-47q32 29 67 48t80 19q58 0 94.5 -24.5t58.5 -66.5q38 45 84 68t94 23q52 0 89.5 -20t60.5 -54.5
t34 -79.5t11 -94v-242q0 -12 -12 -12h-113q-10 0 -10 12l-2 246q-1 59 -23.5 90t-65.5 31q-35 0 -66 -19.5t-51 -51.5q2 -12 2.5 -26t0.5 -28z" />
    <glyph glyph-name="n" unicode="n" 
d="M308 379q-35 0 -66.5 -20.5t-51.5 -52.5v-294q0 -12 -12 -12h-110q-13 0 -13 12v470q0 12 12 12h109q12 0 12 -12v-47q32 29 69.5 48t81.5 19q52 0 89 -20t60 -54.5t34 -79.5t11 -94l1 -242q0 -12 -12 -12h-113q-10 0 -10 12l-3 246q-1 59 -23 90t-65 31z" />
    <glyph glyph-name="o" unicode="o" horiz-adv-x="538" 
d="M508 247q0 -53 -17 -100.5t-47 -83.5t-72 -57t-92 -21q-59 0 -105.5 19.5t-78.5 54t-49 82.5t-17 105q0 58 19 108t53 87t80.5 57.5t101.5 20.5q52 0 93.5 -22t70.5 -59.5t44.5 -86.5t15.5 -104zM380 250q0 63 -27 98t-79 35q-26 0 -46.5 -10.5t-35.5 -29t-23 -43.5
t-8 -55q0 -63 32.5 -97.5t79.5 -34.5q25 0 45 11.5t33.5 30.5t21 44t7.5 51z" />
    <glyph glyph-name="p" unicode="p" horiz-adv-x="554" 
d="M177 477q4 0 6 -5q23 11 54 17t62 6q51 0 92.5 -17.5t71 -49t45.5 -76t16 -99.5q0 -64 -18.5 -114t-51.5 -84t-78.5 -52t-100.5 -18q-50 0 -86 9v-203q0 -12 -12 -12h-110q-12 0 -12 12v674q0 12 12 12h110zM189 124q11 -5 33.5 -9t47.5 -4q60 0 93.5 38t33.5 102
q0 60 -31 92.5t-81 32.5q-23 0 -48.5 -5.5t-47.5 -16.5v-230z" />
    <glyph glyph-name="q" unicode="q" horiz-adv-x="554" 
d="M487 477q12 0 12 -12v-674q0 -12 -12 -12h-110q-12 0 -12 12v213q-18 -8 -41.5 -13.5t-44.5 -5.5q-55 0 -101 18.5t-79 53.5t-51 86.5t-18 116.5q0 50 16.5 93t47 74.5t73 49.5t95.5 18q35 0 64.5 -6.5t46.5 -15.5q2 4 6 4h108zM365 350q-48 25 -93 25q-56 0 -86.5 -31.5
t-30.5 -85.5q0 -71 34.5 -109t92.5 -38q21 0 46 6t37 15v218z" />
    <glyph glyph-name="r" unicode="r" horiz-adv-x="363" 
d="M355 383q0 -7 -3.5 -8.5t-8.5 0.5q-9 5 -19 6.5t-21 1.5q-36 1 -68.5 -23t-46.5 -64v-284q0 -12 -11 -12h-108q-14 0 -14 12l1 497q0 11 12 11h110q13 0 13 -10l-2 -61q26 35 56 52.5t67 17.5q19 0 30.5 -5t11.5 -11z" />
    <glyph glyph-name="s" unicode="s" horiz-adv-x="457" 
d="M32 356q0 35 16 65t44 52t66 34t82 11q50 0 100 -20t84 -52q5 -6 0 -11l-53 -64q-6 -7 -12 -1q-26 20 -59.5 35t-68.5 15q-29 0 -49 -15.5t-20 -37.5q0 -21 19.5 -32.5t48.5 -20.5l63.5 -19t63.5 -27t48.5 -45t19.5 -73q0 -37 -15.5 -67.5t-42.5 -52t-64.5 -33.5
t-80.5 -12q-48 0 -96.5 19t-79.5 48q-6 6 0 12l54 62q6 6 12 0q21 -17 50.5 -28t65.5 -12q30 0 47.5 15t17.5 38q1 22 -16 37t-68 28q-92 22 -134.5 57t-42.5 95z" />
    <glyph glyph-name="t" unicode="t" horiz-adv-x="364" 
d="M342 496q11 0 11 -12l-3 -84q-1 -6 -3 -9t-8 -3h-100l-1 -375q0 -13 -12 -13h-115q-12 0 -12 13l1 378l-74 1q-11 0 -11 11l-3 76q0 13 13 13l74 1v97q0 13 12 13h115q12 0 12 -13v-96z" />
    <glyph glyph-name="u" unicode="u" 
d="M49 482q0 12 13 12h112q10 0 10 -12l4 -253q1 -60 23 -86.5t66 -26.5q42 0 72 19t45 48v299q0 12 12 12h110q13 0 13 -12v-470q0 -12 -12 -12h-109q-12 0 -12 12v43q-30 -30 -69.5 -46t-82.5 -16q-49 0 -85 17.5t-60 49t-36 75.5t-12 97z" />
    <glyph glyph-name="v" unicode="v" horiz-adv-x="507" 
d="M344 9q-3 -9 -13 -9h-171q-11 0 -12 9l-142 473q-2 6 2 9t10 3h119q9 0 11 -9l97 -362l111 362q1 9 12 9h121q6 0 10 -3t2 -9z" />
    <glyph glyph-name="w" unicode="w" horiz-adv-x="726" 
d="M107 0q-11 0 -12 12l-74 469q-2 13 10 13h113q12 0 13 -11l46 -302q2 -6 1.5 -18.5t-1.5 -17.5l111 250q3 8 13 8h82q8 0 11 -8l103 -252q-1 7 -1.5 18t0.5 17l49 305q1 11 13 11h110q13 0 11 -14l-76 -468q-2 -12 -13 -12h-133q-8 0 -13 8l-105 225l-113 -225
q-5 -8 -14 -8h-131z" />
    <glyph glyph-name="x" unicode="x" horiz-adv-x="501" 
d="M483 15q3 -5 1 -10t-10 -5h-128q-8 0 -10 5l-87 158l-86 -158q-3 -5 -11 -5h-124q-7 0 -10 4.5t1 10.5l139 229l-144 235q-3 5 -0.5 10t9.5 5h127q8 0 11 -5l90 -168l91 168q2 5 10 5h125q7 0 9.5 -4.5t-0.5 -10.5l-144 -235z" />
    <glyph glyph-name="y" unicode="y" horiz-adv-x="575" 
d="M520 75q0 -68 -11.5 -123.5t-37.5 -96t-68.5 -62.5t-104.5 -22q-27 0 -53 3t-43 9q-9 3 -9 12v100q0 13 14 13q8 0 26.5 -5t49.5 -5q54 0 79 34t24 113q-10 -15 -25.5 -26.5t-34 -19t-38 -11t-38.5 -3.5q-54 0 -92 17.5t-62 49t-35 76.5t-11 99v257q0 10 12 10h113
q12 0 12 -12l-1 -255q0 -60 19.5 -91t72.5 -31q33 0 61.5 15.5t45.5 42.5l-2 320q0 11 11 11h110q13 0 14 -11z" />
    <glyph glyph-name="z" unicode="z" horiz-adv-x="529" 
d="M484 12q0 -12 -12 -12h-409q-12 0 -12 12v106q0 5 4 8l262 246h-260q-13 0 -13 12l1 98q0 12 12 12h416q11 0 11 -12v-105q0 -5 -4 -8l-251 -247h244q11 0 11 -12v-98z" />
    <glyph glyph-name="quoteright" unicode="&#x2019;" horiz-adv-x="237" 
d="M103 578q-29 3 -48.5 19.5t-19.5 43.5q0 32 24 54.5t59 22.5q19 0 34.5 -7t26.5 -18t17 -25t6 -29q0 -32 -14.5 -56t-32.5 -40.5t-34 -25t-19 -8.5q-12 0 -12 12q0 5 7.5 19.5t5.5 37.5z" />
    <glyph glyph-name="tilde" unicode="&#x2dc;" horiz-adv-x="500" 
d="M420 691q18 0 18 -22q0 -11 -6 -30t-19.5 -38t-35.5 -33t-55 -14q-21 0 -41 6.5t-38 15t-34.5 15t-31.5 6.5q-16 0 -25.5 -8.5t-15.5 -23.5q-3 -11 -15 -11h-39q-20 0 -20 22q0 9 5.5 29.5t19 41.5t36.5 36.5t58 15.5q22 0 41 -7t36.5 -15t34.5 -15t37 -7q14 0 22.5 5.5
t13.5 20.5q3 10 15 10h39z" />
    <glyph glyph-name="acute" unicode="&#xb4;" horiz-adv-x="368" 
d="M175 572q-10 -8 -18.5 -11t-21.5 -3h-62q-9 0 -12 5t5 16l83 103q6 8 14 12.5t24 4.5h103q13 0 16.5 -7.5t-4.5 -14.5z" />
    <glyph glyph-name="grave" unicode="`" horiz-adv-x="377" 
d="M67 677q-8 7 -4.5 14.5t16.5 7.5h110q17 0 24.5 -4.5t13.5 -12.5l84 -103q8 -10 4.5 -15.5t-12.5 -5.5h-63q-14 0 -22 3t-18 11z" />
    <glyph glyph-name="quoteleft" unicode="&#x2018;" horiz-adv-x="237" 
d="M134 669q29 -3 48.5 -19.5t19.5 -43.5q0 -32 -24 -54.5t-59 -22.5q-19 0 -34.5 7t-26.5 18t-17 25t-6 29q0 32 14.5 56t32.5 40.5t34 25t19 8.5q12 0 12 -12q0 -5 -7.5 -19.5t-5.5 -37.5z" />
    <glyph glyph-name="quotedblright" unicode="&#x201d;" horiz-adv-x="457" 
d="M103 578q-29 3 -48.5 19.5t-19.5 43.5q0 32 24 54.5t59 22.5q19 0 34.5 -7t26.5 -18t17 -25t6 -29q0 -32 -14.5 -56t-32.5 -40.5t-34 -25t-19 -8.5q-12 0 -12 12q0 5 7.5 19.5t5.5 37.5zM323 578q-29 3 -48.5 19.5t-19.5 43.5q0 32 24 54.5t59 22.5q19 0 34.5 -7
t26.5 -18t17 -25t6 -29q0 -32 -14.5 -56t-32.5 -40.5t-34 -25t-19 -8.5q-12 0 -12 12q0 5 7.5 19.5t5.5 37.5z" />
    <glyph glyph-name="quotedblleft" unicode="&#x201c;" horiz-adv-x="457" 
d="M134 669q29 -3 48.5 -19.5t19.5 -43.5q0 -32 -24 -54.5t-59 -22.5q-19 0 -34.5 7t-26.5 18t-17 25t-6 29q0 32 14.5 56t32.5 40.5t34 25t19 8.5q12 0 12 -12q0 -5 -7.5 -19.5t-5.5 -37.5zM354 669q29 -3 48.5 -19.5t19.5 -43.5q0 -32 -24 -54.5t-59 -22.5q-19 0 -34.5 7
t-26.5 18t-17 25t-6 29q0 32 14.5 56t32.5 40.5t34 25t19 8.5q12 0 12 -12q0 -5 -7.5 -19.5t-5.5 -37.5z" />
    <glyph glyph-name="hyphen" unicode="-" horiz-adv-x="381" 
d="M62 264q-12 0 -12 12v98q0 12 12 12h257q12 0 12 -12v-98q0 -12 -12 -12h-257z" />
    <glyph glyph-name="endash" unicode="&#x2013;" horiz-adv-x="601" 
d="M72 264q-12 0 -12 12v98q0 12 12 12h457q12 0 12 -12v-98q0 -12 -12 -12h-457z" />
    <glyph glyph-name="emdash" unicode="&#x2014;" horiz-adv-x="891" 
d="M72 264q-12 0 -12 12v98q0 12 12 12h747q12 0 12 -12v-98q0 -12 -12 -12h-747z" />
    <glyph glyph-name="dieresis" unicode="&#xa8;" horiz-adv-x="523" 
d="M152 553q-27 0 -50 18.5t-23 48.5q0 28 21.5 47.5t50.5 19.5t51 -19t22 -48t-22 -48t-50 -19zM372 553q-27 0 -50 18.5t-23 48.5q0 28 21.5 47.5t50.5 19.5t51 -19t22 -48t-22 -48t-50 -19z" />
    <glyph glyph-name="circumflex" unicode="&#x2c6;" horiz-adv-x="447" 
d="M222 618l-52 -46q-9 -8 -18 -11t-22 -3h-52q-9 0 -12 5.5t5 15.5l108 123q8 8 15 12.5t18 4.5h22q12 0 18.5 -4t14.5 -13l109 -123q8 -8 4.5 -14.5t-12.5 -6.5h-54q-14 0 -22.5 3t-17.5 11z" />
    <glyph glyph-name="ring" unicode="&#x2da;" horiz-adv-x="349" 
d="M175 553q-22 0 -42.5 7t-36.5 20t-26 32t-10 43q0 22 9 40.5t24.5 32t36 21.5t44.5 8q22 0 43 -7.5t37 -21t25.5 -32.5t9.5 -42t-9.5 -41.5t-25.5 -32t-36.5 -20.5t-42.5 -7zM175 607q21 0 37 13.5t16 33.5q0 21 -15.5 35t-38.5 14t-38 -14t-15 -34q0 -22 16.5 -35
t37.5 -13z" />
    <glyph glyph-name="dotlessi" unicode="&#x131;" horiz-adv-x="251" 
d="M184 461q12 0 12 -13v-437q0 -11 -13 -11h-116q-12 0 -12 12v436q0 13 12 13h117z" />
    <glyph glyph-name="quotesingle" unicode="'" horiz-adv-x="265" 
d="M92 519q-12 0 -12 12l-10 181q0 11 13 11h101q11 0 11 -12l-10 -179q0 -13 -12 -13h-81z" />
    <glyph glyph-name="quotedbl" unicode="&#x22;" horiz-adv-x="460" 
d="M92 519q-12 0 -12 12l-10 181q0 11 13 11h101q11 0 11 -12l-10 -179q0 -13 -12 -13h-81zM287 519q-12 0 -12 12l-10 181q0 11 13 11h101q11 0 11 -12l-10 -179q0 -13 -12 -13h-81z" />
    <glyph glyph-name="quotesinglbase" unicode="&#x201a;" horiz-adv-x="237" 
d="M103 3q-29 3 -48.5 19.5t-19.5 43.5q0 32 24 54.5t59 22.5q19 0 34.5 -7t26.5 -18t17 -25t6 -29q0 -32 -14.5 -56t-32.5 -40.5t-34 -25t-19 -8.5q-12 0 -12 12q0 5 7.5 19.5t5.5 37.5z" />
    <glyph glyph-name="quotedblbase" unicode="&#x201e;" horiz-adv-x="457" 
d="M323 3q-29 3 -48.5 19.5t-19.5 43.5q0 32 24 54.5t59 22.5q19 0 34.5 -7t26.5 -18t17 -25t6 -29q0 -32 -14.5 -56t-32.5 -40.5t-34 -25t-19 -8.5q-12 0 -12 12q0 5 7.5 19.5t5.5 37.5zM103 3q-29 3 -48.5 19.5t-19.5 43.5q0 32 24 54.5t59 22.5q19 0 34.5 -7t26.5 -18
t17 -25t6 -29q0 -32 -14.5 -56t-32.5 -40.5t-34 -25t-19 -8.5q-12 0 -12 12q0 5 7.5 19.5t5.5 37.5z" />
    <glyph glyph-name="at" unicode="@" horiz-adv-x="941" 
d="M624 220q-2 -23 15 -39t49 -16q19 0 37.5 9.5t33 28t23 47t8.5 66.5q0 66 -19.5 120.5t-57.5 94t-94.5 61t-131.5 21.5t-136 -26.5t-104 -73t-66.5 -110t-23.5 -136.5q0 -67 20 -125t60.5 -101t102.5 -68t146 -25q31 0 60 4.5t52 14.5q12 3 12 -7l4 -68q0 -7 -5 -10
q-17 -11 -49 -19t-70 -8q-102 0 -182 31.5t-135 86.5t-84 128t-29 156q0 99 30.5 181t87.5 141t138 91.5t183 32.5q93 0 164 -29.5t119.5 -81.5t73.5 -123t25 -153q0 -60 -17 -105t-45 -75t-64.5 -45.5t-74.5 -15.5q-40 0 -72 14t-49 37q-17 -17 -46.5 -29.5t-66.5 -12.5
q-40 0 -73 13.5t-55.5 39.5t-33 64t-5.5 87q4 37 19.5 69t40.5 56t58 37.5t71 13.5q22 0 43 -5.5t38 -16.5q1 9 7 9h84q9 0 8 -9zM535 352q-14 10 -32 16t-34 6q-38 0 -64 -24.5t-30 -63.5q-5 -51 16 -79.5t69 -28.5q16 0 32.5 6t26.5 16z" />
    <glyph glyph-name="uni00A0" unicode="&#xa0;" horiz-adv-x="230" 
 />
    <glyph glyph-name="ellipsis" unicode="&#x2026;" horiz-adv-x="929" 
d="M179 -12q-15 0 -30 5.5t-27 16t-19.5 25t-7.5 31.5q0 16 6.5 30.5t17.5 25t26.5 16.5t32.5 6q33 0 58.5 -22t25.5 -56q0 -17 -7 -31t-18.5 -24.5t-26.5 -16.5t-31 -6zM751 -12q-15 0 -30 5.5t-27 16t-19.5 25t-7.5 31.5q0 16 6.5 30.5t17.5 25t26.5 16.5t32.5 6
q33 0 58.5 -22t25.5 -56q0 -17 -7 -31t-18.5 -24.5t-26.5 -16.5t-31 -6zM465 -12q-15 0 -30 5.5t-27 16t-19.5 25t-7.5 31.5q0 16 6.5 30.5t17.5 25t26.5 16.5t32.5 6q33 0 58.5 -22t25.5 -56q0 -17 -7 -31t-18.5 -24.5t-26.5 -16.5t-31 -6z" />
    <glyph glyph-name="periodcentered" unicode="&#xb7;" horiz-adv-x="237" 
d="M119 264q-15 0 -30 5.5t-27 16t-19.5 24.5t-7.5 32q0 32 24 54.5t59 22.5q33 0 58.5 -22t25.5 -56q0 -17 -7 -31t-18.5 -24t-26.5 -16t-31 -6z" />
    <glyph glyph-name="equal" unicode="=" horiz-adv-x="661" 
d="M97 401q-12 0 -12 12v88q0 12 12 12h467q12 0 12 -12v-88q0 -12 -12 -12h-467zM97 155q-12 0 -12 12v88q0 12 12 12h467q12 0 12 -12v-88q0 -12 -12 -12h-467z" />
    <glyph glyph-name="plus" unicode="+" horiz-adv-x="661" 
d="M391 383h168q12 0 12 -12v-93q0 -12 -12 -12h-168v-155q0 -12 -12 -12h-98q-12 0 -12 12v155h-167q-12 0 -12 12v93q0 12 12 12h167v156q0 12 12 12h98q12 0 12 -12v-156z" />
    <glyph glyph-name="slash" unicode="/" horiz-adv-x="425" 
d="M129 -79q-4 -11 -17 -11h-87q-13 0 -8 12l280 765q4 13 15 13h88q12 0 8 -12z" />
    <glyph glyph-name="underscore" unicode="_" horiz-adv-x="500" 
d="M0 -131v70h500v-70h-500z" />
    <glyph glyph-name="parenleft" unicode="(" horiz-adv-x="373" 
d="M351 -84q3 -4 0 -9.5t-9 -6.5l-114 -10q-6 0 -9 5q-33 37 -60.5 86.5t-47 106t-30.5 117t-11 119.5q0 52 9 107.5t26 110t41.5 106.5t56.5 96q4 6 9 6l116 -10q5 0 9.5 -3.5t1.5 -7.5q-33 -40 -60.5 -89t-47 -102t-30 -108t-10.5 -108q0 -51 10 -104.5t30.5 -106.5
t50.5 -103t69 -92z" />
    <glyph glyph-name="parenright" unicode=")" horiz-adv-x="373" 
d="M21 724q-3 4 0 9.5t9 6.5l115 10q6 0 9 -5q33 -38 60.5 -87.5t47 -105.5t30.5 -116.5t11 -119.5q0 -52 -9 -107.5t-26 -110t-41.5 -106.5t-56.5 -96q-4 -6 -9 -6l-117 10q-5 0 -9.5 3.5t-1.5 7.5q33 40 60 89t46.5 102t30.5 108t11 108q0 51 -10 104.5t-30.5 106.5
t-50.5 103t-69 92z" />
    <glyph glyph-name="numbersign" unicode="#" horiz-adv-x="621" 
d="M483 518h81q12 0 12 -12v-78q0 -12 -12 -12h-106l-37 -148h103q12 0 12 -12v-78q0 -12 -12 -12h-127l-38 -155q-4 -11 -17 -11h-52q-13 0 -8 12l38 154h-109l-38 -155q-4 -11 -17 -11h-52q-13 0 -8 12l38 154h-77q-12 0 -12 12v78q0 12 12 12h102l36 148h-98
q-12 0 -12 12v78q0 12 12 12h124l42 169q3 13 15 13h53q11 0 8 -12l-42 -170h110l42 169q3 13 15 13h53q11 0 8 -12zM235 268h110l36 148h-109z" />
    <glyph glyph-name="dollar" unicode="$" horiz-adv-x="541" 
d="M331 645q32 -1 65 -9.5t48 -17.5q13 -8 16.5 -16.5t3.5 -20.5t-4.5 -27t-9.5 -23q-8 -14 -22.5 -16.5t-26.5 3.5q-23 11 -51.5 17.5t-53.5 6.5q-17 0 -33.5 -3t-30 -11t-22 -21.5t-8.5 -33.5q0 -29 25 -44.5t79 -23.5q100 -16 152 -54t52 -116q0 -38 -13 -68.5t-37 -52.5
t-57 -35t-72 -17v-33q0 -21 -11 -31.5t-28 -10.5h-43q-16 0 -26 9.5t-10 30.5v32q-46 1 -84 10t-52 20q-6 5 -11.5 12.5t-5.5 20.5t7 34t21 31q8 5 17.5 5.5t18.5 -4.5q22 -11 58 -18.5t73 -7.5q49 0 76.5 18.5t27.5 51.5q0 35 -32.5 51t-97.5 27q-87 14 -135 52.5
t-48 110.5q0 71 45.5 114.5t122.5 53.5v41q0 39 38 39h43q36 0 36 -40v-36v0z" />
    <glyph glyph-name="percent" unicode="%" horiz-adv-x="726" 
d="M209 11q-7 -11 -18 -11h-76q-6 0 -8.5 3.5t0.5 8.5l406 675q8 13 19 13h76q13 0 6 -12zM188 715q30 0 56 -12.5t44.5 -34t29 -50.5t10.5 -62q0 -30 -10.5 -57.5t-29.5 -47.5t-45.5 -32t-57.5 -12q-74 0 -115.5 40.5t-41.5 109.5q0 34 11.5 63t32.5 50t50.5 33t65.5 12z
M180 626q-29 0 -46.5 -20.5t-17.5 -48.5q0 -27 17.5 -47t46.5 -20q27 0 45.5 20t18.5 47q0 28 -17.5 48.5t-46.5 20.5zM551 299q30 0 56.5 -11t46.5 -31.5t31.5 -49.5t11.5 -64q0 -32 -10 -60t-29 -49t-47.5 -33t-64.5 -12q-35 0 -62.5 12t-47 32t-30 47t-10.5 57t11 59.5
t31 52t48.5 36.5t64.5 14zM552 210q-26 0 -47 -19.5t-21 -48.5q0 -31 18.5 -49.5t44.5 -18.5q31 0 49 19.5t18 48.5q0 26 -17 47t-45 21z" />
    <glyph glyph-name="asterisk" unicode="*" horiz-adv-x="504" 
d="M283 563l128 65q4 2 7.5 -0.5t5.5 -7.5l26 -81q4 -10 -7 -13l-139 -23l102 -102q5 -8 -4 -15l-69 -50q-8 -6 -14 3l-65 125l-66 -128q-2 -4 -6.5 -4t-8.5 2l-69 51q-9 6 -2 14l99 101l-142 23q-5 1 -6.5 5t0.5 9l26 81q3 11 13 6l127 -64l-22 143q-1 5 2.5 7.5t8.5 2.5
h86q10 0 9 -10z" />
    <glyph glyph-name="germandbls" unicode="&#xdf;" horiz-adv-x="597" 
d="M278 96q2 8 9 6q17 -5 37 -9t38 -4q33 0 50.5 16t17.5 42q0 21 -12 34.5t-30.5 24t-39.5 20.5t-39.5 26t-30.5 40t-12 61q0 53 32.5 89t87.5 50q-2 51 -27 75.5t-69 24.5q-21 0 -39 -8t-32 -25.5t-22.5 -45t-8.5 -67.5l-3 -435q0 -11 -12 -11h-103q-11 0 -11 11l3 423
q0 71 18 123t49.5 86.5t74 51.5t93.5 17t90 -17.5t65 -47.5t39.5 -70.5t12.5 -87.5l-2 -68q0 -9 -9 -9q-48 0 -74.5 -14t-26.5 -42q0 -20 12.5 -32.5t31.5 -22.5l41 -21.5t41 -28.5t31.5 -43t12.5 -66q0 -74 -53 -115.5t-140 -41.5q-24 0 -50.5 3t-47.5 9q-7 2 -6 9z" />
    <glyph glyph-name="Adieresis" unicode="&#xc4;" horiz-adv-x="620" 
d="M604 12q2 -6 -2 -9t-10 -3h-129q-9 0 -12 10l-34 127h-215l-34 -127q-1 -10 -12 -10h-128q-6 0 -10 3.5t-2 9.5l193 677q2 10 12 10h186q10 0 12 -10zM390 260l-75 296l-82 -296h157zM204 759q-27 0 -50 18.5t-23 48.5q0 28 21.5 47.5t50.5 19.5t51 -19t22 -48t-22 -48
t-50 -19zM424 759q-27 0 -50 18.5t-23 48.5q0 28 21.5 47.5t50.5 19.5t51 -19t22 -48t-22 -48t-50 -19z" />
    <glyph glyph-name="Aring" unicode="&#xc5;" horiz-adv-x="620" 
d="M604 12q2 -6 -2 -9t-10 -3h-129q-9 0 -12 10l-34 127h-215l-34 -127q-1 -10 -12 -10h-128q-6 0 -10 3.5t-2 9.5l193 677q2 10 12 10h186q10 0 12 -10zM390 260l-75 296l-82 -296h157zM314 759q-22 0 -42.5 7t-36.5 20t-26 32t-10 43q0 22 9 40.5t24.5 32t36 21.5t44.5 8
q22 0 43 -7.5t37 -21t25.5 -32.5t9.5 -42t-9.5 -41.5t-25.5 -32t-36.5 -20.5t-42.5 -7zM314 813q21 0 37 13.5t16 33.5q0 21 -15.5 35t-38.5 14t-38 -14t-15 -34q0 -22 16.5 -35t37.5 -13z" />
    <glyph glyph-name="udieresis" unicode="&#xfc;" 
d="M49 482q0 12 13 12h112q10 0 10 -12l4 -253q1 -60 23 -86.5t66 -26.5q42 0 72 19t45 48v299q0 12 12 12h110q13 0 13 -12v-470q0 -12 -12 -12h-109q-12 0 -12 12v43q-30 -30 -69.5 -46t-82.5 -16q-49 0 -85 17.5t-60 49t-36 75.5t-12 97zM182 553q-27 0 -50 18.5
t-23 48.5q0 28 21.5 47.5t50.5 19.5t51 -19t22 -48t-22 -48t-50 -19zM402 553q-27 0 -50 18.5t-23 48.5q0 28 21.5 47.5t50.5 19.5t51 -19t22 -48t-22 -48t-50 -19z" />
    <glyph glyph-name="Eacute" unicode="&#xc9;" horiz-adv-x="568" 
d="M518 12q0 -12 -12 -12h-428q-12 0 -12 12l-3 675q0 13 12 13h436q12 0 12 -13v-96q0 -12 -12 -12h-302l1 -172h255q12 0 12 -12v-98q0 -12 -12 -12h-254l1 -164h294q12 0 12 -12v-97zM324 778q-10 -8 -18.5 -11t-21.5 -3h-62q-9 0 -12 5t5 16l83 103q6 8 14 12.5t24 4.5
h103q13 0 16.5 -7.5t-4.5 -14.5z" />
    <glyph glyph-name="Ntilde" unicode="&#xd1;" horiz-adv-x="676" 
d="M608 11q0 -11 -12 -11h-117q-8 0 -12 7l-259 431l-4 -427q0 -11 -12 -11h-114q-13 0 -13 12v675q0 13 12 13h124q7 0 10 -7l260 -443v438q0 12 11 12h120q12 0 12 -11zM512 897q18 0 18 -22q0 -11 -6 -30t-19.5 -38t-35.5 -33t-55 -14q-21 0 -41 6.5t-38 15t-34.5 15
t-31.5 6.5q-16 0 -25.5 -8.5t-15.5 -23.5q-3 -11 -15 -11h-39q-20 0 -20 22q0 9 5.5 29.5t19 41.5t36.5 36.5t58 15.5q22 0 41 -7t36.5 -15t34.5 -15t37 -7q14 0 22.5 5.5t13.5 20.5q3 10 15 10h39z" />
    <glyph glyph-name="Odieresis" unicode="&#xd6;" horiz-adv-x="690" 
d="M369 703q73 0 127.5 -33t91 -86.5t54.5 -121t18 -135.5q0 -69 -21.5 -131.5t-60.5 -109t-94 -74t-123 -27.5q-78 0 -139.5 25t-104 71t-65 110.5t-22.5 142.5t23.5 145.5t67.5 117t107 78t141 28.5zM348 118q40 0 71.5 16t53.5 43.5t33 65t11 80.5q0 42 -10 83t-30 73
t-50.5 52t-71.5 20t-74 -17.5t-56 -48t-35.5 -71.5t-12.5 -88q0 -48 13.5 -86.5t36.5 -65.5t54 -41.5t67 -14.5zM245 759q-27 0 -50 18.5t-23 48.5q0 28 21.5 47.5t50.5 19.5t51 -19t22 -48t-22 -48t-50 -19zM465 759q-27 0 -50 18.5t-23 48.5q0 28 21.5 47.5t50.5 19.5
t51 -19t22 -48t-22 -48t-50 -19z" />
    <glyph glyph-name="Udieresis" unicode="&#xdc;" horiz-adv-x="670" 
d="M610 252q1 -144 -68 -213.5t-205 -69.5q-133 0 -205 71.5t-72 211.5v435q0 13 11 13h127q12 0 12 -13v-436q0 -69 34 -107t93 -38q66 0 95 38.5t29 106.5l-3 436q0 13 12 13h127q11 0 11 -13zM225 759q-27 0 -50 18.5t-23 48.5q0 28 21.5 47.5t50.5 19.5t51 -19t22 -48
t-22 -48t-50 -19zM445 759q-27 0 -50 18.5t-23 48.5q0 28 21.5 47.5t50.5 19.5t51 -19t22 -48t-22 -48t-50 -19z" />
    <glyph glyph-name="aacute" unicode="&#xe1;" horiz-adv-x="513" 
d="M461 12q0 -12 -12 -12h-93q-3 0 -6 5q-18 -9 -48 -15.5t-62 -6.5q-45 0 -83.5 11.5t-66 32.5t-43 49.5t-15.5 62.5q0 44 17 77.5t47 56.5t72 34.5t93 11.5q20 0 42.5 -2t37.5 -4q0 49 -18 78.5t-62 29.5q-27 0 -51 -13t-32 -50h-104q-6 0 -9.5 2t-3.5 10q0 17 10.5 46
t38.5 54q31 26 70 38.5t84 12.5q97 0 145.5 -51.5t49.5 -139.5zM341 217q-13 3 -33.5 5t-37.5 2q-48 0 -75.5 -21.5t-27.5 -59.5q0 -29 24 -48t70 -19q23 0 45.5 6.5t34.5 12.5v122zM287 572q-10 -8 -18.5 -11t-21.5 -3h-62q-9 0 -12 5t5 16l83 103q6 8 14 12.5t24 4.5h103
q13 0 16.5 -7.5t-4.5 -14.5z" />
    <glyph glyph-name="agrave" unicode="&#xe0;" horiz-adv-x="513" 
d="M461 12q0 -12 -12 -12h-93q-3 0 -6 5q-18 -9 -48 -15.5t-62 -6.5q-45 0 -83.5 11.5t-66 32.5t-43 49.5t-15.5 62.5q0 44 17 77.5t47 56.5t72 34.5t93 11.5q20 0 42.5 -2t37.5 -4q0 49 -18 78.5t-62 29.5q-27 0 -51 -13t-32 -50h-104q-6 0 -9.5 2t-3.5 10q0 17 10.5 46
t38.5 54q31 26 70 38.5t84 12.5q97 0 145.5 -51.5t49.5 -139.5zM341 217q-13 3 -33.5 5t-37.5 2q-48 0 -75.5 -21.5t-27.5 -59.5q0 -29 24 -48t70 -19q23 0 45.5 6.5t34.5 12.5v122zM106 677q-8 7 -4.5 14.5t16.5 7.5h110q17 0 24.5 -4.5t13.5 -12.5l84 -103
q8 -10 4.5 -15.5t-12.5 -5.5h-63q-14 0 -22 3t-18 11z" />
    <glyph glyph-name="acircumflex" unicode="&#xe2;" horiz-adv-x="513" 
d="M461 12q0 -12 -12 -12h-93q-3 0 -6 5q-18 -9 -48 -15.5t-62 -6.5q-45 0 -83.5 11.5t-66 32.5t-43 49.5t-15.5 62.5q0 44 17 77.5t47 56.5t72 34.5t93 11.5q20 0 42.5 -2t37.5 -4q0 49 -18 78.5t-62 29.5q-27 0 -51 -13t-32 -50h-104q-6 0 -9.5 2t-3.5 10q0 17 10.5 46
t38.5 54q31 26 70 38.5t84 12.5q97 0 145.5 -51.5t49.5 -139.5zM341 217q-13 3 -33.5 5t-37.5 2q-48 0 -75.5 -21.5t-27.5 -59.5q0 -29 24 -48t70 -19q23 0 45.5 6.5t34.5 12.5v122zM266 618l-52 -46q-9 -8 -18 -11t-22 -3h-52q-9 0 -12 5.5t5 15.5l108 123q8 8 15 12.5
t18 4.5h22q12 0 18.5 -4t14.5 -13l109 -123q8 -8 4.5 -14.5t-12.5 -6.5h-54q-14 0 -22.5 3t-17.5 11z" />
    <glyph glyph-name="adieresis" unicode="&#xe4;" horiz-adv-x="513" 
d="M461 12q0 -12 -12 -12h-93q-3 0 -6 5q-18 -9 -48 -15.5t-62 -6.5q-45 0 -83.5 11.5t-66 32.5t-43 49.5t-15.5 62.5q0 44 17 77.5t47 56.5t72 34.5t93 11.5q20 0 42.5 -2t37.5 -4q0 49 -18 78.5t-62 29.5q-27 0 -51 -13t-32 -50h-104q-6 0 -9.5 2t-3.5 10q0 17 10.5 46
t38.5 54q31 26 70 38.5t84 12.5q97 0 145.5 -51.5t49.5 -139.5zM341 217q-13 3 -33.5 5t-37.5 2q-48 0 -75.5 -21.5t-27.5 -59.5q0 -29 24 -48t70 -19q23 0 45.5 6.5t34.5 12.5v122zM153 553q-27 0 -50 18.5t-23 48.5q0 28 21.5 47.5t50.5 19.5t51 -19t22 -48t-22 -48
t-50 -19zM373 553q-27 0 -50 18.5t-23 48.5q0 28 21.5 47.5t50.5 19.5t51 -19t22 -48t-22 -48t-50 -19z" />
    <glyph glyph-name="atilde" unicode="&#xe3;" horiz-adv-x="513" 
d="M461 12q0 -12 -12 -12h-93q-3 0 -6 5q-18 -9 -48 -15.5t-62 -6.5q-45 0 -83.5 11.5t-66 32.5t-43 49.5t-15.5 62.5q0 44 17 77.5t47 56.5t72 34.5t93 11.5q20 0 42.5 -2t37.5 -4q0 49 -18 78.5t-62 29.5q-27 0 -51 -13t-32 -50h-104q-6 0 -9.5 2t-3.5 10q0 17 10.5 46
t38.5 54q31 26 70 38.5t84 12.5q97 0 145.5 -51.5t49.5 -139.5zM341 217q-13 3 -33.5 5t-37.5 2q-48 0 -75.5 -21.5t-27.5 -59.5q0 -29 24 -48t70 -19q23 0 45.5 6.5t34.5 12.5v122zM433 691q18 0 18 -22q0 -11 -6 -30t-19.5 -38t-35.5 -33t-55 -14q-21 0 -41 6.5t-38 15
t-34.5 15t-31.5 6.5q-16 0 -25.5 -8.5t-15.5 -23.5q-3 -11 -15 -11h-39q-20 0 -20 22q0 9 5.5 29.5t19 41.5t36.5 36.5t58 15.5q22 0 41 -7t36.5 -15t34.5 -15t37 -7q14 0 22.5 5.5t13.5 20.5q3 10 15 10h39z" />
    <glyph glyph-name="aring" unicode="&#xe5;" horiz-adv-x="513" 
d="M461 12q0 -12 -12 -12h-93q-3 0 -6 5q-18 -9 -48 -15.5t-62 -6.5q-45 0 -83.5 11.5t-66 32.5t-43 49.5t-15.5 62.5q0 44 17 77.5t47 56.5t72 34.5t93 11.5q20 0 42.5 -2t37.5 -4q0 49 -18 78.5t-62 29.5q-27 0 -51 -13t-32 -50h-104q-6 0 -9.5 2t-3.5 10q0 17 10.5 46
t38.5 54q31 26 70 38.5t84 12.5q97 0 145.5 -51.5t49.5 -139.5zM341 217q-13 3 -33.5 5t-37.5 2q-48 0 -75.5 -21.5t-27.5 -59.5q0 -29 24 -48t70 -19q23 0 45.5 6.5t34.5 12.5v122zM266 553q-22 0 -42.5 7t-36.5 20t-26 32t-10 43q0 22 9 40.5t24.5 32t36 21.5t44.5 8
q22 0 43 -7.5t37 -21t25.5 -32.5t9.5 -42t-9.5 -41.5t-25.5 -32t-36.5 -20.5t-42.5 -7zM266 607q21 0 37 13.5t16 33.5q0 21 -15.5 35t-38.5 14t-38 -14t-15 -34q0 -22 16.5 -35t37.5 -13z" />
    <glyph glyph-name="eacute" unicode="&#xe9;" horiz-adv-x="474" 
d="M153 297q13 -2 34.5 -4t40.5 -2q53 0 81.5 13.5t28.5 45.5q0 24 -19 41t-53 17q-44 0 -76 -28.5t-37 -82.5zM154 206q3 -22 12.5 -41.5t25 -34.5t38.5 -23.5t54 -8.5q34 0 64.5 8.5t62.5 23.5q4 2 8 0t4 -7l5 -90q0 -4 -3 -7q-22 -16 -63 -29t-86 -13q-53 0 -98 17
t-78 51t-51.5 85t-18.5 119q0 49 15.5 96.5t46 84.5t77 59.5t108.5 22.5q43 0 74.5 -14t52.5 -37t31.5 -52.5t10.5 -59.5q0 -70 -50.5 -113.5t-147.5 -43.5q-24 0 -50 2t-44 5zM285 572q-10 -8 -18.5 -11t-21.5 -3h-62q-9 0 -12 5t5 16l83 103q6 8 14 12.5t24 4.5h103
q13 0 16.5 -7.5t-4.5 -14.5z" />
    <glyph glyph-name="egrave" unicode="&#xe8;" horiz-adv-x="474" 
d="M153 297q13 -2 34.5 -4t40.5 -2q53 0 81.5 13.5t28.5 45.5q0 24 -19 41t-53 17q-44 0 -76 -28.5t-37 -82.5zM154 206q3 -22 12.5 -41.5t25 -34.5t38.5 -23.5t54 -8.5q34 0 64.5 8.5t62.5 23.5q4 2 8 0t4 -7l5 -90q0 -4 -3 -7q-22 -16 -63 -29t-86 -13q-53 0 -98 17
t-78 51t-51.5 85t-18.5 119q0 49 15.5 96.5t46 84.5t77 59.5t108.5 22.5q43 0 74.5 -14t52.5 -37t31.5 -52.5t10.5 -59.5q0 -70 -50.5 -113.5t-147.5 -43.5q-24 0 -50 2t-44 5zM98 677q-8 7 -4.5 14.5t16.5 7.5h110q17 0 24.5 -4.5t13.5 -12.5l84 -103q8 -10 4.5 -15.5
t-12.5 -5.5h-63q-14 0 -22 3t-18 11z" />
    <glyph glyph-name="ecircumflex" unicode="&#xea;" horiz-adv-x="474" 
d="M153 297q13 -2 34.5 -4t40.5 -2q53 0 81.5 13.5t28.5 45.5q0 24 -19 41t-53 17q-44 0 -76 -28.5t-37 -82.5zM154 206q3 -22 12.5 -41.5t25 -34.5t38.5 -23.5t54 -8.5q34 0 64.5 8.5t62.5 23.5q4 2 8 0t4 -7l5 -90q0 -4 -3 -7q-22 -16 -63 -29t-86 -13q-53 0 -98 17
t-78 51t-51.5 85t-18.5 119q0 49 15.5 96.5t46 84.5t77 59.5t108.5 22.5q43 0 74.5 -14t52.5 -37t31.5 -52.5t10.5 -59.5q0 -70 -50.5 -113.5t-147.5 -43.5q-24 0 -50 2t-44 5zM262 618l-52 -46q-9 -8 -18 -11t-22 -3h-52q-9 0 -12 5.5t5 15.5l108 123q8 8 15 12.5t18 4.5
h22q12 0 18.5 -4t14.5 -13l109 -123q8 -8 4.5 -14.5t-12.5 -6.5h-54q-14 0 -22.5 3t-17.5 11z" />
    <glyph glyph-name="edieresis" unicode="&#xeb;" horiz-adv-x="474" 
d="M153 297q13 -2 34.5 -4t40.5 -2q53 0 81.5 13.5t28.5 45.5q0 24 -19 41t-53 17q-44 0 -76 -28.5t-37 -82.5zM154 206q3 -22 12.5 -41.5t25 -34.5t38.5 -23.5t54 -8.5q34 0 64.5 8.5t62.5 23.5q4 2 8 0t4 -7l5 -90q0 -4 -3 -7q-22 -16 -63 -29t-86 -13q-53 0 -98 17
t-78 51t-51.5 85t-18.5 119q0 49 15.5 96.5t46 84.5t77 59.5t108.5 22.5q43 0 74.5 -14t52.5 -37t31.5 -52.5t10.5 -59.5q0 -70 -50.5 -113.5t-147.5 -43.5q-24 0 -50 2t-44 5zM152 553q-27 0 -50 18.5t-23 48.5q0 28 21.5 47.5t50.5 19.5t51 -19t22 -48t-22 -48t-50 -19z
M372 553q-27 0 -50 18.5t-23 48.5q0 28 21.5 47.5t50.5 19.5t51 -19t22 -48t-22 -48t-50 -19z" />
    <glyph glyph-name="iacute" unicode="&#xed;" horiz-adv-x="251" 
d="M174 572q-10 -8 -18.5 -11t-21.5 -3h-62q-9 0 -12 5t5 16l83 103q6 8 14 12.5t24 4.5h103q13 0 16.5 -7.5t-4.5 -14.5zM184 461q12 0 12 -13v-437q0 -11 -13 -11h-116q-12 0 -12 12v436q0 13 12 13h117z" />
    <glyph glyph-name="igrave" unicode="&#xec;" horiz-adv-x="251" 
d="M-54 677q-8 7 -4.5 14.5t16.5 7.5h110q17 0 24.5 -4.5t13.5 -12.5l84 -103q8 -10 4.5 -15.5t-12.5 -5.5h-63q-14 0 -22 3t-18 11zM184 461q12 0 12 -13v-437q0 -11 -13 -11h-116q-12 0 -12 12v436q0 13 12 13h117z" />
    <glyph glyph-name="icircumflex" unicode="&#xee;" horiz-adv-x="251" 
d="M184 461q12 0 12 -13v-437q0 -11 -13 -11h-116q-12 0 -12 12v436q0 13 12 13h117zM128 618l-52 -46q-9 -8 -18 -11t-22 -3h-52q-9 0 -12 5.5t5 15.5l108 123q8 8 15 12.5t18 4.5h22q12 0 18.5 -4t14.5 -13l109 -123q8 -8 4.5 -14.5t-12.5 -6.5h-54q-14 0 -22.5 3
t-17.5 11z" />
    <glyph glyph-name="idieresis" unicode="&#xef;" horiz-adv-x="251" 
d="M17 553q-27 0 -50 18.5t-23 48.5q0 28 21.5 47.5t50.5 19.5t51 -19t22 -48t-22 -48t-50 -19zM237 553q-27 0 -50 18.5t-23 48.5q0 28 21.5 47.5t50.5 19.5t51 -19t22 -48t-22 -48t-50 -19zM184 461q12 0 12 -13v-437q0 -11 -13 -11h-116q-12 0 -12 12v436q0 13 12 13h117
z" />
    <glyph glyph-name="ntilde" unicode="&#xf1;" 
d="M308 379q-35 0 -66.5 -20.5t-51.5 -52.5v-294q0 -12 -12 -12h-110q-13 0 -13 12v470q0 12 12 12h109q12 0 12 -12v-47q32 29 69.5 48t81.5 19q52 0 89 -20t60 -54.5t34 -79.5t11 -94l1 -242q0 -12 -12 -12h-113q-10 0 -10 12l-3 246q-1 59 -23 90t-65 31zM468 691
q18 0 18 -22q0 -11 -6 -30t-19.5 -38t-35.5 -33t-55 -14q-21 0 -41 6.5t-38 15t-34.5 15t-31.5 6.5q-16 0 -25.5 -8.5t-15.5 -23.5q-3 -11 -15 -11h-39q-20 0 -20 22q0 9 5.5 29.5t19 41.5t36.5 36.5t58 15.5q22 0 41 -7t36.5 -15t34.5 -15t37 -7q14 0 22.5 5.5t13.5 20.5
q3 10 15 10h39z" />
    <glyph glyph-name="oacute" unicode="&#xf3;" horiz-adv-x="538" 
d="M508 247q0 -53 -17 -100.5t-47 -83.5t-72 -57t-92 -21q-59 0 -105.5 19.5t-78.5 54t-49 82.5t-17 105q0 58 19 108t53 87t80.5 57.5t101.5 20.5q52 0 93.5 -22t70.5 -59.5t44.5 -86.5t15.5 -104zM380 250q0 63 -27 98t-79 35q-26 0 -46.5 -10.5t-35.5 -29t-23 -43.5
t-8 -55q0 -63 32.5 -97.5t79.5 -34.5q25 0 45 11.5t33.5 30.5t21 44t7.5 51zM314 572q-10 -8 -18.5 -11t-21.5 -3h-62q-9 0 -12 5t5 16l83 103q6 8 14 12.5t24 4.5h103q13 0 16.5 -7.5t-4.5 -14.5z" />
    <glyph glyph-name="ograve" unicode="&#xf2;" horiz-adv-x="538" 
d="M508 247q0 -53 -17 -100.5t-47 -83.5t-72 -57t-92 -21q-59 0 -105.5 19.5t-78.5 54t-49 82.5t-17 105q0 58 19 108t53 87t80.5 57.5t101.5 20.5q52 0 93.5 -22t70.5 -59.5t44.5 -86.5t15.5 -104zM380 250q0 63 -27 98t-79 35q-26 0 -46.5 -10.5t-35.5 -29t-23 -43.5
t-8 -55q0 -63 32.5 -97.5t79.5 -34.5q25 0 45 11.5t33.5 30.5t21 44t7.5 51zM113 677q-8 7 -4.5 14.5t16.5 7.5h110q17 0 24.5 -4.5t13.5 -12.5l84 -103q8 -10 4.5 -15.5t-12.5 -5.5h-63q-14 0 -22 3t-18 11z" />
    <glyph glyph-name="ocircumflex" unicode="&#xf4;" horiz-adv-x="538" 
d="M508 247q0 -53 -17 -100.5t-47 -83.5t-72 -57t-92 -21q-59 0 -105.5 19.5t-78.5 54t-49 82.5t-17 105q0 58 19 108t53 87t80.5 57.5t101.5 20.5q52 0 93.5 -22t70.5 -59.5t44.5 -86.5t15.5 -104zM380 250q0 63 -27 98t-79 35q-26 0 -46.5 -10.5t-35.5 -29t-23 -43.5
t-8 -55q0 -63 32.5 -97.5t79.5 -34.5q25 0 45 11.5t33.5 30.5t21 44t7.5 51zM278 618l-52 -46q-9 -8 -18 -11t-22 -3h-52q-9 0 -12 5.5t5 15.5l108 123q8 8 15 12.5t18 4.5h22q12 0 18.5 -4t14.5 -13l109 -123q8 -8 4.5 -14.5t-12.5 -6.5h-54q-14 0 -22.5 3t-17.5 11z" />
    <glyph glyph-name="odieresis" unicode="&#xf6;" horiz-adv-x="538" 
d="M508 247q0 -53 -17 -100.5t-47 -83.5t-72 -57t-92 -21q-59 0 -105.5 19.5t-78.5 54t-49 82.5t-17 105q0 58 19 108t53 87t80.5 57.5t101.5 20.5q52 0 93.5 -22t70.5 -59.5t44.5 -86.5t15.5 -104zM380 250q0 63 -27 98t-79 35q-26 0 -46.5 -10.5t-35.5 -29t-23 -43.5
t-8 -55q0 -63 32.5 -97.5t79.5 -34.5q25 0 45 11.5t33.5 30.5t21 44t7.5 51zM169 553q-27 0 -50 18.5t-23 48.5q0 28 21.5 47.5t50.5 19.5t51 -19t22 -48t-22 -48t-50 -19zM389 553q-27 0 -50 18.5t-23 48.5q0 28 21.5 47.5t50.5 19.5t51 -19t22 -48t-22 -48t-50 -19z" />
    <glyph glyph-name="otilde" unicode="&#xf5;" horiz-adv-x="538" 
d="M508 247q0 -53 -17 -100.5t-47 -83.5t-72 -57t-92 -21q-59 0 -105.5 19.5t-78.5 54t-49 82.5t-17 105q0 58 19 108t53 87t80.5 57.5t101.5 20.5q52 0 93.5 -22t70.5 -59.5t44.5 -86.5t15.5 -104zM380 250q0 63 -27 98t-79 35q-26 0 -46.5 -10.5t-35.5 -29t-23 -43.5
t-8 -55q0 -63 32.5 -97.5t79.5 -34.5q25 0 45 11.5t33.5 30.5t21 44t7.5 51zM449 691q18 0 18 -22q0 -11 -6 -30t-19.5 -38t-35.5 -33t-55 -14q-21 0 -41 6.5t-38 15t-34.5 15t-31.5 6.5q-16 0 -25.5 -8.5t-15.5 -23.5q-3 -11 -15 -11h-39q-20 0 -20 22q0 9 5.5 29.5
t19 41.5t36.5 36.5t58 15.5q22 0 41 -7t36.5 -15t34.5 -15t37 -7q14 0 22.5 5.5t13.5 20.5q3 10 15 10h39z" />
    <glyph glyph-name="uacute" unicode="&#xfa;" 
d="M49 482q0 12 13 12h112q10 0 10 -12l4 -253q1 -60 23 -86.5t66 -26.5q42 0 72 19t45 48v299q0 12 12 12h110q13 0 13 -12v-470q0 -12 -12 -12h-109q-12 0 -12 12v43q-30 -30 -69.5 -46t-82.5 -16q-49 0 -85 17.5t-60 49t-36 75.5t-12 97zM332 572q-10 -8 -18.5 -11
t-21.5 -3h-62q-9 0 -12 5t5 16l83 103q6 8 14 12.5t24 4.5h103q13 0 16.5 -7.5t-4.5 -14.5z" />
    <glyph glyph-name="ugrave" unicode="&#xf9;" 
d="M49 482q0 12 13 12h112q10 0 10 -12l4 -253q1 -60 23 -86.5t66 -26.5q42 0 72 19t45 48v299q0 12 12 12h110q13 0 13 -12v-470q0 -12 -12 -12h-109q-12 0 -12 12v43q-30 -30 -69.5 -46t-82.5 -16q-49 0 -85 17.5t-60 49t-36 75.5t-12 97zM131 677q-8 7 -4.5 14.5
t16.5 7.5h110q17 0 24.5 -4.5t13.5 -12.5l84 -103q8 -10 4.5 -15.5t-12.5 -5.5h-63q-14 0 -22 3t-18 11z" />
    <glyph glyph-name="ucircumflex" unicode="&#xfb;" 
d="M49 482q0 12 13 12h112q10 0 10 -12l4 -253q1 -60 23 -86.5t66 -26.5q42 0 72 19t45 48v299q0 12 12 12h110q13 0 13 -12v-470q0 -12 -12 -12h-109q-12 0 -12 12v43q-30 -30 -69.5 -46t-82.5 -16q-49 0 -85 17.5t-60 49t-36 75.5t-12 97zM291 618l-52 -46q-9 -8 -18 -11
t-22 -3h-52q-9 0 -12 5.5t5 15.5l108 123q8 8 15 12.5t18 4.5h22q12 0 18.5 -4t14.5 -13l109 -123q8 -8 4.5 -14.5t-12.5 -6.5h-54q-14 0 -22.5 3t-17.5 11z" />
    <glyph glyph-name="cedilla" unicode="&#xb8;" horiz-adv-x="368" 
d="M175 -187q-10 -8 -18.5 -11t-21.5 -3h-62q-9 0 -12 5t5 16l83 103q6 8 14 12.5t24 4.5h103q13 0 16.5 -7.5t-4.5 -14.5z" />
    <glyph glyph-name="ccedilla" unicode="&#xe7;" horiz-adv-x="429" 
d="M394 27q0 -7 -5 -10q-18 -14 -48.5 -23t-67.5 -9q-56 0 -100.5 18.5t-76.5 50.5t-49 76.5t-17 97.5q0 69 20 123t56 92t86 58t110 20q22 0 45.5 -2.5t34.5 -6.5q6 -2 6 -7v-109q0 -7 -7 -7q-9 0 -26.5 5t-49.5 5q-71 0 -112 -45.5t-41 -122.5q0 -58 32.5 -95t93.5 -37
q26 0 51 6.5t48 17.5q5 2 8.5 0t3.5 -7zM205 -187q-10 -8 -18.5 -11t-21.5 -3h-62q-9 0 -12 5t5 16l83 103q6 8 14 12.5t24 4.5h103q13 0 16.5 -7.5t-4.5 -14.5z" />
    <glyph glyph-name="Ccedilla" unicode="&#xc7;" horiz-adv-x="548" 
d="M518 36q0 -6 -4 -9q-24 -19 -68.5 -30.5t-92.5 -11.5q-72 0 -131.5 23.5t-102 66.5t-66 103.5t-23.5 135.5q0 91 27 162.5t75 121t114.5 75.5t144.5 26q33 0 65 -3.5t48 -8.5q7 -3 7 -9v-125q0 -11 -10 -11q-9 0 -34.5 6.5t-64.5 6.5q-44 0 -84.5 -13.5t-72 -40.5
t-50.5 -68.5t-19 -96.5q0 -54 14 -92.5t40 -63t62.5 -36t81.5 -11.5q33 0 66.5 7.5t54.5 16.5q6 2 11 0.5t5 -9.5zM292 -187q-10 -8 -18.5 -11t-21.5 -3h-62q-9 0 -12 5t5 16l83 103q6 8 14 12.5t24 4.5h103q13 0 16.5 -7.5t-4.5 -14.5z" />
    <glyph glyph-name="ydieresis" unicode="&#xff;" horiz-adv-x="575" 
d="M520 75q0 -68 -11.5 -123.5t-37.5 -96t-68.5 -62.5t-104.5 -22q-27 0 -53 3t-43 9q-9 3 -9 12v100q0 13 14 13q8 0 26.5 -5t49.5 -5q54 0 79 34t24 113q-10 -15 -25.5 -26.5t-34 -19t-38 -11t-38.5 -3.5q-54 0 -92 17.5t-62 49t-35 76.5t-11 99v257q0 10 12 10h113
q12 0 12 -12l-1 -255q0 -60 19.5 -91t72.5 -31q33 0 61.5 15.5t45.5 42.5l-2 320q0 11 11 11h110q13 0 14 -11zM178 553q-27 0 -50 18.5t-23 48.5q0 28 21.5 47.5t50.5 19.5t51 -19t22 -48t-22 -48t-50 -19zM398 553q-27 0 -50 18.5t-23 48.5q0 28 21.5 47.5t50.5 19.5
t51 -19t22 -48t-22 -48t-50 -19z" />
    <glyph glyph-name="Ydieresis" unicode="&#x178;" horiz-adv-x="562" 
d="M553 688l-38.5 -88l-47.5 -104l-55.5 -115l-60.5 -121l2 -249q0 -11 -12 -11h-132q-12 0 -12 11v249l-53.5 115.5l-50 114l-44 106t-35.5 92.5q-2 6 2 9t10 3h136q9 0 11 -8l104 -306l117 306q4 8 12 8h135q6 0 10 -3t2 -9zM174 759q-27 0 -50 18.5t-23 48.5
q0 28 21.5 47.5t50.5 19.5t51 -19t22 -48t-22 -48t-50 -19zM394 759q-27 0 -50 18.5t-23 48.5q0 28 21.5 47.5t50.5 19.5t51 -19t22 -48t-22 -48t-50 -19z" />
    <glyph glyph-name="Acircumflex" unicode="&#xc2;" horiz-adv-x="620" 
d="M604 12q2 -6 -2 -9t-10 -3h-129q-9 0 -12 10l-34 127h-215l-34 -127q-1 -10 -12 -10h-128q-6 0 -10 3.5t-2 9.5l193 677q2 10 12 10h186q10 0 12 -10zM390 260l-75 296l-82 -296h157zM311 824l-52 -46q-9 -8 -18 -11t-22 -3h-52q-9 0 -12 5.5t5 15.5l108 123q8 8 15 12.5
t18 4.5h22q12 0 18.5 -4t14.5 -13l109 -123q8 -8 4.5 -14.5t-12.5 -6.5h-54q-14 0 -22.5 3t-17.5 11z" />
    <glyph glyph-name="Ecircumflex" unicode="&#xca;" horiz-adv-x="568" 
d="M518 12q0 -12 -12 -12h-428q-12 0 -12 12l-3 675q0 13 12 13h436q12 0 12 -13v-96q0 -12 -12 -12h-302l1 -172h255q12 0 12 -12v-98q0 -12 -12 -12h-254l1 -164h294q12 0 12 -12v-97zM293 824l-52 -46q-9 -8 -18 -11t-22 -3h-52q-9 0 -12 5.5t5 15.5l108 123q8 8 15 12.5
t18 4.5h22q12 0 18.5 -4t14.5 -13l109 -123q8 -8 4.5 -14.5t-12.5 -6.5h-54q-14 0 -22.5 3t-17.5 11z" />
    <glyph glyph-name="Aacute" unicode="&#xc1;" horiz-adv-x="620" 
d="M604 12q2 -6 -2 -9t-10 -3h-129q-9 0 -12 10l-34 127h-215l-34 -127q-1 -10 -12 -10h-128q-6 0 -10 3.5t-2 9.5l193 677q2 10 12 10h186q10 0 12 -10zM390 260l-75 296l-82 -296h157zM356 778q-10 -8 -18.5 -11t-21.5 -3h-62q-9 0 -12 5t5 16l83 103q6 8 14 12.5t24 4.5
h103q13 0 16.5 -7.5t-4.5 -14.5z" />
    <glyph glyph-name="Edieresis" unicode="&#xcb;" horiz-adv-x="568" 
d="M518 12q0 -12 -12 -12h-428q-12 0 -12 12l-3 675q0 13 12 13h436q12 0 12 -13v-96q0 -12 -12 -12h-302l1 -172h255q12 0 12 -12v-98q0 -12 -12 -12h-254l1 -164h294q12 0 12 -12v-97zM184 759q-27 0 -50 18.5t-23 48.5q0 28 21.5 47.5t50.5 19.5t51 -19t22 -48t-22 -48
t-50 -19zM404 759q-27 0 -50 18.5t-23 48.5q0 28 21.5 47.5t50.5 19.5t51 -19t22 -48t-22 -48t-50 -19z" />
    <glyph glyph-name="Egrave" unicode="&#xc8;" horiz-adv-x="568" 
d="M518 12q0 -12 -12 -12h-428q-12 0 -12 12l-3 675q0 13 12 13h436q12 0 12 -13v-96q0 -12 -12 -12h-302l1 -172h255q12 0 12 -12v-98q0 -12 -12 -12h-254l1 -164h294q12 0 12 -12v-97zM133 883q-8 7 -4.5 14.5t16.5 7.5h110q17 0 24.5 -4.5t13.5 -12.5l84 -103
q8 -10 4.5 -15.5t-12.5 -5.5h-63q-14 0 -22 3t-18 11z" />
    <glyph glyph-name="Iacute" unicode="&#xcd;" horiz-adv-x="286" 
d="M221 11q0 -11 -13 -11h-131q-12 0 -12 12v675q0 13 12 13h132q11 0 11 -12zM192 778q-10 -8 -18.5 -11t-21.5 -3h-62q-9 0 -12 5t5 16l83 103q6 8 14 12.5t24 4.5h103q13 0 16.5 -7.5t-4.5 -14.5z" />
    <glyph glyph-name="Icircumflex" unicode="&#xce;" horiz-adv-x="286" 
d="M221 11q0 -11 -13 -11h-131q-12 0 -12 12v675q0 13 12 13h132q11 0 11 -12zM143 824l-52 -46q-9 -8 -18 -11t-22 -3h-52q-9 0 -12 5.5t5 15.5l108 123q8 8 15 12.5t18 4.5h22q12 0 18.5 -4t14.5 -13l109 -123q8 -8 4.5 -14.5t-12.5 -6.5h-54q-14 0 -22.5 3t-17.5 11z" />
    <glyph glyph-name="Idieresis" unicode="&#xcf;" horiz-adv-x="286" 
d="M221 11q0 -11 -13 -11h-131q-12 0 -12 12v675q0 13 12 13h132q11 0 11 -12zM35 759q-27 0 -50 18.5t-23 48.5q0 28 21.5 47.5t50.5 19.5t51 -19t22 -48t-22 -48t-50 -19zM255 759q-27 0 -50 18.5t-23 48.5q0 28 21.5 47.5t50.5 19.5t51 -19t22 -48t-22 -48t-50 -19z" />
    <glyph glyph-name="Igrave" unicode="&#xcc;" horiz-adv-x="286" 
d="M221 11q0 -11 -13 -11h-131q-12 0 -12 12v675q0 13 12 13h132q11 0 11 -12zM-37 883q-8 7 -4.5 14.5t16.5 7.5h110q17 0 24.5 -4.5t13.5 -12.5l84 -103q8 -10 4.5 -15.5t-12.5 -5.5h-63q-14 0 -22 3t-18 11z" />
    <glyph glyph-name="Oacute" unicode="&#xd3;" horiz-adv-x="690" 
d="M369 703q73 0 127.5 -33t91 -86.5t54.5 -121t18 -135.5q0 -69 -21.5 -131.5t-60.5 -109t-94 -74t-123 -27.5q-78 0 -139.5 25t-104 71t-65 110.5t-22.5 142.5t23.5 145.5t67.5 117t107 78t141 28.5zM348 118q40 0 71.5 16t53.5 43.5t33 65t11 80.5q0 42 -10 83t-30 73
t-50.5 52t-71.5 20t-74 -17.5t-56 -48t-35.5 -71.5t-12.5 -88q0 -48 13.5 -86.5t36.5 -65.5t54 -41.5t67 -14.5zM395 778q-10 -8 -18.5 -11t-21.5 -3h-62q-9 0 -12 5t5 16l83 103q6 8 14 12.5t24 4.5h103q13 0 16.5 -7.5t-4.5 -14.5z" />
    <glyph glyph-name="Ocircumflex" unicode="&#xd4;" horiz-adv-x="690" 
d="M369 703q73 0 127.5 -33t91 -86.5t54.5 -121t18 -135.5q0 -69 -21.5 -131.5t-60.5 -109t-94 -74t-123 -27.5q-78 0 -139.5 25t-104 71t-65 110.5t-22.5 142.5t23.5 145.5t67.5 117t107 78t141 28.5zM348 118q40 0 71.5 16t53.5 43.5t33 65t11 80.5q0 42 -10 83t-30 73
t-50.5 52t-71.5 20t-74 -17.5t-56 -48t-35.5 -71.5t-12.5 -88q0 -48 13.5 -86.5t36.5 -65.5t54 -41.5t67 -14.5zM354 824l-52 -46q-9 -8 -18 -11t-22 -3h-52q-9 0 -12 5.5t5 15.5l108 123q8 8 15 12.5t18 4.5h22q12 0 18.5 -4t14.5 -13l109 -123q8 -8 4.5 -14.5t-12.5 -6.5
h-54q-14 0 -22.5 3t-17.5 11z" />
    <glyph glyph-name="Ograve" unicode="&#xd2;" horiz-adv-x="690" 
d="M369 703q73 0 127.5 -33t91 -86.5t54.5 -121t18 -135.5q0 -69 -21.5 -131.5t-60.5 -109t-94 -74t-123 -27.5q-78 0 -139.5 25t-104 71t-65 110.5t-22.5 142.5t23.5 145.5t67.5 117t107 78t141 28.5zM348 118q40 0 71.5 16t53.5 43.5t33 65t11 80.5q0 42 -10 83t-30 73
t-50.5 52t-71.5 20t-74 -17.5t-56 -48t-35.5 -71.5t-12.5 -88q0 -48 13.5 -86.5t36.5 -65.5t54 -41.5t67 -14.5zM184 883q-8 7 -4.5 14.5t16.5 7.5h110q17 0 24.5 -4.5t13.5 -12.5l84 -103q8 -10 4.5 -15.5t-12.5 -5.5h-63q-14 0 -22 3t-18 11z" />
    <glyph glyph-name="Uacute" unicode="&#xda;" horiz-adv-x="670" 
d="M610 252q1 -144 -68 -213.5t-205 -69.5q-133 0 -205 71.5t-72 211.5v435q0 13 11 13h127q12 0 12 -13v-436q0 -69 34 -107t93 -38q66 0 95 38.5t29 106.5l-3 436q0 13 12 13h127q11 0 11 -13zM385 778q-10 -8 -18.5 -11t-21.5 -3h-62q-9 0 -12 5t5 16l83 103q6 8 14 12.5
t24 4.5h103q13 0 16.5 -7.5t-4.5 -14.5z" />
    <glyph glyph-name="Ucircumflex" unicode="&#xdb;" horiz-adv-x="670" 
d="M610 252q1 -144 -68 -213.5t-205 -69.5q-133 0 -205 71.5t-72 211.5v435q0 13 11 13h127q12 0 12 -13v-436q0 -69 34 -107t93 -38q66 0 95 38.5t29 106.5l-3 436q0 13 12 13h127q11 0 11 -13zM333 824l-52 -46q-9 -8 -18 -11t-22 -3h-52q-9 0 -12 5.5t5 15.5l108 123
q8 8 15 12.5t18 4.5h22q12 0 18.5 -4t14.5 -13l109 -123q8 -8 4.5 -14.5t-12.5 -6.5h-54q-14 0 -22.5 3t-17.5 11z" />
    <glyph glyph-name="Ugrave" unicode="&#xd9;" horiz-adv-x="670" 
d="M610 252q1 -144 -68 -213.5t-205 -69.5q-133 0 -205 71.5t-72 211.5v435q0 13 11 13h127q12 0 12 -13v-436q0 -69 34 -107t93 -38q66 0 95 38.5t29 106.5l-3 436q0 13 12 13h127q11 0 11 -13zM153 883q-8 7 -4.5 14.5t16.5 7.5h110q17 0 24.5 -4.5t13.5 -12.5l84 -103
q8 -10 4.5 -15.5t-12.5 -5.5h-63q-14 0 -22 3t-18 11z" />
    <glyph glyph-name="Agrave" unicode="&#xc0;" horiz-adv-x="620" 
d="M604 12q2 -6 -2 -9t-10 -3h-129q-9 0 -12 10l-34 127h-215l-34 -127q-1 -10 -12 -10h-128q-6 0 -10 3.5t-2 9.5l193 677q2 10 12 10h186q10 0 12 -10zM390 260l-75 296l-82 -296h157zM138 883q-8 7 -4.5 14.5t16.5 7.5h110q17 0 24.5 -4.5t13.5 -12.5l84 -103
q8 -10 4.5 -15.5t-12.5 -5.5h-63q-14 0 -22 3t-18 11z" />
    <glyph glyph-name="Atilde" unicode="&#xc3;" horiz-adv-x="620" 
d="M604 12q2 -6 -2 -9t-10 -3h-129q-9 0 -12 10l-34 127h-215l-34 -127q-1 -10 -12 -10h-128q-6 0 -10 3.5t-2 9.5l193 677q2 10 12 10h186q10 0 12 -10zM390 260l-75 296l-82 -296h157zM484 897q18 0 18 -22q0 -11 -6 -30t-19.5 -38t-35.5 -33t-55 -14q-21 0 -41 6.5
t-38 15t-34.5 15t-31.5 6.5q-16 0 -25.5 -8.5t-15.5 -23.5q-3 -11 -15 -11h-39q-20 0 -20 22q0 9 5.5 29.5t19 41.5t36.5 36.5t58 15.5q22 0 41 -7t36.5 -15t34.5 -15t37 -7q14 0 22.5 5.5t13.5 20.5q3 10 15 10h39z" />
    <glyph glyph-name="Otilde" unicode="&#xd5;" horiz-adv-x="690" 
d="M369 703q73 0 127.5 -33t91 -86.5t54.5 -121t18 -135.5q0 -69 -21.5 -131.5t-60.5 -109t-94 -74t-123 -27.5q-78 0 -139.5 25t-104 71t-65 110.5t-22.5 142.5t23.5 145.5t67.5 117t107 78t141 28.5zM348 118q40 0 71.5 16t53.5 43.5t33 65t11 80.5q0 42 -10 83t-30 73
t-50.5 52t-71.5 20t-74 -17.5t-56 -48t-35.5 -71.5t-12.5 -88q0 -48 13.5 -86.5t36.5 -65.5t54 -41.5t67 -14.5zM525 897q18 0 18 -22q0 -11 -6 -30t-19.5 -38t-35.5 -33t-55 -14q-21 0 -41 6.5t-38 15t-34.5 15t-31.5 6.5q-16 0 -25.5 -8.5t-15.5 -23.5q-3 -11 -15 -11h-39
q-20 0 -20 22q0 9 5.5 29.5t19 41.5t36.5 36.5t58 15.5q22 0 41 -7t36.5 -15t34.5 -15t37 -7q14 0 22.5 5.5t13.5 20.5q3 10 15 10h39z" />
    <glyph glyph-name="OE" unicode="&#x152;" horiz-adv-x="990" 
d="M938 12q0 -12 -12 -12h-431q-9 0 -9 9v7q-22 -15 -53.5 -23t-66.5 -8q-78 0 -139.5 25t-104 71t-65 110.5t-22.5 142.5t23.5 145.5t67.5 117t107 78t141 28.5q33 0 61.5 -5t47.5 -14v6q0 10 11 10h437q12 0 12 -13v-96q0 -12 -12 -12h-302l1 -172h255q12 0 12 -12v-98
q0 -12 -12 -12h-254l1 -164h294q12 0 12 -12v-97zM353 118q51 0 82 14t50 35l-1 346q-20 18 -51 28t-73 10q-41 0 -74 -17.5t-56 -48t-35.5 -71.5t-12.5 -88q0 -48 13.5 -86.5t36.5 -65.5t54 -41.5t67 -14.5z" />
    <glyph glyph-name="AE" unicode="&#xc6;" horiz-adv-x="913" 
d="M849 12q0 -12 -12 -12h-427q-12 0 -12 12l-1 125h-174l-51 -127q-4 -10 -14 -10h-133q-6 0 -9 3.5t-1 9.5l288 677q3 10 14 10h525q12 0 12 -13v-96q0 -12 -12 -12h-301l1 -172h254q12 0 12 -12v-98q0 -12 -12 -12h-254l1 -164h294q12 0 12 -12v-97zM396 260l-1 296
l-123 -296h124z" />
    <glyph glyph-name="notequal" unicode="&#x2260;" horiz-adv-x="661" 
d="M441 513h123q12 0 12 -12v-88q0 -12 -12 -12h-163l-49 -134h212q12 0 12 -12v-88q0 -12 -12 -12h-253l-52 -144q-4 -11 -17 -11h-67q-13 0 -8 12l52 143h-122q-12 0 -12 12v88q0 12 12 12h163l49 134h-212q-12 0 -12 12v88q0 12 12 12h254l52 142q4 13 15 13h68
q12 0 8 -12z" />
    <glyph glyph-name="oe" unicode="&#x153;" horiz-adv-x="823" 
d="M498 206q3 -22 12.5 -41.5t25 -34.5t38.5 -23.5t54 -8.5q34 0 64.5 8.5t62.5 23.5q4 2 8 0t4 -7l5 -90q0 -4 -3 -7q-22 -16 -63 -29t-86 -13q-59 0 -105.5 20t-78.5 62q-28 -38 -69 -59.5t-90 -21.5q-59 0 -105.5 19.5t-78.5 54t-49 82.5t-17 105q0 58 19 108t53 87
t80.5 57.5t101.5 20.5q52 0 92 -22t67 -60q29 37 74 59.5t107 22.5q43 0 74.5 -14t52.5 -37t31.5 -52.5t10.5 -59.5q0 -70 -50.5 -113.5t-147.5 -43.5q-24 0 -50 2t-44 5zM375 250q0 63 -26 98t-78 35q-26 0 -46.5 -10.5t-35.5 -29t-23 -43.5t-8 -55q0 -63 32.5 -97.5
t79.5 -34.5q25 0 44.5 11.5t33 30.5t20.5 44t7 51zM497 297q13 -2 34.5 -4t40.5 -2q53 0 81.5 13.5t28.5 45.5q0 24 -19 41t-53 17q-44 0 -76 -28.5t-37 -82.5z" />
    <glyph glyph-name="ae" unicode="&#xe6;" horiz-adv-x="801" 
d="M465 206q3 -22 12.5 -41.5t25 -34.5t38.5 -23.5t54 -8.5q34 0 64.5 8.5t62.5 23.5q4 2 8 0t4 -7l5 -90q0 -4 -3 -7q-22 -16 -63 -29t-86 -13q-47 0 -86.5 13t-70.5 39q-34 -24 -81 -38.5t-103 -14.5q-46 0 -84 11.5t-65.5 32.5t-43 49.5t-15.5 62.5q0 44 17 77.5t47 56.5
t72 34.5t93 11.5q20 0 42.5 -2t37.5 -4q0 49 -18 78.5t-63 29.5q-26 0 -50 -13t-33 -50h-103q-6 0 -9.5 2t-3.5 10q0 17 10 46t39 54q31 26 69.5 38.5t83.5 12.5q55 0 92 -17t60 -49q30 29 71.5 46.5t95.5 17.5q43 0 74.5 -14t52.5 -37t31.5 -52.5t10.5 -59.5
q0 -70 -50.5 -113.5t-147.5 -43.5q-24 0 -50 2t-44 5zM374 109q-11 19 -18.5 47t-8.5 61q-13 3 -34 5t-38 2q-47 0 -75 -21.5t-28 -59.5q0 -29 24.5 -48t69.5 -19q27 0 56.5 9.5t51.5 23.5zM464 297q13 -2 34.5 -4t40.5 -2q53 0 81.5 13.5t28.5 45.5q0 24 -19 41t-53 17
q-44 0 -76 -28.5t-37 -82.5z" />
    <glyph glyph-name="Oslash" unicode="&#xd8;" horiz-adv-x="690" 
d="M549 629q28 -27 48.5 -62t34.5 -74.5t21 -81.5t7 -84q0 -69 -21.5 -131.5t-60.5 -109t-94 -74t-123 -27.5q-67 0 -119 18l-21 -42q-4 -11 -17 -11h-82q-13 0 -8 12l42 84q-61 45 -93.5 118.5t-32.5 169.5q0 78 23.5 145.5t67.5 117t107 78t141 28.5q28 0 53 -5.5
t48 -15.5l22 45q3 6 6 9.5t9 3.5h83q14 0 8 -12zM348 118q40 0 71.5 16t53.5 43.5t33 65t11 80.5q0 42 -10 83.5t-30 73.5l-175 -355q21 -7 46 -7zM177 326q0 -47 12 -83.5t34 -62.5l178 361q-23 10 -46 10q-41 0 -74 -17.5t-56 -48t-35.5 -71.5t-12.5 -88z" />
    <glyph glyph-name="bracketleft" unicode="[" horiz-adv-x="393" 
d="M208 -80h138q12 0 12 -12v-76q0 -12 -12 -12h-239q-12 0 -12 12v855q0 13 12 13h239q12 0 12 -13v-75q0 -12 -12 -12h-138v-680z" />
    <glyph glyph-name="bracketright" unicode="]" horiz-adv-x="393" 
d="M185 600h-138q-12 0 -12 12v75q0 13 12 13h239q12 0 12 -13v-855q0 -12 -12 -12h-239q-12 0 -12 12v76q0 12 12 12h138v680z" />
    <glyph glyph-name="yen" unicode="&#xa5;" horiz-adv-x="596" 
d="M360 124l1 -113q0 -11 -12 -11h-112q-12 0 -12 11v113h-165q-17 0 -17 17v73q0 17 17 17h165v49l-19 45h-146q-17 0 -17 17v73q0 7 4.5 12t12.5 5h98l-62 124l-58 109q-8 13 -2 24t20 11h80q14 0 22 -6t13 -17l124 -271l135 273q5 9 12 15t18 6h83q15 0 20 -11t-4 -25
l-64 -109.5l-66 -122.5h98q17 0 17 -17v-73q0 -17 -17 -17h-149l-19 -45v-49h168q7 0 12 -4t5 -13v-73q0 -17 -17 -17h-167z" />
    <glyph glyph-name="backslash" unicode="\" horiz-adv-x="425" 
d="M17 688q-5 12 8 12h88q11 0 15 -13l280 -765q5 -12 -8 -12h-87q-13 0 -17 11z" />
    <glyph glyph-name="less" unicode="&#x3c;" horiz-adv-x="629" 
d="M69 253q-9 3 -9 13v111q0 9 9 12l458 220q5 2 8.5 -2t3.5 -10v-106q0 -7 -9 -11l-350 -155l350 -170q9 -4 9 -12v-107q0 -6 -3.5 -10t-8.5 -2z" />
    <glyph glyph-name="greater" unicode="&#x3e;" horiz-adv-x="629" 
d="M560 384q9 -4 9 -12v-111q0 -8 -9 -13l-458 -224q-6 -3 -9 1.5t-3 10.5v106q0 5 2 7.5t7 4.5l349 162l-349 163q-9 3 -9 11v107q0 6 3 10t9 2z" />
    <glyph glyph-name="perthousand" unicode="&#x2030;" horiz-adv-x="946" 
d="M771 299q31 0 56.5 -12.5t44.5 -34t29.5 -51t10.5 -62.5q0 -31 -11 -58t-30 -47.5t-45.5 -32.5t-57.5 -12q-38 0 -66.5 12.5t-47.5 33.5q-19 -20 -46 -33t-62 -13t-62.5 12t-47 32t-30 47t-10.5 57t11 59.5t31 52t48.5 36.5t64.5 14q32 0 58.5 -14t46.5 -37
q20 23 48.5 37t66.5 14zM209 11q-7 -11 -18 -11h-76q-6 0 -8.5 3.5t0.5 8.5l406 675q8 13 19 13h76q13 0 6 -12zM188 715q30 0 56 -12.5t44.5 -34t29 -50.5t10.5 -62q0 -30 -10.5 -57.5t-29.5 -47.5t-45.5 -32t-57.5 -12q-74 0 -115.5 40.5t-41.5 109.5q0 34 11.5 63
t32.5 50t50.5 33t65.5 12zM551 210q-26 0 -47 -19.5t-21 -48.5q0 -31 18.5 -49.5t44.5 -18.5q31 0 49 19.5t18 48.5q0 26 -17 47t-45 21zM765 210q-29 0 -46.5 -21t-17.5 -49q0 -27 17.5 -47t46.5 -20q28 0 46 20t18 47q0 28 -17.5 49t-46.5 21zM180 626q-29 0 -46.5 -20.5
t-17.5 -48.5q0 -27 17.5 -47t46.5 -20q27 0 45.5 20t18.5 47q0 28 -17.5 48.5t-46.5 20.5z" />
    <glyph glyph-name="oslash" unicode="&#xf8;" horiz-adv-x="538" 
d="M508 247q0 -53 -17 -100.5t-47 -83.5t-72 -57t-92 -21q-36 0 -64 7l-31 -71q-4 -11 -17 -11h-87q-13 0 -8 12l49 112q-45 35 -68.5 89t-23.5 123q0 58 19 108t53 87t80.5 57.5t101.5 20.5q27 0 51 -6l30 68q3 7 6 10t9 3h88q12 0 8 -12l-52 -118q41 -38 62.5 -94.5
t21.5 -122.5zM161 245q0 -47 19 -80l97 218h-3q-26 0 -46.5 -10.5t-35.5 -29t-23 -43.5t-8 -55zM380 250q0 44 -16 78l-95 -215h4q25 0 45 11.5t33.5 30.5t21 44t7.5 51z" />
    <glyph glyph-name="registered" unicode="&#xae;" horiz-adv-x="823" 
d="M60 350q0 75 26 139.5t71.5 112t108.5 74t138 26.5q81 0 147 -26.5t113 -73.5t73 -113t26 -144q0 -74 -26.5 -137t-73.5 -109.5t-110.5 -73t-138.5 -26.5q-82 0 -147.5 26t-111.5 72.5t-70.5 111t-24.5 141.5zM131 349q0 -62 18 -113.5t53.5 -88.5t88.5 -57.5t123 -20.5
q60 0 111.5 21t89 57.5t59 87.5t21.5 111q0 63 -19.5 116.5t-56.5 91.5t-90 59.5t-120 21.5q-63 0 -114 -21.5t-87.5 -60t-56.5 -91t-20 -113.5zM584 170q3 -4 1 -8.5t-7 -4.5h-83q-6 0 -7 3l-73 108q-13 -2 -28.5 -3t-24.5 -1l-1 -100q0 -7 -7 -7h-72q-8 0 -8 7v380
q0 7 7 7h73q50 0 91 -7t70 -24t45 -45t16 -71q0 -76 -83 -114zM363 334q59 4 92 18t33 51q0 39 -31.5 54t-91.5 15z" />
    <glyph glyph-name="copyright" unicode="&#xa9;" horiz-adv-x="823" 
d="M60 354q0 77 29.5 141t79.5 110t116.5 71.5t141.5 25.5q79 0 141 -26.5t105.5 -73.5t66.5 -113t23 -144q0 -74 -26 -137t-72.5 -109.5t-109.5 -73t-138 -26.5q-84 0 -150.5 25.5t-112 72.5t-70 112t-24.5 145zM131 349q0 -64 18.5 -116t54.5 -89t89 -57t123 -20
q60 0 111.5 21t88.5 58t58 88t21 111q0 63 -16 116.5t-49.5 92.5t-84.5 60.5t-120 21.5q-63 0 -117 -21t-93 -59t-61.5 -91t-22.5 -116zM543 175q0 -7 -5 -10q-37 -23 -100 -23q-48 0 -86.5 14t-65.5 39t-41.5 60t-14.5 76q0 53 16 95t46 70.5t72 43.5t95 15q22 0 42.5 -2.5
t31.5 -5.5q6 -2 6 -7v-80q0 -7 -7 -7t-24.5 4.5t-44.5 4.5t-51.5 -6.5t-43 -21t-29 -37t-10.5 -55.5q0 -55 33 -80.5t84 -25.5q23 0 45.5 4t36.5 10q11 4 11 -7z" />
    <glyph glyph-name="trademark" unicode="&#x2122;" horiz-adv-x="723" 
d="M284 638q0 -5 -6 -5h-68v-221q0 -5 -7 -5h-73q-6 0 -6 5v221h-89q-6 0 -6 5v57q0 5 6 5h243q6 0 6 -5v-57zM663 700q6 0 6 -5l-1 -283q0 -5 -5 -5h-66q-6 0 -6 5l-1 166q0 2 1 7.5t2 8.5q-2 -2 -4 -9l-56 -149q-2 -3 -7 -3h-53q-4 0 -5 3l-58 151q-2 6 -3 7q2 -10 2 -15
v-167q0 -5 -6 -5h-66q-6 0 -6 5v283q0 5 7 5h95q3 0 6 -3l61 -150l61 150q1 3 6 3h96z" />
    <glyph glyph-name="Thorn" unicode="&#xde;" horiz-adv-x="585" 
d="M194 697q12 0 12 -12l2 -85q79 -1 144 -15.5t111 -44.5t71 -76.5t25 -112.5q0 -62 -27 -107.5t-74.5 -75.5t-112 -45t-140.5 -16l-2 -96q0 -11 -11 -11h-115q-13 0 -13 11l-1 675q0 11 13 11h118zM416 344q0 34 -15 58t-42 39t-65.5 21.5t-85.5 6.5l-2 -244q104 1 157 29
t53 90z" />
    <glyph glyph-name="thorn" unicode="&#xfe;" horiz-adv-x="554" 
d="M188 472q23 11 52.5 17t58.5 6q51 0 92.5 -17.5t71 -49t45.5 -76t16 -99.5q0 -64 -18.5 -114t-51.5 -84t-78.5 -52t-100.5 -18q-50 0 -86 9v-203q0 -12 -12 -12h-110q-12 0 -12 12v897q0 12 11 12h111q9 0 11 -11v-217zM189 124q11 -5 33.5 -9t47.5 -4q60 0 93.5 38
t33.5 102q0 60 -31 92.5t-81 32.5q-23 0 -48.5 -5.5t-47.5 -16.5v-230z" />
    <glyph glyph-name="caron" unicode="&#x2c7;" horiz-adv-x="447" 
d="M224 649l52 47q17 14 40 14h52q9 0 12 -5.5t-5 -15.5l-108 -123q-8 -8 -15 -12.5t-18 -4.5h-22q-12 0 -18.5 4t-14.5 13l-109 123q-8 8 -4.5 14.5t12.5 6.5h54q14 0 22.5 -3t17.5 -11z" />
    <glyph glyph-name="Zcaron" unicode="&#x17d;" horiz-adv-x="590" 
d="M548 12q0 -12 -12 -12h-474q-12 0 -12 12v127q0 5 4 9l321 421h-326q-12 0 -12 12v108q0 11 13 11h489q11 0 11 -12v-112q0 -5 -4 -9l-317 -423h308q11 0 11 -11v-121zM295 855l52 47q17 14 40 14h52q9 0 12 -5.5t-5 -15.5l-108 -123q-8 -8 -15 -12.5t-18 -4.5h-22
q-12 0 -18.5 4t-14.5 13l-109 123q-8 8 -4.5 14.5t12.5 6.5h54q14 0 22.5 -3t17.5 -11z" />
    <glyph glyph-name="zcaron" unicode="&#x17e;" horiz-adv-x="529" 
d="M484 12q0 -12 -12 -12h-409q-12 0 -12 12v106q0 5 4 8l262 246h-260q-13 0 -13 12l1 98q0 12 12 12h416q11 0 11 -12v-105q0 -5 -4 -8l-251 -247h244q11 0 11 -12v-98zM264 649l52 47q17 14 40 14h52q9 0 12 -5.5t-5 -15.5l-108 -123q-8 -8 -15 -12.5t-18 -4.5h-22
q-12 0 -18.5 4t-14.5 13l-109 123q-8 8 -4.5 14.5t12.5 6.5h54q14 0 22.5 -3t17.5 -11z" />
    <glyph glyph-name="questiondown" unicode="&#xbf;" horiz-adv-x="541" 
d="M350 287q9 0 12 -8q4 -9 7 -30.5t3 -41.5q0 -45 -29.5 -87.5t-107.5 -74.5q-34 -15 -50.5 -30t-16.5 -42q0 -30 27.5 -53t80.5 -23q44 0 84.5 18.5t71.5 45.5q3 2 7.5 3t7.5 -3l65 -74q5 -8 -1 -14q-19 -20 -46 -37.5t-57.5 -30.5t-63.5 -20t-63 -7q-57 0 -104 14.5
t-81 40.5t-52.5 61t-18.5 76q0 34 9.5 59.5t26 44.5t39.5 34t50 28q38 17 62 37t24 56q0 15 -3 28t-3 17q0 13 11 13h109zM288 512q15 0 29 -5.5t25.5 -15t18.5 -23.5t7 -30q0 -31 -23.5 -52.5t-56.5 -21.5q-15 0 -29.5 5.5t-26 15.5t-18 23.5t-6.5 29.5t6.5 29.5t18 23.5
t26 15.5t29.5 5.5z" />
    <glyph glyph-name="exclamdown" unicode="&#xa1;" horiz-adv-x="295" 
d="M205 278q12 0 12 -12v-476q0 -11 -13 -11h-116q-11 0 -11 12l-1 474q0 13 12 13h117zM147 513q15 0 29.5 -5.5t26 -15t18.5 -23.5t7 -31q0 -31 -23.5 -52.5t-56.5 -21.5q-16 0 -30.5 5.5t-26 15.5t-18 24t-6.5 30q0 32 24.5 53t55.5 21z" />
    <glyph glyph-name="bullet" unicode="&#x2022;" horiz-adv-x="530" 
d="M270 149q-38 0 -71.5 11.5t-58.5 33.5t-39 54t-14 73q0 86 48 134t132 48q39 0 71.5 -13t55.5 -37t35.5 -57.5t12.5 -75.5q0 -38 -12 -69.5t-34.5 -54t-54.5 -35t-71 -12.5z" />
    <glyph glyph-name="scaron" unicode="&#x161;" horiz-adv-x="457" 
d="M32 356q0 35 16 65t44 52t66 34t82 11q50 0 100 -20t84 -52q5 -6 0 -11l-53 -64q-6 -7 -12 -1q-26 20 -59.5 35t-68.5 15q-29 0 -49 -15.5t-20 -37.5q0 -21 19.5 -32.5t48.5 -20.5l63.5 -19t63.5 -27t48.5 -45t19.5 -73q0 -37 -15.5 -67.5t-42.5 -52t-64.5 -33.5
t-80.5 -12q-48 0 -96.5 19t-79.5 48q-6 6 0 12l54 62q6 6 12 0q21 -17 50.5 -28t65.5 -12q30 0 47.5 15t17.5 38q1 22 -16 37t-68 28q-92 22 -134.5 57t-42.5 95zM236 649l52 47q17 14 40 14h52q9 0 12 -5.5t-5 -15.5l-108 -123q-8 -8 -15 -12.5t-18 -4.5h-22q-12 0 -18.5 4
t-14.5 13l-109 123q-8 8 -4.5 14.5t12.5 6.5h54q14 0 22.5 -3t17.5 -11z" />
    <glyph glyph-name="Scaron" unicode="&#x160;" horiz-adv-x="599" 
d="M571 199q-1 -45 -20 -84t-54.5 -68.5t-87 -46t-115.5 -16.5q-70 0 -134 25.5t-111 74.5q-3 3 -3 7.5t3 7.5l69 75q8 8 16 1q30 -28 72.5 -48t96.5 -20q51 0 79.5 22t28.5 56q0 24 -16.5 39.5t-43.5 27t-61.5 20t-70.5 19t-70.5 24.5t-61.5 36.5t-43 54.5t-16 79
q1 50 23.5 91t60.5 69.5t89 44t108 15.5q72 0 139 -26.5t114 -71.5q3 -3 2 -8t-3 -7l-70 -76q-3 -4 -8 -3.5t-8 2.5q-33 28 -76 46t-97 18q-48 1 -79 -22t-31 -62q-1 -35 31.5 -55t96.5 -34q62 -14 109.5 -30.5t79 -40.5t47.5 -57t15 -79zM306 855l52 47q17 14 40 14h52
q9 0 12 -5.5t-5 -15.5l-108 -123q-8 -8 -15 -12.5t-18 -4.5h-22q-12 0 -18.5 4t-14.5 13l-109 123q-8 8 -4.5 14.5t12.5 6.5h54q14 0 22.5 -3t17.5 -11z" />
    <glyph glyph-name="Yacute" unicode="&#xdd;" horiz-adv-x="562" 
d="M553 688l-38.5 -88l-47.5 -104l-55.5 -115l-60.5 -121l2 -249q0 -11 -12 -11h-132q-12 0 -12 11v249l-53.5 115.5l-50 114l-44 106t-35.5 92.5q-2 6 2 9t10 3h136q9 0 11 -8l104 -306l117 306q4 8 12 8h135q6 0 10 -3t2 -9zM321 778q-10 -8 -18.5 -11t-21.5 -3h-62
q-9 0 -12 5t5 16l83 103q6 8 14 12.5t24 4.5h103q13 0 16.5 -7.5t-4.5 -14.5z" />
    <glyph glyph-name="yacute" unicode="&#xfd;" horiz-adv-x="575" 
d="M520 75q0 -68 -11.5 -123.5t-37.5 -96t-68.5 -62.5t-104.5 -22q-27 0 -53 3t-43 9q-9 3 -9 12v100q0 13 14 13q8 0 26.5 -5t49.5 -5q54 0 79 34t24 113q-10 -15 -25.5 -26.5t-34 -19t-38 -11t-38.5 -3.5q-54 0 -92 17.5t-62 49t-35 76.5t-11 99v257q0 10 12 10h113
q12 0 12 -12l-1 -255q0 -60 19.5 -91t72.5 -31q33 0 61.5 15.5t45.5 42.5l-2 320q0 11 11 11h110q13 0 14 -11zM328 572q-10 -8 -18.5 -11t-21.5 -3h-62q-9 0 -12 5t5 16l83 103q6 8 14 12.5t24 4.5h103q13 0 16.5 -7.5t-4.5 -14.5z" />
    <glyph glyph-name="Lslash" unicode="&#x141;" horiz-adv-x="498" 
d="M478 13q0 -13 -13 -13h-385q-12 0 -12 13v236l-67 -26q-11 -4 -16 7l-32 88q-4 10 7 15l109 42l1 313q0 12 13 12h127q12 0 12 -12l-4 -255l115 45q12 4 16 -7l32 -87q4 -11 -7 -16l-157 -62l-2 -184h250q13 0 13 -13v-96z" />
    <glyph glyph-name="lslash" unicode="&#x142;" horiz-adv-x="258" 
d="M198 432l60 26q12 4 16 -7l32 -87q4 -11 -7 -16l-101 -43v-292q0 -13 -12 -13h-115q-11 0 -11 13v234l-59 -24q-11 -4 -16 7l-32 88q-4 10 7 15l100 42v336q0 12 11 12h115q12 0 12 -13v-278z" />
    <glyph glyph-name="Eth" unicode="&#xd0;" horiz-adv-x="625" 
d="M197 700q70 0 140.5 -19.5t126.5 -61.5t91 -108t35 -160q0 -98 -33 -165.5t-87 -108.5t-123.5 -59t-143.5 -18h-121q-12 0 -12 11v274h-68q-12 0 -12 12v98q0 12 12 12h68v281q0 12 12 12h115zM437 349q0 47 -17 85.5t-47 66t-70.5 42.5t-87.5 17v-153h89q12 0 12 -12
v-98q0 -12 -12 -12h-89v-146q58 2 100 19t69 44.5t40 65t13 81.5z" />
    <glyph glyph-name="bar" unicode="|" horiz-adv-x="320" 
d="M225 -148q0 -13 -12 -13h-107q-11 0 -11 13v919q0 12 11 12h107q12 0 12 -13v-918z" />
    <glyph glyph-name="cent" unicode="&#xa2;" horiz-adv-x="491" 
d="M180 339q0 -63 34 -99.5t90 -36.5q26 0 49.5 3.5t40.5 9.5q28 10 41 -13q6 -11 9.5 -29.5t3.5 -33.5q0 -20 -25 -31q-14 -7 -39 -12t-47 -7v-49q0 -20 -11 -30.5t-29 -10.5h-41q-17 0 -27 9.5t-10 28.5v57q-39 10 -71 31t-55 51.5t-35.5 69.5t-12.5 84q0 108 50 177.5
t135 92.5v57q0 42 40 42h42q35 0 35 -43v-49q21 -1 43 -4.5t36 -8.5q29 -10 29 -35q0 -16 -4 -34.5t-11 -33.5q-5 -10 -17 -14t-26 1q-10 4 -30 7.5t-48 3.5q-63 0 -101 -40t-38 -111z" />
    <glyph glyph-name="eth" unicode="&#xf0;" horiz-adv-x="532" 
d="M348 582q33 -36 61.5 -77t49.5 -85.5t32.5 -91.5t11.5 -96q0 -50 -15.5 -95t-45.5 -79t-73.5 -53.5t-99.5 -19.5q-55 0 -99 18t-75 50t-48 75t-17 94q0 52 15 95.5t43 75.5t68 50t91 18q32 0 63 -13q-16 22 -34.5 43.5t-41.5 42.5l-114 -47q-10 -4 -16 6l-42 66
q-3 5 -0.5 9t7.5 6l78 32q-36 26 -80 51q-5 2 -4 8t7 8l92 44q11 3 19 -2l44 -28t41 -31l112 47q14 5 21 -5l42 -65q4 -5 1 -9t-8 -6zM378 224q0 25 -7 48t-20.5 40.5t-34.5 27.5t-49 10q-54 0 -80 -37t-26 -91q0 -51 30 -84t81 -33q27 0 46.5 10.5t33 27t20 38t6.5 43.5z
" />
    <glyph glyph-name="degree" unicode="&#xb0;" horiz-adv-x="434" 
d="M221 717q32 0 60 -11.5t48.5 -33t32.5 -52t12 -67.5q0 -34 -10.5 -63.5t-30.5 -51t-49.5 -34t-68.5 -12.5q-36 0 -64.5 12t-49 33t-31 49t-10.5 60t11 63t32 55t51 38.5t67 14.5zM221 626q-29 0 -51.5 -21.5t-22.5 -54.5t20.5 -53.5t49.5 -20.5q33 0 53 21t20 53
q0 29 -18.5 52.5t-50.5 23.5z" />
    <glyph glyph-name="hungarumlaut" unicode="&#x2dd;" 
d="M178 572q-9 -9 -17.5 -11.5t-21.5 -2.5h-59q-9 0 -12 4.5t4 15.5l65 104q5 8 13 12.5t22 4.5h97q13 0 16.5 -7t-4.5 -15zM399 572q-9 -9 -17 -11.5t-21 -2.5h-60q-9 0 -12 4.5t4 15.5l65 104q5 8 13 12.5t23 4.5h97q13 0 16.5 -7t-4.5 -15z" />
    <glyph glyph-name="dotaccent" unicode="&#x2d9;" horiz-adv-x="283" 
d="M141 553q-27 0 -50 18.5t-23 48.5q0 28 21.5 47.5t50.5 19.5t51 -19t22 -48t-22 -48t-50 -19z" />
    <glyph glyph-name="approxequal" unicode="&#x2248;" horiz-adv-x="661" 
d="M581 197q0 -16 -15 -26q-22 -15 -56.5 -24t-77.5 -9q-33 0 -59 7t-49 15l-45 15t-46 7q-45 0 -79 -9t-60 -21q-5 -2 -9.5 2t-4.5 9v62q0 10 3 15t10 10q32 21 68 34.5t81 13.5q33 0 61.5 -7t53 -16t47 -16t45.5 -7q34 0 64.5 6t54.5 17q5 2 9 -1t4 -8v-69zM581 422
q0 -16 -15 -26q-22 -15 -56.5 -24t-77.5 -9q-33 0 -59 7t-49 15l-45 15t-46 7q-45 0 -79 -9t-60 -21q-5 -2 -9.5 2t-4.5 9v62q0 10 3 15t10 10q32 21 68 34.5t81 13.5q33 0 61.5 -7t53 -16t47 -16t45.5 -7q34 0 64.5 6t54.5 17q5 2 9 -1t4 -8v-69z" />
    <glyph glyph-name="braceleft" unicode="{" horiz-adv-x="416" 
d="M171 267q42 -6 68.5 -35.5t26.5 -83.5v-92q0 -74 20.5 -105t54.5 -31h28q12 0 12 -12v-76q0 -12 -12 -12h-46q-40 0 -71.5 16.5t-53.5 45.5t-33.5 67.5t-11.5 83.5v96q0 34 -22.5 60.5t-67.5 32.5q-13 2 -13 16v66q0 5 3 8.5t10 4.5q49 7 69.5 31.5t20.5 56.5v89
q0 52 15 91t40 64.5t57 38t67 12.5h37q12 0 12 -13v-75q0 -12 -12 -12h-23q-38 0 -59 -30t-21 -93v-94q0 -46 -24 -75t-71 -37v-4z" />
    <glyph glyph-name="braceright" unicode="}" horiz-adv-x="416" 
d="M248 271q-48 6 -73 36.5t-25 76.5v83q0 69 -19 101t-61 32h-23q-12 0 -12 12v75q0 13 12 13h38q83 0 130.5 -55t47.5 -161v-79q0 -29 20.5 -54t69.5 -32q7 -1 10 -4.5t3 -8.5v-70q0 -14 -13 -16q-45 -6 -67.5 -32.5t-22.5 -58.5v-85q0 -49 -10.5 -90t-31 -71t-52 -46.5
t-73.5 -16.5h-49q-12 0 -12 12v76q0 12 12 12h28q35 0 55 33t20 103v92q0 28 8 49t21.5 35t31 22.5t37.5 12.5v4z" />
    <glyph glyph-name="guilsinglleft" unicode="&#x2039;" horiz-adv-x="412" 
d="M70 235q-10 16 0 34l134 214q6 11 18 11h111q5 0 6.5 -4.5t-0.5 -8.5l-146 -229l147 -241q5 -11 -6 -11h-114q-12 0 -16 9z" />
    <glyph glyph-name="guilsinglright" unicode="&#x203a;" horiz-adv-x="412" 
d="M342 259q10 -16 0 -34l-134 -214q-6 -11 -18 -11h-111q-5 0 -6.5 4.5t0.5 8.5l146 229l-147 241q-6 11 6 11h114q11 0 16 -9z" />
    <glyph glyph-name="guillemotleft" unicode="&#xab;" horiz-adv-x="647" 
d="M70 235q-10 16 0 34l134 214q6 11 18 11h111q5 0 6.5 -4.5t-0.5 -8.5l-146 -229l147 -241q5 -11 -6 -11h-114q-12 0 -16 9zM305 235q-10 16 0 34l134 214q6 11 18 11h111q5 0 6.5 -4.5t-0.5 -8.5l-146 -229l147 -241q5 -11 -6 -11h-114q-12 0 -16 9z" />
    <glyph glyph-name="guillemotright" unicode="&#xbb;" horiz-adv-x="647" 
d="M342 259q10 -16 0 -34l-134 -214q-6 -11 -18 -11h-111q-5 0 -6.5 4.5t0.5 8.5l146 229l-147 241q-6 11 6 11h114q11 0 16 -9zM577 259q10 -16 0 -34l-134 -214q-6 -11 -18 -11h-111q-5 0 -6.5 4.5t0.5 8.5l146 229l-147 241q-6 11 6 11h114q11 0 16 -9z" />
    <glyph glyph-name="asciicircum" unicode="^" horiz-adv-x="646" 
d="M321 598l-116 -169q-8 -10 -17.5 -12.5t-22.5 -2.5h-75q-9 0 -12 5.5t5 16.5l183 247q7 9 14.5 13t21.5 4h42q15 0 22 -4t14 -13l184 -247q7 -9 4 -15.5t-12 -6.5h-77q-14 0 -23 2.5t-17 12.5z" />
    <glyph glyph-name="asciitilde" unicode="~" horiz-adv-x="710" 
d="M628 461q9 0 15.5 -5.5t6.5 -16.5q0 -26 -10 -57t-31 -57.5t-55 -44.5t-82 -18q-34 0 -66.5 11.5t-62.5 25l-57.5 25t-51.5 11.5q-59 0 -88 -70q-3 -11 -15 -11h-48q-10 0 -16.5 6t-6.5 16q0 23 9.5 55t30.5 61t54.5 49.5t81.5 20.5q36 0 66.5 -11.5t59.5 -25.5
t57.5 -25.5t58.5 -11.5q37 0 58.5 17t29.5 46q3 10 15 10h47z" />
    <glyph glyph-name="Euro" unicode="&#x20ac;" horiz-adv-x="600" 
d="M282 215q17 -51 49.5 -79t83.5 -28q26 0 51 4.5t41 9.5q31 11 43 -12q5 -11 8.5 -28t3.5 -32q0 -23 -23 -34q-17 -8 -53 -17t-90 -9q-106 0 -173 61t-90 164l-49 1q-39 0 -39 38v30q0 29 41 29l35 -1q-1 17 -0.5 35.5t2.5 32.5h-39q-19 0 -29 8t-10 28v29q0 31 40 31h55
q14 52 39.5 95t61.5 74.5t84 49t107 17.5q37 0 68.5 -4t43.5 -8q27 -9 27 -37q0 -17 -5 -36.5t-13 -34.5q-5 -9 -16 -12.5t-24 1.5q-12 4 -30.5 6.5t-41.5 2.5q-51 0 -92.5 -26t-62.5 -88h149q43 0 43 -36v-29q0 -31 -44 -31h-172q-2 -14 -2 -32t1 -37l159 -1q42 -1 42 -36
v-29q0 -32 -44 -31z" />
    <glyph glyph-name="breve" unicode="&#x2d8;" horiz-adv-x="447" 
d="M138 710q14 0 20.5 -3.5t9.5 -15.5q5 -20 18.5 -33.5t39.5 -13.5q25 0 37 14t20 38q3 9 10 11.5t20 2.5h52q9 0 13 -4.5t1 -16.5q-16 -70 -58 -100.5t-97 -30.5q-54 0 -97.5 32.5t-58.5 98.5q-6 21 11 21h59z" />
    <glyph glyph-name="ogonek" unicode="&#x2db;" horiz-adv-x="368" 
d="M245 5q-16 -23 -27.5 -45.5t-11.5 -43.5q0 -24 13 -35t38 -14q10 -1 13 -4t3 -11v-57q0 -17 -23 -17q-75 0 -115 29t-40 79q0 31 19.5 63t45.5 62q8 8 12.5 12t10.5 4h50q13 0 15.5 -7t-3.5 -15z" />
    <glyph glyph-name="commaaccent" horiz-adv-x="243" 
d="M107 -198q-29 3 -47.5 18.5t-18.5 41.5q0 30 23.5 52t56.5 22q37 0 59 -23.5t22 -51.5q0 -31 -14 -54t-31.5 -38.5t-32.5 -23.5t-18 -8q-12 0 -12 11q0 5 7.5 19t5.5 35z" />
    <glyph glyph-name="macron" unicode="&#xaf;" horiz-adv-x="461" 
d="M82 584q-12 0 -12 12v66q0 12 12 12h297q12 0 12 -12v-66q0 -12 -12 -12h-297z" />
    <glyph glyph-name="Abreve" unicode="&#x102;" horiz-adv-x="620" 
d="M604 12q2 -6 -2 -9t-10 -3h-129q-9 0 -12 10l-34 127h-215l-34 -127q-1 -10 -12 -10h-128q-6 0 -10 3.5t-2 9.5l193 677q2 10 12 10h186q10 0 12 -10zM390 260l-75 296l-82 -296h157zM227 916q14 0 20.5 -3.5t9.5 -15.5q5 -20 18.5 -33.5t39.5 -13.5q25 0 37 14t20 38
q3 9 10 11.5t20 2.5h52q9 0 13 -4.5t1 -16.5q-16 -70 -58 -100.5t-97 -30.5q-54 0 -97.5 32.5t-58.5 98.5q-6 21 11 21h59z" />
    <glyph glyph-name="Amacron" unicode="&#x100;" horiz-adv-x="620" 
d="M604 12q2 -6 -2 -9t-10 -3h-129q-9 0 -12 10l-34 127h-215l-34 -127q-1 -10 -12 -10h-128q-6 0 -10 3.5t-2 9.5l193 677q2 10 12 10h186q10 0 12 -10zM390 260l-75 296l-82 -296h157zM164 790q-12 0 -12 12v66q0 12 12 12h297q12 0 12 -12v-66q0 -12 -12 -12h-297z" />
    <glyph glyph-name="Aogonek" unicode="&#x104;" horiz-adv-x="620" 
d="M168 10q-1 -10 -12 -10h-128q-6 0 -10 3.5t-2 9.5l193 677q2 10 12 10h186q10 0 12 -10l183 -673q3 -7 -2 -14q-15 -22 -26.5 -44t-11.5 -43q0 -24 13 -35t38 -14q10 -1 13 -4t3 -11v-57q0 -17 -23 -17q-75 0 -115 29t-40 79q0 28 16 57t39 57h-43q-9 0 -12 10l-34 127
h-215zM390 260l-75 296l-82 -296h157z" />
    <glyph glyph-name="Cacute" unicode="&#x106;" horiz-adv-x="548" 
d="M518 36q0 -6 -4 -9q-24 -19 -68.5 -30.5t-92.5 -11.5q-72 0 -131.5 23.5t-102 66.5t-66 103.5t-23.5 135.5q0 91 27 162.5t75 121t114.5 75.5t144.5 26q33 0 65 -3.5t48 -8.5q7 -3 7 -9v-125q0 -11 -10 -11q-9 0 -34.5 6.5t-64.5 6.5q-44 0 -84.5 -13.5t-72 -40.5
t-50.5 -68.5t-19 -96.5q0 -54 14 -92.5t40 -63t62.5 -36t81.5 -11.5q33 0 66.5 7.5t54.5 16.5q6 2 11 0.5t5 -9.5zM372 778q-10 -8 -18.5 -11t-21.5 -3h-62q-9 0 -12 5t5 16l83 103q6 8 14 12.5t24 4.5h103q13 0 16.5 -7.5t-4.5 -14.5z" />
    <glyph glyph-name="Ccaron" unicode="&#x10c;" horiz-adv-x="548" 
d="M518 36q0 -6 -4 -9q-24 -19 -68.5 -30.5t-92.5 -11.5q-72 0 -131.5 23.5t-102 66.5t-66 103.5t-23.5 135.5q0 91 27 162.5t75 121t114.5 75.5t144.5 26q33 0 65 -3.5t48 -8.5q7 -3 7 -9v-125q0 -11 -10 -11q-9 0 -34.5 6.5t-64.5 6.5q-44 0 -84.5 -13.5t-72 -40.5
t-50.5 -68.5t-19 -96.5q0 -54 14 -92.5t40 -63t62.5 -36t81.5 -11.5q33 0 66.5 7.5t54.5 16.5q6 2 11 0.5t5 -9.5zM336 855l52 47q17 14 40 14h52q9 0 12 -5.5t-5 -15.5l-108 -123q-8 -8 -15 -12.5t-18 -4.5h-22q-12 0 -18.5 4t-14.5 13l-109 123q-8 8 -4.5 14.5t12.5 6.5
h54q14 0 22.5 -3t17.5 -11z" />
    <glyph glyph-name="Ccircumflex" unicode="&#x108;" horiz-adv-x="548" 
d="M518 36q0 -6 -4 -9q-24 -19 -68.5 -30.5t-92.5 -11.5q-72 0 -131.5 23.5t-102 66.5t-66 103.5t-23.5 135.5q0 91 27 162.5t75 121t114.5 75.5t144.5 26q33 0 65 -3.5t48 -8.5q7 -3 7 -9v-125q0 -11 -10 -11q-9 0 -34.5 6.5t-64.5 6.5q-44 0 -84.5 -13.5t-72 -40.5
t-50.5 -68.5t-19 -96.5q0 -54 14 -92.5t40 -63t62.5 -36t81.5 -11.5q33 0 66.5 7.5t54.5 16.5q6 2 11 0.5t5 -9.5zM335 824l-52 -46q-9 -8 -18 -11t-22 -3h-52q-9 0 -12 5.5t5 15.5l108 123q8 8 15 12.5t18 4.5h22q12 0 18.5 -4t14.5 -13l109 -123q8 -8 4.5 -14.5
t-12.5 -6.5h-54q-14 0 -22.5 3t-17.5 11z" />
    <glyph glyph-name="Cdotaccent" unicode="&#x10a;" horiz-adv-x="548" 
d="M518 36q0 -6 -4 -9q-24 -19 -68.5 -30.5t-92.5 -11.5q-72 0 -131.5 23.5t-102 66.5t-66 103.5t-23.5 135.5q0 91 27 162.5t75 121t114.5 75.5t144.5 26q33 0 65 -3.5t48 -8.5q7 -3 7 -9v-125q0 -11 -10 -11q-9 0 -34.5 6.5t-64.5 6.5q-44 0 -84.5 -13.5t-72 -40.5
t-50.5 -68.5t-19 -96.5q0 -54 14 -92.5t40 -63t62.5 -36t81.5 -11.5q33 0 66.5 7.5t54.5 16.5q6 2 11 0.5t5 -9.5zM335 759q-27 0 -50 18.5t-23 48.5q0 28 21.5 47.5t50.5 19.5t51 -19t22 -48t-22 -48t-50 -19z" />
    <glyph glyph-name="Dcaron" unicode="&#x10e;" horiz-adv-x="615" 
d="M192 700q70 0 140.5 -19.5t126.5 -61.5t91 -108t35 -160q0 -98 -33 -165.5t-87 -108.5t-123.5 -59t-143.5 -18h-121q-12 0 -12 11v677q0 12 12 12h115zM432 349q0 47 -17 85.5t-47 66t-70.5 42.5t-87.5 17v-421q58 2 100 19t69 44.5t40 65t13 81.5zM287 855l52 47
q17 14 40 14h52q9 0 12 -5.5t-5 -15.5l-108 -123q-8 -8 -15 -12.5t-18 -4.5h-22q-12 0 -18.5 4t-14.5 13l-109 123q-8 8 -4.5 14.5t12.5 6.5h54q14 0 22.5 -3t17.5 -11z" />
    <glyph glyph-name="Dcroat" unicode="&#x110;" horiz-adv-x="615" 
d="M192 700q70 0 140.5 -19.5t126.5 -61.5t91 -108t35 -160q0 -98 -33 -165.5t-87 -108.5t-123.5 -59t-143.5 -18h-121q-12 0 -12 11v677q0 12 12 12h115zM432 349q0 47 -17 85.5t-47 66t-70.5 42.5t-87.5 17v-421q58 2 100 19t69 44.5t40 65t13 81.5zM139 790q-12 0 -12 12
v66q0 12 12 12h297q12 0 12 -12v-66q0 -12 -12 -12h-297z" />
    <glyph glyph-name="Ebreve" unicode="&#x114;" horiz-adv-x="568" 
d="M518 12q0 -12 -12 -12h-428q-12 0 -12 12l-3 675q0 13 12 13h436q12 0 12 -13v-96q0 -12 -12 -12h-302l1 -172h255q12 0 12 -12v-98q0 -12 -12 -12h-254l1 -164h294q12 0 12 -12v-97zM208 916q14 0 20.5 -3.5t9.5 -15.5q5 -20 18.5 -33.5t39.5 -13.5q25 0 37 14t20 38
q3 9 10 11.5t20 2.5h52q9 0 13 -4.5t1 -16.5q-16 -70 -58 -100.5t-97 -30.5q-54 0 -97.5 32.5t-58.5 98.5q-6 21 11 21h59z" />
    <glyph glyph-name="Ecaron" unicode="&#x11a;" horiz-adv-x="568" 
d="M518 12q0 -12 -12 -12h-428q-12 0 -12 12l-3 675q0 13 12 13h436q12 0 12 -13v-96q0 -12 -12 -12h-302l1 -172h255q12 0 12 -12v-98q0 -12 -12 -12h-254l1 -164h294q12 0 12 -12v-97zM294 855l52 47q17 14 40 14h52q9 0 12 -5.5t-5 -15.5l-108 -123q-8 -8 -15 -12.5
t-18 -4.5h-22q-12 0 -18.5 4t-14.5 13l-109 123q-8 8 -4.5 14.5t12.5 6.5h54q14 0 22.5 -3t17.5 -11z" />
    <glyph glyph-name="Edotaccent" unicode="&#x116;" horiz-adv-x="568" 
d="M518 12q0 -12 -12 -12h-428q-12 0 -12 12l-3 675q0 13 12 13h436q12 0 12 -13v-96q0 -12 -12 -12h-302l1 -172h255q12 0 12 -12v-98q0 -12 -12 -12h-254l1 -164h294q12 0 12 -12v-97zM293 759q-27 0 -50 18.5t-23 48.5q0 28 21.5 47.5t50.5 19.5t51 -19t22 -48t-22 -48
t-50 -19z" />
    <glyph glyph-name="Emacron" unicode="&#x112;" horiz-adv-x="568" 
d="M518 12q0 -12 -12 -12h-428q-12 0 -12 12l-3 675q0 13 12 13h436q12 0 12 -13v-96q0 -12 -12 -12h-302l1 -172h255q12 0 12 -12v-98q0 -12 -12 -12h-254l1 -164h294q12 0 12 -12v-97zM145 790q-12 0 -12 12v66q0 12 12 12h297q12 0 12 -12v-66q0 -12 -12 -12h-297z" />
    <glyph glyph-name="Eogonek" unicode="&#x118;" horiz-adv-x="568" 
d="M518 18q0 -8 -5 -15q-15 -22 -26.5 -44t-11.5 -43q0 -24 13 -35t38 -14q10 -1 13 -4t3 -11v-57q0 -17 -23 -17q-75 0 -115 29t-40 79q0 28 16 57t39 57h-341q-12 0 -12 12l-3 675q0 13 12 13h436q12 0 12 -13v-96q0 -12 -12 -12h-302l1 -172h255q12 0 12 -12v-98
q0 -12 -12 -12h-254l1 -164h294q12 0 12 -12v-91z" />
    <glyph glyph-name="Gbreve" unicode="&#x11e;" horiz-adv-x="658" 
d="M603 59q0 -12 -10 -19q-15 -12 -37.5 -21.5t-49.5 -17t-56.5 -11.5t-58.5 -4q-84 0 -151 24.5t-113.5 68t-71.5 103t-25 130.5q0 90 30.5 162t84.5 122t128 77t161 27q15 0 33.5 -1t36 -2.5t32.5 -3.5t25 -5q7 -2 7 -9v-124q0 -11 -10 -11t-40 7t-78 7q-59 0 -107 -17
t-82 -50t-52.5 -80.5t-18.5 -108.5q0 -40 12.5 -75t37.5 -61t63 -41t90 -15q19 0 38 2.5t33 7.5v141l-127 -3q-5 0 -8 4t-3 9l4 95q0 11 11 11l260 8q12 0 12 -11v-315zM273 916q14 0 20.5 -3.5t9.5 -15.5q5 -20 18.5 -33.5t39.5 -13.5q25 0 37 14t20 38q3 9 10 11.5t20 2.5
h52q9 0 13 -4.5t1 -16.5q-16 -70 -58 -100.5t-97 -30.5q-54 0 -97.5 32.5t-58.5 98.5q-6 21 11 21h59z" />
    <glyph glyph-name="Gcircumflex" unicode="&#x11c;" horiz-adv-x="658" 
d="M603 59q0 -12 -10 -19q-15 -12 -37.5 -21.5t-49.5 -17t-56.5 -11.5t-58.5 -4q-84 0 -151 24.5t-113.5 68t-71.5 103t-25 130.5q0 90 30.5 162t84.5 122t128 77t161 27q15 0 33.5 -1t36 -2.5t32.5 -3.5t25 -5q7 -2 7 -9v-124q0 -11 -10 -11t-40 7t-78 7q-59 0 -107 -17
t-82 -50t-52.5 -80.5t-18.5 -108.5q0 -40 12.5 -75t37.5 -61t63 -41t90 -15q19 0 38 2.5t33 7.5v141l-127 -3q-5 0 -8 4t-3 9l4 95q0 11 11 11l260 8q12 0 12 -11v-315zM368 824l-52 -46q-9 -8 -18 -11t-22 -3h-52q-9 0 -12 5.5t5 15.5l108 123q8 8 15 12.5t18 4.5h22
q12 0 18.5 -4t14.5 -13l109 -123q8 -8 4.5 -14.5t-12.5 -6.5h-54q-14 0 -22.5 3t-17.5 11z" />
    <glyph glyph-name="Gcommaaccent" unicode="&#x122;" horiz-adv-x="658" 
d="M603 59q0 -12 -10 -19q-15 -12 -37.5 -21.5t-49.5 -17t-56.5 -11.5t-58.5 -4q-84 0 -151 24.5t-113.5 68t-71.5 103t-25 130.5q0 90 30.5 162t84.5 122t128 77t161 27q15 0 33.5 -1t36 -2.5t32.5 -3.5t25 -5q7 -2 7 -9v-124q0 -11 -10 -11t-40 7t-78 7q-59 0 -107 -17
t-82 -50t-52.5 -80.5t-18.5 -108.5q0 -40 12.5 -75t37.5 -61t63 -41t90 -15q19 0 38 2.5t33 7.5v141l-127 -3q-5 0 -8 4t-3 9l4 95q0 11 11 11l260 8q12 0 12 -11v-315zM340 -198q-29 3 -47.5 18.5t-18.5 41.5q0 30 23.5 52t56.5 22q37 0 59 -23.5t22 -51.5q0 -31 -14 -54
t-31.5 -38.5t-32.5 -23.5t-18 -8q-12 0 -12 11q0 5 7.5 19t5.5 35z" />
    <glyph glyph-name="Gdotaccent" unicode="&#x120;" horiz-adv-x="658" 
d="M603 59q0 -12 -10 -19q-15 -12 -37.5 -21.5t-49.5 -17t-56.5 -11.5t-58.5 -4q-84 0 -151 24.5t-113.5 68t-71.5 103t-25 130.5q0 90 30.5 162t84.5 122t128 77t161 27q15 0 33.5 -1t36 -2.5t32.5 -3.5t25 -5q7 -2 7 -9v-124q0 -11 -10 -11t-40 7t-78 7q-59 0 -107 -17
t-82 -50t-52.5 -80.5t-18.5 -108.5q0 -40 12.5 -75t37.5 -61t63 -41t90 -15q19 0 38 2.5t33 7.5v141l-127 -3q-5 0 -8 4t-3 9l4 95q0 11 11 11l260 8q12 0 12 -11v-315zM368 759q-27 0 -50 18.5t-23 48.5q0 28 21.5 47.5t50.5 19.5t51 -19t22 -48t-22 -48t-50 -19z" />
    <glyph glyph-name="Hbar" unicode="&#x126;" horiz-adv-x="676" 
d="M605 12q0 -12 -12 -12h-120q-12 0 -12 12l2 278l-252 -2l-2 -276q0 -12 -11 -12h-120q-13 0 -13 12v676q0 12 12 12h127q12 0 12 -12l-3 -281l251 2l2 279q0 12 12 12h127q11 0 11 -12zM190 790q-12 0 -12 12v66q0 12 12 12h297q12 0 12 -12v-66q0 -12 -12 -12h-297z" />
    <glyph glyph-name="Hcircumflex" unicode="&#x124;" horiz-adv-x="676" 
d="M605 12q0 -12 -12 -12h-120q-12 0 -12 12l2 278l-252 -2l-2 -276q0 -12 -11 -12h-120q-13 0 -13 12v676q0 12 12 12h127q12 0 12 -12l-3 -281l251 2l2 279q0 12 12 12h127q11 0 11 -12zM337 824l-52 -46q-9 -8 -18 -11t-22 -3h-52q-9 0 -12 5.5t5 15.5l108 123
q8 8 15 12.5t18 4.5h22q12 0 18.5 -4t14.5 -13l109 -123q8 -8 4.5 -14.5t-12.5 -6.5h-54q-14 0 -22.5 3t-17.5 11z" />
    <glyph glyph-name="Ibreve" unicode="&#x12c;" horiz-adv-x="286" 
d="M221 11q0 -11 -13 -11h-131q-12 0 -12 12v675q0 13 12 13h132q11 0 11 -12zM58 916q14 0 20.5 -3.5t9.5 -15.5q5 -20 18.5 -33.5t39.5 -13.5q25 0 37 14t20 38q3 9 10 11.5t20 2.5h52q9 0 13 -4.5t1 -16.5q-16 -70 -58 -100.5t-97 -30.5q-54 0 -97.5 32.5t-58.5 98.5
q-6 21 11 21h59z" />
    <glyph glyph-name="Idotaccent" unicode="&#x130;" horiz-adv-x="286" 
d="M221 11q0 -11 -13 -11h-131q-12 0 -12 12v675q0 13 12 13h132q11 0 11 -12zM142 759q-27 0 -50 18.5t-23 48.5q0 28 21.5 47.5t50.5 19.5t51 -19t22 -48t-22 -48t-50 -19z" />
    <glyph glyph-name="Imacron" unicode="&#x12a;" horiz-adv-x="286" 
d="M221 11q0 -11 -13 -11h-131q-12 0 -12 12v675q0 13 12 13h132q11 0 11 -12zM-4 790q-12 0 -12 12v66q0 12 12 12h297q12 0 12 -12v-66q0 -12 -12 -12h-297z" />
    <glyph glyph-name="Iogonek" unicode="&#x12e;" horiz-adv-x="286" 
d="M221 20q0 -11 -4 -15q-16 -23 -27.5 -45.5t-11.5 -43.5q0 -24 13 -35t38 -14q10 -1 13 -4t3 -11v-57q0 -17 -23 -17q-75 0 -115 29t-40 79q0 28 16 57t39 57h-47q-10 0 -10 12v675q0 13 12 13h132q11 0 11 -12z" />
    <glyph glyph-name="Itilde" unicode="&#x128;" horiz-adv-x="286" 
d="M221 11q0 -11 -13 -11h-131q-12 0 -12 12v675q0 13 12 13h132q11 0 11 -12zM314 897q18 0 18 -22q0 -11 -6 -30t-19.5 -38t-35.5 -33t-55 -14q-21 0 -41 6.5t-38 15t-34.5 15t-31.5 6.5q-16 0 -25.5 -8.5t-15.5 -23.5q-3 -11 -15 -11h-39q-20 0 -20 22q0 9 5.5 29.5
t19 41.5t36.5 36.5t58 15.5q22 0 41 -7t36.5 -15t34.5 -15t37 -7q14 0 22.5 5.5t13.5 20.5q3 10 15 10h39z" />
    <glyph glyph-name="Jcircumflex" unicode="&#x134;" horiz-adv-x="426" 
d="M369 687q0 -47 -1.5 -106.5l-3 -122.5t-4 -125t-5.5 -113q-2 -54 -16 -99t-45 -78q-29 -30 -73.5 -43.5t-95.5 -13.5q-32 0 -56 3t-40 11q-9 3 -9 13v116q0 13 14 13q5 0 25 -4.5t44 -4.5q60 0 83 28.5t23 96.5l2 429q0 5 4.5 9t9.5 4h131q13 0 13 -13zM284 824l-52 -46
q-9 -8 -18 -11t-22 -3h-52q-9 0 -12 5.5t5 15.5l108 123q8 8 15 12.5t18 4.5h22q12 0 18.5 -4t14.5 -13l109 -123q8 -8 4.5 -14.5t-12.5 -6.5h-54q-14 0 -22.5 3t-17.5 11z" />
    <glyph glyph-name="Kcommaaccent" unicode="&#x136;" horiz-adv-x="603" 
d="M350 354l238 -342q7 -12 -7 -12h-153q-9 0 -15 7l-185 282l-7 -1l-2 -276q0 -12 -11 -12h-132q-11 0 -11 12v677q0 11 12 11h137q11 0 11 -11l-3 -289l214 294q4 6 12 6h133q8 0 10.5 -6.5t-1.5 -11.5zM286 -198q-29 3 -47.5 18.5t-18.5 41.5q0 30 23.5 52t56.5 22
q37 0 59 -23.5t22 -51.5q0 -31 -14 -54t-31.5 -38.5t-32.5 -23.5t-18 -8q-12 0 -12 11q0 5 7.5 19t5.5 35z" />
    <glyph glyph-name="Lacute" unicode="&#x139;" horiz-adv-x="498" 
d="M477 13q0 -13 -13 -13h-385q-12 0 -12 13l3 675q0 12 13 12h126q12 0 12 -12l-7 -566h250q13 0 13 -13v-96zM219 778q-10 -8 -18.5 -11t-21.5 -3h-62q-9 0 -12 5t5 16l83 103q6 8 14 12.5t24 4.5h103q13 0 16.5 -7.5t-4.5 -14.5z" />
    <glyph glyph-name="Lcaron" unicode="&#x13d;" horiz-adv-x="498" 
d="M477 13q0 -13 -13 -13h-385q-12 0 -12 13l3 675q0 12 13 12h126q12 0 12 -12l-7 -566h250q13 0 13 -13v-96zM366 578q-29 3 -48.5 19.5t-19.5 43.5q0 32 24 54.5t59 22.5q19 0 34.5 -7t26.5 -18t17 -25t6 -29q0 -32 -14.5 -56t-32.5 -40.5t-34 -25t-19 -8.5q-12 0 -12 12
q0 5 7.5 19.5t5.5 37.5z" />
    <glyph glyph-name="Lcommaaccent" unicode="&#x13b;" horiz-adv-x="498" 
d="M477 13q0 -13 -13 -13h-385q-12 0 -12 13l3 675q0 12 13 12h126q12 0 12 -12l-7 -566h250q13 0 13 -13v-96zM240 -198q-29 3 -47.5 18.5t-18.5 41.5q0 30 23.5 52t56.5 22q37 0 59 -23.5t22 -51.5q0 -31 -14 -54t-31.5 -38.5t-32.5 -23.5t-18 -8q-12 0 -12 11q0 5 7.5 19
t5.5 35z" />
    <glyph glyph-name="Ldot" unicode="&#x13f;" horiz-adv-x="546" 
d="M477 13q0 -13 -13 -13h-385q-12 0 -12 13l3 675q0 12 13 12h126q12 0 12 -12l-7 -566h250q13 0 13 -13v-96zM384 384q-15 0 -30 5.5t-27 16t-19.5 24.5t-7.5 32q0 32 24 54.5t59 22.5q33 0 58.5 -22t25.5 -56q0 -17 -7 -31t-18.5 -24t-26.5 -16t-31 -6z" />
    <glyph glyph-name="Nacute" unicode="&#x143;" horiz-adv-x="676" 
d="M608 11q0 -11 -12 -11h-117q-8 0 -12 7l-259 431l-4 -427q0 -11 -12 -11h-114q-13 0 -13 12v675q0 13 12 13h124q7 0 10 -7l260 -443v438q0 12 11 12h120q12 0 12 -11zM378 778q-10 -8 -18.5 -11t-21.5 -3h-62q-9 0 -12 5t5 16l83 103q6 8 14 12.5t24 4.5h103
q13 0 16.5 -7.5t-4.5 -14.5z" />
    <glyph glyph-name="Ncaron" unicode="&#x147;" horiz-adv-x="676" 
d="M608 11q0 -11 -12 -11h-117q-8 0 -12 7l-259 431l-4 -427q0 -11 -12 -11h-114q-13 0 -13 12v675q0 13 12 13h124q7 0 10 -7l260 -443v438q0 12 11 12h120q12 0 12 -11zM342 855l52 47q17 14 40 14h52q9 0 12 -5.5t-5 -15.5l-108 -123q-8 -8 -15 -12.5t-18 -4.5h-22
q-12 0 -18.5 4t-14.5 13l-109 123q-8 8 -4.5 14.5t12.5 6.5h54q14 0 22.5 -3t17.5 -11z" />
    <glyph glyph-name="Ncommaaccent" unicode="&#x145;" horiz-adv-x="676" 
d="M608 11q0 -11 -12 -11h-117q-8 0 -12 7l-259 431l-4 -427q0 -11 -12 -11h-114q-13 0 -13 12v675q0 13 12 13h124q7 0 10 -7l260 -443v438q0 12 11 12h120q12 0 12 -11zM324 -198q-29 3 -47.5 18.5t-18.5 41.5q0 30 23.5 52t56.5 22q37 0 59 -23.5t22 -51.5q0 -31 -14 -54
t-31.5 -38.5t-32.5 -23.5t-18 -8q-12 0 -12 11q0 5 7.5 19t5.5 35z" />
    <glyph glyph-name="Obreve" unicode="&#x14e;" horiz-adv-x="690" 
d="M369 703q73 0 127.5 -33t91 -86.5t54.5 -121t18 -135.5q0 -69 -21.5 -131.5t-60.5 -109t-94 -74t-123 -27.5q-78 0 -139.5 25t-104 71t-65 110.5t-22.5 142.5t23.5 145.5t67.5 117t107 78t141 28.5zM348 118q40 0 71.5 16t53.5 43.5t33 65t11 80.5q0 42 -10 83t-30 73
t-50.5 52t-71.5 20t-74 -17.5t-56 -48t-35.5 -71.5t-12.5 -88q0 -48 13.5 -86.5t36.5 -65.5t54 -41.5t67 -14.5zM264 916q14 0 20.5 -3.5t9.5 -15.5q5 -20 18.5 -33.5t39.5 -13.5q25 0 37 14t20 38q3 9 10 11.5t20 2.5h52q9 0 13 -4.5t1 -16.5q-16 -70 -58 -100.5t-97 -30.5
q-54 0 -97.5 32.5t-58.5 98.5q-6 21 11 21h59z" />
    <glyph glyph-name="Ohungarumlaut" unicode="&#x150;" horiz-adv-x="690" 
d="M369 703q73 0 127.5 -33t91 -86.5t54.5 -121t18 -135.5q0 -69 -21.5 -131.5t-60.5 -109t-94 -74t-123 -27.5q-78 0 -139.5 25t-104 71t-65 110.5t-22.5 142.5t23.5 145.5t67.5 117t107 78t141 28.5zM348 118q40 0 71.5 16t53.5 43.5t33 65t11 80.5q0 42 -10 83t-30 73
t-50.5 52t-71.5 20t-74 -17.5t-56 -48t-35.5 -71.5t-12.5 -88q0 -48 13.5 -86.5t36.5 -65.5t54 -41.5t67 -14.5zM290 778q-9 -9 -17.5 -11.5t-21.5 -2.5h-59q-9 0 -12 4.5t4 15.5l65 104q5 8 13 12.5t22 4.5h97q13 0 16.5 -7t-4.5 -15zM511 778q-9 -9 -17 -11.5t-21 -2.5
h-60q-9 0 -12 4.5t4 15.5l65 104q5 8 13 12.5t23 4.5h97q13 0 16.5 -7t-4.5 -15z" />
    <glyph glyph-name="Omacron" unicode="&#x14c;" horiz-adv-x="690" 
d="M369 703q73 0 127.5 -33t91 -86.5t54.5 -121t18 -135.5q0 -69 -21.5 -131.5t-60.5 -109t-94 -74t-123 -27.5q-78 0 -139.5 25t-104 71t-65 110.5t-22.5 142.5t23.5 145.5t67.5 117t107 78t141 28.5zM348 118q40 0 71.5 16t53.5 43.5t33 65t11 80.5q0 42 -10 83t-30 73
t-50.5 52t-71.5 20t-74 -17.5t-56 -48t-35.5 -71.5t-12.5 -88q0 -48 13.5 -86.5t36.5 -65.5t54 -41.5t67 -14.5zM205 790q-12 0 -12 12v66q0 12 12 12h297q12 0 12 -12v-66q0 -12 -12 -12h-297z" />
    <glyph glyph-name="Racute" unicode="&#x154;" horiz-adv-x="595" 
d="M569 20q5 -6 2 -13t-12 -7h-135q-7 0 -11 5l-123 184q-23 -5 -47.5 -8t-36.5 -3l-2 -167q0 -11 -12 -11h-114q-13 0 -13 11l-1 675q0 11 12 11h119q81 0 147.5 -13.5t114.5 -44.5t74 -81t26 -123q0 -69 -37 -121.5t-102 -84.5zM208 296q94 5 151 39t57 97q0 36 -14 61
t-40.5 41t-64.5 23.5t-86 7.5zM318 778q-10 -8 -18.5 -11t-21.5 -3h-62q-9 0 -12 5t5 16l83 103q6 8 14 12.5t24 4.5h103q13 0 16.5 -7.5t-4.5 -14.5z" />
    <glyph glyph-name="Rcaron" unicode="&#x158;" horiz-adv-x="595" 
d="M569 20q5 -6 2 -13t-12 -7h-135q-7 0 -11 5l-123 184q-23 -5 -47.5 -8t-36.5 -3l-2 -167q0 -11 -12 -11h-114q-13 0 -13 11l-1 675q0 11 12 11h119q81 0 147.5 -13.5t114.5 -44.5t74 -81t26 -123q0 -69 -37 -121.5t-102 -84.5zM208 296q94 5 151 39t57 97q0 36 -14 61
t-40.5 41t-64.5 23.5t-86 7.5zM287 855l52 47q17 14 40 14h52q9 0 12 -5.5t-5 -15.5l-108 -123q-8 -8 -15 -12.5t-18 -4.5h-22q-12 0 -18.5 4t-14.5 13l-109 123q-8 8 -4.5 14.5t12.5 6.5h54q14 0 22.5 -3t17.5 -11z" />
    <glyph glyph-name="Rcommaaccent" unicode="&#x156;" horiz-adv-x="595" 
d="M569 20q5 -6 2 -13t-12 -7h-135q-7 0 -11 5l-123 184q-23 -5 -47.5 -8t-36.5 -3l-2 -167q0 -11 -12 -11h-114q-13 0 -13 11l-1 675q0 11 12 11h119q81 0 147.5 -13.5t114.5 -44.5t74 -81t26 -123q0 -69 -37 -121.5t-102 -84.5zM208 296q94 5 151 39t57 97q0 36 -14 61
t-40.5 41t-64.5 23.5t-86 7.5zM282 -198q-29 3 -47.5 18.5t-18.5 41.5q0 30 23.5 52t56.5 22q37 0 59 -23.5t22 -51.5q0 -31 -14 -54t-31.5 -38.5t-32.5 -23.5t-18 -8q-12 0 -12 11q0 5 7.5 19t5.5 35z" />
    <glyph glyph-name="Sacute" unicode="&#x15a;" horiz-adv-x="599" 
d="M571 199q-1 -45 -20 -84t-54.5 -68.5t-87 -46t-115.5 -16.5q-70 0 -134 25.5t-111 74.5q-3 3 -3 7.5t3 7.5l69 75q8 8 16 1q30 -28 72.5 -48t96.5 -20q51 0 79.5 22t28.5 56q0 24 -16.5 39.5t-43.5 27t-61.5 20t-70.5 19t-70.5 24.5t-61.5 36.5t-43 54.5t-16 79
q1 50 23.5 91t60.5 69.5t89 44t108 15.5q72 0 139 -26.5t114 -71.5q3 -3 2 -8t-3 -7l-70 -76q-3 -4 -8 -3.5t-8 2.5q-33 28 -76 46t-97 18q-48 1 -79 -22t-31 -62q-1 -35 31.5 -55t96.5 -34q62 -14 109.5 -30.5t79 -40.5t47.5 -57t15 -79zM350 778q-10 -8 -18.5 -11
t-21.5 -3h-62q-9 0 -12 5t5 16l83 103q6 8 14 12.5t24 4.5h103q13 0 16.5 -7.5t-4.5 -14.5z" />
    <glyph glyph-name="Scedilla" unicode="&#x15e;" horiz-adv-x="599" 
d="M571 199q-1 -45 -20 -84t-54.5 -68.5t-87 -46t-115.5 -16.5q-70 0 -134 25.5t-111 74.5q-3 3 -3 7.5t3 7.5l69 75q8 8 16 1q30 -28 72.5 -48t96.5 -20q51 0 79.5 22t28.5 56q0 24 -16.5 39.5t-43.5 27t-61.5 20t-70.5 19t-70.5 24.5t-61.5 36.5t-43 54.5t-16 79
q1 50 23.5 91t60.5 69.5t89 44t108 15.5q72 0 139 -26.5t114 -71.5q3 -3 2 -8t-3 -7l-70 -76q-3 -4 -8 -3.5t-8 2.5q-33 28 -76 46t-97 18q-48 1 -79 -22t-31 -62q-1 -35 31.5 -55t96.5 -34q62 -14 109.5 -30.5t79 -40.5t47.5 -57t15 -79zM260 -187q-10 -8 -18.5 -11
t-21.5 -3h-62q-9 0 -12 5t5 16l83 103q6 8 14 12.5t24 4.5h103q13 0 16.5 -7.5t-4.5 -14.5z" />
    <glyph glyph-name="Scircumflex" unicode="&#x15c;" horiz-adv-x="599" 
d="M571 199q-1 -45 -20 -84t-54.5 -68.5t-87 -46t-115.5 -16.5q-70 0 -134 25.5t-111 74.5q-3 3 -3 7.5t3 7.5l69 75q8 8 16 1q30 -28 72.5 -48t96.5 -20q51 0 79.5 22t28.5 56q0 24 -16.5 39.5t-43.5 27t-61.5 20t-70.5 19t-70.5 24.5t-61.5 36.5t-43 54.5t-16 79
q1 50 23.5 91t60.5 69.5t89 44t108 15.5q72 0 139 -26.5t114 -71.5q3 -3 2 -8t-3 -7l-70 -76q-3 -4 -8 -3.5t-8 2.5q-33 28 -76 46t-97 18q-48 1 -79 -22t-31 -62q-1 -35 31.5 -55t96.5 -34q62 -14 109.5 -30.5t79 -40.5t47.5 -57t15 -79zM305 824l-52 -46q-9 -8 -18 -11
t-22 -3h-52q-9 0 -12 5.5t5 15.5l108 123q8 8 15 12.5t18 4.5h22q12 0 18.5 -4t14.5 -13l109 -123q8 -8 4.5 -14.5t-12.5 -6.5h-54q-14 0 -22.5 3t-17.5 11z" />
    <glyph glyph-name="Scommaaccent" unicode="&#x218;" horiz-adv-x="599" 
d="M571 199q-1 -45 -20 -84t-54.5 -68.5t-87 -46t-115.5 -16.5q-70 0 -134 25.5t-111 74.5q-3 3 -3 7.5t3 7.5l69 75q8 8 16 1q30 -28 72.5 -48t96.5 -20q51 0 79.5 22t28.5 56q0 24 -16.5 39.5t-43.5 27t-61.5 20t-70.5 19t-70.5 24.5t-61.5 36.5t-43 54.5t-16 79
q1 50 23.5 91t60.5 69.5t89 44t108 15.5q72 0 139 -26.5t114 -71.5q3 -3 2 -8t-3 -7l-70 -76q-3 -4 -8 -3.5t-8 2.5q-33 28 -76 46t-97 18q-48 1 -79 -22t-31 -62q-1 -35 31.5 -55t96.5 -34q62 -14 109.5 -30.5t79 -40.5t47.5 -57t15 -79zM283 -198q-29 3 -47.5 18.5
t-18.5 41.5q0 30 23.5 52t56.5 22q37 0 59 -23.5t22 -51.5q0 -31 -14 -54t-31.5 -38.5t-32.5 -23.5t-18 -8q-12 0 -12 11q0 5 7.5 19t5.5 35z" />
    <glyph glyph-name="Tbar" unicode="&#x166;" horiz-adv-x="516" 
d="M501 594q0 -12 -13 -12h-155v-570q0 -12 -12 -12h-125q-12 0 -12 12v570h-177q-12 0 -12 12v95q0 11 12 11h481q13 0 13 -11v-95zM109 790q-12 0 -12 12v66q0 12 12 12h297q12 0 12 -12v-66q0 -12 -12 -12h-297z" />
    <glyph glyph-name="Tcaron" unicode="&#x164;" horiz-adv-x="516" 
d="M501 594q0 -12 -13 -12h-155v-570q0 -12 -12 -12h-125q-12 0 -12 12v570h-177q-12 0 -12 12v95q0 11 12 11h481q13 0 13 -11v-95zM258 855l52 47q17 14 40 14h52q9 0 12 -5.5t-5 -15.5l-108 -123q-8 -8 -15 -12.5t-18 -4.5h-22q-12 0 -18.5 4t-14.5 13l-109 123
q-8 8 -4.5 14.5t12.5 6.5h54q14 0 22.5 -3t17.5 -11z" />
    <glyph glyph-name="Tcommaaccent" unicode="&#x162;" horiz-adv-x="516" 
d="M501 594q0 -12 -13 -12h-155v-570q0 -12 -12 -12h-125q-12 0 -12 12v570h-177q-12 0 -12 12v95q0 11 12 11h481q13 0 13 -11v-95zM241 -198q-29 3 -47.5 18.5t-18.5 41.5q0 30 23.5 52t56.5 22q37 0 59 -23.5t22 -51.5q0 -31 -14 -54t-31.5 -38.5t-32.5 -23.5t-18 -8
q-12 0 -12 11q0 5 7.5 19t5.5 35z" />
    <glyph glyph-name="Ubreve" unicode="&#x16c;" horiz-adv-x="670" 
d="M610 252q1 -144 -68 -213.5t-205 -69.5q-133 0 -205 71.5t-72 211.5v435q0 13 11 13h127q12 0 12 -13v-436q0 -69 34 -107t93 -38q66 0 95 38.5t29 106.5l-3 436q0 13 12 13h127q11 0 11 -13zM249 916q14 0 20.5 -3.5t9.5 -15.5q5 -20 18.5 -33.5t39.5 -13.5q25 0 37 14
t20 38q3 9 10 11.5t20 2.5h52q9 0 13 -4.5t1 -16.5q-16 -70 -58 -100.5t-97 -30.5q-54 0 -97.5 32.5t-58.5 98.5q-6 21 11 21h59z" />
    <glyph glyph-name="Uhungarumlaut" unicode="&#x170;" horiz-adv-x="670" 
d="M610 252q1 -144 -68 -213.5t-205 -69.5q-133 0 -205 71.5t-72 211.5v435q0 13 11 13h127q12 0 12 -13v-436q0 -69 34 -107t93 -38q66 0 95 38.5t29 106.5l-3 436q0 13 12 13h127q11 0 11 -13zM275 778q-9 -9 -17.5 -11.5t-21.5 -2.5h-59q-9 0 -12 4.5t4 15.5l65 104
q5 8 13 12.5t22 4.5h97q13 0 16.5 -7t-4.5 -15zM496 778q-9 -9 -17 -11.5t-21 -2.5h-60q-9 0 -12 4.5t4 15.5l65 104q5 8 13 12.5t23 4.5h97q13 0 16.5 -7t-4.5 -15z" />
    <glyph glyph-name="Umacron" unicode="&#x16a;" horiz-adv-x="670" 
d="M610 252q1 -144 -68 -213.5t-205 -69.5q-133 0 -205 71.5t-72 211.5v435q0 13 11 13h127q12 0 12 -13v-436q0 -69 34 -107t93 -38q66 0 95 38.5t29 106.5l-3 436q0 13 12 13h127q11 0 11 -13zM186 790q-12 0 -12 12v66q0 12 12 12h297q12 0 12 -12v-66q0 -12 -12 -12
h-297z" />
    <glyph glyph-name="Uogonek" unicode="&#x172;" horiz-adv-x="670" 
d="M610 252q1 -179 -110 -245q-17 -24 -28.5 -47.5t-11.5 -43.5q0 -24 13 -35t38 -14q10 -1 13 -4t3 -11v-57q0 -17 -23 -17q-75 0 -115 29t-40 79q0 21 9.5 42.5t23.5 42.5q-10 -1 -22 -1.5t-23 -0.5q-133 0 -205 71.5t-72 211.5v435q0 13 11 13h127q12 0 12 -13v-436
q0 -69 34 -107t93 -38q66 0 95 38.5t29 106.5l-3 436q0 13 12 13h127q11 0 11 -13z" />
    <glyph glyph-name="Uring" unicode="&#x16e;" horiz-adv-x="670" 
d="M610 252q1 -144 -68 -213.5t-205 -69.5q-133 0 -205 71.5t-72 211.5v435q0 13 11 13h127q12 0 12 -13v-436q0 -69 34 -107t93 -38q66 0 95 38.5t29 106.5l-3 436q0 13 12 13h127q11 0 11 -13zM335 759q-22 0 -42.5 7t-36.5 20t-26 32t-10 43q0 22 9 40.5t24.5 32t36 21.5
t44.5 8q22 0 43 -7.5t37 -21t25.5 -32.5t9.5 -42t-9.5 -41.5t-25.5 -32t-36.5 -20.5t-42.5 -7zM335 813q21 0 37 13.5t16 33.5q0 21 -15.5 35t-38.5 14t-38 -14t-15 -34q0 -22 16.5 -35t37.5 -13z" />
    <glyph glyph-name="Utilde" unicode="&#x168;" horiz-adv-x="670" 
d="M610 252q1 -144 -68 -213.5t-205 -69.5q-133 0 -205 71.5t-72 211.5v435q0 13 11 13h127q12 0 12 -13v-436q0 -69 34 -107t93 -38q66 0 95 38.5t29 106.5l-3 436q0 13 12 13h127q11 0 11 -13zM510 897q18 0 18 -22q0 -11 -6 -30t-19.5 -38t-35.5 -33t-55 -14
q-21 0 -41 6.5t-38 15t-34.5 15t-31.5 6.5q-16 0 -25.5 -8.5t-15.5 -23.5q-3 -11 -15 -11h-39q-20 0 -20 22q0 9 5.5 29.5t19 41.5t36.5 36.5t58 15.5q22 0 41 -7t36.5 -15t34.5 -15t37 -7q14 0 22.5 5.5t13.5 20.5q3 10 15 10h39z" />
    <glyph glyph-name="Wacute" unicode="&#x1e82;" horiz-adv-x="860" 
d="M150 0q-11 0 -12 12l-109 675q-2 13 10 13h126q12 0 13 -11l73 -441q1 -6 0 -18.5t-3 -21.5q5 3 8 14l126 334q3 8 12 8h79q8 0 11 -8l119 -331q4 -13 10 -19q-2 6 -3.5 18t-0.5 20l75 445q1 11 14 11h122q14 0 12 -14l-113 -674q-2 -12 -14 -12h-134q-9 0 -12 8
l-128 318l-133 -318q-3 -8 -11 -8h-137zM485 778q-10 -8 -18.5 -11t-21.5 -3h-62q-9 0 -12 5t5 16l83 103q6 8 14 12.5t24 4.5h103q13 0 16.5 -7.5t-4.5 -14.5z" />
    <glyph glyph-name="Wcircumflex" unicode="&#x174;" horiz-adv-x="860" 
d="M150 0q-11 0 -12 12l-109 675q-2 13 10 13h126q12 0 13 -11l73 -441q1 -6 0 -18.5t-3 -21.5q5 3 8 14l126 334q3 8 12 8h79q8 0 11 -8l119 -331q4 -13 10 -19q-2 6 -3.5 18t-0.5 20l75 445q1 11 14 11h122q14 0 12 -14l-113 -674q-2 -12 -14 -12h-134q-9 0 -12 8
l-128 318l-133 -318q-3 -8 -11 -8h-137zM432 824l-52 -46q-9 -8 -18 -11t-22 -3h-52q-9 0 -12 5.5t5 15.5l108 123q8 8 15 12.5t18 4.5h22q12 0 18.5 -4t14.5 -13l109 -123q8 -8 4.5 -14.5t-12.5 -6.5h-54q-14 0 -22.5 3t-17.5 11z" />
    <glyph glyph-name="Wdieresis" unicode="&#x1e84;" horiz-adv-x="860" 
d="M150 0q-11 0 -12 12l-109 675q-2 13 10 13h126q12 0 13 -11l73 -441q1 -6 0 -18.5t-3 -21.5q5 3 8 14l126 334q3 8 12 8h79q8 0 11 -8l119 -331q4 -13 10 -19q-2 6 -3.5 18t-0.5 20l75 445q1 11 14 11h122q14 0 12 -14l-113 -674q-2 -12 -14 -12h-134q-9 0 -12 8
l-128 318l-133 -318q-3 -8 -11 -8h-137zM323 759q-27 0 -50 18.5t-23 48.5q0 28 21.5 47.5t50.5 19.5t51 -19t22 -48t-22 -48t-50 -19zM543 759q-27 0 -50 18.5t-23 48.5q0 28 21.5 47.5t50.5 19.5t51 -19t22 -48t-22 -48t-50 -19z" />
    <glyph glyph-name="Wgrave" unicode="&#x1e80;" horiz-adv-x="860" 
d="M150 0q-11 0 -12 12l-109 675q-2 13 10 13h126q12 0 13 -11l73 -441q1 -6 0 -18.5t-3 -21.5q5 3 8 14l126 334q3 8 12 8h79q8 0 11 -8l119 -331q4 -13 10 -19q-2 6 -3.5 18t-0.5 20l75 445q1 11 14 11h122q14 0 12 -14l-113 -674q-2 -12 -14 -12h-134q-9 0 -12 8
l-128 318l-133 -318q-3 -8 -11 -8h-137zM255 883q-8 7 -4.5 14.5t16.5 7.5h110q17 0 24.5 -4.5t13.5 -12.5l84 -103q8 -10 4.5 -15.5t-12.5 -5.5h-63q-14 0 -22 3t-18 11z" />
    <glyph glyph-name="Ycircumflex" unicode="&#x176;" horiz-adv-x="562" 
d="M553 688l-38.5 -88l-47.5 -104l-55.5 -115l-60.5 -121l2 -249q0 -11 -12 -11h-132q-12 0 -12 11v249l-53.5 115.5l-50 114l-44 106t-35.5 92.5q-2 6 2 9t10 3h136q9 0 11 -8l104 -306l117 306q4 8 12 8h135q6 0 10 -3t2 -9zM280 824l-52 -46q-9 -8 -18 -11t-22 -3h-52
q-9 0 -12 5.5t5 15.5l108 123q8 8 15 12.5t18 4.5h22q12 0 18.5 -4t14.5 -13l109 -123q8 -8 4.5 -14.5t-12.5 -6.5h-54q-14 0 -22.5 3t-17.5 11z" />
    <glyph glyph-name="Ygrave" unicode="&#x1ef2;" horiz-adv-x="562" 
d="M553 688l-38.5 -88l-47.5 -104l-55.5 -115l-60.5 -121l2 -249q0 -11 -12 -11h-132q-12 0 -12 11v249l-53.5 115.5l-50 114l-44 106t-35.5 92.5q-2 6 2 9t10 3h136q9 0 11 -8l104 -306l117 306q4 8 12 8h135q6 0 10 -3t2 -9zM117 883q-8 7 -4.5 14.5t16.5 7.5h110
q17 0 24.5 -4.5t13.5 -12.5l84 -103q8 -10 4.5 -15.5t-12.5 -5.5h-63q-14 0 -22 3t-18 11z" />
    <glyph glyph-name="Zacute" unicode="&#x179;" horiz-adv-x="590" 
d="M548 12q0 -12 -12 -12h-474q-12 0 -12 12v127q0 5 4 9l321 421h-326q-12 0 -12 12v108q0 11 13 11h489q11 0 11 -12v-112q0 -5 -4 -9l-317 -423h308q11 0 11 -11v-121zM325 778q-10 -8 -18.5 -11t-21.5 -3h-62q-9 0 -12 5t5 16l83 103q6 8 14 12.5t24 4.5h103
q13 0 16.5 -7.5t-4.5 -14.5z" />
    <glyph glyph-name="Zdotaccent" unicode="&#x17b;" horiz-adv-x="590" 
d="M548 12q0 -12 -12 -12h-474q-12 0 -12 12v127q0 5 4 9l321 421h-326q-12 0 -12 12v108q0 11 13 11h489q11 0 11 -12v-112q0 -5 -4 -9l-317 -423h308q11 0 11 -11v-121zM294 759q-27 0 -50 18.5t-23 48.5q0 28 21.5 47.5t50.5 19.5t51 -19t22 -48t-22 -48t-50 -19z" />
    <glyph glyph-name="abreve" unicode="&#x103;" horiz-adv-x="513" 
d="M461 12q0 -12 -12 -12h-93q-3 0 -6 5q-18 -9 -48 -15.5t-62 -6.5q-45 0 -83.5 11.5t-66 32.5t-43 49.5t-15.5 62.5q0 44 17 77.5t47 56.5t72 34.5t93 11.5q20 0 42.5 -2t37.5 -4q0 49 -18 78.5t-62 29.5q-27 0 -51 -13t-32 -50h-104q-6 0 -9.5 2t-3.5 10q0 17 10.5 46
t38.5 54q31 26 70 38.5t84 12.5q97 0 145.5 -51.5t49.5 -139.5zM341 217q-13 3 -33.5 5t-37.5 2q-48 0 -75.5 -21.5t-27.5 -59.5q0 -29 24 -48t70 -19q23 0 45.5 6.5t34.5 12.5v122zM174 710q14 0 20.5 -3.5t9.5 -15.5q5 -20 18.5 -33.5t39.5 -13.5q25 0 37 14t20 38
q3 9 10 11.5t20 2.5h52q9 0 13 -4.5t1 -16.5q-16 -70 -58 -100.5t-97 -30.5q-54 0 -97.5 32.5t-58.5 98.5q-6 21 11 21h59z" />
    <glyph glyph-name="amacron" unicode="&#x101;" horiz-adv-x="513" 
d="M461 12q0 -12 -12 -12h-93q-3 0 -6 5q-18 -9 -48 -15.5t-62 -6.5q-45 0 -83.5 11.5t-66 32.5t-43 49.5t-15.5 62.5q0 44 17 77.5t47 56.5t72 34.5t93 11.5q20 0 42.5 -2t37.5 -4q0 49 -18 78.5t-62 29.5q-27 0 -51 -13t-32 -50h-104q-6 0 -9.5 2t-3.5 10q0 17 10.5 46
t38.5 54q31 26 70 38.5t84 12.5q97 0 145.5 -51.5t49.5 -139.5zM341 217q-13 3 -33.5 5t-37.5 2q-48 0 -75.5 -21.5t-27.5 -59.5q0 -29 24 -48t70 -19q23 0 45.5 6.5t34.5 12.5v122zM108 584q-12 0 -12 12v66q0 12 12 12h297q12 0 12 -12v-66q0 -12 -12 -12h-297z" />
    <glyph glyph-name="aogonek" unicode="&#x105;" horiz-adv-x="513" 
d="M461 17q0 -3 -1 -7t-3 -7q-15 -22 -26.5 -44t-11.5 -43q0 -24 13 -35t38 -14q10 -1 13 -4t3 -11v-57q0 -17 -23 -17q-75 0 -115 29t-40 79q0 28 16 57t39 57h-11q-4 0 -4 4q-18 -8 -47 -14.5t-61 -6.5q-45 0 -83.5 11.5t-66 32.5t-43 49.5t-15.5 62.5q0 44 17 77.5
t47 56.5t72 34.5t93 11.5q20 0 42.5 -2t37.5 -4q0 49 -18 78.5t-62 29.5q-27 0 -51 -13t-32 -50h-104q-6 0 -9.5 2t-3.5 10q0 17 10.5 46t38.5 54q31 26 70 38.5t84 12.5q97 0 145.5 -51.5t49.5 -139.5zM341 217q-13 3 -33.5 5t-37.5 2q-48 0 -75.5 -21.5t-27.5 -59.5
q0 -29 24 -48t70 -19q23 0 45.5 6.5t34.5 12.5v122z" />
    <glyph glyph-name="cacute" unicode="&#x107;" horiz-adv-x="429" 
d="M394 27q0 -7 -5 -10q-18 -14 -48.5 -23t-67.5 -9q-56 0 -100.5 18.5t-76.5 50.5t-49 76.5t-17 97.5q0 69 20 123t56 92t86 58t110 20q22 0 45.5 -2.5t34.5 -6.5q6 -2 6 -7v-109q0 -7 -7 -7q-9 0 -26.5 5t-49.5 5q-71 0 -112 -45.5t-41 -122.5q0 -58 32.5 -95t93.5 -37
q26 0 51 6.5t48 17.5q5 2 8.5 0t3.5 -7zM285 572q-10 -8 -18.5 -11t-21.5 -3h-62q-9 0 -12 5t5 16l83 103q6 8 14 12.5t24 4.5h103q13 0 16.5 -7.5t-4.5 -14.5z" />
    <glyph glyph-name="ccaron" unicode="&#x10d;" horiz-adv-x="429" 
d="M394 27q0 -7 -5 -10q-18 -14 -48.5 -23t-67.5 -9q-56 0 -100.5 18.5t-76.5 50.5t-49 76.5t-17 97.5q0 69 20 123t56 92t86 58t110 20q22 0 45.5 -2.5t34.5 -6.5q6 -2 6 -7v-109q0 -7 -7 -7q-9 0 -26.5 5t-49.5 5q-71 0 -112 -45.5t-41 -122.5q0 -58 32.5 -95t93.5 -37
q26 0 51 6.5t48 17.5q5 2 8.5 0t3.5 -7zM255 649l52 47q17 14 40 14h52q9 0 12 -5.5t-5 -15.5l-108 -123q-8 -8 -15 -12.5t-18 -4.5h-22q-12 0 -18.5 4t-14.5 13l-109 123q-8 8 -4.5 14.5t12.5 6.5h54q14 0 22.5 -3t17.5 -11z" />
    <glyph glyph-name="ccircumflex" unicode="&#x109;" horiz-adv-x="429" 
d="M394 27q0 -7 -5 -10q-18 -14 -48.5 -23t-67.5 -9q-56 0 -100.5 18.5t-76.5 50.5t-49 76.5t-17 97.5q0 69 20 123t56 92t86 58t110 20q22 0 45.5 -2.5t34.5 -6.5q6 -2 6 -7v-109q0 -7 -7 -7q-9 0 -26.5 5t-49.5 5q-71 0 -112 -45.5t-41 -122.5q0 -58 32.5 -95t93.5 -37
q26 0 51 6.5t48 17.5q5 2 8.5 0t3.5 -7zM254 618l-52 -46q-9 -8 -18 -11t-22 -3h-52q-9 0 -12 5.5t5 15.5l108 123q8 8 15 12.5t18 4.5h22q12 0 18.5 -4t14.5 -13l109 -123q8 -8 4.5 -14.5t-12.5 -6.5h-54q-14 0 -22.5 3t-17.5 11z" />
    <glyph glyph-name="cdotaccent" unicode="&#x10b;" horiz-adv-x="429" 
d="M394 27q0 -7 -5 -10q-18 -14 -48.5 -23t-67.5 -9q-56 0 -100.5 18.5t-76.5 50.5t-49 76.5t-17 97.5q0 69 20 123t56 92t86 58t110 20q22 0 45.5 -2.5t34.5 -6.5q6 -2 6 -7v-109q0 -7 -7 -7q-9 0 -26.5 5t-49.5 5q-71 0 -112 -45.5t-41 -122.5q0 -58 32.5 -95t93.5 -37
q26 0 51 6.5t48 17.5q5 2 8.5 0t3.5 -7zM265 553q-27 0 -50 18.5t-23 48.5q0 28 21.5 47.5t50.5 19.5t51 -19t22 -48t-22 -48t-50 -19z" />
    <glyph glyph-name="dcaron" unicode="&#x10f;" horiz-adv-x="711" 
d="M377 0q-3 0 -6 3q-20 -8 -49.5 -14.5t-62.5 -6.5q-53 0 -95 18t-72 50t-46 75.5t-16 93.5q0 64 18.5 115t52 86t79 53.5t99.5 18.5q23 0 44.5 -3l41.5 -6v205q0 12 12 12h110q12 0 12 -12v-676q0 -12 -12 -12h-110zM365 353q-13 5 -37.5 9t-45.5 4q-60 0 -92.5 -41
t-32.5 -104q0 -54 30.5 -87t81.5 -33q26 0 52.5 6.5t43.5 14.5v231zM606 578q-29 3 -48.5 19.5t-19.5 43.5q0 32 24 54.5t59 22.5q19 0 34.5 -7t26.5 -18t17 -25t6 -29q0 -32 -14.5 -56t-32.5 -40.5t-34 -25t-19 -8.5q-12 0 -12 12q0 5 7.5 19.5t5.5 37.5z" />
    <glyph glyph-name="dcroat" unicode="&#x111;" horiz-adv-x="572" 
d="M499 551v-539q0 -12 -12 -12h-110q-3 0 -6 3q-20 -8 -49.5 -14.5t-62.5 -6.5q-53 0 -95 18t-72 50t-46 75.5t-16 93.5q0 64 18.5 115t52 86t79 53.5t99.5 18.5q23 0 44.5 -3l41.5 -6v68h-103q-12 0 -12 12v66q0 12 12 12h103v47q0 12 12 12h110q12 0 12 -12v-47h60
q12 0 12 -12v-66q0 -12 -12 -12h-60zM365 353q-13 5 -37.5 9t-45.5 4q-60 0 -92.5 -41t-32.5 -104q0 -54 30.5 -87t81.5 -33q26 0 52.5 6.5t43.5 14.5v231z" />
    <glyph glyph-name="ebreve" unicode="&#x115;" horiz-adv-x="474" 
d="M153 297q13 -2 34.5 -4t40.5 -2q53 0 81.5 13.5t28.5 45.5q0 24 -19 41t-53 17q-44 0 -76 -28.5t-37 -82.5zM154 206q3 -22 12.5 -41.5t25 -34.5t38.5 -23.5t54 -8.5q34 0 64.5 8.5t62.5 23.5q4 2 8 0t4 -7l5 -90q0 -4 -3 -7q-22 -16 -63 -29t-86 -13q-53 0 -98 17
t-78 51t-51.5 85t-18.5 119q0 49 15.5 96.5t46 84.5t77 59.5t108.5 22.5q43 0 74.5 -14t52.5 -37t31.5 -52.5t10.5 -59.5q0 -70 -50.5 -113.5t-147.5 -43.5q-24 0 -50 2t-44 5zM173 710q14 0 20.5 -3.5t9.5 -15.5q5 -20 18.5 -33.5t39.5 -13.5q25 0 37 14t20 38q3 9 10 11.5
t20 2.5h52q9 0 13 -4.5t1 -16.5q-16 -70 -58 -100.5t-97 -30.5q-54 0 -97.5 32.5t-58.5 98.5q-6 21 11 21h59z" />
    <glyph glyph-name="ecaron" unicode="&#x11b;" horiz-adv-x="474" 
d="M153 297q13 -2 34.5 -4t40.5 -2q53 0 81.5 13.5t28.5 45.5q0 24 -19 41t-53 17q-44 0 -76 -28.5t-37 -82.5zM154 206q3 -22 12.5 -41.5t25 -34.5t38.5 -23.5t54 -8.5q34 0 64.5 8.5t62.5 23.5q4 2 8 0t4 -7l5 -90q0 -4 -3 -7q-22 -16 -63 -29t-86 -13q-53 0 -98 17
t-78 51t-51.5 85t-18.5 119q0 49 15.5 96.5t46 84.5t77 59.5t108.5 22.5q43 0 74.5 -14t52.5 -37t31.5 -52.5t10.5 -59.5q0 -70 -50.5 -113.5t-147.5 -43.5q-24 0 -50 2t-44 5zM259 649l52 47q17 14 40 14h52q9 0 12 -5.5t-5 -15.5l-108 -123q-8 -8 -15 -12.5t-18 -4.5h-22
q-12 0 -18.5 4t-14.5 13l-109 123q-8 8 -4.5 14.5t12.5 6.5h54q14 0 22.5 -3t17.5 -11z" />
    <glyph glyph-name="edotaccent" unicode="&#x117;" horiz-adv-x="474" 
d="M153 297q13 -2 34.5 -4t40.5 -2q53 0 81.5 13.5t28.5 45.5q0 24 -19 41t-53 17q-44 0 -76 -28.5t-37 -82.5zM154 206q3 -22 12.5 -41.5t25 -34.5t38.5 -23.5t54 -8.5q34 0 64.5 8.5t62.5 23.5q4 2 8 0t4 -7l5 -90q0 -4 -3 -7q-22 -16 -63 -29t-86 -13q-53 0 -98 17
t-78 51t-51.5 85t-18.5 119q0 49 15.5 96.5t46 84.5t77 59.5t108.5 22.5q43 0 74.5 -14t52.5 -37t31.5 -52.5t10.5 -59.5q0 -70 -50.5 -113.5t-147.5 -43.5q-24 0 -50 2t-44 5zM259 553q-27 0 -50 18.5t-23 48.5q0 28 21.5 47.5t50.5 19.5t51 -19t22 -48t-22 -48t-50 -19z
" />
    <glyph glyph-name="emacron" unicode="&#x113;" horiz-adv-x="474" 
d="M153 297q13 -2 34.5 -4t40.5 -2q53 0 81.5 13.5t28.5 45.5q0 24 -19 41t-53 17q-44 0 -76 -28.5t-37 -82.5zM154 206q3 -22 12.5 -41.5t25 -34.5t38.5 -23.5t54 -8.5q34 0 64.5 8.5t62.5 23.5q4 2 8 0t4 -7l5 -90q0 -4 -3 -7q-22 -16 -63 -29t-86 -13q-53 0 -98 17
t-78 51t-51.5 85t-18.5 119q0 49 15.5 96.5t46 84.5t77 59.5t108.5 22.5q43 0 74.5 -14t52.5 -37t31.5 -52.5t10.5 -59.5q0 -70 -50.5 -113.5t-147.5 -43.5q-24 0 -50 2t-44 5zM105 584q-12 0 -12 12v66q0 12 12 12h297q12 0 12 -12v-66q0 -12 -12 -12h-297z" />
    <glyph glyph-name="eogonek" unicode="&#x119;" horiz-adv-x="474" 
d="M153 297q13 -2 34.5 -4t40.5 -2q53 0 81.5 13.5t28.5 45.5q0 24 -19 41t-53 17q-44 0 -76 -28.5t-37 -82.5zM284 98q34 0 64.5 8.5t62.5 23.5q4 2 8 0t4 -7l5 -89q0 -6 -5 -14q-23 -33 -35.5 -58t-12.5 -46q0 -24 13.5 -35t37.5 -14q10 -1 13 -4t3 -11v-57q0 -17 -23 -17
q-75 0 -115 29t-40 79q0 25 12.5 50t31.5 50q-8 -1 -16 -1.5t-16 -0.5q-53 0 -98 17t-78 51t-51.5 85t-18.5 119q0 49 15.5 96.5t46 84.5t77 59.5t108.5 22.5q43 0 74.5 -14t52.5 -37t31.5 -52.5t10.5 -59.5q0 -70 -50.5 -113.5t-147.5 -43.5q-24 0 -50 2t-44 5
q3 -22 12.5 -41.5t25 -34.5t38.5 -23.5t54 -8.5z" />
    <glyph glyph-name="gbreve" unicode="&#x11f;" horiz-adv-x="555" 
d="M366 356q-20 11 -44 15.5t-47 4.5q-52 0 -84.5 -35t-32.5 -95q0 -57 29 -94t85 -37q26 0 51.5 7t42.5 20v214zM500 72q0 -81 -14 -137t-41 -91t-67 -51t-91 -16q-72 0 -104 13q-9 3 -9 12v100q0 12 14 12q11 0 30.5 -5t57.5 -5q27 0 44 8.5t27 23.5t14 36t5 45
q-23 -9 -51.5 -14.5t-54.5 -5.5q-51 0 -93.5 17t-73 49.5t-47 79t-16.5 106.5q0 58 19.5 104.5t53.5 79.5t79 50.5t95 17.5q31 0 57 -4.5t44 -12.5h110q12 0 12 -12v-400zM204 710q14 0 20.5 -3.5t9.5 -15.5q5 -20 18.5 -33.5t39.5 -13.5q25 0 37 14t20 38q3 9 10 11.5
t20 2.5h52q9 0 13 -4.5t1 -16.5q-16 -70 -58 -100.5t-97 -30.5q-54 0 -97.5 32.5t-58.5 98.5q-6 21 11 21h59z" />
    <glyph glyph-name="gcircumflex" unicode="&#x11d;" horiz-adv-x="555" 
d="M366 356q-20 11 -44 15.5t-47 4.5q-52 0 -84.5 -35t-32.5 -95q0 -57 29 -94t85 -37q26 0 51.5 7t42.5 20v214zM500 72q0 -81 -14 -137t-41 -91t-67 -51t-91 -16q-72 0 -104 13q-9 3 -9 12v100q0 12 14 12q11 0 30.5 -5t57.5 -5q27 0 44 8.5t27 23.5t14 36t5 45
q-23 -9 -51.5 -14.5t-54.5 -5.5q-51 0 -93.5 17t-73 49.5t-47 79t-16.5 106.5q0 58 19.5 104.5t53.5 79.5t79 50.5t95 17.5q31 0 57 -4.5t44 -12.5h110q12 0 12 -12v-400zM289 618l-52 -46q-9 -8 -18 -11t-22 -3h-52q-9 0 -12 5.5t5 15.5l108 123q8 8 15 12.5t18 4.5h22
q12 0 18.5 -4t14.5 -13l109 -123q8 -8 4.5 -14.5t-12.5 -6.5h-54q-14 0 -22.5 3t-17.5 11z" />
    <glyph glyph-name="gcommaaccent" unicode="&#x123;" horiz-adv-x="555" 
d="M366 356q-20 11 -44 15.5t-47 4.5q-52 0 -84.5 -35t-32.5 -95q0 -57 29 -94t85 -37q26 0 51.5 7t42.5 20v214zM500 72q0 -81 -14 -137t-41 -91t-67 -51t-91 -16q-72 0 -104 13q-9 3 -9 12v100q0 12 14 12q11 0 30.5 -5t57.5 -5q27 0 44 8.5t27 23.5t14 36t5 45
q-23 -9 -51.5 -14.5t-54.5 -5.5q-51 0 -93.5 17t-73 49.5t-47 79t-16.5 106.5q0 58 19.5 104.5t53.5 79.5t79 50.5t95 17.5q31 0 57 -4.5t44 -12.5h110q12 0 12 -12v-400zM309 695q29 -3 48.5 -19.5t19.5 -43.5q0 -32 -24 -54.5t-59 -22.5q-19 0 -34.5 7t-26.5 18t-17 25
t-6 29q0 32 14.5 56t32.5 40.5t34 25t19 8.5q12 0 12 -12q0 -5 -7.5 -19.5t-5.5 -37.5z" />
    <glyph glyph-name="gdotaccent" unicode="&#x121;" horiz-adv-x="555" 
d="M366 356q-20 11 -44 15.5t-47 4.5q-52 0 -84.5 -35t-32.5 -95q0 -57 29 -94t85 -37q26 0 51.5 7t42.5 20v214zM500 72q0 -81 -14 -137t-41 -91t-67 -51t-91 -16q-72 0 -104 13q-9 3 -9 12v100q0 12 14 12q11 0 30.5 -5t57.5 -5q27 0 44 8.5t27 23.5t14 36t5 45
q-23 -9 -51.5 -14.5t-54.5 -5.5q-51 0 -93.5 17t-73 49.5t-47 79t-16.5 106.5q0 58 19.5 104.5t53.5 79.5t79 50.5t95 17.5q31 0 57 -4.5t44 -12.5h110q12 0 12 -12v-400zM284 553q-27 0 -50 18.5t-23 48.5q0 28 21.5 47.5t50.5 19.5t51 -19t22 -48t-22 -48t-50 -19z" />
    <glyph glyph-name="hbar" unicode="&#x127;" horiz-adv-x="598" 
d="M207 551v-94q60 62 147 62q53 0 89.5 -20t59 -53.5t33 -78.5t10.5 -96l3 -260q0 -11 -12 -11h-114q-11 0 -11 12l-3 262q-1 59 -21.5 91t-61.5 32q-35 0 -66 -17t-51 -49v-319q0 -12 -12 -12h-110q-13 0 -13 12l-1 539h-66q-12 0 -12 12v66q0 12 12 12h66v55q0 12 12 12
h109q12 0 12 -12v-55h98q12 0 12 -12v-66q0 -12 -12 -12h-97z" />
    <glyph glyph-name="hcircumflex" unicode="&#x125;" horiz-adv-x="579" 
d="M578 11q0 -11 -12 -11h-114q-10 0 -10 12l-3 262q-2 59 -22 91t-62 32q-35 0 -65.5 -17t-51.5 -49v-319q0 -12 -12 -12h-109q-13 0 -13 12l-1 684q0 12 12 12h109q12 0 12 -12l1 -239q60 62 146 62q53 0 89.5 -20t59.5 -53.5t33 -78.5t11 -96zM171 794l-52 -46
q-9 -8 -18 -11t-22 -3h-52q-9 0 -12 5.5t5 15.5l108 123q8 8 15 12.5t18 4.5h22q12 0 18.5 -4t14.5 -13l109 -123q8 -8 4.5 -14.5t-12.5 -6.5h-54q-14 0 -22.5 3t-17.5 11z" />
    <glyph glyph-name="ibreve" unicode="&#x12d;" horiz-adv-x="251" 
d="M46 710q14 0 20.5 -3.5t9.5 -15.5q5 -20 18.5 -33.5t39.5 -13.5q25 0 37 14t20 38q3 9 10 11.5t20 2.5h52q9 0 13 -4.5t1 -16.5q-16 -70 -58 -100.5t-97 -30.5q-54 0 -97.5 32.5t-58.5 98.5q-6 21 11 21h59zM184 461q12 0 12 -13v-437q0 -11 -13 -11h-116q-12 0 -12 12
v436q0 13 12 13h117z" />
    <glyph glyph-name="imacron" unicode="&#x12b;" horiz-adv-x="251" 
d="M-15 584q-12 0 -12 12v66q0 12 12 12h297q12 0 12 -12v-66q0 -12 -12 -12h-297zM184 461q12 0 12 -13v-437q0 -11 -13 -11h-116q-12 0 -12 12v436q0 13 12 13h117z" />
    <glyph glyph-name="iogonek" unicode="&#x12f;" horiz-adv-x="251" 
d="M193 5q-18 -23 -29 -45.5t-11 -43.5q0 -24 13.5 -35t37.5 -14q10 -1 13 -4t3 -11v-57q0 -17 -23 -17q-75 0 -115 29t-40 79q0 28 16.5 57t39.5 57h-34q-9 0 -9 11v437q0 13 12 13h117q12 0 12 -13v-432q0 -8 -3 -11zM126 551q-15 0 -29.5 5.5t-26 15t-18.5 23.5t-7 31
q0 31 23.5 52.5t56.5 21.5q16 0 30.5 -5.5t25.5 -15.5t18 -24t7 -30q0 -32 -24.5 -53t-55.5 -21z" />
    <glyph glyph-name="itilde" unicode="&#x129;" horiz-adv-x="251" 
d="M302 691q18 0 18 -22q0 -11 -6 -30t-19.5 -38t-35.5 -33t-55 -14q-21 0 -41 6.5t-38 15t-34.5 15t-31.5 6.5q-16 0 -25.5 -8.5t-15.5 -23.5q-3 -11 -15 -11h-39q-20 0 -20 22q0 9 5.5 29.5t19 41.5t36.5 36.5t58 15.5q22 0 41 -7t36.5 -15t34.5 -15t37 -7q14 0 22.5 5.5
t13.5 20.5q3 10 15 10h39zM184 461q12 0 12 -13v-437q0 -11 -13 -11h-116q-12 0 -12 12v436q0 13 12 13h117z" />
    <glyph glyph-name="jcircumflex" unicode="&#x135;" horiz-adv-x="269" 
d="M200 461q12 0 12 -13l3 -426q0 -54 -11.5 -98.5t-36 -77t-62 -50.5t-89.5 -18q-29 0 -57 3.5t-44 9.5q-9 3 -9 12v100q0 13 14 13q8 0 30.5 -5.5t54.5 -5.5q37 0 54 23.5t17 79.5l-5 441q0 12 11 12h118zM139 618l-52 -46q-9 -8 -18 -11t-22 -3h-52q-9 0 -12 5.5t5 15.5
l108 123q8 8 15 12.5t18 4.5h22q12 0 18.5 -4t14.5 -13l109 -123q8 -8 4.5 -14.5t-12.5 -6.5h-54q-14 0 -22.5 3t-17.5 11z" />
    <glyph glyph-name="kcommaaccent" unicode="&#x137;" horiz-adv-x="506" 
d="M350 0q-5 0 -8 4l-158 180v-172q0 -12 -14 -12h-104q-11 0 -11 12l-1 678q0 10 11 10h109q6 0 9 -3.5t3 -8.5l-2 -373l160 198q4 7 11 7h123q7 0 9 -4.5t0 -7.5l-202 -254l214 -234q6 -7 2.5 -13.5t-11.5 -6.5h-140zM245 -198q-29 3 -47.5 18.5t-18.5 41.5q0 30 23.5 52
t56.5 22q37 0 59 -23.5t22 -51.5q0 -31 -14 -54t-31.5 -38.5t-32.5 -23.5t-18 -8q-12 0 -12 11q0 5 7.5 19t5.5 35z" />
    <glyph glyph-name="lacute" unicode="&#x13a;" horiz-adv-x="248" 
d="M193 13q0 -13 -12 -13h-115q-11 0 -11 13v698q0 12 11 12h115q12 0 12 -13v-697zM172 772q-10 -8 -18.5 -11t-21.5 -3h-62q-9 0 -12 5t5 16l83 103q6 8 14 12.5t24 4.5h103q13 0 16.5 -7.5t-4.5 -14.5z" />
    <glyph glyph-name="lcaron" unicode="&#x13e;" horiz-adv-x="407" 
d="M193 13q0 -13 -12 -13h-115q-11 0 -11 13v698q0 12 11 12h115q12 0 12 -13v-697zM302 578q-29 3 -48.5 19.5t-19.5 43.5q0 32 24 54.5t59 22.5q19 0 34.5 -7t26.5 -18t17 -25t6 -29q0 -32 -14.5 -56t-32.5 -40.5t-34 -25t-19 -8.5q-12 0 -12 12q0 5 7.5 19.5t5.5 37.5z
" />
    <glyph glyph-name="lcommaaccent" unicode="&#x13c;" horiz-adv-x="248" 
d="M193 13q0 -13 -12 -13h-115q-11 0 -11 13v698q0 12 11 12h115q12 0 12 -13v-697zM110 -198q-29 3 -47.5 18.5t-18.5 41.5q0 30 23.5 52t56.5 22q37 0 59 -23.5t22 -51.5q0 -31 -14 -54t-31.5 -38.5t-32.5 -23.5t-18 -8q-12 0 -12 11q0 5 7.5 19t5.5 35z" />
    <glyph glyph-name="ldot" unicode="&#x140;" horiz-adv-x="416" 
d="M193 13q0 -13 -12 -13h-115q-11 0 -11 13v698q0 12 11 12h115q12 0 12 -13v-697zM318 284q-15 0 -30 5.5t-27 16t-19.5 24.5t-7.5 32q0 32 24 54.5t59 22.5q33 0 58.5 -22t25.5 -56q0 -17 -7 -31t-18.5 -24t-26.5 -16t-31 -6z" />
    <glyph glyph-name="nacute" unicode="&#x144;" 
d="M308 379q-35 0 -66.5 -20.5t-51.5 -52.5v-294q0 -12 -12 -12h-110q-13 0 -13 12v470q0 12 12 12h109q12 0 12 -12v-47q32 29 69.5 48t81.5 19q52 0 89 -20t60 -54.5t34 -79.5t11 -94l1 -242q0 -12 -12 -12h-113q-10 0 -10 12l-3 246q-1 59 -23 90t-65 31zM317 572
q-10 -8 -18.5 -11t-21.5 -3h-62q-9 0 -12 5t5 16l83 103q6 8 14 12.5t24 4.5h103q13 0 16.5 -7.5t-4.5 -14.5z" />
    <glyph glyph-name="ncaron" unicode="&#x148;" 
d="M308 379q-35 0 -66.5 -20.5t-51.5 -52.5v-294q0 -12 -12 -12h-110q-13 0 -13 12v470q0 12 12 12h109q12 0 12 -12v-47q32 29 69.5 48t81.5 19q52 0 89 -20t60 -54.5t34 -79.5t11 -94l1 -242q0 -12 -12 -12h-113q-10 0 -10 12l-3 246q-1 59 -23 90t-65 31zM292 649l52 47
q17 14 40 14h52q9 0 12 -5.5t-5 -15.5l-108 -123q-8 -8 -15 -12.5t-18 -4.5h-22q-12 0 -18.5 4t-14.5 13l-109 123q-8 8 -4.5 14.5t12.5 6.5h54q14 0 22.5 -3t17.5 -11z" />
    <glyph glyph-name="ncommaaccent" unicode="&#x146;" 
d="M308 379q-35 0 -66.5 -20.5t-51.5 -52.5v-294q0 -12 -12 -12h-110q-13 0 -13 12v470q0 12 12 12h109q12 0 12 -12v-47q32 29 69.5 48t81.5 19q52 0 89 -20t60 -54.5t34 -79.5t11 -94l1 -242q0 -12 -12 -12h-113q-10 0 -10 12l-3 246q-1 59 -23 90t-65 31zM275 -198
q-29 3 -47.5 18.5t-18.5 41.5q0 30 23.5 52t56.5 22q37 0 59 -23.5t22 -51.5q0 -31 -14 -54t-31.5 -38.5t-32.5 -23.5t-18 -8q-12 0 -12 11q0 5 7.5 19t5.5 35z" />
    <glyph glyph-name="obreve" unicode="&#x14f;" horiz-adv-x="538" 
d="M508 247q0 -53 -17 -100.5t-47 -83.5t-72 -57t-92 -21q-59 0 -105.5 19.5t-78.5 54t-49 82.5t-17 105q0 58 19 108t53 87t80.5 57.5t101.5 20.5q52 0 93.5 -22t70.5 -59.5t44.5 -86.5t15.5 -104zM380 250q0 63 -27 98t-79 35q-26 0 -46.5 -10.5t-35.5 -29t-23 -43.5
t-8 -55q0 -63 32.5 -97.5t79.5 -34.5q25 0 45 11.5t33.5 30.5t21 44t7.5 51zM186 710q14 0 20.5 -3.5t9.5 -15.5q5 -20 18.5 -33.5t39.5 -13.5q25 0 37 14t20 38q3 9 10 11.5t20 2.5h52q9 0 13 -4.5t1 -16.5q-16 -70 -58 -100.5t-97 -30.5q-54 0 -97.5 32.5t-58.5 98.5
q-6 21 11 21h59z" />
    <glyph glyph-name="ohungarumlaut" unicode="&#x151;" horiz-adv-x="538" 
d="M508 247q0 -53 -17 -100.5t-47 -83.5t-72 -57t-92 -21q-59 0 -105.5 19.5t-78.5 54t-49 82.5t-17 105q0 58 19 108t53 87t80.5 57.5t101.5 20.5q52 0 93.5 -22t70.5 -59.5t44.5 -86.5t15.5 -104zM380 250q0 63 -27 98t-79 35q-26 0 -46.5 -10.5t-35.5 -29t-23 -43.5
t-8 -55q0 -63 32.5 -97.5t79.5 -34.5q25 0 45 11.5t33.5 30.5t21 44t7.5 51zM212 572q-9 -9 -17.5 -11.5t-21.5 -2.5h-59q-9 0 -12 4.5t4 15.5l65 104q5 8 13 12.5t22 4.5h97q13 0 16.5 -7t-4.5 -15zM433 572q-9 -9 -17 -11.5t-21 -2.5h-60q-9 0 -12 4.5t4 15.5l65 104
q5 8 13 12.5t23 4.5h97q13 0 16.5 -7t-4.5 -15z" />
    <glyph glyph-name="omacron" unicode="&#x14d;" horiz-adv-x="538" 
d="M508 247q0 -53 -17 -100.5t-47 -83.5t-72 -57t-92 -21q-59 0 -105.5 19.5t-78.5 54t-49 82.5t-17 105q0 58 19 108t53 87t80.5 57.5t101.5 20.5q52 0 93.5 -22t70.5 -59.5t44.5 -86.5t15.5 -104zM380 250q0 63 -27 98t-79 35q-26 0 -46.5 -10.5t-35.5 -29t-23 -43.5
t-8 -55q0 -63 32.5 -97.5t79.5 -34.5q25 0 45 11.5t33.5 30.5t21 44t7.5 51zM124 584q-12 0 -12 12v66q0 12 12 12h297q12 0 12 -12v-66q0 -12 -12 -12h-297z" />
    <glyph glyph-name="racute" unicode="&#x155;" horiz-adv-x="363" 
d="M355 383q0 -7 -3.5 -8.5t-8.5 0.5q-9 5 -19 6.5t-21 1.5q-36 1 -68.5 -23t-46.5 -64v-284q0 -12 -11 -12h-108q-14 0 -14 12l1 497q0 11 12 11h110q13 0 13 -10l-2 -61q26 35 56 52.5t67 17.5q19 0 30.5 -5t11.5 -11zM250 572q-10 -8 -18.5 -11t-21.5 -3h-62q-9 0 -12 5
t5 16l83 103q6 8 14 12.5t24 4.5h103q13 0 16.5 -7.5t-4.5 -14.5z" />
    <glyph glyph-name="rcaron" unicode="&#x159;" horiz-adv-x="363" 
d="M357 383q0 -7 -3.5 -8.5t-8.5 0.5q-9 5 -19 6.5t-21 1.5q-36 1 -68.5 -23t-46.5 -64v-284q0 -12 -11 -12h-108q-14 0 -14 12l1 497q0 11 12 11h110q13 0 13 -10l-2 -61q26 35 56 52.5t67 17.5q19 0 30.5 -5t11.5 -11zM214 649l52 47q17 14 40 14h52q9 0 12 -5.5t-5 -15.5
l-108 -123q-8 -8 -15 -12.5t-18 -4.5h-22q-12 0 -18.5 4t-14.5 13l-109 123q-8 8 -4.5 14.5t12.5 6.5h54q14 0 22.5 -3t17.5 -11z" />
    <glyph glyph-name="rcommaaccent" unicode="&#x157;" horiz-adv-x="363" 
d="M355 383q0 -7 -3.5 -8.5t-8.5 0.5q-9 5 -19 6.5t-21 1.5q-36 1 -68.5 -23t-46.5 -64v-284q0 -12 -11 -12h-108q-14 0 -14 12l1 497q0 11 12 11h110q13 0 13 -10l-2 -61q26 35 56 52.5t67 17.5q19 0 30.5 -5t11.5 -11zM111 -198q-29 3 -47.5 18.5t-18.5 41.5q0 30 23.5 52
t56.5 22q37 0 59 -23.5t22 -51.5q0 -31 -14 -54t-31.5 -38.5t-32.5 -23.5t-18 -8q-12 0 -12 11q0 5 7.5 19t5.5 35z" />
    <glyph glyph-name="sacute" unicode="&#x15b;" horiz-adv-x="457" 
d="M32 356q0 35 16 65t44 52t66 34t82 11q50 0 100 -20t84 -52q5 -6 0 -11l-53 -64q-6 -7 -12 -1q-26 20 -59.5 35t-68.5 15q-29 0 -49 -15.5t-20 -37.5q0 -21 19.5 -32.5t48.5 -20.5l63.5 -19t63.5 -27t48.5 -45t19.5 -73q0 -37 -15.5 -67.5t-42.5 -52t-64.5 -33.5
t-80.5 -12q-48 0 -96.5 19t-79.5 48q-6 6 0 12l54 62q6 6 12 0q21 -17 50.5 -28t65.5 -12q30 0 47.5 15t17.5 38q1 22 -16 37t-68 28q-92 22 -134.5 57t-42.5 95zM265 572q-10 -8 -18.5 -11t-21.5 -3h-62q-9 0 -12 5t5 16l83 103q6 8 14 12.5t24 4.5h103q13 0 16.5 -7.5
t-4.5 -14.5z" />
    <glyph glyph-name="scedilla" unicode="&#x15f;" horiz-adv-x="457" 
d="M32 356q0 35 16 65t44 52t66 34t82 11q50 0 100 -20t84 -52q5 -6 0 -11l-53 -64q-6 -7 -12 -1q-26 20 -59.5 35t-68.5 15q-29 0 -49 -15.5t-20 -37.5q0 -21 19.5 -32.5t48.5 -20.5l63.5 -19t63.5 -27t48.5 -45t19.5 -73q0 -37 -15.5 -67.5t-42.5 -52t-64.5 -33.5
t-80.5 -12q-48 0 -96.5 19t-79.5 48q-6 6 0 12l54 62q6 6 12 0q21 -17 50.5 -28t65.5 -12q30 0 47.5 15t17.5 38q1 22 -16 37t-68 28q-92 22 -134.5 57t-42.5 95zM199 -187q-10 -8 -18.5 -11t-21.5 -3h-62q-9 0 -12 5t5 16l83 103q6 8 14 12.5t24 4.5h103q13 0 16.5 -7.5
t-4.5 -14.5z" />
    <glyph glyph-name="scircumflex" unicode="&#x15d;" horiz-adv-x="457" 
d="M32 356q0 35 16 65t44 52t66 34t82 11q50 0 100 -20t84 -52q5 -6 0 -11l-53 -64q-6 -7 -12 -1q-26 20 -59.5 35t-68.5 15q-29 0 -49 -15.5t-20 -37.5q0 -21 19.5 -32.5t48.5 -20.5l63.5 -19t63.5 -27t48.5 -45t19.5 -73q0 -37 -15.5 -67.5t-42.5 -52t-64.5 -33.5
t-80.5 -12q-48 0 -96.5 19t-79.5 48q-6 6 0 12l54 62q6 6 12 0q21 -17 50.5 -28t65.5 -12q30 0 47.5 15t17.5 38q1 22 -16 37t-68 28q-92 22 -134.5 57t-42.5 95zM235 618l-52 -46q-9 -8 -18 -11t-22 -3h-52q-9 0 -12 5.5t5 15.5l108 123q8 8 15 12.5t18 4.5h22
q12 0 18.5 -4t14.5 -13l109 -123q8 -8 4.5 -14.5t-12.5 -6.5h-54q-14 0 -22.5 3t-17.5 11z" />
    <glyph glyph-name="scommaaccent" unicode="&#x219;" horiz-adv-x="457" 
d="M32 356q0 35 16 65t44 52t66 34t82 11q50 0 100 -20t84 -52q5 -6 0 -11l-53 -64q-6 -7 -12 -1q-26 20 -59.5 35t-68.5 15q-29 0 -49 -15.5t-20 -37.5q0 -21 19.5 -32.5t48.5 -20.5l63.5 -19t63.5 -27t48.5 -45t19.5 -73q0 -37 -15.5 -67.5t-42.5 -52t-64.5 -33.5
t-80.5 -12q-48 0 -96.5 19t-79.5 48q-6 6 0 12l54 62q6 6 12 0q21 -17 50.5 -28t65.5 -12q30 0 47.5 15t17.5 38q1 22 -16 37t-68 28q-92 22 -134.5 57t-42.5 95zM210 -198q-29 3 -47.5 18.5t-18.5 41.5q0 30 23.5 52t56.5 22q37 0 59 -23.5t22 -51.5q0 -31 -14 -54
t-31.5 -38.5t-32.5 -23.5t-18 -8q-12 0 -12 11q0 5 7.5 19t5.5 35z" />
    <glyph glyph-name="tbar" unicode="&#x167;" horiz-adv-x="364" 
d="M238 206v-193q0 -13 -12 -13h-115q-12 0 -12 13v193h-70q-12 0 -12 12v66q0 12 12 12h70l1 95l-74 1q-11 0 -11 11l-3 76q0 13 13 13l74 1v97q0 13 12 13h115q12 0 12 -13v-96l104 2q11 0 11 -12l-3 -84q-1 -6 -3 -9t-8 -3h-100l-1 -92h88q12 0 12 -12v-66q0 -12 -12 -12
h-88z" />
    <glyph glyph-name="tcaron" unicode="&#x165;" horiz-adv-x="458" 
d="M342 496q11 0 11 -12l-3 -84q-1 -6 -3 -9t-8 -3h-100l-1 -375q0 -13 -12 -13h-115q-12 0 -12 13l1 378l-74 1q-11 0 -11 11l-3 76q0 13 13 13l74 1v97q0 13 12 13h115q12 0 12 -13v-96zM354 578q-29 3 -48.5 19.5t-19.5 43.5q0 32 24 54.5t59 22.5q19 0 34.5 -7t26.5 -18
t17 -25t6 -29q0 -32 -14.5 -56t-32.5 -40.5t-34 -25t-19 -8.5q-12 0 -12 12q0 5 7.5 19.5t5.5 37.5z" />
    <glyph glyph-name="tcommaaccent" unicode="&#x163;" horiz-adv-x="364" 
d="M342 496q11 0 11 -12l-3 -84q-1 -6 -3 -9t-8 -3h-100l-1 -375q0 -13 -12 -13h-115q-12 0 -12 13l1 378l-74 1q-11 0 -11 11l-3 76q0 13 13 13l74 1v97q0 13 12 13h115q12 0 12 -13v-96zM155 -198q-29 3 -47.5 18.5t-18.5 41.5q0 30 23.5 52t56.5 22q37 0 59 -23.5
t22 -51.5q0 -31 -14 -54t-31.5 -38.5t-32.5 -23.5t-18 -8q-12 0 -12 11q0 5 7.5 19t5.5 35z" />
    <glyph glyph-name="ubreve" unicode="&#x16d;" 
d="M49 482q0 12 13 12h112q10 0 10 -12l4 -253q1 -60 23 -86.5t66 -26.5q42 0 72 19t45 48v299q0 12 12 12h110q13 0 13 -12v-470q0 -12 -12 -12h-109q-12 0 -12 12v43q-30 -30 -69.5 -46t-82.5 -16q-49 0 -85 17.5t-60 49t-36 75.5t-12 97zM209 710q14 0 20.5 -3.5
t9.5 -15.5q5 -20 18.5 -33.5t39.5 -13.5q25 0 37 14t20 38q3 9 10 11.5t20 2.5h52q9 0 13 -4.5t1 -16.5q-16 -70 -58 -100.5t-97 -30.5q-54 0 -97.5 32.5t-58.5 98.5q-6 21 11 21h59z" />
    <glyph glyph-name="uhungarumlaut" unicode="&#x171;" 
d="M49 482q0 12 13 12h112q10 0 10 -12l4 -253q1 -60 23 -86.5t66 -26.5q42 0 72 19t45 48v299q0 12 12 12h110q13 0 13 -12v-470q0 -12 -12 -12h-109q-12 0 -12 12v43q-30 -30 -69.5 -46t-82.5 -16q-49 0 -85 17.5t-60 49t-36 75.5t-12 97zM237 572q-9 -9 -17.5 -11.5
t-21.5 -2.5h-59q-9 0 -12 4.5t4 15.5l65 104q5 8 13 12.5t22 4.5h97q13 0 16.5 -7t-4.5 -15zM458 572q-9 -9 -17 -11.5t-21 -2.5h-60q-9 0 -12 4.5t4 15.5l65 104q5 8 13 12.5t23 4.5h97q13 0 16.5 -7t-4.5 -15z" />
    <glyph glyph-name="umacron" unicode="&#x16b;" 
d="M49 482q0 12 13 12h112q10 0 10 -12l4 -253q1 -60 23 -86.5t66 -26.5q42 0 72 19t45 48v299q0 12 12 12h110q13 0 13 -12v-470q0 -12 -12 -12h-109q-12 0 -12 12v43q-30 -30 -69.5 -46t-82.5 -16q-49 0 -85 17.5t-60 49t-36 75.5t-12 97zM147 584q-12 0 -12 12v66
q0 12 12 12h297q12 0 12 -12v-66q0 -12 -12 -12h-297z" />
    <glyph glyph-name="uogonek" unicode="&#x173;" 
d="M525 2q-16 -22 -27 -43.5t-11 -42.5q0 -24 13.5 -35t37.5 -14q10 -1 13 -4t3 -11v-57q0 -17 -23 -17q-75 0 -115 29t-40 79q0 28 16.5 57t39.5 57h-27q-9 0 -9 10v45q-30 -30 -69.5 -46t-82.5 -16q-49 0 -85 17.5t-60 49t-36 75.5t-12 97l-2 250q0 12 13 12h112
q10 0 10 -12l4 -253q1 -60 23 -86.5t66 -26.5q42 0 72 19t45 48v299q0 12 12 12h110q13 0 13 -12v-466q0 -9 -4 -14z" />
    <glyph glyph-name="uring" unicode="&#x16f;" 
d="M49 482q0 12 13 12h112q10 0 10 -12l4 -253q1 -60 23 -86.5t66 -26.5q42 0 72 19t45 48v299q0 12 12 12h110q13 0 13 -12v-470q0 -12 -12 -12h-109q-12 0 -12 12v43q-30 -30 -69.5 -46t-82.5 -16q-49 0 -85 17.5t-60 49t-36 75.5t-12 97zM295 553q-22 0 -42.5 7t-36.5 20
t-26 32t-10 43q0 22 9 40.5t24.5 32t36 21.5t44.5 8q22 0 43 -7.5t37 -21t25.5 -32.5t9.5 -42t-9.5 -41.5t-25.5 -32t-36.5 -20.5t-42.5 -7zM295 607q21 0 37 13.5t16 33.5q0 21 -15.5 35t-38.5 14t-38 -14t-15 -34q0 -22 16.5 -35t37.5 -13z" />
    <glyph glyph-name="utilde" unicode="&#x169;" 
d="M49 482q0 12 13 12h112q10 0 10 -12l4 -253q1 -60 23 -86.5t66 -26.5q42 0 72 19t45 48v299q0 12 12 12h110q13 0 13 -12v-470q0 -12 -12 -12h-109q-12 0 -12 12v43q-30 -30 -69.5 -46t-82.5 -16q-49 0 -85 17.5t-60 49t-36 75.5t-12 97zM472 691q18 0 18 -22
q0 -11 -6 -30t-19.5 -38t-35.5 -33t-55 -14q-21 0 -41 6.5t-38 15t-34.5 15t-31.5 6.5q-16 0 -25.5 -8.5t-15.5 -23.5q-3 -11 -15 -11h-39q-20 0 -20 22q0 9 5.5 29.5t19 41.5t36.5 36.5t58 15.5q22 0 41 -7t36.5 -15t34.5 -15t37 -7q14 0 22.5 5.5t13.5 20.5q3 10 15 10h39
z" />
    <glyph glyph-name="wacute" unicode="&#x1e83;" horiz-adv-x="726" 
d="M107 0q-11 0 -12 12l-74 469q-2 13 10 13h113q12 0 13 -11l46 -302q2 -6 1.5 -18.5t-1.5 -17.5l111 250q3 8 13 8h82q8 0 11 -8l103 -252q-1 7 -1.5 18t0.5 17l49 305q1 11 13 11h110q13 0 11 -14l-76 -468q-2 -12 -13 -12h-133q-8 0 -13 8l-105 225l-113 -225
q-5 -8 -14 -8h-131zM420 572q-10 -8 -18.5 -11t-21.5 -3h-62q-9 0 -12 5t5 16l83 103q6 8 14 12.5t24 4.5h103q13 0 16.5 -7.5t-4.5 -14.5z" />
    <glyph glyph-name="wcircumflex" unicode="&#x175;" horiz-adv-x="726" 
d="M107 0q-11 0 -12 12l-74 469q-2 13 10 13h113q12 0 13 -11l46 -302q2 -6 1.5 -18.5t-1.5 -17.5l111 250q3 8 13 8h82q8 0 11 -8l103 -252q-1 7 -1.5 18t0.5 17l49 305q1 11 13 11h110q13 0 11 -14l-76 -468q-2 -12 -13 -12h-133q-8 0 -13 8l-105 225l-113 -225
q-5 -8 -14 -8h-131zM367 618l-52 -46q-9 -8 -18 -11t-22 -3h-52q-9 0 -12 5.5t5 15.5l108 123q8 8 15 12.5t18 4.5h22q12 0 18.5 -4t14.5 -13l109 -123q8 -8 4.5 -14.5t-12.5 -6.5h-54q-14 0 -22.5 3t-17.5 11z" />
    <glyph glyph-name="wdieresis" unicode="&#x1e85;" horiz-adv-x="726" 
d="M107 0q-11 0 -12 12l-74 469q-2 13 10 13h113q12 0 13 -11l46 -302q2 -6 1.5 -18.5t-1.5 -17.5l111 250q3 8 13 8h82q8 0 11 -8l103 -252q-1 7 -1.5 18t0.5 17l49 305q1 11 13 11h110q13 0 11 -14l-76 -468q-2 -12 -13 -12h-133q-8 0 -13 8l-105 225l-113 -225
q-5 -8 -14 -8h-131zM258 553q-27 0 -50 18.5t-23 48.5q0 28 21.5 47.5t50.5 19.5t51 -19t22 -48t-22 -48t-50 -19zM478 553q-27 0 -50 18.5t-23 48.5q0 28 21.5 47.5t50.5 19.5t51 -19t22 -48t-22 -48t-50 -19z" />
    <glyph glyph-name="wgrave" unicode="&#x1e81;" horiz-adv-x="726" 
d="M107 0q-11 0 -12 12l-74 469q-2 13 10 13h113q12 0 13 -11l46 -302q2 -6 1.5 -18.5t-1.5 -17.5l111 250q3 8 13 8h82q8 0 11 -8l103 -252q-1 7 -1.5 18t0.5 17l49 305q1 11 13 11h110q13 0 11 -14l-76 -468q-2 -12 -13 -12h-133q-8 0 -13 8l-105 225l-113 -225
q-5 -8 -14 -8h-131zM184 677q-8 7 -4.5 14.5t16.5 7.5h110q17 0 24.5 -4.5t13.5 -12.5l84 -103q8 -10 4.5 -15.5t-12.5 -5.5h-63q-14 0 -22 3t-18 11z" />
    <glyph glyph-name="ycircumflex" unicode="&#x177;" horiz-adv-x="575" 
d="M520 75q0 -68 -11.5 -123.5t-37.5 -96t-68.5 -62.5t-104.5 -22q-27 0 -53 3t-43 9q-9 3 -9 12v100q0 13 14 13q8 0 26.5 -5t49.5 -5q54 0 79 34t24 113q-10 -15 -25.5 -26.5t-34 -19t-38 -11t-38.5 -3.5q-54 0 -92 17.5t-62 49t-35 76.5t-11 99v257q0 10 12 10h113
q12 0 12 -12l-1 -255q0 -60 19.5 -91t72.5 -31q33 0 61.5 15.5t45.5 42.5l-2 320q0 11 11 11h110q13 0 14 -11zM290 618l-52 -46q-9 -8 -18 -11t-22 -3h-52q-9 0 -12 5.5t5 15.5l108 123q8 8 15 12.5t18 4.5h22q12 0 18.5 -4t14.5 -13l109 -123q8 -8 4.5 -14.5t-12.5 -6.5
h-54q-14 0 -22.5 3t-17.5 11z" />
    <glyph glyph-name="ygrave" unicode="&#x1ef3;" horiz-adv-x="575" 
d="M520 75q0 -68 -11.5 -123.5t-37.5 -96t-68.5 -62.5t-104.5 -22q-27 0 -53 3t-43 9q-9 3 -9 12v100q0 13 14 13q8 0 26.5 -5t49.5 -5q54 0 79 34t24 113q-10 -15 -25.5 -26.5t-34 -19t-38 -11t-38.5 -3.5q-54 0 -92 17.5t-62 49t-35 76.5t-11 99v257q0 10 12 10h113
q12 0 12 -12l-1 -255q0 -60 19.5 -91t72.5 -31q33 0 61.5 15.5t45.5 42.5l-2 320q0 11 11 11h110q13 0 14 -11zM126 677q-8 7 -4.5 14.5t16.5 7.5h110q17 0 24.5 -4.5t13.5 -12.5l84 -103q8 -10 4.5 -15.5t-12.5 -5.5h-63q-14 0 -22 3t-18 11z" />
    <glyph glyph-name="zacute" unicode="&#x17a;" horiz-adv-x="529" 
d="M484 12q0 -12 -12 -12h-409q-12 0 -12 12v106q0 5 4 8l262 246h-260q-13 0 -13 12l1 98q0 12 12 12h416q11 0 11 -12v-105q0 -5 -4 -8l-251 -247h244q11 0 11 -12v-98zM295 572q-10 -8 -18.5 -11t-21.5 -3h-62q-9 0 -12 5t5 16l83 103q6 8 14 12.5t24 4.5h103
q13 0 16.5 -7.5t-4.5 -14.5z" />
    <glyph glyph-name="zdotaccent" unicode="&#x17c;" horiz-adv-x="529" 
d="M484 12q0 -12 -12 -12h-409q-12 0 -12 12v106q0 5 4 8l262 246h-260q-13 0 -13 12l1 98q0 12 12 12h416q11 0 11 -12v-105q0 -5 -4 -8l-251 -247h244q11 0 11 -12v-98zM270 553q-27 0 -50 18.5t-23 48.5q0 28 21.5 47.5t50.5 19.5t51 -19t22 -48t-22 -48t-50 -19z" />
    <glyph glyph-name="florin" unicode="&#x192;" horiz-adv-x="489" 
d="M304 380h70q34 0 34 -35v-32q0 -16 -8.5 -22t-26.5 -6l-77 3l-17 -219q-20 -252 -205 -252q-19 0 -34.5 2.5t-23.5 7.5q-18 10 -18 27q0 35 12 55q7 12 26 12q64 3 90.5 41t30.5 109l11 215l-54 -2q-35 0 -35 35v30q0 16 8 23t28 7h59l2 34q4 59 17.5 107t37.5 81.5
t60.5 52t87.5 18.5q26 0 48.5 -5.5t34.5 -11.5q22 -11 22 -34q0 -36 -15 -56q-7 -10 -22 -10q-12 0 -24.5 4.5t-35.5 4.5q-42 0 -57.5 -39t-22.5 -114z" />
    <glyph glyph-name="ordfeminine" unicode="&#xaa;" horiz-adv-x="452" 
d="M394 326q0 -9 -10 -9h-74q-4 0 -7 8q-17 -9 -44 -15t-53 -6q-77 0 -119 34.5t-42 87.5q0 34 13.5 60t38 43t59 26t75.5 9q19 0 37 -1t29 -3q0 38 -15.5 59.5t-50.5 21.5q-22 0 -41 -10t-27 -36h-84q-5 0 -8 1.5t-3 7.5q0 13 8.5 35.5t31.5 41.5q25 20 57 30t68 10
q79 0 118.5 -41.5t40.5 -109.5zM297 484q-11 2 -28 3.5t-31 1.5q-38 0 -61 -14.5t-23 -43.5q0 -23 19.5 -36.5t57.5 -13.5q19 0 37 5t29 11v87z" />
    <glyph glyph-name="ordmasculine" unicode="&#xba;" horiz-adv-x="457" 
d="M422 505q0 -40 -13 -76.5t-37 -64.5t-58 -44.5t-77 -16.5q-48 0 -85.5 15t-63.5 42t-39.5 64.5t-13.5 82.5q0 46 15.5 85.5t42.5 68t64.5 44.5t81.5 16q42 0 76 -17t58 -46.5t36.5 -68.5t12.5 -84zM320 507q0 49 -23.5 78.5t-65.5 29.5t-66.5 -30t-24.5 -78
q0 -50 27 -76.5t65 -26.5q41 0 64.5 30t23.5 73z" />
    <glyph glyph-name="dagger" unicode="&#x2020;" horiz-adv-x="500" 
d="M295 519l148 8q12 0 12 -12v-83q0 -12 -12 -12l-148 9l8 -348q0 -12 -12 -12h-83q-12 0 -12 12l9 348l-148 -9q-12 0 -12 12v83q0 12 12 12l148 -8l-9 169q0 12 12 12h83q12 0 12 -12z" />
    <glyph glyph-name="daggerdbl" unicode="&#x2021;" horiz-adv-x="500" 
d="M57 420q-12 0 -12 12v83q0 12 12 12l148 -8l-9 169q0 12 12 12h83q12 0 12 -12l-8 -169l148 8q12 0 12 -12v-83q0 -12 -12 -12l-149 9v-158l149 8q12 0 12 -12v-83q0 -12 -12 -12l-148 9l8 -169q0 -12 -12 -12h-83q-12 0 -12 12l9 169l-148 -9q-12 0 -12 12v83
q0 12 12 12l149 -8v158z" />
    <glyph glyph-name="paragraph" unicode="&#xb6;" horiz-adv-x="494" 
d="M365 152q0 -38 -12 -70t-31 -55t-43 -37t-49 -15q-16 -2 -28 8q-9 7 -15.5 24t-6.5 31q0 21 18 27q64 23 63 108l-1 127q-47 -3 -84 8.5t-63 34t-39.5 54t-13.5 69.5q0 39 15 69.5t41.5 51t63.5 30.5t81 7v36q0 19 8.5 29.5t30.5 10.5h29q34 0 34 -41v-35q19 -2 37.5 -6
t35.5 -10q21 -8 21 -33q0 -11 -4 -26t-11 -23q-8 -11 -29.5 -9.5l-49.5 3.5z" />
    <glyph glyph-name="divide" unicode="&#xf7;" horiz-adv-x="661" 
d="M102 266q-12 0 -12 12v93q0 12 12 12h457q12 0 12 -12v-93q0 -12 -12 -12h-457zM330 49q-13 0 -26 5t-23 13.5t-16.5 20.5t-6.5 27q0 28 21 47.5t50 19.5t50.5 -19t21.5 -48t-21.5 -47.5t-49.5 -18.5zM330 465q-13 0 -26 5t-23 13.5t-16.5 21t-6.5 27.5q0 28 21 47t50 19
t50.5 -18.5t21.5 -47.5t-21.5 -48t-49.5 -19z" />
    <glyph glyph-name="fraction" unicode="&#x2044;" horiz-adv-x="515" 
d="M119 11q-6 -11 -17 -11h-87q-6 0 -8.5 3.5t0.5 8.5l388 675q8 13 19 13h85q14 0 7 -12z" />
    <glyph glyph-name="sterling" unicode="&#xa3;" horiz-adv-x="498" 
d="M351 588q-45 0 -68 -40t-25 -136h110q46 0 46 -45v-34q0 -38 -47 -38h-111q-2 -57 -16 -106t-39 -73h219q19 0 26.5 -8.5t7.5 -23.5l-1 -48q0 -36 -37 -36h-357q-24 0 -27 22l-7 60q-2 14 4 23.5t17 10.5q47 8 64.5 56.5t19.5 122.5h-39q-45 0 -45 46v34q0 20 10 28.5
t36 8.5h38q0 65 11 120t36.5 95t66.5 62.5t101 22.5q26 0 47 -4t34 -9q20 -8 21 -26l6 -64q1 -31 -27 -31q-13 0 -28 5t-47 5z" />
    <glyph glyph-name="mu" unicode="&#xb5;" horiz-adv-x="588" 
d="M533 12q0 -12 -12 -12h-109q-12 0 -12 12v47q-32 -29 -69.5 -48t-82.5 -19q-37 0 -61 19v-220q0 -12 -13 -12h-108q-12 0 -12 12v691q0 12 13 12h112q10 0 10 -12l1 -244q1 -62 24 -92.5t66 -30.5q35 0 66.5 20.5t51.5 52.5v294q0 12 12 12h110q13 0 13 -12v-470z" />
    <glyph glyph-name="mu" unicode="&#x3bc;" horiz-adv-x="588" 
d="M533 12q0 -12 -12 -12h-109q-12 0 -12 12v47q-32 -29 -69.5 -48t-82.5 -19q-37 0 -61 19v-220q0 -12 -13 -12h-108q-12 0 -12 12v691q0 12 13 12h112q10 0 10 -12l1 -244q1 -62 24 -92.5t66 -30.5q35 0 66.5 20.5t51.5 52.5v294q0 12 12 12h110q13 0 13 -12v-470z" />
    <glyph glyph-name="space" unicode=" " horiz-adv-x="230" 
 />
    </font>
</defs>
</svg>
