<?xml version="1.0" standalone="no"?>
<!DOCTYPE svg PUBLIC "-//W3C//DTD SVG 1.1//EN" "http://www.w3.org/Graphics/SVG/1.1/DTD/svg11.dtd" >
<svg>
<metadata>
Created by FontForge 20090622 at Wed Jun 29 04:12:35 2016
 By deploy user
</metadata>
<defs>
<font id="DisneyJuniorBoldV" horiz-adv-x="594" >
  <font-face 
    font-family="Disney Junior Bold V2"
    font-weight="400"
    font-stretch="normal"
    units-per-em="1000"
    panose-1="0 0 0 0 0 0 0 0 0 0"
    ascent="750"
    descent="-250"
    x-height="494"
    cap-height="700"
    bbox="-80 -283 920 973"
    underline-thickness="50"
    underline-position="-50"
    unicode-range="U+0020-U+FB02"
  />
<missing-glyph horiz-adv-x="250" 
 />
    <glyph glyph-name="fi" unicode="fi" horiz-adv-x="582" 
d="M525 423q12 0 12 -13v-399q0 -11 -13 -11h-140q-12 0 -12 12v283l-112 -4v-280q0 -11 -12 -11h-146q-11 0 -11 11v279l-53 2q-11 0 -11 11l-2 108q0 12 12 12h54q1 64 15 117.5t43 91.5t75 59t111 21q16 0 33.5 -1.5t33.5 -3.5t28.5 -5.5t18.5 -6.5q7 -4 7 -12v-136
q0 -13 -12 -13q-14 0 -39 5.5t-63 5.5q-39 0 -61.5 -23.5t-22.5 -80.5v-18h267z" />
    <glyph glyph-name="fl" unicode="fl" horiz-adv-x="667" 
d="M343 422q11 0 11 -12l-3 -117q0 -12 -12 -12l-79 3v-273q0 -11 -12 -11h-146q-11 0 -11 11v279l-53 2q-11 0 -11 11l-2 108q0 12 12 12h54q3 64 12.5 117t32 91.5t61.5 59.5t103 21q26 0 52 -3t38 -10q7 -4 7 -12v-140q0 -13 -12 -13q-14 0 -35.5 5.5t-42.5 5.5
q-32 0 -40.5 -24t-8.5 -80v-18zM622 13q0 -13 -12 -13h-167q-11 0 -11 13v698q0 12 11 12h167q12 0 12 -13v-697z" />
    <glyph glyph-name=".notdef" horiz-adv-x="250" 
 />
    <glyph glyph-name="exclam" unicode="!" horiz-adv-x="335" 
d="M83 224q-12 0 -12 12v476q0 11 13 11h170q11 0 11 -12l1 -474q0 -13 -12 -13h-171zM168 -15q-20 0 -39.5 7t-34.5 19.5t-24.5 30.5t-9.5 40q0 20 8.5 37.5t23 30.5t34 20.5t41.5 7.5q21 0 40.5 -7.5t34.5 -20t24 -30.5t9 -39t-9 -38.5t-24 -30t-34 -20t-40 -7.5z" />
    <glyph glyph-name="ampersand" unicode="&#x26;" horiz-adv-x="693" 
d="M560 323q8 9 17 0l100 -98q7 -8 -1 -17l-30 -33l-31 -32q13 -11 27 -21.5l28 -21.5q9 -7 1 -17l-95 -100q-7 -7 -17 0l-38.5 29.5l-36.5 29.5q-50 -29 -104.5 -45.5t-117.5 -16.5q-52 0 -97.5 13.5t-79.5 40t-54 66t-20 90.5q0 76 37.5 124.5t104.5 80.5q-29 61 -29 119
q0 49 18 89t50 69t76 45t97 16q54 0 94 -16.5t66.5 -43.5t39.5 -61.5t13 -71.5q0 -65 -43.5 -114t-138.5 -87q39 -41 92 -89q19 17 37 35t35 38zM233 276q-17 -12 -27 -27.5t-10 -37.5q0 -32 22 -51t57 -19t73 16q-33 30 -62 60t-53 59zM402 524q0 23 -13 38t-38 15
q-28 0 -44 -17t-16 -45q0 -29 19 -64q46 16 69 32t23 41z" />
    <glyph glyph-name="comma" unicode="," horiz-adv-x="275" 
d="M116 12q-39 3 -62.5 21.5t-23.5 46.5q0 19 8.5 36.5t23 31t34 21t41.5 7.5q24 0 44 -8.5t34 -22t22 -30.5t8 -35q0 -37 -19.5 -63.5t-43.5 -43t-44.5 -24.5t-23.5 -8q-12 0 -12 11q0 5 8 21t6 39z" />
    <glyph glyph-name="period" unicode="." horiz-adv-x="275" 
d="M138 -16q-20 0 -39.5 7t-34.5 19.5t-24.5 30.5t-9.5 40q0 20 8.5 37.5t23 30.5t34 20.5t41.5 7.5q21 0 40.5 -7.5t34.5 -20t24 -30.5t9 -39t-9 -38.5t-24 -30t-34 -20t-40 -7.5z" />
    <glyph glyph-name="zero" unicode="0" horiz-adv-x="710" 
d="M377 702q67 0 124 -29t97.5 -79t63.5 -117.5t23 -144.5q0 -71 -23.5 -134t-65.5 -110.5t-99.5 -75t-125.5 -27.5q-81 0 -145 25t-108.5 70.5t-68.5 110t-24 144.5q0 79 25.5 146.5t72 116.5t111.5 76.5t143 27.5zM359 486q-29 0 -52.5 -13t-41 -35t-27 -51t-9.5 -61
t9.5 -60.5t26.5 -50.5t41 -35t53 -13q28 0 52 13t41.5 35t27.5 50.5t10 60.5q0 31 -10 60t-27 51t-41.5 35.5t-52.5 13.5z" />
    <glyph glyph-name="one" unicode="1" horiz-adv-x="439" 
d="M364 11q0 -5 -3.5 -8t-8.5 -3h-197q-12 0 -12 12v508h-116q-12 0 -12 12q0 2 4.5 18t12.5 40l18 53t21 57h282q11 0 11 -12v-677z" />
    <glyph glyph-name="two" unicode="2" horiz-adv-x="604" 
d="M526 186q13 0 13 -12l-1 -162q0 -12 -12 -12h-473q-2 0 -5 1t-5 5q-4 8 -8 32t-4 52q0 38 10.5 87t42 99t88 96.5t149.5 79.5q41 15 41 44q0 23 -20.5 41t-49.5 18q-38 0 -77.5 -17.5t-79.5 -49.5q-8 -7 -15 0l-102 107q-3 3 -3 8t3 8q22 24 52.5 44.5t65 35.5t71.5 23.5
t71 8.5q56 0 109 -16t94.5 -45.5t67 -71t25.5 -92.5q0 -40 -11 -70.5t-29 -53.5t-42 -40.5t-50 -30.5q-32 -17 -63.5 -29t-57 -25t-41.5 -27.5t-16 -35.5h262z" />
    <glyph glyph-name="three" unicode="3" horiz-adv-x="608" 
d="M449 354q23 -7 44.5 -21.5t38 -33.5t26.5 -41.5t10 -46.5q0 -48 -23 -89t-62.5 -71.5t-92.5 -47.5t-112 -17q-39 0 -78 9t-74 24t-64.5 35.5t-48.5 43.5q-7 8 0 15l101 107q6 8 15 1q14 -11 31.5 -23t37.5 -22t42 -16t46 -6q29 0 49.5 16.5t20.5 39.5q0 11 -7 22.5
t-22 20.5t-38.5 14.5t-55.5 5.5h-55q-12 0 -12 12v140q0 13 12 13h51q67 0 97 19t30 42q0 22 -20 39t-48 17q-25 0 -47.5 -6t-42.5 -16t-37.5 -21.5t-31.5 -23.5q-8 -6 -15 1l-101 107q-7 9 0 16q18 21 46.5 41t63 35.5t73 25.5t77.5 10q56 0 109 -16t94.5 -45.5t66.5 -71.5
t25 -93q0 -24 -9.5 -47t-26 -42t-38 -33t-45.5 -20v-2z" />
    <glyph glyph-name="four" unicode="4" horiz-adv-x="650" 
d="M620 173q0 -12 -12 -12h-54v-150q0 -11 -13 -11h-180q-12 0 -12 12v149h-272q-51 0 -68.5 19.5t2.5 57.5l236 451q3 5 9 8t12 3h274q11 0 11 -12l1 -368h54q12 0 12 -11v-136zM355 320v230l-109 -230h109z" />
    <glyph glyph-name="five" unicode="5" horiz-adv-x="621" 
d="M274 458q6 1 12.5 1h13.5q48 0 98 -16t90.5 -46t66.5 -74t26 -100q0 -45 -19.5 -87.5t-57 -76t-93 -54t-128.5 -20.5q-38 0 -77 9.5t-74 25t-63.5 35t-45.5 39.5q-3 3 -3 7.5t3 7.5l101 103q8 8 16 1q32 -32 65.5 -49t64.5 -17q38 0 59 23t21 53q0 18 -8.5 35.5t-27 31.5
t-47 23t-68.5 9q-24 0 -53 -3.5t-60 -11.5q-7 -2 -12 2t-5 12v367q0 12 13 12h441q12 0 12 -11l1 -158q0 -12 -12 -12h-250v-61z" />
    <glyph glyph-name="six" unicode="6" horiz-adv-x="639" 
d="M512 532q0 -5 -4 -8.5t-10 -1.5q-17 4 -36.5 6t-35.5 2q-39 0 -67.5 -10.5t-48 -27t-31.5 -38t-19 -42.5q40 16 74.5 24.5t65.5 8.5q57 0 98.5 -20.5t68 -52t39.5 -69.5t13 -74q0 -44 -19.5 -87.5t-55.5 -78t-86 -56t-111 -21.5q-54 0 -111 17.5t-104 55t-77 97
t-30 144.5q0 73 26.5 146t75.5 131.5t118 95.5t155 37h101q12 0 12 -13zM321 322q-13 0 -26 -4.5t-24 -13t-18 -20.5t-7 -27q0 -18 8 -33t21 -25t29 -15.5t32 -5.5q15 0 28.5 5t24.5 13.5t17.5 20.5t6.5 26q0 33 -25.5 56t-66.5 23z" />
    <glyph glyph-name="seven" unicode="7" horiz-adv-x="563" 
d="M298 12q-5 -12 -18 -12h-198q-5 0 -8.5 4.5t-0.5 9.5l244 505h-285q-12 0 -12 12v158q0 11 12 11h455q51 0 67.5 -19t0.5 -57z" />
    <glyph glyph-name="eight" unicode="8" horiz-adv-x="637" 
d="M486 366q60 -21 88 -62.5t28 -89.5q0 -41 -19 -81.5t-55.5 -73t-89 -53t-119.5 -20.5q-68 0 -121 20t-89 52.5t-55 72.5t-19 80q0 49 28.5 91t88.5 64v2q-43 23 -65 63.5t-22 86.5q0 37 15 73.5t46.5 65.5t79.5 47t113 18q64 0 112.5 -18.5t80.5 -48.5t48.5 -67.5
t16.5 -74.5q0 -45 -22 -83.5t-69 -61.5v-2zM319 440q33 8 48.5 27t15.5 39q0 30 -19 48t-45 18q-15 0 -26.5 -6t-20 -15t-13 -20.5t-4.5 -22.5q0 -21 15.5 -40.5t48.5 -27.5zM319 283q-43 -8 -62.5 -27t-19.5 -39q0 -23 21.5 -43t60.5 -20q38 0 60 20t22 43q0 20 -19.5 39
t-62.5 27z" />
    <glyph glyph-name="nine" unicode="9" horiz-adv-x="639" 
d="M127 178q0 5 4 8.5t10 1.5q17 -4 36.5 -6t35.5 -2q39 0 67.5 10.5t48 27t31.5 38t19 42.5q-40 -16 -74.5 -24.5t-65.5 -8.5q-57 0 -98.5 20t-68 51.5t-39.5 70t-13 74.5q0 44 19.5 87.5t55.5 78t86 56t111 21.5q54 0 111 -17.5t104 -55t77 -97t30 -144.5
q0 -73 -26.5 -146t-75.5 -131.5t-118.5 -95.5t-154.5 -37h-101q-12 0 -12 13zM318 388q13 0 26 4.5t24 13t18 20.5t7 27q0 18 -8 33t-21 25t-29 15.5t-32 5.5q-15 0 -28.5 -5t-24.5 -13.5t-17.5 -20.5t-6.5 -26q0 -33 25.5 -56t66.5 -23z" />
    <glyph glyph-name="colon" unicode=":" horiz-adv-x="275" 
d="M138 -16q-20 0 -39.5 7t-34.5 19.5t-24.5 30.5t-9.5 40q0 20 8.5 37.5t23 30.5t34 20.5t41.5 7.5q21 0 40.5 -7.5t34.5 -20t24 -30.5t9 -39t-9 -38.5t-24 -30t-34 -20t-40 -7.5zM138 382q-20 0 -39.5 7t-34.5 19.5t-24.5 30.5t-9.5 40q0 20 8.5 37.5t23 30.5t34 20.5
t41.5 7.5q21 0 40.5 -7.5t34.5 -20t24 -30.5t9 -39t-9 -38.5t-24 -30t-34 -20t-40 -7.5z" />
    <glyph glyph-name="semicolon" unicode=";" horiz-adv-x="275" 
d="M116 12q-39 3 -62.5 21.5t-23.5 46.5q0 19 8.5 36.5t23 31t34 21t41.5 7.5q24 0 44 -8.5t34 -22t22 -30.5t8 -35q0 -37 -19.5 -63.5t-43.5 -43t-44.5 -24.5t-23.5 -8q-12 0 -12 11q0 5 8 21t6 39zM138 382q-20 0 -39.5 7t-34.5 19.5t-24.5 30.5t-9.5 40q0 20 8.5 37.5
t23 30.5t34 20.5t41.5 7.5q21 0 40.5 -7.5t34.5 -20t24 -30.5t9 -39t-9 -38.5t-24 -30t-34 -20t-40 -7.5z" />
    <glyph glyph-name="question" unicode="?" horiz-adv-x="541" 
d="M156 224q-9 0 -12 8q-4 9 -6.5 22t-2.5 32q0 21 6 45t23.5 48.5t49 48t81.5 43.5q39 14 39 40q0 20 -18.5 37.5t-45.5 17.5q-47 0 -84.5 -20.5t-63.5 -41.5q-3 -2 -7 -3t-8 3l-94 100q-7 7 0 14q18 21 46 40.5t61 33.5t68 22.5t67 8.5q53 0 103 -15t88.5 -42t61.5 -65
t23 -83q0 -41 -11.5 -68.5t-29.5 -46.5t-40.5 -32t-44.5 -23l-33 -16t-28 -17.5t-19 -22.5t-7 -31q0 -8 1.5 -14t1.5 -10q0 -13 -11 -13h-154zM238 -16q-20 0 -39.5 7t-34.5 19.5t-24.5 30.5t-9.5 40q0 20 8.5 37.5t23 30.5t34 20.5t41.5 7.5q21 0 40.5 -7.5t34.5 -20
t24 -30.5t9 -39t-9 -38.5t-24 -30t-34 -20t-40 -7.5z" />
    <glyph glyph-name="A" unicode="A" horiz-adv-x="653" 
d="M642 12q2 -6 -2 -9t-10 -3h-190q-11 0 -12 10l-23 114h-156l-23 -114q-1 -10 -12 -10h-191q-6 0 -10 3.5t-2 9.5l156 677q2 10 12 10h298q10 0 12 -10zM376 283l-43 243l-51 -243h94z" />
    <glyph glyph-name="B" unicode="B" horiz-adv-x="615" 
d="M590 208q0 -64 -15.5 -104.5t-49.5 -63.5t-88.5 -31.5t-133.5 -8.5h-241q-12 0 -12 11v678q0 11 12 11h177q79 0 141.5 -7t106 -28.5t66.5 -62.5t23 -109q0 -44 -17 -79t-66 -63q97 -57 97 -143zM387 490q0 27 -8 43t-25 24.5t-43 11t-62 2.5v-155q35 0 61 2t43 9.5
t25.5 22.5t8.5 40zM392 220q0 28 -9.5 44t-28 23.5t-45 9.5t-60.5 2v-154h47q21 0 38.5 3t30.5 11.5t20 23t7 37.5z" />
    <glyph glyph-name="C" unicode="C" horiz-adv-x="553" 
d="M523 41q0 -5 -4 -9q-24 -23 -66 -35t-90 -12q-77 0 -140.5 25t-108.5 69.5t-69.5 104.5t-24.5 129q0 92 28 164t77.5 121.5t118.5 75t152 25.5q33 0 65 -3.5t48 -8.5q7 -3 7 -9v-181q0 -11 -10 -11q-9 0 -34.5 6.5t-64.5 6.5q-29 0 -61.5 -6t-60 -23t-45.5 -46.5
t-18 -77.5q0 -47 14 -77.5t37 -48t52 -24.5t59 -7q33 0 64 6t52 14q6 2 11 0.5t5 -9.5z" />
    <glyph glyph-name="D" unicode="D" horiz-adv-x="625" 
d="M249 700q64 0 127.5 -17t114.5 -57t82.5 -107.5t31.5 -167.5q0 -103 -27.5 -170.5t-75 -107.5t-111.5 -56.5t-138 -16.5h-186q-12 0 -12 11v677q0 12 12 12h182zM388 349q0 31 -9 59.5t-26 50.5t-41 35t-54 13v-311q40 2 65 13.5t39.5 31.5t20 47.5t5.5 60.5z" />
    <glyph glyph-name="E" unicode="E" horiz-adv-x="578" 
d="M538 12q0 -12 -12 -12h-459q-12 0 -12 12v675q0 13 12 13h459q12 0 12 -13v-135q0 -12 -12 -12h-268v-114h212q12 0 12 -12v-136q0 -12 -12 -12h-212v-106h268q12 0 12 -12v-136z" />
    <glyph glyph-name="F" unicode="F" horiz-adv-x="549" 
d="M538 547q0 -11 -12 -11l-268 3l-2 -115l213 -2q11 0 11 -12l-1 -136q0 -11 -12 -11l-214 2l-2 -254q0 -11 -11 -11h-173q-12 0 -12 12v676q0 12 12 12h460q12 0 12 -13z" />
    <glyph glyph-name="G" unicode="G" horiz-adv-x="668" 
d="M623 65q0 -11 -9 -19q-16 -14 -40.5 -25t-53 -19t-60 -12t-60.5 -4q-84 0 -154 25t-120 68.5t-78 103.5t-28 131q0 91 30.5 162.5t85.5 121t132.5 76t170.5 26.5q15 0 33.5 -1t36 -2.5t32.5 -3.5t25 -5q7 -2 7 -9v-181q0 -11 -10 -11t-40 7t-78 7q-109 0 -163.5 -53.5
t-54.5 -148.5q0 -31 10 -58.5t28.5 -48.5t45.5 -33t62 -12q11 0 23 1t23 4v104h-88q-5 0 -8 4t-3 9l5 91q0 11 11 11l275 8q12 0 12 -11v-303z" />
    <glyph glyph-name="H" unicode="H" horiz-adv-x="686" 
d="M628 12q0 -12 -12 -12h-180q-12 0 -12 12v253h-163l-2 -253q0 -12 -11 -12h-180q-13 0 -13 12v676q0 12 12 12h187q12 0 12 -12l-3 -264h161v264q0 12 12 12h187q11 0 11 -12z" />
    <glyph glyph-name="I" unicode="I" horiz-adv-x="332" 
d="M277 11q0 -11 -13 -11h-197q-12 0 -12 12v675q0 13 12 13h198q11 0 11 -12z" />
    <glyph glyph-name="J" unicode="J" horiz-adv-x="447" 
d="M400 687q0 -56 -1 -116.5t-3 -121t-5 -119t-7 -110.5q-4 -51 -19 -98t-50 -81q-33 -32 -85 -43.5t-105 -11.5q-32 0 -56 3t-40 11q-9 3 -9 13v169q0 13 14 13q5 0 21.5 -3.5t35.5 -3.5q30 0 47.5 6t26 17.5t11 29t2.5 40.5l-1 406q0 5 4.5 9t9.5 4h196q13 0 13 -13z" />
    <glyph glyph-name="K" unicode="K" horiz-adv-x="650" 
d="M460 351l188 -339q3 -5 0 -8.5t-9 -3.5h-215q-9 0 -13 7l-120 253l-11 -2l-2 -246q0 -12 -11 -12h-201q-11 0 -11 12v677q0 11 12 11h206q11 0 11 -11l-3 -279l154 284q3 6 11 6h190q8 0 10 -6.5t-1 -11.5z" />
    <glyph glyph-name="L" unicode="L" horiz-adv-x="498" 
d="M488 13q0 -13 -13 -13h-408q-12 0 -12 13l-1 675q0 12 13 12h186q12 0 12 -12l-4 -528h214q13 0 13 -13v-134z" />
    <glyph glyph-name="M" unicode="M" horiz-adv-x="840" 
d="M773 700q13 0 13 -12l-1 -676q0 -12 -11 -12h-174q-12 0 -12 12l-2 366q0 6 1.5 18.5t3.5 19.5q-3 -5 -8 -21l-100 -355q-3 -9 -12 -9h-103q-7 0 -10 9l-103 360q-3 11 -6 16q2 -8 3 -19t1 -18v-367q0 -12 -13 -12h-173q-12 0 -12 13v675q0 12 13 12h220q8 0 11 -8
l121 -372l121 372q2 8 11 8h221z" />
    <glyph glyph-name="N" unicode="N" horiz-adv-x="686" 
d="M628 11q0 -11 -12 -11h-172q-8 0 -12 7l-182 384l-4 -380q0 -11 -12 -11h-166q-13 0 -13 12v675q0 13 12 13h179q7 0 10 -7l182 -403v398q0 12 11 12h173q12 0 12 -11z" />
    <glyph glyph-name="O" unicode="O" horiz-adv-x="700" 
d="M372 703q73 0 130 -32.5t96.5 -85t60.5 -119t21 -134.5q0 -69 -22.5 -132t-64 -110.5t-99.5 -76t-128 -28.5q-81 0 -145 24.5t-108.5 70.5t-68.5 111t-24 145q0 79 25.5 146.5t71.5 116.5t111 76.5t144 27.5zM354 167q31 0 55 14t41 37t26 51.5t9 57.5q0 31 -9.5 59.5
t-27 51t-41.5 36t-53 13.5q-28 0 -52 -13t-41.5 -34.5t-27.5 -50.5t-10 -62q0 -32 10 -61t27 -51t41 -35t53 -13z" />
    <glyph glyph-name="P" unicode="P" horiz-adv-x="592" 
d="M577 420q0 -65 -30 -113t-77.5 -80t-105.5 -47.5t-114 -16.5l-2 -152q0 -11 -11 -11h-169q-13 0 -13 11l-1 675q0 11 13 11h109q91 0 165.5 -12t126.5 -43t80.5 -85t28.5 -137zM387 411q0 28 -11 48t-29 32.5t-42 18t-50 5.5l-3 -199q135 10 135 95z" />
    <glyph glyph-name="Q" unicode="Q" horiz-adv-x="701" 
d="M372 703q73 0 130 -32.5t96.5 -85t60.5 -119t21 -134.5q0 -81 -31 -152.5t-86 -120.5q33 -20 81 -20q17 0 27 2q12 2 12 -9l-1 -137q0 -8 -8 -13q-18 -8 -58 -8q-46 0 -81 7t-64.5 21t-54.5 35t-50 48q-81 0 -145 24.5t-108.5 70.5t-68.5 111t-24 145q0 79 25.5 146.5
t71.5 116.5t111 76.5t144 27.5zM354 167q31 0 55 14t41 37t26 51.5t9 57.5q0 31 -9.5 59.5t-27 51t-41.5 36t-53 13.5q-28 0 -52 -13t-41.5 -34.5t-27.5 -50.5t-10 -62q0 -32 10 -61t27 -51t41 -35t53 -13z" />
    <glyph glyph-name="R" unicode="R" horiz-adv-x="605" 
d="M592 20q5 -6 2 -13t-12 -7h-190q-3 0 -6 1t-5 4l-95 160q-9 -1 -18 -1.5t-18 -0.5l-2 -152q0 -11 -12 -11h-168q-13 0 -13 11l-1 675q0 11 12 11h149q81 0 147.5 -14.5t114.5 -47t74 -85.5t26 -130q0 -69 -32 -118t-91 -84zM252 316q134 10 134 95q0 28 -10.5 47.5
t-28.5 32t-41.5 18.5t-50.5 6z" />
    <glyph glyph-name="S" unicode="S" horiz-adv-x="605" 
d="M589 210q-1 -45 -24 -86t-63 -72t-95 -49.5t-120 -18.5q-35 0 -71 7.5t-69.5 21.5t-64.5 34t-55 45q-3 3 -3 7.5t3 7.5l101 103q8 8 16 1q29 -22 68 -43t89 -22q23 0 38.5 13.5t15.5 28.5q0 24 -25.5 37.5t-63.5 25l-82 25t-82 37.5t-62.5 63t-23.5 102q1 49 26 91t66 72
t94.5 47t112.5 17q36 0 72 -7.5t70 -21.5t63.5 -33t52.5 -41q3 -3 2 -8t-3 -7l-101 -103q-3 -4 -8 -3.5t-8 2.5q-26 20 -63.5 36t-87.5 17q-23 1 -38 -13t-16 -29q0 -10 3 -19t13.5 -17t29 -16t49.5 -15q61 -15 107.5 -34t77 -44.5t45.5 -59t14 -79.5z" />
    <glyph glyph-name="T" unicode="T" horiz-adv-x="516" 
d="M496 553q0 -12 -13 -12h-120v-529q0 -12 -12 -12h-182q-12 0 -12 12v529h-155q-12 0 -12 12v136q0 11 12 11h481q13 0 13 -11v-136z" />
    <glyph glyph-name="U" unicode="U" horiz-adv-x="681" 
d="M631 252q0 -144 -74.5 -215t-216.5 -71t-216 71t-74 215v435q0 13 11 13h188q12 0 12 -13v-424q0 -57 21.5 -84.5t57.5 -27.5q37 0 58 27.5t21 84.5v424q0 13 12 13h189q11 0 11 -13v-435z" />
    <glyph glyph-name="V" unicode="V" horiz-adv-x="632" 
d="M471 10q-3 -10 -12 -10h-297q-9 0 -12 10l-139 678q-2 6 2 9t10 3h190q10 0 12 -11l81 -526l101 527q1 10 11 10h190q16 0 13 -15z" />
    <glyph glyph-name="W" unicode="W" horiz-adv-x="901" 
d="M119 0q-11 0 -12 12l-76 675q-2 13 10 13h184q12 0 13 -11l43 -391q0 -3 -1 -9t-2 -13t-2.5 -14.5t-2.5 -11.5q2 1 5.5 4.5t5.5 10.5l103 301q3 8 12 8h102q8 0 11 -8l103 -294q3 -9 6 -14t6 -8q-1 3 -2.5 9.5t-2.5 14l-2 14.5t-1 10l43 391q1 11 14 11h182q14 0 12 -14
l-78 -674q-2 -12 -14 -12h-193q-9 0 -12 8l-123 263l-124 -263q-3 -8 -11 -8h-196z" />
    <glyph glyph-name="X" unicode="X" horiz-adv-x="596" 
d="M583 21q4 -8 1 -14.5t-11 -6.5h-190q-6 0 -9 7l-77 195l-75 -196q-2 -6 -11 -6h-188q-9 0 -11.5 6.5t1.5 14.5l143 322l-143 323q-3 7 -1.5 14t11.5 7h188q8 0 11 -7l75 -196l77 196q3 7 9 7h190q7 0 10 -7t0 -14l-144 -323z" />
    <glyph glyph-name="Y" unicode="Y" horiz-adv-x="596" 
d="M595 688q-12 -36 -30.5 -84.5t-43 -106l-54.5 -122.5l-64 -135l2 -229q0 -11 -12 -11h-199q-12 0 -12 11v229l-51.5 118.5l-48 121l-41 113t-30.5 95.5q-2 6 2 9t10 3h200q9 0 11 -8l62 -280l74 280q3 8 12 8h201q6 0 10 -3t2 -9z" />
    <glyph glyph-name="Z" unicode="Z" horiz-adv-x="640" 
d="M600 12q0 -12 -12 -12h-536q-12 0 -12 12v195q0 4 4 8l311 305h-303q-12 0 -12 12v157q0 11 13 11h536q11 0 11 -12v-168q0 -4 -4 -8l-298 -306h291q11 0 11 -11v-183z" />
    <glyph glyph-name="a" unicode="a" horiz-adv-x="526" 
d="M482 12q0 -12 -12 -12h-126q-2 0 -2.5 0.5t-1.5 0.5q-17 -8 -41 -13t-53 -5q-49 0 -89.5 12t-70 33t-45.5 49.5t-16 61.5q0 43 17.5 77.5t49 58.5t76.5 36.5t99 12.5q15 0 32 -1t31 -3q0 17 -2.5 33t-9.5 28t-19 19.5t-31 7.5q-18 0 -37 -11.5t-26 -45.5h-136
q-6 0 -9.5 2t-3.5 10q0 18 9 48t38 55q34 29 75 42t93 13q102 0 155 -47.5t54 -135.5zM330 207q-13 3 -26.5 4.5t-24.5 1.5q-34 0 -54.5 -19t-20.5 -51q0 -25 18.5 -40.5t45.5 -15.5q17 0 35.5 5t26.5 9v106z" />
    <glyph glyph-name="b" unicode="b" horiz-adv-x="559" 
d="M57 0q-12 0 -12 12v676q0 12 12 12h157q12 0 12 -12v-200q14 2 27.5 3t26.5 1q56 0 103.5 -18t82 -53t54 -86t19.5 -116q0 -50 -17 -93.5t-48 -75.5t-74.5 -50t-95.5 -18q-24 0 -47 5t-40 14q-1 0 -1.5 -0.5t-1.5 -0.5h-157zM226 154q36 -17 66 -17q36 0 59 23.5t23 60.5
q0 48 -25.5 76.5t-71.5 28.5q-4 0 -11.5 -0.5t-15.5 -1.5t-14.5 -2.5t-9.5 -3.5v-164z" />
    <glyph glyph-name="c" unicode="c" horiz-adv-x="429" 
d="M399 28q0 -5 -5 -10q-16 -14 -47.5 -23.5t-68.5 -9.5q-57 0 -104.5 18.5t-81.5 51.5t-53 78t-19 98q0 69 21 123t58.5 91t89.5 56.5t114 19.5q22 0 47.5 -2.5t36.5 -6.5q6 -2 6 -7v-145q0 -7 -7 -7q-9 0 -28.5 5t-51.5 5q-60 0 -95.5 -34.5t-35.5 -94.5q0 -47 30 -76.5
t78 -29.5t99 25q5 2 8.5 0t3.5 -7z" />
    <glyph glyph-name="d" unicode="d" horiz-adv-x="559" 
d="M345 0q-1 0 -1.5 0.5t-1.5 0.5q-17 -9 -40 -14t-47 -5q-53 0 -96 18t-74 50t-48 75.5t-17 93.5q0 65 19.5 116t54 86t82 53t103.5 18q13 0 26.5 -1t27.5 -3v200q0 12 12 12h157q12 0 12 -12v-676q0 -12 -12 -12h-157zM333 318q-3 2 -9.5 3.5t-14.5 2.5t-15.5 1.5
t-11.5 0.5q-46 0 -71.5 -28.5t-25.5 -76.5q0 -37 23 -60.5t59 -23.5q30 0 66 17v164z" />
    <glyph glyph-name="e" unicode="e" horiz-adv-x="479" 
d="M173 286q20 -5 44 -5q47 0 78 12.5t31 39.5q0 20 -15.5 32.5t-38.5 12.5q-17 0 -34.5 -5.5t-32 -16.5t-23.5 -28.5t-9 -41.5zM177 209q3 -15 10.5 -29.5t20.5 -26t31.5 -18.5t43.5 -7q34 0 69.5 12t73.5 34q4 2 8 0t4 -7l5 -120q0 -4 -3 -7q-11 -10 -29.5 -20t-41 -18
t-47.5 -13t-47 -5q-54 0 -100.5 16t-81 49.5t-54 85t-19.5 121.5q0 48 16.5 95t49.5 84.5t82.5 60.5t115.5 23q42 0 74.5 -15.5t55 -39.5t34 -53.5t11.5 -58.5q0 -69 -54 -109t-162 -40q-17 0 -34 1.5t-32 4.5z" />
    <glyph glyph-name="f" unicode="f" horiz-adv-x="387" 
d="M343 422q11 0 11 -12l-3 -117q0 -12 -12 -12l-79 3v-273q0 -11 -12 -11h-146q-11 0 -11 11v279l-53 2q-11 0 -11 11l-2 108q0 12 12 12h54q3 64 12.5 117t32 91.5t61.5 59.5t103 21q26 0 52 -3t38 -10q7 -4 7 -12v-140q0 -13 -12 -13q-14 0 -35.5 5.5t-42.5 5.5
q-32 0 -40.5 -24t-8.5 -80v-18z" />
    <glyph glyph-name="g" unicode="g" horiz-adv-x="560" 
d="M334 327q-32 12 -59 12q-41 0 -65.5 -27t-24.5 -66q0 -45 22 -71.5t65 -26.5q16 0 33.5 3.5t28.5 8.5v167zM515 97q0 -90 -13.5 -151t-40.5 -98.5t-68.5 -54t-97.5 -16.5q-36 0 -65 3.5t-44 9.5q-9 3 -9 12v141q0 12 14 12q11 0 32 -5t56 -5q30 0 41.5 14t14.5 47
q-42 -9 -80 -9q-51 0 -94.5 16.5t-74.5 48.5t-48.5 79t-17.5 108q0 58 21.5 104.5t57 79.5t82 50.5t96.5 17.5q49 0 80 -17h146q12 0 12 -12v-375z" />
    <glyph glyph-name="h" unicode="h" horiz-adv-x="584" 
d="M544 11q0 -11 -12 -11h-165q-11 0 -11 13l1 240q0 107 -56 107q-50 0 -74 -39v-309q0 -12 -12 -12h-157q-13 0 -13 12l-2 677q0 11 12 11h157q12 0 12 -11l2 -215q28 25 58 35.5t63 10.5q59 0 97.5 -23t60.5 -60.5t30.5 -85.5t8.5 -99v-241z" />
    <glyph glyph-name="i" unicode="i" horiz-adv-x="285" 
d="M144 507q-20 0 -39.5 7t-34.5 19.5t-24.5 30.5t-9.5 40q0 20 8.5 37.5t23 30.5t34 20.5t41.5 7.5q21 0 40.5 -7.5t34.5 -20t24 -30.5t9 -39t-9 -38.5t-24 -30t-34 -20t-40 -7.5zM228 461q12 0 12 -13v-437q0 -11 -13 -11h-170q-12 0 -12 12v436q0 13 12 13h171z" />
    <glyph glyph-name="j" unicode="j" horiz-adv-x="316" 
d="M259 461q12 0 12 -13v-361q0 -61 -10.5 -117t-37 -98.5t-72 -68t-116.5 -25.5q-29 0 -60.5 3t-45.5 10q-9 3 -9 12v140q0 13 14 13q8 0 33 -5.5t57 -5.5q37 0 46 23.5t9 79.5l-2 401q0 12 11 12h171zM175 507q-20 0 -39.5 7t-34.5 19.5t-24.5 30.5t-9.5 40q0 20 8.5 37.5
t23 30.5t34 20.5t41.5 7.5q21 0 40.5 -7.5t34.5 -20t24 -30.5t9 -39t-9 -38.5t-24 -30t-34 -20t-40 -7.5z" />
    <glyph glyph-name="k" unicode="k" horiz-adv-x="518" 
d="M329 0q-5 0 -8 4l-104 156v-148q0 -12 -14 -12h-147q-11 0 -11 12l-1 678q0 10 11 10h152q6 0 9 -3.5t3 -8.5l-2 -368l113 193q4 7 11 7h152q7 0 9 -4t0 -8l-151 -260l173 -228q5 -8 2 -14t-11 -6h-186z" />
    <glyph glyph-name="l" unicode="l" horiz-adv-x="280" 
d="M235 13q0 -13 -12 -13h-167q-11 0 -11 13v698q0 12 11 12h167q12 0 12 -13v-697z" />
    <glyph glyph-name="m" unicode="m" horiz-adv-x="921" 
d="M554 12q0 -12 -12 -12h-163q-10 0 -10 12l-2 223q-1 54 -16 79t-47 25q-30 0 -48.5 -15t-27.5 -43v-269q0 -12 -12 -12h-158q-13 0 -13 12v470q0 12 12 12h157q12 0 12 -12v-40q58 60 131 60q63 0 102 -27.5t61 -71.5q72 99 164 99q58 0 96 -24t60.5 -62.5t31.5 -87
t9 -97.5v-219q0 -12 -12 -12h-163q-10 0 -10 12l-2 223q-1 54 -16 79t-47 25q-61 0 -79 -67q1 -11 1.5 -21t0.5 -20v-219z" />
    <glyph glyph-name="n" unicode="n" 
d="M304 339q-30 0 -48.5 -15t-27.5 -43v-269q0 -12 -12 -12h-158q-13 0 -13 12v470q0 12 12 12h157q12 0 12 -12v-40q58 60 131 60q58 0 96 -24t60.5 -62.5t31.5 -87t9 -97.5v-219q0 -12 -12 -12h-163q-10 0 -10 12l-2 223q-1 54 -16 79t-47 25z" />
    <glyph glyph-name="o" unicode="o" horiz-adv-x="532" 
d="M512 243q0 -51 -17 -97.5t-48 -82t-74.5 -57t-95.5 -21.5q-62 0 -110 19.5t-80.5 54.5t-49.5 82.5t-17 104.5q0 61 20 111t55 86t83 56t104 20t99 -25.5t72 -65t44 -88.5t15 -97zM347 246q0 17 -5.5 33t-16 28.5t-25 20t-32.5 7.5t-32 -7.5t-24 -20.5t-15 -29t-5 -33
t5.5 -33.5t16 -29t24.5 -20t31 -7.5q18 0 32.5 8.5t24.5 21.5t15.5 29t5.5 32z" />
    <glyph glyph-name="p" unicode="p" horiz-adv-x="559" 
d="M214 477q1 0 1.5 -0.5t1.5 -0.5q17 9 40 14t47 5q52 0 95.5 -18t74.5 -50t48 -75.5t17 -93.5q0 -65 -19.5 -116t-54 -86t-82 -53t-103.5 -18q-13 0 -26.5 1t-27.5 3v-198q0 -12 -12 -12h-157q-12 0 -12 12v674q0 12 12 12h157zM226 159q3 -2 9.5 -3.5t14.5 -2.5
t15.5 -1.5t11.5 -0.5q46 0 71.5 28.5t25.5 76.5q0 37 -23 60.5t-59 23.5q-30 0 -66 -17v-164z" />
    <glyph glyph-name="q" unicode="q" horiz-adv-x="559" 
d="M502 477q12 0 12 -12v-674q0 -12 -12 -12h-157q-12 0 -12 12v198q-14 -2 -27.5 -3t-26.5 -1q-56 0 -103.5 18t-82 53t-54 86t-19.5 116q0 50 17 93.5t48 75.5t74 50t96 18q24 0 47 -5t40 -14q1 0 1.5 0.5t1.5 0.5h157zM333 323q-36 17 -66 17q-36 0 -59 -23.5t-23 -60.5
q0 -48 25.5 -76.5t71.5 -28.5q4 0 11.5 0.5t15.5 1.5t14.5 2.5t9.5 3.5v164z" />
    <glyph glyph-name="r" unicode="r" horiz-adv-x="389" 
d="M385 341q0 -7 -3.5 -9t-8.5 1q-23 13 -50 13q-33 1 -60.5 -18t-38.5 -51v-265q0 -12 -11 -12h-154q-14 0 -14 12l1 497q0 11 12 11h156q13 0 13 -10l-2 -53q26 33 52.5 47.5t64.5 14.5q19 0 30.5 -6.5t11.5 -13.5z" />
    <glyph glyph-name="s" unicode="s" horiz-adv-x="463" 
d="M20 351q0 35 18 66t48.5 53.5t71 35.5t85.5 12q54 0 106 -22t87 -58q5 -5 -1 -11l-74 -76q-6 -6 -12 -1q-21 17 -51.5 32.5t-65.5 15.5q-17 0 -28 -10t-11 -21q0 -18 18.5 -27.5t46 -18l60 -18.5t60.5 -27.5t46.5 -46.5t18.5 -75q0 -37 -18.5 -68t-49.5 -53.5t-71.5 -35
t-83.5 -12.5q-24 0 -51 6t-52 16.5t-47.5 24t-37.5 29.5q-6 6 0 12l75 76q6 6 12 0q19 -14 47 -26t65 -13q17 0 28 10t11 21q0 7 -2 14t-9.5 13t-21.5 11.5t-37 11.5q-45 11 -79 25t-56.5 32.5t-33.5 43.5t-11 59z" />
    <glyph glyph-name="t" unicode="t" horiz-adv-x="386" 
d="M365 494q11 0 11 -12l-4 -117q0 -12 -11 -12l-78 2v-342q0 -13 -12 -13h-167q-12 0 -12 13v349l-64 2q-11 0 -11 11l-2 106q0 13 13 13h64v96q0 13 12 13h167q12 0 12 -13v-96h82z" />
    <glyph glyph-name="u" unicode="u" 
d="M40 482q0 12 13 12h162q10 0 10 -12l2 -219q0 -60 16 -83.5t47 -23.5q59 0 76 58v268q0 12 12 12h158q13 0 13 -12v-470q0 -12 -12 -12h-157q-12 0 -12 12v41q-59 -60 -131 -60q-53 0 -90.5 21t-61 57.5t-34.5 86t-11 106.5v218z" />
    <glyph glyph-name="v" unicode="v" horiz-adv-x="547" 
d="M417 9q-3 -9 -13 -9h-271q-11 0 -12 9l-120 473q-2 6 2 9t10 3h171q9 0 11 -9l70 -353l85 353q1 9 12 9h172q6 0 10 -3t2 -9z" />
    <glyph glyph-name="w" unicode="w" horiz-adv-x="754" 
d="M80 0q-11 0 -12 12l-47 469q-2 13 10 13h163q12 0 13 -11l26 -288v-9t-1 -12.5t-1.5 -12.5t-1.5 -9l84 208q3 8 13 8h102q8 0 11 -8l85 -208q-2 8 -3 22t-1 20l26 289q1 11 13 11h163q13 0 11 -14l-49 -468q-2 -12 -13 -12h-190q-8 0 -13 8l-92 160l-92 -160
q-5 -8 -14 -8h-190z" />
    <glyph glyph-name="x" unicode="x" horiz-adv-x="545" 
d="M538 15q3 -5 1 -10t-10 -5h-176q-8 0 -10 5l-71 140l-70 -140q-3 -5 -11 -5h-175q-7 0 -10 4.5t1 10.5l139 231l-139 233q-3 5 -0.5 10t9.5 5h175q8 0 11 -5l70 -141l71 141q2 5 10 5h176q7 0 9.5 -4.5t-0.5 -10.5l-139 -233z" />
    <glyph glyph-name="y" unicode="y" horiz-adv-x="585" 
d="M540 90q0 -62 -7 -119.5t-31 -102t-68.5 -71t-119.5 -26.5q-31 0 -60 3.5t-45 9.5q-9 3 -9 12v140q0 13 14 13q8 0 31 -5.5t54 -5.5q37 0 48.5 24.5t11.5 85.5q-8 -15 -21.5 -27t-31 -20t-36 -12t-34.5 -4q-56 0 -94 21t-60.5 56.5t-32 83t-9.5 101.5v237q0 10 12 10h164
q12 0 12 -12l-1 -235q0 -105 56 -105q50 0 74 38v303q0 11 11 11h158q13 0 13 -11z" />
    <glyph glyph-name="z" unicode="z" horiz-adv-x="579" 
d="M534 12q0 -12 -12 -12h-464q-12 0 -12 12v147q0 5 4 8l262 171h-254q-13 0 -13 12l1 132q0 12 12 12h465q11 0 11 -12v-144q0 -5 -4 -8l-238 -172h231q11 0 11 -12v-134z" />
    <glyph glyph-name="quoteright" unicode="&#x2019;" horiz-adv-x="275" 
d="M116 560q-39 3 -62.5 21.5t-23.5 46.5q0 19 8.5 36.5t23 31t34 21t41.5 7.5q24 0 44 -8.5t34 -22t22 -30.5t8 -35q0 -37 -19.5 -63.5t-43.5 -43t-44.5 -24.5t-23.5 -8q-12 0 -12 11q0 5 8 21t6 39z" />
    <glyph glyph-name="tilde" unicode="&#x2dc;" horiz-adv-x="500" 
d="M428 699q9 0 15.5 -5.5t6.5 -16.5q0 -13 -7 -36t-22.5 -45t-41 -38t-62.5 -16q-19 0 -39 7.5t-39.5 16.5l-36.5 16.5t-30 7.5q-18 0 -26.5 -8.5t-14.5 -23.5q-3 -11 -15 -11h-43q-10 0 -16.5 6t-6.5 16q0 13 6 37t20.5 47.5t40 41t64.5 17.5q20 0 38.5 -7.5t36.5 -17
t37 -17t42 -7.5q13 0 22 5.5t14 20.5q3 10 15 10h42z" />
    <glyph glyph-name="acute" unicode="&#xb4;" horiz-adv-x="368" 
d="M190 572q-10 -8 -18.5 -11t-21.5 -3h-87q-9 0 -12 5t5 16l78 103q6 8 14 12.5t24 4.5h128q13 0 16.5 -7t-4.5 -15z" />
    <glyph glyph-name="grave" unicode="`" horiz-adv-x="377" 
d="M56 677q-8 8 -4.5 15t16.5 7h136q17 0 24.5 -4.5t13.5 -12.5l79 -103q8 -10 4.5 -15.5t-12.5 -5.5h-89q-14 0 -22 3t-18 11z" />
    <glyph glyph-name="quoteleft" unicode="&#x2018;" horiz-adv-x="275" 
d="M159 673q39 -3 62.5 -21.5t23.5 -46.5q0 -20 -8.5 -37t-23 -30.5t-34 -21t-41.5 -7.5q-24 0 -44 8t-34 21.5t-22 31t-8 35.5q0 37 19.5 63.5t43.5 43t44.5 24.5t23.5 8q12 0 12 -11q0 -5 -8 -21t-6 -39z" />
    <glyph glyph-name="quotedblright" unicode="&#x201d;" horiz-adv-x="545" 
d="M116 560q-39 3 -62.5 21.5t-23.5 46.5q0 19 8.5 36.5t23 31t34 21t41.5 7.5q24 0 44 -8.5t34 -22t22 -30.5t8 -35q0 -37 -19.5 -63.5t-43.5 -43t-44.5 -24.5t-23.5 -8q-12 0 -12 11q0 5 8 21t6 39zM386 560q-39 3 -62.5 21.5t-23.5 46.5q0 19 8.5 36.5t23 31t34 21
t41.5 7.5q24 0 44 -8.5t34 -22t22 -30.5t8 -35q0 -37 -19.5 -63.5t-43.5 -43t-44.5 -24.5t-23.5 -8q-12 0 -12 11q0 5 8 21t6 39z" />
    <glyph glyph-name="quotedblleft" unicode="&#x201c;" horiz-adv-x="545" 
d="M159 673q39 -3 62.5 -21.5t23.5 -46.5q0 -20 -8.5 -37t-23 -30.5t-34 -21t-41.5 -7.5q-24 0 -44 8t-34 21.5t-22 31t-8 35.5q0 37 19.5 63.5t43.5 43t44.5 24.5t23.5 8q12 0 12 -11q0 -5 -8 -21t-6 -39zM429 673q39 -3 62.5 -21.5t23.5 -46.5q0 -20 -8.5 -37t-23 -30.5
t-34 -21t-41.5 -7.5q-24 0 -44 8t-34 21.5t-22 31t-8 35.5q0 37 19.5 63.5t43.5 43t44.5 24.5t23.5 8q12 0 12 -11q0 -5 -8 -21t-6 -39z" />
    <glyph glyph-name="hyphen" unicode="-" horiz-adv-x="401" 
d="M62 254q-12 0 -12 12v136q0 12 12 12h277q12 0 12 -12v-136q0 -12 -12 -12h-277z" />
    <glyph glyph-name="endash" unicode="&#x2013;" horiz-adv-x="601" 
d="M62 254q-12 0 -12 12v136q0 12 12 12h477q12 0 12 -12v-136q0 -12 -12 -12h-477z" />
    <glyph glyph-name="emdash" unicode="&#x2014;" horiz-adv-x="891" 
d="M62 254q-12 0 -12 12v136q0 12 12 12h767q12 0 12 -12v-136q0 -12 -12 -12h-767z" />
    <glyph glyph-name="dieresis" unicode="&#xa8;" horiz-adv-x="523" 
d="M142 548q-17 0 -33.5 6t-29.5 16.5t-21 26t-8 33.5q0 34 26.5 58t64.5 24q18 0 34.5 -6t29.5 -17t20.5 -26t7.5 -33t-7.5 -33t-20.5 -26t-29 -17t-34 -6zM382 548q-17 0 -33.5 6t-29.5 16.5t-21 26t-8 33.5q0 34 26.5 58t64.5 24q18 0 34.5 -6t29.5 -17t20.5 -26t7.5 -33
t-7.5 -33t-20.5 -26t-29 -17t-34 -6z" />
    <glyph glyph-name="circumflex" unicode="&#x2c6;" horiz-adv-x="447" 
d="M221 612l-41 -40q-9 -8 -18 -11t-22 -3h-77q-9 0 -12 5.5t5 15.5l108 123q8 8 15 12.5t23 4.5h42q17 0 23.5 -4t14.5 -13l109 -123q8 -8 4.5 -14.5t-12.5 -6.5h-79q-14 0 -22.5 3t-17.5 11z" />
    <glyph glyph-name="ring" unicode="&#x2da;" horiz-adv-x="349" 
d="M175 543q-23 0 -45.5 8t-40 23t-28.5 35.5t-11 45.5q0 23 10 43.5t26.5 35.5t39 24t48.5 9q24 0 47 -8.5t40 -23.5t27.5 -36t10.5 -45t-10.5 -44.5t-27.5 -35t-39.5 -23t-46.5 -8.5zM175 607q20 0 36.5 13.5t16.5 33.5q0 21 -16.5 35t-37.5 14q-22 0 -37.5 -14t-15.5 -34
q0 -22 17 -35t37 -13z" />
    <glyph glyph-name="dotlessi" unicode="&#x131;" horiz-adv-x="285" 
d="M228 461q12 0 12 -13v-437q0 -11 -13 -11h-170q-12 0 -12 12v436q0 13 12 13h171z" />
    <glyph glyph-name="quotesingle" unicode="'" horiz-adv-x="285" 
d="M87 504q-12 0 -12 12l-10 196q0 11 13 11h131q11 0 11 -12l-10 -194q0 -13 -12 -13h-111z" />
    <glyph glyph-name="quotedbl" unicode="&#x22;" horiz-adv-x="505" 
d="M87 504q-12 0 -12 12l-10 196q0 11 13 11h131q11 0 11 -12l-10 -194q0 -13 -12 -13h-111zM307 504q-12 0 -12 12l-10 196q0 11 13 11h131q11 0 11 -12l-10 -194q0 -13 -12 -13h-111z" />
    <glyph glyph-name="quotesinglbase" unicode="&#x201a;" horiz-adv-x="275" 
d="M116 12q-39 3 -62.5 21.5t-23.5 46.5q0 19 8.5 36.5t23 31t34 21t41.5 7.5q24 0 44 -8.5t34 -22t22 -30.5t8 -35q0 -37 -19.5 -63.5t-43.5 -43t-44.5 -24.5t-23.5 -8q-12 0 -12 11q0 5 8 21t6 39z" />
    <glyph glyph-name="quotedblbase" unicode="&#x201e;" horiz-adv-x="545" 
d="M386 12q-39 3 -62.5 21.5t-23.5 46.5q0 19 8.5 36.5t23 31t34 21t41.5 7.5q24 0 44 -8.5t34 -22t22 -30.5t8 -35q0 -37 -19.5 -63.5t-43.5 -43t-44.5 -24.5t-23.5 -8q-12 0 -12 11q0 5 8 21t6 39zM116 12q-39 3 -62.5 21.5t-23.5 46.5q0 19 8.5 36.5t23 31t34 21
t41.5 7.5q24 0 44 -8.5t34 -22t22 -30.5t8 -35q0 -37 -19.5 -63.5t-43.5 -43t-44.5 -24.5t-23.5 -8q-12 0 -12 11q0 5 8 21t6 39z" />
    <glyph glyph-name="at" unicode="@" horiz-adv-x="941" 
d="M635 226q-2 -21 15.5 -34.5t41.5 -13.5q15 0 30 7t27 22t19.5 39.5t7.5 59.5q0 63 -17.5 115t-53.5 89.5t-90.5 58.5t-127.5 21q-71 0 -129.5 -25.5t-100.5 -70t-65 -103t-23 -124.5q0 -65 18 -121t56.5 -98t98.5 -66t144 -24q60 0 111 25q5 2 8.5 0t3.5 -7l5 -88
q0 -5 -5 -10q-16 -14 -47.5 -23.5t-68.5 -9.5q-106 0 -188.5 31.5t-139 87t-86 131t-29.5 162.5q0 96 31 177.5t89.5 141.5t143 93.5t190.5 33.5q95 0 167.5 -31t121 -84.5t73.5 -126t25 -155.5q0 -62 -18 -107.5t-47.5 -76t-67.5 -45.5t-78 -15q-43 0 -79 15.5t-54 41.5
q-16 -19 -45 -29.5t-57 -10.5q-42 0 -76 13.5t-57 39.5t-33 64t-5 87q4 37 20 69t41.5 56t59.5 37.5t73 13.5q38 0 63 -14q1 0 1 0.5t1 0.5h117q9 0 8 -9zM512 331q-26 13 -48 13q-27 0 -46 -17.5t-22 -45.5q-4 -35 13 -56.5t51 -21.5q12 0 23.5 4t16.5 10z" />
    <glyph glyph-name="uni00A0" unicode="&#xa0;" horiz-adv-x="250" 
 />
    <glyph glyph-name="ellipsis" unicode="&#x2026;" horiz-adv-x="999" 
d="M188 -16q-20 0 -39.5 7t-34.5 19.5t-24.5 30.5t-9.5 40q0 20 8.5 37.5t23 30.5t34 20.5t41.5 7.5q21 0 40.5 -7.5t34.5 -20t24 -30.5t9 -39t-9 -38.5t-24 -30t-34 -20t-40 -7.5zM812 -16q-20 0 -39.5 7t-34.5 19.5t-24.5 30.5t-9.5 40q0 20 8.5 37.5t23 30.5t34 20.5
t41.5 7.5q21 0 40.5 -7.5t34.5 -20t24 -30.5t9 -39t-9 -38.5t-24 -30t-34 -20t-40 -7.5zM500 -16q-20 0 -39.5 7t-34.5 19.5t-24.5 30.5t-9.5 40q0 20 8.5 37.5t23 30.5t34 20.5t41.5 7.5q21 0 40.5 -7.5t34.5 -20t24 -30.5t9 -39t-9 -38.5t-24 -30t-34 -20t-40 -7.5z" />
    <glyph glyph-name="periodcentered" unicode="&#xb7;" horiz-adv-x="275" 
d="M138 237q-20 0 -39.5 7t-34.5 19.5t-24.5 30.5t-9.5 40q0 20 8.5 37.5t23 30.5t34 20.5t41.5 7.5q21 0 40.5 -7.5t34.5 -20t24 -30.5t9 -39t-9 -38.5t-24 -30t-34 -20t-40 -7.5z" />
    <glyph glyph-name="equal" unicode="=" horiz-adv-x="661" 
d="M92 384q-12 0 -12 12v116q0 12 12 12h477q12 0 12 -12v-116q0 -12 -12 -12h-477zM92 144q-12 0 -12 12v116q0 12 12 12h477q12 0 12 -12v-116q0 -12 -12 -12h-477z" />
    <glyph glyph-name="plus" unicode="+" horiz-adv-x="661" 
d="M411 409h158q12 0 12 -12v-126q0 -12 -12 -12h-158v-143q0 -12 -12 -12h-137q-12 0 -12 12v143h-158q-12 0 -12 12v126q0 12 12 12h158v144q0 12 12 12h137q12 0 12 -12v-144z" />
    <glyph glyph-name="slash" unicode="/" horiz-adv-x="425" 
d="M144 -79q-4 -11 -17 -11h-117q-13 0 -8 12l280 765q4 13 15 13h118q12 0 8 -12z" />
    <glyph glyph-name="underscore" unicode="_" horiz-adv-x="500" 
d="M0 -146v90h500v-90h-500z" />
    <glyph glyph-name="parenleft" unicode="(" horiz-adv-x="373" 
d="M371 -84q3 -4 0 -9.5t-9 -6.5l-154 -10q-6 0 -9 5q-33 37 -60.5 86.5t-47 106t-30.5 117t-11 119.5q0 52 9 107.5t26 110t41.5 106.5t56.5 96q4 6 9 6l156 -10q5 0 9.5 -3.5t1.5 -7.5q-33 -40 -60.5 -89t-47.5 -102t-31 -108t-11 -108q0 -51 10.5 -104.5t31 -106.5
t51 -103t69.5 -92z" />
    <glyph glyph-name="parenright" unicode=")" horiz-adv-x="373" 
d="M2 724q-3 4 0 9.5t9 6.5l154 10q6 0 9 -5q33 -38 60.5 -87.5t47 -105.5t30.5 -116.5t11 -119.5q0 -52 -9 -107.5t-26 -110t-41.5 -106.5t-56.5 -96q-4 -6 -9 -6l-156 10q-5 0 -9.5 3.5t-1.5 7.5q33 40 60.5 89t47.5 102t31 108t11 108q0 51 -10.5 104.5t-31 106.5
t-51 103t-69.5 92z" />
    <glyph glyph-name="numbersign" unicode="#" horiz-adv-x="621" 
d="M497 534h72q12 0 12 -12v-96q0 -12 -12 -12h-101l-32 -128h93q12 0 12 -12v-96q0 -12 -12 -12h-122l-38 -155q-2 -6 -7 -8.5t-10 -2.5h-67q-11 0 -8 12l38 154h-99l-38 -155q-2 -6 -7 -8.5t-10 -2.5h-67q-11 0 -8 12l38 154h-72q-12 0 -12 12v96q0 12 12 12h101l32 128
h-93q-12 0 -12 12v96q0 12 12 12h123l38 153q3 13 15 13h68q11 0 8 -12l-38 -154h100l38 153q3 13 15 13h68q11 0 8 -12zM245 286h99l32 128h-99z" />
    <glyph glyph-name="dollar" unicode="$" horiz-adv-x="541" 
d="M351 647q32 -1 62.5 -9.5t45.5 -17.5q13 -8 17.5 -20t4.5 -26t-3.5 -27.5t-7.5 -22.5q-10 -22 -27 -27.5t-30 0.5q-21 11 -47 17.5t-49 6.5q-8 0 -19 -1.5t-21 -6.5t-17.5 -15t-7.5 -27q0 -23 22.5 -36t61.5 -21q90 -17 137 -60.5t47 -115.5q0 -76 -42 -122t-127 -56v-18
q0 -31 -16 -44t-39 -13h-50q-21 0 -34.5 12.5t-13.5 41.5v18q-23 0 -45 3t-41 7.5t-33.5 10t-21.5 10.5q-6 5 -12.5 14t-6.5 26q0 8 2.5 20t7 24t11.5 22.5t16 15.5q19 11 38 0q9 -5 24 -10t33 -9t36.5 -6t35.5 -2q35 0 51.5 13.5t16.5 34.5q0 25 -23 42.5t-78 28.5
q-81 17 -130.5 58t-49.5 106q0 72 46.5 119.5t123.5 57.5v25q0 55 54 55h52q46 0 46 -56v-20v0z" />
    <glyph glyph-name="percent" unicode="%" horiz-adv-x="726" 
d="M219 11q-7 -11 -18 -11h-96q-6 0 -8.5 3.5t0.5 8.5l406 675q8 13 19 13h96q13 0 6 -12zM187 715q32 0 58.5 -13t46 -35.5t30.5 -53t11 -64.5q0 -32 -11 -60.5t-31 -49.5t-47.5 -33.5t-59.5 -12.5q-78 0 -121.5 42.5t-43.5 114.5q0 36 12 66t34.5 52t53 34.5t68.5 12.5z
M179 608q-24 0 -39 -18t-15 -41t14.5 -40t39.5 -17q23 0 38.5 17t15.5 40t-15 41t-39 18zM555 316q32 0 60 -11.5t49 -33.5t33 -52.5t12 -67.5q0 -34 -10.5 -63.5t-31 -51.5t-50 -34.5t-67.5 -12.5q-37 0 -66 12.5t-49.5 33.5t-31 49.5t-10.5 60.5t11.5 63t32.5 55t51 38.5
t67 14.5zM557 208q-23 0 -40.5 -16.5t-17.5 -41.5q0 -26 15.5 -42t38.5 -16q26 0 41.5 16.5t15.5 41.5q0 23 -14.5 40.5t-38.5 17.5z" />
    <glyph glyph-name="asterisk" unicode="*" horiz-adv-x="504" 
d="M290 572l127 68q4 2 7.5 -0.5t5.5 -7.5l32 -100q5 -11 -7 -13l-141 -20l105 -101q6 -8 -5 -14l-84 -62q-9 -6 -14 3l-63 127l-64 -130q-2 -3 -6.5 -3t-8.5 2l-85 62q-10 6 -2 14l103 100l-144 20q-4 1 -5.5 5t0.5 9l32 100q3 11 13 6l126 -67l-25 143q-1 5 2.5 7.5
t8.5 2.5h106q10 0 9 -10z" />
    <glyph glyph-name="germandbls" unicode="&#xdf;" horiz-adv-x="596" 
d="M282 118q2 8 9 6q16 -2 33 -5t34 -3q22 0 33 12.5t11 29.5q0 18 -10.5 29t-26.5 20l-34 18.5t-34 25t-26.5 39.5t-10.5 62q0 50 30 87.5t79 52.5q-2 28 -20.5 44.5t-55.5 16.5q-36 0 -58.5 -28.5t-22.5 -82.5v-431q0 -11 -12 -11h-144q-11 0 -11 11v411q0 71 19 125.5
t53 91t81.5 55t104.5 18.5q55 0 97.5 -18t71 -49t42 -72.5t11.5 -89.5l-3 -71q0 -11 -10 -11q-42 0 -65 -13t-23 -35q0 -17 11.5 -27.5t28 -19.5l36.5 -19.5t36.5 -28.5t28 -46t11.5 -71q0 -37 -15.5 -66t-43 -49t-65 -30.5t-80.5 -10.5q-26 0 -51.5 1.5t-45.5 6.5
q-8 1 -6 9z" />
    <glyph glyph-name="Adieresis" unicode="&#xc4;" horiz-adv-x="653" 
d="M642 12q2 -6 -2 -9t-10 -3h-190q-11 0 -12 10l-23 114h-156l-23 -114q-1 -10 -12 -10h-191q-6 0 -10 3.5t-2 9.5l156 677q2 10 12 10h298q10 0 12 -10zM376 283l-43 243l-51 -243h94zM207 754q-17 0 -33.5 6t-29.5 16.5t-21 26t-8 33.5q0 34 26.5 58t64.5 24
q18 0 34.5 -6t29.5 -17t20.5 -26t7.5 -33t-7.5 -33t-20.5 -26t-29 -17t-34 -6zM447 754q-17 0 -33.5 6t-29.5 16.5t-21 26t-8 33.5q0 34 26.5 58t64.5 24q18 0 34.5 -6t29.5 -17t20.5 -26t7.5 -33t-7.5 -33t-20.5 -26t-29 -17t-34 -6z" />
    <glyph glyph-name="Aring" unicode="&#xc5;" horiz-adv-x="653" 
d="M642 12q2 -6 -2 -9t-10 -3h-190q-11 0 -12 10l-23 114h-156l-23 -114q-1 -10 -12 -10h-191q-6 0 -10 3.5t-2 9.5l156 677q2 10 12 10h298q10 0 12 -10zM376 283l-43 243l-51 -243h94zM327 749q-23 0 -45.5 8t-40 23t-28.5 35.5t-11 45.5q0 23 10 43.5t26.5 35.5t39 24
t48.5 9q24 0 47 -8.5t40 -23.5t27.5 -36t10.5 -45t-10.5 -44.5t-27.5 -35t-39.5 -23t-46.5 -8.5zM327 813q20 0 36.5 13.5t16.5 33.5q0 21 -16.5 35t-37.5 14q-22 0 -37.5 -14t-15.5 -34q0 -22 17 -35t37 -13z" />
    <glyph glyph-name="udieresis" unicode="&#xfc;" 
d="M40 482q0 12 13 12h162q10 0 10 -12l2 -219q0 -60 16 -83.5t47 -23.5q59 0 76 58v268q0 12 12 12h158q13 0 13 -12v-470q0 -12 -12 -12h-157q-12 0 -12 12v41q-59 -60 -131 -60q-53 0 -90.5 21t-61 57.5t-34.5 86t-11 106.5v218zM177 548q-17 0 -33.5 6t-29.5 16.5
t-21 26t-8 33.5q0 34 26.5 58t64.5 24q18 0 34.5 -6t29.5 -17t20.5 -26t7.5 -33t-7.5 -33t-20.5 -26t-29 -17t-34 -6zM417 548q-17 0 -33.5 6t-29.5 16.5t-21 26t-8 33.5q0 34 26.5 58t64.5 24q18 0 34.5 -6t29.5 -17t20.5 -26t7.5 -33t-7.5 -33t-20.5 -26t-29 -17t-34 -6z
" />
    <glyph glyph-name="Eacute" unicode="&#xc9;" horiz-adv-x="578" 
d="M538 12q0 -12 -12 -12h-459q-12 0 -12 12v675q0 13 12 13h459q12 0 12 -13v-135q0 -12 -12 -12h-268v-114h212q12 0 12 -12v-136q0 -12 -12 -12h-212v-106h268q12 0 12 -12v-136zM344 778q-10 -8 -18.5 -11t-21.5 -3h-87q-9 0 -12 5t5 16l78 103q6 8 14 12.5t24 4.5h128
q13 0 16.5 -7t-4.5 -15z" />
    <glyph glyph-name="Ntilde" unicode="&#xd1;" horiz-adv-x="686" 
d="M628 11q0 -11 -12 -11h-172q-8 0 -12 7l-182 384l-4 -380q0 -11 -12 -11h-166q-13 0 -13 12v675q0 13 12 13h179q7 0 10 -7l182 -403v398q0 12 11 12h173q12 0 12 -11zM525 905q9 0 15.5 -5.5t6.5 -16.5q0 -13 -7 -36t-22.5 -45t-41 -38t-62.5 -16q-19 0 -39 7.5
t-39.5 16.5l-36.5 16.5t-30 7.5q-18 0 -26.5 -8.5t-14.5 -23.5q-3 -11 -15 -11h-43q-10 0 -16.5 6t-6.5 16q0 13 6 37t20.5 47.5t40 41t64.5 17.5q20 0 38.5 -7.5t36.5 -17t37 -17t42 -7.5q13 0 22 5.5t14 20.5q3 10 15 10h42z" />
    <glyph glyph-name="Odieresis" unicode="&#xd6;" horiz-adv-x="700" 
d="M372 703q73 0 130 -32.5t96.5 -85t60.5 -119t21 -134.5q0 -69 -22.5 -132t-64 -110.5t-99.5 -76t-128 -28.5q-81 0 -145 24.5t-108.5 70.5t-68.5 111t-24 145q0 79 25.5 146.5t71.5 116.5t111 76.5t144 27.5zM354 167q31 0 55 14t41 37t26 51.5t9 57.5q0 31 -9.5 59.5
t-27 51t-41.5 36t-53 13.5q-28 0 -52 -13t-41.5 -34.5t-27.5 -50.5t-10 -62q0 -32 10 -61t27 -51t41 -35t53 -13zM240 754q-17 0 -33.5 6t-29.5 16.5t-21 26t-8 33.5q0 34 26.5 58t64.5 24q18 0 34.5 -6t29.5 -17t20.5 -26t7.5 -33t-7.5 -33t-20.5 -26t-29 -17t-34 -6z
M480 754q-17 0 -33.5 6t-29.5 16.5t-21 26t-8 33.5q0 34 26.5 58t64.5 24q18 0 34.5 -6t29.5 -17t20.5 -26t7.5 -33t-7.5 -33t-20.5 -26t-29 -17t-34 -6z" />
    <glyph glyph-name="Udieresis" unicode="&#xdc;" horiz-adv-x="681" 
d="M631 252q0 -144 -74.5 -215t-216.5 -71t-216 71t-74 215v435q0 13 11 13h188q12 0 12 -13v-424q0 -57 21.5 -84.5t57.5 -27.5q37 0 58 27.5t21 84.5v424q0 13 12 13h189q11 0 11 -13v-435zM221 754q-17 0 -33.5 6t-29.5 16.5t-21 26t-8 33.5q0 34 26.5 58t64.5 24
q18 0 34.5 -6t29.5 -17t20.5 -26t7.5 -33t-7.5 -33t-20.5 -26t-29 -17t-34 -6zM461 754q-17 0 -33.5 6t-29.5 16.5t-21 26t-8 33.5q0 34 26.5 58t64.5 24q18 0 34.5 -6t29.5 -17t20.5 -26t7.5 -33t-7.5 -33t-20.5 -26t-29 -17t-34 -6z" />
    <glyph glyph-name="aacute" unicode="&#xe1;" horiz-adv-x="526" 
d="M482 12q0 -12 -12 -12h-126q-2 0 -2.5 0.5t-1.5 0.5q-17 -8 -41 -13t-53 -5q-49 0 -89.5 12t-70 33t-45.5 49.5t-16 61.5q0 43 17.5 77.5t49 58.5t76.5 36.5t99 12.5q15 0 32 -1t31 -3q0 17 -2.5 33t-9.5 28t-19 19.5t-31 7.5q-18 0 -37 -11.5t-26 -45.5h-136
q-6 0 -9.5 2t-3.5 10q0 18 9 48t38 55q34 29 75 42t93 13q102 0 155 -47.5t54 -135.5zM330 207q-13 3 -26.5 4.5t-24.5 1.5q-34 0 -54.5 -19t-20.5 -51q0 -25 18.5 -40.5t45.5 -15.5q17 0 35.5 5t26.5 9v106zM308 572q-10 -8 -18.5 -11t-21.5 -3h-87q-9 0 -12 5t5 16l78 103
q6 8 14 12.5t24 4.5h128q13 0 16.5 -7t-4.5 -15z" />
    <glyph glyph-name="agrave" unicode="&#xe0;" horiz-adv-x="526" 
d="M482 12q0 -12 -12 -12h-126q-2 0 -2.5 0.5t-1.5 0.5q-17 -8 -41 -13t-53 -5q-49 0 -89.5 12t-70 33t-45.5 49.5t-16 61.5q0 43 17.5 77.5t49 58.5t76.5 36.5t99 12.5q15 0 32 -1t31 -3q0 17 -2.5 33t-9.5 28t-19 19.5t-31 7.5q-18 0 -37 -11.5t-26 -45.5h-136
q-6 0 -9.5 2t-3.5 10q0 18 9 48t38 55q34 29 75 42t93 13q102 0 155 -47.5t54 -135.5zM330 207q-13 3 -26.5 4.5t-24.5 1.5q-34 0 -54.5 -19t-20.5 -51q0 -25 18.5 -40.5t45.5 -15.5q17 0 35.5 5t26.5 9v106zM101 677q-8 8 -4.5 15t16.5 7h136q17 0 24.5 -4.5t13.5 -12.5
l79 -103q8 -10 4.5 -15.5t-12.5 -5.5h-89q-14 0 -22 3t-18 11z" />
    <glyph glyph-name="acircumflex" unicode="&#xe2;" horiz-adv-x="526" 
d="M482 12q0 -12 -12 -12h-126q-2 0 -2.5 0.5t-1.5 0.5q-17 -8 -41 -13t-53 -5q-49 0 -89.5 12t-70 33t-45.5 49.5t-16 61.5q0 43 17.5 77.5t49 58.5t76.5 36.5t99 12.5q15 0 32 -1t31 -3q0 17 -2.5 33t-9.5 28t-19 19.5t-31 7.5q-18 0 -37 -11.5t-26 -45.5h-136
q-6 0 -9.5 2t-3.5 10q0 18 9 48t38 55q34 29 75 42t93 13q102 0 155 -47.5t54 -135.5zM330 207q-13 3 -26.5 4.5t-24.5 1.5q-34 0 -54.5 -19t-20.5 -51q0 -25 18.5 -40.5t45.5 -15.5q17 0 35.5 5t26.5 9v106zM271 612l-41 -40q-9 -8 -18 -11t-22 -3h-77q-9 0 -12 5.5t5 15.5
l108 123q8 8 15 12.5t23 4.5h42q17 0 23.5 -4t14.5 -13l109 -123q8 -8 4.5 -14.5t-12.5 -6.5h-79q-14 0 -22.5 3t-17.5 11z" />
    <glyph glyph-name="adieresis" unicode="&#xe4;" horiz-adv-x="526" 
d="M482 12q0 -12 -12 -12h-126q-2 0 -2.5 0.5t-1.5 0.5q-17 -8 -41 -13t-53 -5q-49 0 -89.5 12t-70 33t-45.5 49.5t-16 61.5q0 43 17.5 77.5t49 58.5t76.5 36.5t99 12.5q15 0 32 -1t31 -3q0 17 -2.5 33t-9.5 28t-19 19.5t-31 7.5q-18 0 -37 -11.5t-26 -45.5h-136
q-6 0 -9.5 2t-3.5 10q0 18 9 48t38 55q34 29 75 42t93 13q102 0 155 -47.5t54 -135.5zM330 207q-13 3 -26.5 4.5t-24.5 1.5q-34 0 -54.5 -19t-20.5 -51q0 -25 18.5 -40.5t45.5 -15.5q17 0 35.5 5t26.5 9v106zM149 548q-17 0 -33.5 6t-29.5 16.5t-21 26t-8 33.5q0 34 26.5 58
t64.5 24q18 0 34.5 -6t29.5 -17t20.5 -26t7.5 -33t-7.5 -33t-20.5 -26t-29 -17t-34 -6zM389 548q-17 0 -33.5 6t-29.5 16.5t-21 26t-8 33.5q0 34 26.5 58t64.5 24q18 0 34.5 -6t29.5 -17t20.5 -26t7.5 -33t-7.5 -33t-20.5 -26t-29 -17t-34 -6z" />
    <glyph glyph-name="atilde" unicode="&#xe3;" horiz-adv-x="526" 
d="M482 12q0 -12 -12 -12h-126q-2 0 -2.5 0.5t-1.5 0.5q-17 -8 -41 -13t-53 -5q-49 0 -89.5 12t-70 33t-45.5 49.5t-16 61.5q0 43 17.5 77.5t49 58.5t76.5 36.5t99 12.5q15 0 32 -1t31 -3q0 17 -2.5 33t-9.5 28t-19 19.5t-31 7.5q-18 0 -37 -11.5t-26 -45.5h-136
q-6 0 -9.5 2t-3.5 10q0 18 9 48t38 55q34 29 75 42t93 13q102 0 155 -47.5t54 -135.5zM330 207q-13 3 -26.5 4.5t-24.5 1.5q-34 0 -54.5 -19t-20.5 -51q0 -25 18.5 -40.5t45.5 -15.5q17 0 35.5 5t26.5 9v106zM447 699q9 0 15.5 -5.5t6.5 -16.5q0 -13 -7 -36t-22.5 -45
t-41 -38t-62.5 -16q-19 0 -39 7.5t-39.5 16.5l-36.5 16.5t-30 7.5q-18 0 -26.5 -8.5t-14.5 -23.5q-3 -11 -15 -11h-43q-10 0 -16.5 6t-6.5 16q0 13 6 37t20.5 47.5t40 41t64.5 17.5q20 0 38.5 -7.5t36.5 -17t37 -17t42 -7.5q13 0 22 5.5t14 20.5q3 10 15 10h42z" />
    <glyph glyph-name="aring" unicode="&#xe5;" horiz-adv-x="526" 
d="M482 12q0 -12 -12 -12h-126q-2 0 -2.5 0.5t-1.5 0.5q-17 -8 -41 -13t-53 -5q-49 0 -89.5 12t-70 33t-45.5 49.5t-16 61.5q0 43 17.5 77.5t49 58.5t76.5 36.5t99 12.5q15 0 32 -1t31 -3q0 17 -2.5 33t-9.5 28t-19 19.5t-31 7.5q-18 0 -37 -11.5t-26 -45.5h-136
q-6 0 -9.5 2t-3.5 10q0 18 9 48t38 55q34 29 75 42t93 13q102 0 155 -47.5t54 -135.5zM330 207q-13 3 -26.5 4.5t-24.5 1.5q-34 0 -54.5 -19t-20.5 -51q0 -25 18.5 -40.5t45.5 -15.5q17 0 35.5 5t26.5 9v106zM272 543q-23 0 -45.5 8t-40 23t-28.5 35.5t-11 45.5
q0 23 10 43.5t26.5 35.5t39 24t48.5 9q24 0 47 -8.5t40 -23.5t27.5 -36t10.5 -45t-10.5 -44.5t-27.5 -35t-39.5 -23t-46.5 -8.5zM272 607q20 0 36.5 13.5t16.5 33.5q0 21 -16.5 35t-37.5 14q-22 0 -37.5 -14t-15.5 -34q0 -22 17 -35t37 -13z" />
    <glyph glyph-name="eacute" unicode="&#xe9;" horiz-adv-x="479" 
d="M173 286q20 -5 44 -5q47 0 78 12.5t31 39.5q0 20 -15.5 32.5t-38.5 12.5q-17 0 -34.5 -5.5t-32 -16.5t-23.5 -28.5t-9 -41.5zM177 209q3 -15 10.5 -29.5t20.5 -26t31.5 -18.5t43.5 -7q34 0 69.5 12t73.5 34q4 2 8 0t4 -7l5 -120q0 -4 -3 -7q-11 -10 -29.5 -20t-41 -18
t-47.5 -13t-47 -5q-54 0 -100.5 16t-81 49.5t-54 85t-19.5 121.5q0 48 16.5 95t49.5 84.5t82.5 60.5t115.5 23q42 0 74.5 -15.5t55 -39.5t34 -53.5t11.5 -58.5q0 -69 -54 -109t-162 -40q-17 0 -34 1.5t-32 4.5zM295 572q-10 -8 -18.5 -11t-21.5 -3h-87q-9 0 -12 5t5 16
l78 103q6 8 14 12.5t24 4.5h128q13 0 16.5 -7t-4.5 -15z" />
    <glyph glyph-name="egrave" unicode="&#xe8;" horiz-adv-x="479" 
d="M173 286q20 -5 44 -5q47 0 78 12.5t31 39.5q0 20 -15.5 32.5t-38.5 12.5q-17 0 -34.5 -5.5t-32 -16.5t-23.5 -28.5t-9 -41.5zM177 209q3 -15 10.5 -29.5t20.5 -26t31.5 -18.5t43.5 -7q34 0 69.5 12t73.5 34q4 2 8 0t4 -7l5 -120q0 -4 -3 -7q-11 -10 -29.5 -20t-41 -18
t-47.5 -13t-47 -5q-54 0 -100.5 16t-81 49.5t-54 85t-19.5 121.5q0 48 16.5 95t49.5 84.5t82.5 60.5t115.5 23q42 0 74.5 -15.5t55 -39.5t34 -53.5t11.5 -58.5q0 -69 -54 -109t-162 -40q-17 0 -34 1.5t-32 4.5zM87 677q-8 8 -4.5 15t16.5 7h136q17 0 24.5 -4.5t13.5 -12.5
l79 -103q8 -10 4.5 -15.5t-12.5 -5.5h-89q-14 0 -22 3t-18 11z" />
    <glyph glyph-name="ecircumflex" unicode="&#xea;" horiz-adv-x="479" 
d="M173 286q20 -5 44 -5q47 0 78 12.5t31 39.5q0 20 -15.5 32.5t-38.5 12.5q-17 0 -34.5 -5.5t-32 -16.5t-23.5 -28.5t-9 -41.5zM177 209q3 -15 10.5 -29.5t20.5 -26t31.5 -18.5t43.5 -7q34 0 69.5 12t73.5 34q4 2 8 0t4 -7l5 -120q0 -4 -3 -7q-11 -10 -29.5 -20t-41 -18
t-47.5 -13t-47 -5q-54 0 -100.5 16t-81 49.5t-54 85t-19.5 121.5q0 48 16.5 95t49.5 84.5t82.5 60.5t115.5 23q42 0 74.5 -15.5t55 -39.5t34 -53.5t11.5 -58.5q0 -69 -54 -109t-162 -40q-17 0 -34 1.5t-32 4.5zM259 612l-41 -40q-9 -8 -18 -11t-22 -3h-77q-9 0 -12 5.5
t5 15.5l108 123q8 8 15 12.5t23 4.5h42q17 0 23.5 -4t14.5 -13l109 -123q8 -8 4.5 -14.5t-12.5 -6.5h-79q-14 0 -22.5 3t-17.5 11z" />
    <glyph glyph-name="edieresis" unicode="&#xeb;" horiz-adv-x="479" 
d="M173 286q20 -5 44 -5q47 0 78 12.5t31 39.5q0 20 -15.5 32.5t-38.5 12.5q-17 0 -34.5 -5.5t-32 -16.5t-23.5 -28.5t-9 -41.5zM177 209q3 -15 10.5 -29.5t20.5 -26t31.5 -18.5t43.5 -7q34 0 69.5 12t73.5 34q4 2 8 0t4 -7l5 -120q0 -4 -3 -7q-11 -10 -29.5 -20t-41 -18
t-47.5 -13t-47 -5q-54 0 -100.5 16t-81 49.5t-54 85t-19.5 121.5q0 48 16.5 95t49.5 84.5t82.5 60.5t115.5 23q42 0 74.5 -15.5t55 -39.5t34 -53.5t11.5 -58.5q0 -69 -54 -109t-162 -40q-17 0 -34 1.5t-32 4.5zM141 548q-17 0 -33.5 6t-29.5 16.5t-21 26t-8 33.5
q0 34 26.5 58t64.5 24q18 0 34.5 -6t29.5 -17t20.5 -26t7.5 -33t-7.5 -33t-20.5 -26t-29 -17t-34 -6zM381 548q-17 0 -33.5 6t-29.5 16.5t-21 26t-8 33.5q0 34 26.5 58t64.5 24q18 0 34.5 -6t29.5 -17t20.5 -26t7.5 -33t-7.5 -33t-20.5 -26t-29 -17t-34 -6z" />
    <glyph glyph-name="iacute" unicode="&#xed;" horiz-adv-x="285" 
d="M228 461q12 0 12 -13v-437q0 -11 -13 -11h-170q-12 0 -12 12v436q0 13 12 13h171zM198 572q-10 -8 -18.5 -11t-21.5 -3h-87q-9 0 -12 5t5 16l78 103q6 8 14 12.5t24 4.5h128q13 0 16.5 -7t-4.5 -15z" />
    <glyph glyph-name="igrave" unicode="&#xec;" horiz-adv-x="285" 
d="M228 461q12 0 12 -13v-437q0 -11 -13 -11h-170q-12 0 -12 12v436q0 13 12 13h171zM-38 677q-8 8 -4.5 15t16.5 7h136q17 0 24.5 -4.5t13.5 -12.5l79 -103q8 -10 4.5 -15.5t-12.5 -5.5h-89q-14 0 -22 3t-18 11z" />
    <glyph glyph-name="icircumflex" unicode="&#xee;" horiz-adv-x="285" 
d="M228 461q12 0 12 -13v-437q0 -11 -13 -11h-170q-12 0 -12 12v436q0 13 12 13h171zM142 612l-41 -40q-9 -8 -18 -11t-22 -3h-77q-9 0 -12 5.5t5 15.5l108 123q8 8 15 12.5t23 4.5h42q17 0 23.5 -4t14.5 -13l109 -123q8 -8 4.5 -14.5t-12.5 -6.5h-79q-14 0 -22.5 3
t-17.5 11z" />
    <glyph glyph-name="idieresis" unicode="&#xef;" horiz-adv-x="285" 
d="M228 461q12 0 12 -13v-437q0 -11 -13 -11h-170q-12 0 -12 12v436q0 13 12 13h171zM24 548q-17 0 -33.5 6t-29.5 16.5t-21 26t-8 33.5q0 34 26.5 58t64.5 24q18 0 34.5 -6t29.5 -17t20.5 -26t7.5 -33t-7.5 -33t-20.5 -26t-29 -17t-34 -6zM264 548q-17 0 -33.5 6
t-29.5 16.5t-21 26t-8 33.5q0 34 26.5 58t64.5 24q18 0 34.5 -6t29.5 -17t20.5 -26t7.5 -33t-7.5 -33t-20.5 -26t-29 -17t-34 -6z" />
    <glyph glyph-name="ntilde" unicode="&#xf1;" 
d="M304 339q-30 0 -48.5 -15t-27.5 -43v-269q0 -12 -12 -12h-158q-13 0 -13 12v470q0 12 12 12h157q12 0 12 -12v-40q58 60 131 60q58 0 96 -24t60.5 -62.5t31.5 -87t9 -97.5v-219q0 -12 -12 -12h-163q-10 0 -10 12l-2 223q-1 54 -16 79t-47 25zM481 699q9 0 15.5 -5.5
t6.5 -16.5q0 -13 -7 -36t-22.5 -45t-41 -38t-62.5 -16q-19 0 -39 7.5t-39.5 16.5l-36.5 16.5t-30 7.5q-18 0 -26.5 -8.5t-14.5 -23.5q-3 -11 -15 -11h-43q-10 0 -16.5 6t-6.5 16q0 13 6 37t20.5 47.5t40 41t64.5 17.5q20 0 38.5 -7.5t36.5 -17t37 -17t42 -7.5q13 0 22 5.5
t14 20.5q3 10 15 10h42z" />
    <glyph glyph-name="oacute" unicode="&#xf3;" horiz-adv-x="532" 
d="M512 243q0 -51 -17 -97.5t-48 -82t-74.5 -57t-95.5 -21.5q-62 0 -110 19.5t-80.5 54.5t-49.5 82.5t-17 104.5q0 61 20 111t55 86t83 56t104 20t99 -25.5t72 -65t44 -88.5t15 -97zM347 246q0 17 -5.5 33t-16 28.5t-25 20t-32.5 7.5t-32 -7.5t-24 -20.5t-15 -29t-5 -33
t5.5 -33.5t16 -29t24.5 -20t31 -7.5q18 0 32.5 8.5t24.5 21.5t15.5 29t5.5 32zM321 572q-10 -8 -18.5 -11t-21.5 -3h-87q-9 0 -12 5t5 16l78 103q6 8 14 12.5t24 4.5h128q13 0 16.5 -7t-4.5 -15z" />
    <glyph glyph-name="ograve" unicode="&#xf2;" horiz-adv-x="532" 
d="M512 243q0 -51 -17 -97.5t-48 -82t-74.5 -57t-95.5 -21.5q-62 0 -110 19.5t-80.5 54.5t-49.5 82.5t-17 104.5q0 61 20 111t55 86t83 56t104 20t99 -25.5t72 -65t44 -88.5t15 -97zM347 246q0 17 -5.5 33t-16 28.5t-25 20t-32.5 7.5t-32 -7.5t-24 -20.5t-15 -29t-5 -33
t5.5 -33.5t16 -29t24.5 -20t31 -7.5q18 0 32.5 8.5t24.5 21.5t15.5 29t5.5 32zM104 677q-8 8 -4.5 15t16.5 7h136q17 0 24.5 -4.5t13.5 -12.5l79 -103q8 -10 4.5 -15.5t-12.5 -5.5h-89q-14 0 -22 3t-18 11z" />
    <glyph glyph-name="ocircumflex" unicode="&#xf4;" horiz-adv-x="532" 
d="M512 243q0 -51 -17 -97.5t-48 -82t-74.5 -57t-95.5 -21.5q-62 0 -110 19.5t-80.5 54.5t-49.5 82.5t-17 104.5q0 61 20 111t55 86t83 56t104 20t99 -25.5t72 -65t44 -88.5t15 -97zM347 246q0 17 -5.5 33t-16 28.5t-25 20t-32.5 7.5t-32 -7.5t-24 -20.5t-15 -29t-5 -33
t5.5 -33.5t16 -29t24.5 -20t31 -7.5q18 0 32.5 8.5t24.5 21.5t15.5 29t5.5 32zM274 612l-41 -40q-9 -8 -18 -11t-22 -3h-77q-9 0 -12 5.5t5 15.5l108 123q8 8 15 12.5t23 4.5h42q17 0 23.5 -4t14.5 -13l109 -123q8 -8 4.5 -14.5t-12.5 -6.5h-79q-14 0 -22.5 3t-17.5 11z" />
    <glyph glyph-name="odieresis" unicode="&#xf6;" horiz-adv-x="532" 
d="M512 243q0 -51 -17 -97.5t-48 -82t-74.5 -57t-95.5 -21.5q-62 0 -110 19.5t-80.5 54.5t-49.5 82.5t-17 104.5q0 61 20 111t55 86t83 56t104 20t99 -25.5t72 -65t44 -88.5t15 -97zM347 246q0 17 -5.5 33t-16 28.5t-25 20t-32.5 7.5t-32 -7.5t-24 -20.5t-15 -29t-5 -33
t5.5 -33.5t16 -29t24.5 -20t31 -7.5q18 0 32.5 8.5t24.5 21.5t15.5 29t5.5 32zM156 548q-17 0 -33.5 6t-29.5 16.5t-21 26t-8 33.5q0 34 26.5 58t64.5 24q18 0 34.5 -6t29.5 -17t20.5 -26t7.5 -33t-7.5 -33t-20.5 -26t-29 -17t-34 -6zM396 548q-17 0 -33.5 6t-29.5 16.5
t-21 26t-8 33.5q0 34 26.5 58t64.5 24q18 0 34.5 -6t29.5 -17t20.5 -26t7.5 -33t-7.5 -33t-20.5 -26t-29 -17t-34 -6z" />
    <glyph glyph-name="otilde" unicode="&#xf5;" horiz-adv-x="532" 
d="M512 243q0 -51 -17 -97.5t-48 -82t-74.5 -57t-95.5 -21.5q-62 0 -110 19.5t-80.5 54.5t-49.5 82.5t-17 104.5q0 61 20 111t55 86t83 56t104 20t99 -25.5t72 -65t44 -88.5t15 -97zM347 246q0 17 -5.5 33t-16 28.5t-25 20t-32.5 7.5t-32 -7.5t-24 -20.5t-15 -29t-5 -33
t5.5 -33.5t16 -29t24.5 -20t31 -7.5q18 0 32.5 8.5t24.5 21.5t15.5 29t5.5 32zM454 699q9 0 15.5 -5.5t6.5 -16.5q0 -13 -7 -36t-22.5 -45t-41 -38t-62.5 -16q-19 0 -39 7.5t-39.5 16.5l-36.5 16.5t-30 7.5q-18 0 -26.5 -8.5t-14.5 -23.5q-3 -11 -15 -11h-43q-10 0 -16.5 6
t-6.5 16q0 13 6 37t20.5 47.5t40 41t64.5 17.5q20 0 38.5 -7.5t36.5 -17t37 -17t42 -7.5q13 0 22 5.5t14 20.5q3 10 15 10h42z" />
    <glyph glyph-name="uacute" unicode="&#xfa;" 
d="M40 482q0 12 13 12h162q10 0 10 -12l2 -219q0 -60 16 -83.5t47 -23.5q59 0 76 58v268q0 12 12 12h158q13 0 13 -12v-470q0 -12 -12 -12h-157q-12 0 -12 12v41q-59 -60 -131 -60q-53 0 -90.5 21t-61 57.5t-34.5 86t-11 106.5v218zM352 572q-10 -8 -18.5 -11t-21.5 -3h-87
q-9 0 -12 5t5 16l78 103q6 8 14 12.5t24 4.5h128q13 0 16.5 -7t-4.5 -15z" />
    <glyph glyph-name="ugrave" unicode="&#xf9;" 
d="M40 482q0 12 13 12h162q10 0 10 -12l2 -219q0 -60 16 -83.5t47 -23.5q59 0 76 58v268q0 12 12 12h158q13 0 13 -12v-470q0 -12 -12 -12h-157q-12 0 -12 12v41q-59 -60 -131 -60q-53 0 -90.5 21t-61 57.5t-34.5 86t-11 106.5v218zM125 677q-8 8 -4.5 15t16.5 7h136
q17 0 24.5 -4.5t13.5 -12.5l79 -103q8 -10 4.5 -15.5t-12.5 -5.5h-89q-14 0 -22 3t-18 11z" />
    <glyph glyph-name="ucircumflex" unicode="&#xfb;" 
d="M40 482q0 12 13 12h162q10 0 10 -12l2 -219q0 -60 16 -83.5t47 -23.5q59 0 76 58v268q0 12 12 12h158q13 0 13 -12v-470q0 -12 -12 -12h-157q-12 0 -12 12v41q-59 -60 -131 -60q-53 0 -90.5 21t-61 57.5t-34.5 86t-11 106.5v218zM295 612l-41 -40q-9 -8 -18 -11t-22 -3
h-77q-9 0 -12 5.5t5 15.5l108 123q8 8 15 12.5t23 4.5h42q17 0 23.5 -4t14.5 -13l109 -123q8 -8 4.5 -14.5t-12.5 -6.5h-79q-14 0 -22.5 3t-17.5 11z" />
    <glyph glyph-name="cedilla" unicode="&#xb8;" horiz-adv-x="368" 
d="M190 -187q-10 -8 -18.5 -11t-21.5 -3h-87q-9 0 -12 5t5 16l78 103q6 8 14 12.5t24 4.5h128q13 0 16.5 -7t-4.5 -15z" />
    <glyph glyph-name="ccedilla" unicode="&#xe7;" horiz-adv-x="429" 
d="M399 28q0 -5 -5 -10q-16 -14 -47.5 -23.5t-68.5 -9.5q-57 0 -104.5 18.5t-81.5 51.5t-53 78t-19 98q0 69 21 123t58.5 91t89.5 56.5t114 19.5q22 0 47.5 -2.5t36.5 -6.5q6 -2 6 -7v-145q0 -7 -7 -7q-9 0 -28.5 5t-51.5 5q-60 0 -95.5 -34.5t-35.5 -94.5q0 -47 30 -76.5
t78 -29.5t99 25q5 2 8.5 0t3.5 -7zM220 -187q-10 -8 -18.5 -11t-21.5 -3h-87q-9 0 -12 5t5 16l78 103q6 8 14 12.5t24 4.5h128q13 0 16.5 -7t-4.5 -15z" />
    <glyph glyph-name="Ccedilla" unicode="&#xc7;" horiz-adv-x="553" 
d="M523 41q0 -5 -4 -9q-24 -23 -66 -35t-90 -12q-77 0 -140.5 25t-108.5 69.5t-69.5 104.5t-24.5 129q0 92 28 164t77.5 121.5t118.5 75t152 25.5q33 0 65 -3.5t48 -8.5q7 -3 7 -9v-181q0 -11 -10 -11q-9 0 -34.5 6.5t-64.5 6.5q-29 0 -61.5 -6t-60 -23t-45.5 -46.5
t-18 -77.5q0 -47 14 -77.5t37 -48t52 -24.5t59 -7q33 0 64 6t52 14q6 2 11 0.5t5 -9.5zM312 -187q-10 -8 -18.5 -11t-21.5 -3h-87q-9 0 -12 5t5 16l78 103q6 8 14 12.5t24 4.5h128q13 0 16.5 -7t-4.5 -15z" />
    <glyph glyph-name="ydieresis" unicode="&#xff;" horiz-adv-x="585" 
d="M540 90q0 -62 -7 -119.5t-31 -102t-68.5 -71t-119.5 -26.5q-31 0 -60 3.5t-45 9.5q-9 3 -9 12v140q0 13 14 13q8 0 31 -5.5t54 -5.5q37 0 48.5 24.5t11.5 85.5q-8 -15 -21.5 -27t-31 -20t-36 -12t-34.5 -4q-56 0 -94 21t-60.5 56.5t-32 83t-9.5 101.5v237q0 10 12 10h164
q12 0 12 -12l-1 -235q0 -105 56 -105q50 0 74 38v303q0 11 11 11h158q13 0 13 -11zM173 548q-17 0 -33.5 6t-29.5 16.5t-21 26t-8 33.5q0 34 26.5 58t64.5 24q18 0 34.5 -6t29.5 -17t20.5 -26t7.5 -33t-7.5 -33t-20.5 -26t-29 -17t-34 -6zM413 548q-17 0 -33.5 6t-29.5 16.5
t-21 26t-8 33.5q0 34 26.5 58t64.5 24q18 0 34.5 -6t29.5 -17t20.5 -26t7.5 -33t-7.5 -33t-20.5 -26t-29 -17t-34 -6z" />
    <glyph glyph-name="Ydieresis" unicode="&#x178;" horiz-adv-x="596" 
d="M595 688q-12 -36 -30.5 -84.5t-43 -106l-54.5 -122.5l-64 -135l2 -229q0 -11 -12 -11h-199q-12 0 -12 11v229l-51.5 118.5l-48 121l-41 113t-30.5 95.5q-2 6 2 9t10 3h200q9 0 11 -8l62 -280l74 280q3 8 12 8h201q6 0 10 -3t2 -9zM181 754q-17 0 -33.5 6t-29.5 16.5
t-21 26t-8 33.5q0 34 26.5 58t64.5 24q18 0 34.5 -6t29.5 -17t20.5 -26t7.5 -33t-7.5 -33t-20.5 -26t-29 -17t-34 -6zM421 754q-17 0 -33.5 6t-29.5 16.5t-21 26t-8 33.5q0 34 26.5 58t64.5 24q18 0 34.5 -6t29.5 -17t20.5 -26t7.5 -33t-7.5 -33t-20.5 -26t-29 -17t-34 -6z
" />
    <glyph glyph-name="Acircumflex" unicode="&#xc2;" horiz-adv-x="653" 
d="M642 12q2 -6 -2 -9t-10 -3h-190q-11 0 -12 10l-23 114h-156l-23 -114q-1 -10 -12 -10h-191q-6 0 -10 3.5t-2 9.5l156 677q2 10 12 10h298q10 0 12 -10zM376 283l-43 243l-51 -243h94zM324 818l-41 -40q-9 -8 -18 -11t-22 -3h-77q-9 0 -12 5.5t5 15.5l108 123q8 8 15 12.5
t23 4.5h42q17 0 23.5 -4t14.5 -13l109 -123q8 -8 4.5 -14.5t-12.5 -6.5h-79q-14 0 -22.5 3t-17.5 11z" />
    <glyph glyph-name="Ecircumflex" unicode="&#xca;" horiz-adv-x="578" 
d="M538 12q0 -12 -12 -12h-459q-12 0 -12 12v675q0 13 12 13h459q12 0 12 -13v-135q0 -12 -12 -12h-268v-114h212q12 0 12 -12v-136q0 -12 -12 -12h-212v-106h268q12 0 12 -12v-136zM297 818l-41 -40q-9 -8 -18 -11t-22 -3h-77q-9 0 -12 5.5t5 15.5l108 123q8 8 15 12.5
t23 4.5h42q17 0 23.5 -4t14.5 -13l109 -123q8 -8 4.5 -14.5t-12.5 -6.5h-79q-14 0 -22.5 3t-17.5 11z" />
    <glyph glyph-name="Aacute" unicode="&#xc1;" horiz-adv-x="653" 
d="M642 12q2 -6 -2 -9t-10 -3h-190q-11 0 -12 10l-23 114h-156l-23 -114q-1 -10 -12 -10h-191q-6 0 -10 3.5t-2 9.5l156 677q2 10 12 10h298q10 0 12 -10zM376 283l-43 243l-51 -243h94zM382 778q-10 -8 -18.5 -11t-21.5 -3h-87q-9 0 -12 5t5 16l78 103q6 8 14 12.5t24 4.5
h128q13 0 16.5 -7t-4.5 -15z" />
    <glyph glyph-name="Edieresis" unicode="&#xcb;" horiz-adv-x="578" 
d="M538 12q0 -12 -12 -12h-459q-12 0 -12 12v675q0 13 12 13h459q12 0 12 -13v-135q0 -12 -12 -12h-268v-114h212q12 0 12 -12v-136q0 -12 -12 -12h-212v-106h268q12 0 12 -12v-136zM179 754q-17 0 -33.5 6t-29.5 16.5t-21 26t-8 33.5q0 34 26.5 58t64.5 24q18 0 34.5 -6
t29.5 -17t20.5 -26t7.5 -33t-7.5 -33t-20.5 -26t-29 -17t-34 -6zM419 754q-17 0 -33.5 6t-29.5 16.5t-21 26t-8 33.5q0 34 26.5 58t64.5 24q18 0 34.5 -6t29.5 -17t20.5 -26t7.5 -33t-7.5 -33t-20.5 -26t-29 -17t-34 -6z" />
    <glyph glyph-name="Egrave" unicode="&#xc8;" horiz-adv-x="578" 
d="M538 12q0 -12 -12 -12h-459q-12 0 -12 12v675q0 13 12 13h459q12 0 12 -13v-135q0 -12 -12 -12h-268v-114h212q12 0 12 -12v-136q0 -12 -12 -12h-212v-106h268q12 0 12 -12v-136zM127 883q-8 8 -4.5 15t16.5 7h136q17 0 24.5 -4.5t13.5 -12.5l79 -103q8 -10 4.5 -15.5
t-12.5 -5.5h-89q-14 0 -22 3t-18 11z" />
    <glyph glyph-name="Iacute" unicode="&#xcd;" horiz-adv-x="332" 
d="M277 11q0 -11 -13 -11h-197q-12 0 -12 12v675q0 13 12 13h198q11 0 11 -12zM222 778q-10 -8 -18.5 -11t-21.5 -3h-87q-9 0 -12 5t5 16l78 103q6 8 14 12.5t24 4.5h128q13 0 16.5 -7t-4.5 -15z" />
    <glyph glyph-name="Icircumflex" unicode="&#xce;" horiz-adv-x="332" 
d="M277 11q0 -11 -13 -11h-197q-12 0 -12 12v675q0 13 12 13h198q11 0 11 -12zM165 818l-41 -40q-9 -8 -18 -11t-22 -3h-77q-9 0 -12 5.5t5 15.5l108 123q8 8 15 12.5t23 4.5h42q17 0 23.5 -4t14.5 -13l109 -123q8 -8 4.5 -14.5t-12.5 -6.5h-79q-14 0 -22.5 3t-17.5 11z" />
    <glyph glyph-name="Idieresis" unicode="&#xcf;" horiz-adv-x="332" 
d="M277 11q0 -11 -13 -11h-197q-12 0 -12 12v675q0 13 12 13h198q11 0 11 -12zM48 754q-17 0 -33.5 6t-29.5 16.5t-21 26t-8 33.5q0 34 26.5 58t64.5 24q18 0 34.5 -6t29.5 -17t20.5 -26t7.5 -33t-7.5 -33t-20.5 -26t-29 -17t-34 -6zM288 754q-17 0 -33.5 6t-29.5 16.5
t-21 26t-8 33.5q0 34 26.5 58t64.5 24q18 0 34.5 -6t29.5 -17t20.5 -26t7.5 -33t-7.5 -33t-20.5 -26t-29 -17t-34 -6z" />
    <glyph glyph-name="Igrave" unicode="&#xcc;" horiz-adv-x="332" 
d="M277 11q0 -11 -13 -11h-197q-12 0 -12 12v675q0 13 12 13h198q11 0 11 -12zM-15 883q-8 8 -4.5 15t16.5 7h136q17 0 24.5 -4.5t13.5 -12.5l79 -103q8 -10 4.5 -15.5t-12.5 -5.5h-89q-14 0 -22 3t-18 11z" />
    <glyph glyph-name="Oacute" unicode="&#xd3;" horiz-adv-x="700" 
d="M372 703q73 0 130 -32.5t96.5 -85t60.5 -119t21 -134.5q0 -69 -22.5 -132t-64 -110.5t-99.5 -76t-128 -28.5q-81 0 -145 24.5t-108.5 70.5t-68.5 111t-24 145q0 79 25.5 146.5t71.5 116.5t111 76.5t144 27.5zM354 167q31 0 55 14t41 37t26 51.5t9 57.5q0 31 -9.5 59.5
t-27 51t-41.5 36t-53 13.5q-28 0 -52 -13t-41.5 -34.5t-27.5 -50.5t-10 -62q0 -32 10 -61t27 -51t41 -35t53 -13zM415 778q-10 -8 -18.5 -11t-21.5 -3h-87q-9 0 -12 5t5 16l78 103q6 8 14 12.5t24 4.5h128q13 0 16.5 -7t-4.5 -15z" />
    <glyph glyph-name="Ocircumflex" unicode="&#xd4;" horiz-adv-x="700" 
d="M372 703q73 0 130 -32.5t96.5 -85t60.5 -119t21 -134.5q0 -69 -22.5 -132t-64 -110.5t-99.5 -76t-128 -28.5q-81 0 -145 24.5t-108.5 70.5t-68.5 111t-24 145q0 79 25.5 146.5t71.5 116.5t111 76.5t144 27.5zM354 167q31 0 55 14t41 37t26 51.5t9 57.5q0 31 -9.5 59.5
t-27 51t-41.5 36t-53 13.5q-28 0 -52 -13t-41.5 -34.5t-27.5 -50.5t-10 -62q0 -32 10 -61t27 -51t41 -35t53 -13zM358 818l-41 -40q-9 -8 -18 -11t-22 -3h-77q-9 0 -12 5.5t5 15.5l108 123q8 8 15 12.5t23 4.5h42q17 0 23.5 -4t14.5 -13l109 -123q8 -8 4.5 -14.5t-12.5 -6.5
h-79q-14 0 -22.5 3t-17.5 11z" />
    <glyph glyph-name="Ograve" unicode="&#xd2;" horiz-adv-x="700" 
d="M372 703q73 0 130 -32.5t96.5 -85t60.5 -119t21 -134.5q0 -69 -22.5 -132t-64 -110.5t-99.5 -76t-128 -28.5q-81 0 -145 24.5t-108.5 70.5t-68.5 111t-24 145q0 79 25.5 146.5t71.5 116.5t111 76.5t144 27.5zM354 167q31 0 55 14t41 37t26 51.5t9 57.5q0 31 -9.5 59.5
t-27 51t-41.5 36t-53 13.5q-28 0 -52 -13t-41.5 -34.5t-27.5 -50.5t-10 -62q0 -32 10 -61t27 -51t41 -35t53 -13zM178 883q-8 8 -4.5 15t16.5 7h136q17 0 24.5 -4.5t13.5 -12.5l79 -103q8 -10 4.5 -15.5t-12.5 -5.5h-89q-14 0 -22 3t-18 11z" />
    <glyph glyph-name="Uacute" unicode="&#xda;" horiz-adv-x="681" 
d="M631 252q0 -144 -74.5 -215t-216.5 -71t-216 71t-74 215v435q0 13 11 13h188q12 0 12 -13v-424q0 -57 21.5 -84.5t57.5 -27.5q37 0 58 27.5t21 84.5v424q0 13 12 13h189q11 0 11 -13v-435zM406 778q-10 -8 -18.5 -11t-21.5 -3h-87q-9 0 -12 5t5 16l78 103q6 8 14 12.5
t24 4.5h128q13 0 16.5 -7t-4.5 -15z" />
    <glyph glyph-name="Ucircumflex" unicode="&#xdb;" horiz-adv-x="681" 
d="M631 252q0 -144 -74.5 -215t-216.5 -71t-216 71t-74 215v435q0 13 11 13h188q12 0 12 -13v-424q0 -57 21.5 -84.5t57.5 -27.5q37 0 58 27.5t21 84.5v424q0 13 12 13h189q11 0 11 -13v-435zM338 818l-41 -40q-9 -8 -18 -11t-22 -3h-77q-9 0 -12 5.5t5 15.5l108 123
q8 8 15 12.5t23 4.5h42q17 0 23.5 -4t14.5 -13l109 -123q8 -8 4.5 -14.5t-12.5 -6.5h-79q-14 0 -22.5 3t-17.5 11z" />
    <glyph glyph-name="Ugrave" unicode="&#xd9;" horiz-adv-x="681" 
d="M631 252q0 -144 -74.5 -215t-216.5 -71t-216 71t-74 215v435q0 13 11 13h188q12 0 12 -13v-424q0 -57 21.5 -84.5t57.5 -27.5q37 0 58 27.5t21 84.5v424q0 13 12 13h189q11 0 11 -13v-435zM148 883q-8 8 -4.5 15t16.5 7h136q17 0 24.5 -4.5t13.5 -12.5l79 -103
q8 -10 4.5 -15.5t-12.5 -5.5h-89q-14 0 -22 3t-18 11z" />
    <glyph glyph-name="Agrave" unicode="&#xc0;" horiz-adv-x="653" 
d="M642 12q2 -6 -2 -9t-10 -3h-190q-11 0 -12 10l-23 114h-156l-23 -114q-1 -10 -12 -10h-191q-6 0 -10 3.5t-2 9.5l156 677q2 10 12 10h298q10 0 12 -10zM376 283l-43 243l-51 -243h94zM144 883q-8 8 -4.5 15t16.5 7h136q17 0 24.5 -4.5t13.5 -12.5l79 -103
q8 -10 4.5 -15.5t-12.5 -5.5h-89q-14 0 -22 3t-18 11z" />
    <glyph glyph-name="Atilde" unicode="&#xc3;" horiz-adv-x="653" 
d="M642 12q2 -6 -2 -9t-10 -3h-190q-11 0 -12 10l-23 114h-156l-23 -114q-1 -10 -12 -10h-191q-6 0 -10 3.5t-2 9.5l156 677q2 10 12 10h298q10 0 12 -10zM376 283l-43 243l-51 -243h94zM509 905q9 0 15.5 -5.5t6.5 -16.5q0 -13 -7 -36t-22.5 -45t-41 -38t-62.5 -16
q-19 0 -39 7.5t-39.5 16.5l-36.5 16.5t-30 7.5q-18 0 -26.5 -8.5t-14.5 -23.5q-3 -11 -15 -11h-43q-10 0 -16.5 6t-6.5 16q0 13 6 37t20.5 47.5t40 41t64.5 17.5q20 0 38.5 -7.5t36.5 -17t37 -17t42 -7.5q13 0 22 5.5t14 20.5q3 10 15 10h42z" />
    <glyph glyph-name="Otilde" unicode="&#xd5;" horiz-adv-x="700" 
d="M372 703q73 0 130 -32.5t96.5 -85t60.5 -119t21 -134.5q0 -69 -22.5 -132t-64 -110.5t-99.5 -76t-128 -28.5q-81 0 -145 24.5t-108.5 70.5t-68.5 111t-24 145q0 79 25.5 146.5t71.5 116.5t111 76.5t144 27.5zM354 167q31 0 55 14t41 37t26 51.5t9 57.5q0 31 -9.5 59.5
t-27 51t-41.5 36t-53 13.5q-28 0 -52 -13t-41.5 -34.5t-27.5 -50.5t-10 -62q0 -32 10 -61t27 -51t41 -35t53 -13zM538 905q9 0 15.5 -5.5t6.5 -16.5q0 -13 -7 -36t-22.5 -45t-41 -38t-62.5 -16q-19 0 -39 7.5t-39.5 16.5l-36.5 16.5t-30 7.5q-18 0 -26.5 -8.5t-14.5 -23.5
q-3 -11 -15 -11h-43q-10 0 -16.5 6t-6.5 16q0 13 6 37t20.5 47.5t40 41t64.5 17.5q20 0 38.5 -7.5t36.5 -17t37 -17t42 -7.5q13 0 22 5.5t14 20.5q3 10 15 10h42z" />
    <glyph glyph-name="OE" unicode="&#x152;" horiz-adv-x="948" 
d="M908 12q0 -12 -12 -12h-427h-7h-7q-39 -15 -89 -15q-81 0 -145 24.5t-108.5 70.5t-68.5 111t-24 145q0 79 25.5 146.5t71.5 116.5t111 76.5t144 27.5q21 0 39 -3h4h10h471q12 0 12 -13v-135q0 -12 -12 -12h-268v-114h212q12 0 12 -12v-136q0 -12 -12 -12h-212v-106h268
q12 0 12 -12v-136zM354 167q19 0 38.5 5.5t32.5 16.5v282q-11 8 -30 12t-41 4q-28 0 -52 -13t-41.5 -34.5t-27.5 -50.5t-10 -62q0 -32 10 -61t27 -51t41 -35t53 -13z" />
    <glyph glyph-name="AE" unicode="&#xc6;" horiz-adv-x="911" 
d="M871 12q0 -12 -12 -12h-459q-12 0 -12 12v112h-147l-42 -114q-3 -10 -13 -10h-190q-6 0 -9 3.5t-1 9.5l263 677q3 10 13 10h597q12 0 12 -13v-135q0 -12 -12 -12h-268v-114h212q12 0 12 -12v-136q0 -12 -12 -12h-212v-106h268q12 0 12 -12v-136zM388 283v243l-89 -243h89
z" />
    <glyph glyph-name="notequal" unicode="&#x2260;" horiz-adv-x="661" 
d="M456 524h113q12 0 12 -12v-116q0 -12 -12 -12h-164l-37 -100h201q12 0 12 -12v-116q0 -12 -12 -12h-252l-48 -133q-4 -11 -17 -11h-87q-13 0 -8 12l48 132h-113q-12 0 -12 12v116q0 12 12 12h165l36 100h-201q-12 0 -12 12v116q0 12 12 12h253l48 131q4 13 15 13h88
q12 0 8 -12z" />
    <glyph glyph-name="oe" unicode="&#x153;" horiz-adv-x="803" 
d="M501 209q3 -15 10.5 -29.5t20.5 -26t31.5 -18.5t43.5 -7q34 0 69.5 12t73.5 34q4 2 8 0t4 -7l5 -120q0 -4 -3 -7q-11 -10 -29.5 -20t-41 -18t-47.5 -13t-47 -5q-54 0 -98 15.5t-76 48.5q-27 -29 -64.5 -46t-83.5 -17q-62 0 -110 19.5t-80.5 54.5t-49.5 82.5t-17 104.5
q0 61 20 111t55 86t83 56t104 20q48 0 84.5 -18.5t62.5 -50.5q31 32 75 50.5t104 18.5q42 0 74.5 -15.5t55 -39.5t34 -53.5t11.5 -58.5q0 -69 -54 -109t-162 -40q-17 0 -34 1.5t-32 4.5zM347 246q0 17 -5.5 33t-16 28.5t-25 20t-32.5 7.5t-32 -7.5t-24 -20.5t-15 -29t-5 -33
t5.5 -33.5t16 -29t24.5 -20t31 -7.5q18 0 32.5 8.5t24.5 21.5t15.5 29t5.5 32zM497 286q20 -5 44 -5q47 0 78 12.5t31 39.5q0 20 -15.5 32.5t-38.5 12.5q-17 0 -34.5 -5.5t-32 -16.5t-23.5 -28.5t-9 -41.5z" />
    <glyph glyph-name="ae" unicode="&#xe6;" horiz-adv-x="781" 
d="M479 209q3 -15 10.5 -29.5t20.5 -26t31.5 -18.5t43.5 -7q34 0 69.5 12t73.5 34q4 2 8 0t4 -7l5 -120q0 -4 -3 -7q-11 -10 -29.5 -20t-41 -18t-47.5 -13t-47 -5q-48 0 -88.5 13t-72.5 39q-32 -24 -77 -38.5t-93 -14.5q-49 0 -89.5 12t-70 33t-45.5 49.5t-16 61.5
q0 43 17.5 77.5t49 58.5t76.5 36.5t99 12.5q15 0 32 -1t31 -3q0 17 -2.5 33t-9.5 28t-19 19.5t-31 7.5q-18 0 -37 -11.5t-26 -45.5h-136q-6 0 -9.5 2t-3.5 10q0 18 9 48t38 55q34 29 75 42t93 13q104 0 155 -53q30 23 69.5 37t90.5 14q42 0 74.5 -15.5t55 -39.5t34 -53.5
t11.5 -58.5q0 -69 -54 -109t-162 -40q-17 0 -34 1.5t-32 4.5zM353 114q-10 15 -16 40.5t-7 52.5q-13 3 -26.5 4.5t-24.5 1.5q-34 0 -54.5 -19t-20.5 -51q0 -25 18.5 -40.5t45.5 -15.5q24 0 46 7.5t39 19.5zM475 286q20 -5 44 -5q47 0 78 12.5t31 39.5q0 20 -15.5 32.5
t-38.5 12.5q-17 0 -34.5 -5.5t-32 -16.5t-23.5 -28.5t-9 -41.5z" />
    <glyph glyph-name="Oslash" unicode="&#xd8;" horiz-adv-x="700" 
d="M561 627q28 -27 50.5 -61t37.5 -72.5t23 -79.5t8 -82q0 -69 -22.5 -132t-64 -110.5t-99.5 -76t-128 -28.5q-62 0 -113 15l-19 -39q-6 -11 -17 -11h-97q-13 0 -8 12l41 83q-64 45 -98.5 119t-34.5 172q0 79 25.5 146.5t71.5 116.5t111 76.5t144 27.5q26 0 50.5 -5
t46.5 -13l21 42q3 6 6 9.5t9 3.5h98q14 0 8 -12zM354 167q31 0 55 14t41 37t26 51.5t9 57.5q0 51 -25 93l-124 -252q5 -1 9 -1h9zM223 327q0 -53 24 -93l124 251q-5 1 -8.5 1.5t-8.5 0.5q-28 0 -52 -13t-41.5 -34.5t-27.5 -50.5t-10 -62z" />
    <glyph glyph-name="bracketleft" unicode="[" horiz-adv-x="393" 
d="M223 -60h138q12 0 12 -12v-96q0 -12 -12 -12h-269q-12 0 -12 12v855q0 13 12 13h269q12 0 12 -13v-95q0 -12 -12 -12h-138v-640z" />
    <glyph glyph-name="bracketright" unicode="]" horiz-adv-x="393" 
d="M170 580h-138q-12 0 -12 12v95q0 13 12 13h269q12 0 12 -13v-855q0 -12 -12 -12h-269q-12 0 -12 12v96q0 12 12 12h138v640z" />
    <glyph glyph-name="yen" unicode="&#xa5;" horiz-adv-x="596" 
d="M384 114l1 -103q0 -11 -12 -11h-159q-12 0 -12 11v103h-147q-10 0 -16 7t-6 15v86q0 22 22 22h147v36l-20 54h-127q-22 0 -22 22v86q0 8 5.5 15t16.5 7h72q-26 56 -51.5 105l-49.5 91q-8 14 -1 27t24 13h109q33 0 44 -26l94 -222l105 222q5 11 15.5 18.5t24.5 7.5h116
q17 0 23 -13t-4 -27q-28 -42 -56.5 -91t-55.5 -105h68q22 0 22 -22v-86q0 -8 -6 -15t-16 -7h-127l-22 -54v-36h149q8 0 15 -5t7 -17v-86q0 -22 -22 -22h-148z" />
    <glyph glyph-name="backslash" unicode="\" horiz-adv-x="425" 
d="M2 688q-5 12 8 12h118q11 0 15 -13l280 -765q5 -12 -8 -12h-117q-13 0 -17 11z" />
    <glyph glyph-name="less" unicode="&#x3c;" horiz-adv-x="634" 
d="M49 233q-9 3 -9 13v151q0 10 9 12l493 200q6 2 9 -2t3 -10v-141q0 -10 -9 -11l-343 -120l343 -135q9 -2 9 -12v-142q0 -6 -3 -10t-9 -2z" />
    <glyph glyph-name="greater" unicode="&#x3e;" horiz-adv-x="634" 
d="M585 409q9 -3 9 -12v-151q0 -10 -9 -13l-493 -209q-6 -2 -9 2t-3 10v142q0 9 9 12l343 135l-343 120q-9 3 -9 11v141q0 6 3 10t9 2z" />
    <glyph glyph-name="perthousand" unicode="&#x2030;" horiz-adv-x="946" 
d="M772 316q32 0 59.5 -13t47 -36t30.5 -54t11 -66q0 -32 -11.5 -61t-31.5 -50.5t-47.5 -34t-60.5 -12.5q-37 0 -65 11.5t-48 31.5q-19 -19 -45.5 -31t-60.5 -12q-37 0 -66 12.5t-49.5 33.5t-31 49.5t-10.5 60.5t11.5 63t32.5 55t51 38.5t67 14.5q31 0 57.5 -13t46.5 -35
q20 21 48.5 34.5t64.5 13.5zM219 11q-7 -11 -18 -11h-96q-6 0 -8.5 3.5t0.5 8.5l406 675q8 13 19 13h96q13 0 6 -12zM187 715q32 0 58.5 -13t46 -35.5t30.5 -53t11 -64.5q0 -32 -11 -60.5t-31 -49.5t-47.5 -33.5t-59.5 -12.5q-78 0 -121.5 42.5t-43.5 114.5q0 36 12 66
t34.5 52t53 34.5t68.5 12.5zM555 208q-23 0 -40.5 -16.5t-17.5 -41.5q0 -26 15.5 -42t38.5 -16q26 0 41.5 16.5t15.5 41.5q0 23 -14.5 40.5t-38.5 17.5zM769 207q-25 0 -40 -18t-15 -42q0 -23 14.5 -40t40.5 -17q23 0 38.5 17t15.5 40q0 24 -15 42t-39 18zM179 608
q-24 0 -39 -18t-15 -41t14.5 -40t39.5 -17q23 0 38.5 17t15.5 40t-15 41t-39 18z" />
    <glyph glyph-name="oslash" unicode="&#xf8;" horiz-adv-x="532" 
d="M512 243q0 -51 -17 -97.5t-48 -82t-74.5 -57t-95.5 -21.5q-14 0 -26 1t-24 3l-30 -68q-4 -11 -17 -11h-117q-13 0 -8 12l52 117q-43 35 -65 88t-22 119q0 61 20 111t55 86t83 56t104 20q18 0 36 -3l29 65q3 7 6 10t9 3h118q12 0 8 -12l-57 -128q40 -42 60.5 -98.5
t20.5 -112.5zM347 246q0 17 -5.5 33t-16 28.5t-25 20t-32.5 7.5t-32 -7.5t-24 -20.5t-15 -29t-5 -33t5.5 -33.5t16 -29t24.5 -20t31 -7.5q18 0 32.5 8.5t24.5 21.5t15.5 29t5.5 32z" />
    <glyph glyph-name="registered" unicode="&#xae;" horiz-adv-x="823" 
d="M50 353q0 75 26.5 140.5t73 114t110.5 76.5t139 28q84 0 152.5 -27.5t118 -76t76.5 -116t27 -147.5q0 -75 -28.5 -140t-77.5 -113t-115 -75.5t-141 -27.5q-83 0 -149.5 28t-113.5 77t-72.5 115.5t-25.5 143.5zM137 355q0 -59 16.5 -110t51 -88.5t86 -59t122.5 -21.5
q58 0 108.5 21t88 57.5t59 86.5t21.5 107q0 61 -20 113t-56.5 89t-88 58t-115.5 21q-61 0 -111.5 -20.5t-86.5 -57t-55.5 -87t-19.5 -109.5zM591 167q2 -4 0.5 -8t-6.5 -4h-114q-6 0 -7 3l-57 92q-5 -1 -11 -1.5t-11 -0.5l-1 -86q0 -7 -8 -7h-101q-8 0 -8 7v385q0 7 7 7h89
q49 0 89 -8t69 -27t45 -49t16 -75q0 -39 -20 -67t-55 -48zM386 335q80 7 80 55q0 32 -23 46t-56 14z" />
    <glyph glyph-name="copyright" unicode="&#xa9;" horiz-adv-x="823" 
d="M50 360q0 79 31 143.5t83.5 111t121 72t143.5 25.5q80 0 143.5 -27.5t108 -76t68.5 -116t24 -147.5q0 -75 -27.5 -140t-75.5 -113t-113 -75.5t-140 -27.5q-86 0 -154.5 27.5t-115.5 76.5t-72 117.5t-25 149.5zM137 355q0 -63 17 -115t52 -89.5t87 -58t123 -20.5
q58 0 108 21t87 58t58 87t21 107q0 61 -15.5 113.5t-48 91t-82.5 60t-119 21.5q-61 0 -113.5 -19.5t-91.5 -55.5t-61 -87t-22 -114zM544 171q0 -5 -6 -9q-18 -12 -41.5 -18.5t-54.5 -6.5q-50 0 -90 15t-69 41t-44.5 62t-15.5 77q0 54 18 96.5t49.5 72t75.5 44.5t97 15
q21 0 41 -2t31 -5q5 -1 5 -5v-108q0 -7 -7 -7q-5 0 -22.5 4t-42.5 4q-19 0 -40 -3.5t-38.5 -13.5t-29 -27.5t-11.5 -45.5t9 -46t24 -28.5t34 -14.5t38 -4q21 0 41.5 3.5t33.5 8.5q11 4 11 -6z" />
    <glyph glyph-name="trademark" unicode="&#x2122;" horiz-adv-x="759" 
d="M287 628q0 -5 -6 -5h-61v-211q0 -5 -7 -5h-93q-6 0 -6 5v211h-84q-6 0 -6 5v67q0 5 6 5h251q6 0 6 -5v-67zM706 700q6 0 6 -5l-1 -283q0 -5 -5 -5h-84q-6 0 -6 5l-1 153q0 2 1 7.5t2 8.5q-2 -2 -4 -9l-51 -149q-2 -3 -7 -3h-63q-4 0 -5 3l-53 151q-2 6 -3 7q2 -10 2 -15
v-154q0 -5 -6 -5h-83q-6 0 -6 5v283q0 5 7 5h117q3 0 6 -3l56 -140l56 140q1 3 6 3h119z" />
    <glyph glyph-name="Thorn" unicode="&#xde;" horiz-adv-x="597" 
d="M237 697q14 0 14 -12l1 -80q72 -2 132 -16t102.5 -44t66.5 -77.5t24 -117.5q0 -64 -30 -110t-77.5 -76.5t-105.5 -45t-114 -15.5l-2 -92q0 -11 -11 -11h-169q-13 0 -13 11l-1 675q0 11 13 11h170zM387 341q0 26 -11 42.5t-29.5 25.5t-43 12.5t-50.5 3.5l-2 -169
q60 2 98 22.5t38 62.5z" />
    <glyph glyph-name="thorn" unicode="&#xfe;" horiz-adv-x="559" 
d="M226 476q17 8 36.5 13.5t41.5 5.5q52 0 95.5 -18t74.5 -50t48 -75.5t17 -93.5q0 -65 -19.5 -116t-54 -86t-82 -53t-103.5 -18q-13 0 -26.5 1t-27.5 3v-198q0 -12 -12 -12h-157q-12 0 -12 12v897q0 12 11 12h158q12 0 12 -13v-211zM226 159q3 -2 9.5 -3.5t14.5 -2.5
t15.5 -1.5t11.5 -0.5q46 0 71.5 28.5t25.5 76.5q0 37 -23 60.5t-59 23.5q-30 0 -66 -17v-164z" />
    <glyph glyph-name="caron" unicode="&#x2c7;" horiz-adv-x="447" 
d="M226 656l41 40q9 8 18 11t22 3h77q9 0 12 -5.5t-5 -15.5l-108 -123q-8 -8 -15 -12.5t-23 -4.5h-42q-17 0 -23.5 4t-14.5 13l-109 123q-8 8 -4.5 14.5t12.5 6.5h79q14 0 22.5 -3t17.5 -11z" />
    <glyph glyph-name="Zcaron" unicode="&#x17d;" horiz-adv-x="640" 
d="M600 12q0 -12 -12 -12h-536q-12 0 -12 12v195q0 4 4 8l311 305h-303q-12 0 -12 12v157q0 11 13 11h536q11 0 11 -12v-168q0 -4 -4 -8l-298 -306h291q11 0 11 -11v-183zM322 862l41 40q9 8 18 11t22 3h77q9 0 12 -5.5t-5 -15.5l-108 -123q-8 -8 -15 -12.5t-23 -4.5h-42
q-17 0 -23.5 4t-14.5 13l-109 123q-8 8 -4.5 14.5t12.5 6.5h79q14 0 22.5 -3t17.5 -11z" />
    <glyph glyph-name="zcaron" unicode="&#x17e;" horiz-adv-x="579" 
d="M534 12q0 -12 -12 -12h-464q-12 0 -12 12v147q0 5 4 8l262 171h-254q-13 0 -13 12l1 132q0 12 12 12h465q11 0 11 -12v-144q0 -5 -4 -8l-238 -172h231q11 0 11 -12v-134zM291 656l41 40q9 8 18 11t22 3h77q9 0 12 -5.5t-5 -15.5l-108 -123q-8 -8 -15 -12.5t-23 -4.5h-42
q-17 0 -23.5 4t-14.5 13l-109 123q-8 8 -4.5 14.5t12.5 6.5h79q14 0 22.5 -3t17.5 -11z" />
    <glyph glyph-name="questiondown" unicode="&#xbf;" horiz-adv-x="541" 
d="M385 277q9 0 12 -8q4 -9 6.5 -22t2.5 -32q0 -21 -6 -45t-23.5 -48.5t-49 -48.5t-81.5 -43q-39 -14 -39 -40q0 -20 18.5 -37.5t45.5 -17.5q47 0 84.5 20.5t63.5 41.5q3 2 7 3t8 -3l94 -100q7 -7 0 -14q-18 -21 -46 -40.5t-61 -33.5t-68 -22.5t-67 -8.5q-53 0 -103 15
t-88.5 42t-61.5 65t-23 83q0 41 11.5 68.5t29.5 46.5t40.5 31.5t44.5 23.5l33 16t28 17.5t19 22.5t7 31q0 8 -1.5 14t-1.5 10q0 13 11 13h154zM303 517q20 0 39.5 -7t34.5 -20t24.5 -30.5t9.5 -39.5q0 -20 -8.5 -37.5t-23 -30.5t-34 -20.5t-41.5 -7.5q-21 0 -40.5 7.5
t-34.5 20t-24 30.5t-9 39t9 38.5t24 30t34 20t40 7.5z" />
    <glyph glyph-name="exclamdown" unicode="&#xa1;" horiz-adv-x="335" 
d="M252 278q12 0 12 -12v-476q0 -11 -13 -11h-170q-11 0 -11 12l-1 474q0 13 12 13h171zM167 517q20 0 39.5 -7t34.5 -20t24.5 -30.5t9.5 -39.5q0 -20 -8.5 -37.5t-23 -30.5t-34 -20.5t-41.5 -7.5q-21 0 -40.5 7.5t-34.5 20t-24 30.5t-9 39t9 38.5t24 30t34 20t40 7.5z" />
    <glyph glyph-name="bullet" unicode="&#x2022;" horiz-adv-x="530" 
d="M270 134q-42 0 -78.5 12.5t-63.5 36.5t-42.5 59t-15.5 80q0 94 52.5 147t144.5 53q43 0 78.5 -14.5t61 -40.5t39.5 -63t14 -83q0 -41 -13.5 -75.5t-38 -59.5t-60 -38.5t-78.5 -13.5z" />
    <glyph glyph-name="scaron" unicode="&#x161;" horiz-adv-x="463" 
d="M20 351q0 35 18 66t48.5 53.5t71 35.5t85.5 12q54 0 106 -22t87 -58q5 -5 -1 -11l-74 -76q-6 -6 -12 -1q-21 17 -51.5 32.5t-65.5 15.5q-17 0 -28 -10t-11 -21q0 -18 18.5 -27.5t46 -18l60 -18.5t60.5 -27.5t46.5 -46.5t18.5 -75q0 -37 -18.5 -68t-49.5 -53.5t-71.5 -35
t-83.5 -12.5q-24 0 -51 6t-52 16.5t-47.5 24t-37.5 29.5q-6 6 0 12l75 76q6 6 12 0q19 -14 47 -26t65 -13q17 0 28 10t11 21q0 7 -2 14t-9.5 13t-21.5 11.5t-37 11.5q-45 11 -79 25t-56.5 32.5t-33.5 43.5t-11 59zM238 656l41 40q9 8 18 11t22 3h77q9 0 12 -5.5t-5 -15.5
l-108 -123q-8 -8 -15 -12.5t-23 -4.5h-42q-17 0 -23.5 4t-14.5 13l-109 123q-8 8 -4.5 14.5t12.5 6.5h79q14 0 22.5 -3t17.5 -11z" />
    <glyph glyph-name="Scaron" unicode="&#x160;" horiz-adv-x="605" 
d="M589 210q-1 -45 -24 -86t-63 -72t-95 -49.5t-120 -18.5q-35 0 -71 7.5t-69.5 21.5t-64.5 34t-55 45q-3 3 -3 7.5t3 7.5l101 103q8 8 16 1q29 -22 68 -43t89 -22q23 0 38.5 13.5t15.5 28.5q0 24 -25.5 37.5t-63.5 25l-82 25t-82 37.5t-62.5 63t-23.5 102q1 49 26 91t66 72
t94.5 47t112.5 17q36 0 72 -7.5t70 -21.5t63.5 -33t52.5 -41q3 -3 2 -8t-3 -7l-101 -103q-3 -4 -8 -3.5t-8 2.5q-26 20 -63.5 36t-87.5 17q-23 1 -38 -13t-16 -29q0 -10 3 -19t13.5 -17t29 -16t49.5 -15q61 -15 107.5 -34t77 -44.5t45.5 -59t14 -79.5zM306 862l41 40
q9 8 18 11t22 3h77q9 0 12 -5.5t-5 -15.5l-108 -123q-8 -8 -15 -12.5t-23 -4.5h-42q-17 0 -23.5 4t-14.5 13l-109 123q-8 8 -4.5 14.5t12.5 6.5h79q14 0 22.5 -3t17.5 -11z" />
    <glyph glyph-name="Yacute" unicode="&#xdd;" horiz-adv-x="596" 
d="M595 688q-12 -36 -30.5 -84.5t-43 -106l-54.5 -122.5l-64 -135l2 -229q0 -11 -12 -11h-199q-12 0 -12 11v229l-51.5 118.5l-48 121l-41 113t-30.5 95.5q-2 6 2 9t10 3h200q9 0 11 -8l62 -280l74 280q3 8 12 8h201q6 0 10 -3t2 -9zM353 778q-10 -8 -18.5 -11t-21.5 -3h-87
q-9 0 -12 5t5 16l78 103q6 8 14 12.5t24 4.5h128q13 0 16.5 -7t-4.5 -15z" />
    <glyph glyph-name="yacute" unicode="&#xfd;" horiz-adv-x="585" 
d="M540 90q0 -62 -7 -119.5t-31 -102t-68.5 -71t-119.5 -26.5q-31 0 -60 3.5t-45 9.5q-9 3 -9 12v140q0 13 14 13q8 0 31 -5.5t54 -5.5q37 0 48.5 24.5t11.5 85.5q-8 -15 -21.5 -27t-31 -20t-36 -12t-34.5 -4q-56 0 -94 21t-60.5 56.5t-32 83t-9.5 101.5v237q0 10 12 10h164
q12 0 12 -12l-1 -235q0 -105 56 -105q50 0 74 38v303q0 11 11 11h158q13 0 13 -11zM348 572q-10 -8 -18.5 -11t-21.5 -3h-87q-9 0 -12 5t5 16l78 103q6 8 14 12.5t24 4.5h128q13 0 16.5 -7t-4.5 -15z" />
    <glyph glyph-name="Lslash" unicode="&#x141;" horiz-adv-x="498" 
d="M488 13q0 -13 -13 -13h-408q-12 0 -12 13l-1 202l-58 -22q-11 -4 -16 7l-47 128q-4 10 7 15l114 44v301q0 12 13 12h186q12 0 12 -12l-2 -221l105 41q12 4 16 -7l47 -127q4 -11 -7 -16l-162 -63l-1 -135h214q13 0 13 -13v-134z" />
    <glyph glyph-name="lslash" unicode="&#x142;" horiz-adv-x="280" 
d="M235 466l52 22q12 4 16 -7l47 -127q4 -11 -7 -16l-108 -45v-280q0 -13 -12 -13h-167q-11 0 -11 13v200l-49 -20q-11 -4 -16 7l-47 128q-4 10 7 15l105 44v324q0 12 11 12h167q12 0 12 -13v-244z" />
    <glyph glyph-name="Eth" unicode="&#xd0;" horiz-adv-x="625" 
d="M249 700q64 0 127.5 -17t114.5 -57t82.5 -107.5t31.5 -167.5q0 -103 -27.5 -170.5t-75 -107.5t-111.5 -56.5t-138 -16.5h-186q-12 0 -12 11v255h-63q-12 0 -12 12v136q0 12 12 12h63v262q0 12 12 12h182zM388 349q0 31 -9 59.5t-26 50.5t-41 35t-54 13v-81h46
q12 0 12 -12v-136q0 -12 -12 -12h-46v-70q40 2 65 13.5t39.5 31.5t20 47.5t5.5 60.5z" />
    <glyph glyph-name="bar" unicode="|" horiz-adv-x="330" 
d="M250 -148q0 -13 -12 -13h-147q-11 0 -11 13v919q0 12 11 12h147q12 0 12 -13v-918z" />
    <glyph glyph-name="cent" unicode="&#xa2;" horiz-adv-x="491" 
d="M215 339q0 -47 27.5 -75t69.5 -28q21 0 41.5 2t35.5 7q37 11 51 -20q7 -15 11 -39t4 -44q0 -13 -7.5 -23t-19.5 -15q-14 -7 -33.5 -12t-40.5 -8v-27q0 -31 -16 -44t-39 -13h-50q-21 0 -34.5 12.5t-13.5 41.5v39q-39 12 -70.5 34.5t-54 53t-34.5 67.5t-12 79
q0 108 50 175.5t132 95.5v47q0 55 54 55h52q46 0 46 -56v-33q20 -2 38.5 -4.5t30.5 -6.5q18 -5 27 -17t9 -27q0 -21 -4.5 -46t-12.5 -48q-5 -14 -20 -20.5t-30 0.5q-22 10 -72 10q-54 0 -84.5 -31.5t-30.5 -81.5z" />
    <glyph glyph-name="eth" unicode="&#xf0;" horiz-adv-x="532" 
d="M369 580q66 -72 105 -156.5t39 -173.5q0 -56 -17 -104t-49.5 -84t-79.5 -56.5t-107 -20.5q-55 0 -99.5 18.5t-75.5 51t-48 76.5t-17 95q0 52 15.5 95t44.5 74t70 48.5t93 17.5q9 0 20 -2.5t19 -6.5q-13 16 -28.5 32.5t-33.5 33.5l-115 -48q-10 -4 -16 6l-55 89
q-3 5 -0.5 9t7.5 6l68 28q-17 12 -35 22.5l-36 21.5q-5 2 -4 8t7 8l131 54q11 5 20 -1q39 -22 73 -47l118 49q14 5 21 -5l55 -88q4 -5 1 -9t-8 -6zM353 230q0 35 -21 61.5t-60 26.5q-38 0 -58.5 -25.5t-20.5 -63.5q0 -35 22.5 -58.5t57.5 -23.5q18 0 33 7t25.5 19t16 27
t5.5 30z" />
    <glyph glyph-name="degree" unicode="&#xb0;" horiz-adv-x="457" 
d="M233 719q36 0 67.5 -13t55.5 -37.5t37.5 -59t13.5 -76.5q0 -38 -12 -71.5t-34.5 -58.5t-56.5 -39t-77 -14q-41 0 -74 14t-56 38t-35 56t-12 68t13 71t36.5 62t57.5 43.5t76 16.5zM234 605q-29 0 -51.5 -21.5t-22.5 -54.5t20.5 -53.5t49.5 -20.5q33 0 53 21t20 53
q0 29 -18.5 52.5t-50.5 23.5z" />
    <glyph glyph-name="hungarumlaut" unicode="&#x2dd;" horiz-adv-x="584" 
d="M183 572q-9 -9 -16.5 -11.5t-20.5 -2.5h-82q-9 0 -12.5 4.5t3.5 15.5l62 104q5 9 12 13t21 4h126q13 0 16.5 -7t-4.5 -15zM423 572q-9 -9 -16.5 -11.5t-20.5 -2.5h-82q-9 0 -12.5 4.5t3.5 15.5l62 104q5 9 12 13t21 4h126q13 0 16.5 -7t-4.5 -15z" />
    <glyph glyph-name="dotaccent" unicode="&#x2d9;" horiz-adv-x="283" 
d="M142 548q-17 0 -33.5 6t-29.5 16.5t-21 26t-8 33.5q0 34 26.5 58t64.5 24q18 0 34.5 -6t29.5 -17t20.5 -26t7.5 -33t-7.5 -33t-20.5 -26t-29 -17t-34 -6z" />
    <glyph glyph-name="approxequal" unicode="&#x2248;" horiz-adv-x="661" 
d="M581 187q0 -9 -3.5 -14.5t-11.5 -11.5q-22 -16 -56.5 -27t-77.5 -11q-33 0 -59 7.5t-49 16.5t-45 16.5t-46 7.5q-45 0 -79 -8.5t-60 -20.5q-5 -2 -9.5 2t-4.5 9v82q0 10 3 15t10 10q32 23 68 38t81 15q33 0 61.5 -7.5t53 -17t47 -17t45.5 -7.5q34 0 64.5 5t54.5 16
q5 2 9 -1t4 -8v-89zM581 437q0 -9 -3.5 -14.5t-11.5 -11.5q-22 -16 -56.5 -27t-77.5 -11q-33 0 -59 7.5t-49 16.5t-45 16.5t-46 7.5q-45 0 -79 -8.5t-60 -20.5q-5 -2 -9.5 2t-4.5 9v82q0 10 3 15t10 10q32 23 68 38t81 15q33 0 61.5 -7.5t53 -17t47 -17t45.5 -7.5
q34 0 64.5 5t54.5 16q5 2 9 -1t4 -8v-89z" />
    <glyph glyph-name="braceleft" unicode="{" horiz-adv-x="416" 
d="M186 267q43 -5 71.5 -33.5t28.5 -85.5v-72q0 -75 18 -105.5t52 -30.5h28q12 0 12 -12v-96q0 -12 -12 -12h-46q-47 0 -83.5 19t-61 51.5t-37.5 74.5t-13 88v76q0 32 -22.5 57t-67.5 31q-13 2 -13 16v76q0 5 3 8.5t10 4.5q49 7 69.5 30.5t20.5 52.5v69q0 56 16 98.5t44 71
t65 42.5t79 14h37q12 0 12 -13v-95q0 -12 -12 -12h-23q-75 0 -75 -123v-74q0 -46 -26 -76t-74 -36v-4z" />
    <glyph glyph-name="braceright" unicode="}" horiz-adv-x="416" 
d="M230 271q-48 6 -74 36t-26 76v74q0 123 -75 123h-23q-12 0 -12 12v95q0 13 12 13h46q42 0 77.5 -14t62 -42.5t41 -71t14.5 -98.5v-69q0 -29 20.5 -52.5t69.5 -30.5q7 -1 10 -4.5t3 -8.5v-76q0 -14 -13 -16q-45 -6 -67.5 -31t-22.5 -57v-85q0 -46 -11 -87t-33.5 -71.5
t-57 -48t-81.5 -17.5h-58q-12 0 -12 12v96q0 12 12 12h28q70 0 70 116v92q0 57 28.5 85.5t71.5 33.5v4z" />
    <glyph glyph-name="guilsinglleft" unicode="&#x2039;" horiz-adv-x="437" 
d="M65 235q-10 16 0 34l124 214q6 11 18 11h151q5 0 6.5 -4.5t-0.5 -8.5l-136 -229l137 -241q5 -11 -6 -11h-154q-12 0 -16 9z" />
    <glyph glyph-name="guilsinglright" unicode="&#x203a;" horiz-adv-x="437" 
d="M372 259q10 -16 0 -34l-124 -214q-6 -11 -18 -11h-151q-5 0 -6.5 4.5t0.5 8.5l136 229l-137 241q-6 11 6 11h154q11 0 16 -9z" />
    <glyph glyph-name="guillemotleft" unicode="&#xab;" horiz-adv-x="707" 
d="M65 235q-10 16 0 34l124 214q6 11 18 11h151q5 0 6.5 -4.5t-0.5 -8.5l-136 -229l137 -241q5 -11 -6 -11h-154q-12 0 -16 9zM335 235q-10 16 0 34l124 214q6 11 18 11h151q5 0 6.5 -4.5t-0.5 -8.5l-136 -229l137 -241q5 -11 -6 -11h-154q-12 0 -16 9z" />
    <glyph glyph-name="guillemotright" unicode="&#xbb;" horiz-adv-x="707" 
d="M372 259q10 -16 0 -34l-124 -214q-6 -11 -18 -11h-151q-5 0 -6.5 4.5t0.5 8.5l136 229l-137 241q-6 11 6 11h154q11 0 16 -9zM642 259q10 -16 0 -34l-124 -214q-6 -11 -18 -11h-151q-5 0 -6.5 4.5t0.5 8.5l136 229l-137 241q-6 11 6 11h154q11 0 16 -9z" />
    <glyph glyph-name="asciicircum" unicode="^" horiz-adv-x="646" 
d="M321 573l-111 -159q-8 -10 -17.5 -12.5t-22.5 -2.5h-107q-9 0 -12 5.5t5 16.5l198 262q7 9 14.5 13t23.5 4h62q17 0 24 -4t14 -13l199 -262q7 -9 4 -15.5t-12 -6.5h-109q-14 0 -23 2.5t-17 12.5z" />
    <glyph glyph-name="asciitilde" unicode="~" horiz-adv-x="710" 
d="M638 469q9 0 15.5 -5.5t6.5 -16.5q0 -26 -10.5 -60t-33 -64t-57 -50.5t-82.5 -20.5q-34 0 -67.5 10.5t-65 23.5t-60 23.5t-52.5 10.5t-45.5 -13.5t-35.5 -48.5q-3 -11 -15 -11h-63q-10 0 -16.5 6t-6.5 16q0 23 10.5 57.5t32.5 67t56 55.5t82 23q36 0 68 -11t62.5 -23.5
t61 -23.5t62.5 -11q26 0 47 13.5t29 42.5q3 10 15 10h62z" />
    <glyph glyph-name="Euro" unicode="&#x20ac;" horiz-adv-x="600" 
d="M329 204q19 -29 43.5 -43.5t50.5 -14.5q21 0 41.5 2t35.5 7q37 11 51 -20q7 -15 11 -39t4 -44q0 -13 -7.5 -23t-19.5 -15q-14 -7 -49 -15.5t-89 -8.5q-103 0 -174 57.5t-100 156.5h-42q-45 0 -45 45v32q0 38 46 38h25q-1 12 -0.5 28t2.5 28h-28q-45 0 -45 45v32
q0 38 46 38h49q16 49 43.5 90t64.5 70t84.5 45.5t104.5 16.5q37 0 68.5 -4t43.5 -8q18 -5 27 -17t9 -27q0 -21 -4.5 -46t-12.5 -48q-5 -14 -20 -20.5t-30 0.5q-22 10 -72 10q-33 0 -60 -16.5t-47 -45.5h109q45 0 45 -45v-32q0 -38 -46 -38h-145q-1 -9 -1.5 -24t0.5 -32h126
q45 0 45 -45v-32q0 -38 -46 -38h-92z" />
    <glyph glyph-name="breve" unicode="&#x2d8;" horiz-adv-x="447" 
d="M153 710q14 0 20.5 -3.5t9.5 -15.5q4 -14 14 -24.5t29 -10.5q18 0 27 12t14 28q3 9 10 11.5t20 2.5h80q9 0 13 -4.5t1 -16.5q-9 -38 -25.5 -64.5t-38.5 -43t-48.5 -24.5t-54.5 -8q-26 0 -51.5 8t-48.5 25.5t-41 44t-27 62.5q-6 21 11 21h86z" />
    <glyph glyph-name="ogonek" unicode="&#x2db;" horiz-adv-x="368" 
d="M259 5q-10 -17 -18 -38.5t-8 -41.5q0 -42 34 -48q10 -2 13 -4.5t3 -10.5v-77q0 -17 -23 -17q-83 0 -125 31t-42 83q0 27 16.5 63t42.5 66q8 8 12.5 12t10.5 4h72q13 0 15 -6.5t-3 -15.5z" />
    <glyph glyph-name="commaaccent" horiz-adv-x="250" 
d="M104 -212q-39 3 -62.5 21.5t-23.5 46.5q0 19 8.5 36.5t23 31t34 21t41.5 7.5q24 0 44 -8.5t34 -22t22 -30.5t8 -35q0 -37 -19.5 -63.5t-43.5 -43t-44.5 -24.5t-23.5 -8q-12 0 -12 11q0 5 8 21t6 39z" />
    <glyph glyph-name="macron" unicode="&#xaf;" horiz-adv-x="461" 
d="M62 579q-12 0 -12 12v86q0 12 12 12h337q12 0 12 -12v-86q0 -12 -12 -12h-337z" />
    <glyph glyph-name="Abreve" unicode="&#x102;" horiz-adv-x="653" 
d="M642 12q2 -6 -2 -9t-10 -3h-190q-11 0 -12 10l-23 114h-156l-23 -114q-1 -10 -12 -10h-191q-6 0 -10 3.5t-2 9.5l156 677q2 10 12 10h298q10 0 12 -10zM376 283l-43 243l-51 -243h94zM256 916q14 0 20.5 -3.5t9.5 -15.5q4 -14 14 -24.5t29 -10.5q18 0 27 12t14 28
q3 9 10 11.5t20 2.5h80q9 0 13 -4.5t1 -16.5q-9 -38 -25.5 -64.5t-38.5 -43t-48.5 -24.5t-54.5 -8q-26 0 -51.5 8t-48.5 25.5t-41 44t-27 62.5q-6 21 11 21h86z" />
    <glyph glyph-name="Amacron" unicode="&#x100;" horiz-adv-x="653" 
d="M642 12q2 -6 -2 -9t-10 -3h-190q-11 0 -12 10l-23 114h-156l-23 -114q-1 -10 -12 -10h-191q-6 0 -10 3.5t-2 9.5l156 677q2 10 12 10h298q10 0 12 -10zM376 283l-43 243l-51 -243h94zM158 785q-12 0 -12 12v86q0 12 12 12h337q12 0 12 -12v-86q0 -12 -12 -12h-337z" />
    <glyph glyph-name="Aogonek" unicode="&#x104;" horiz-adv-x="653" 
d="M226 10q-1 -10 -12 -10h-191q-6 0 -10 3.5t-2 9.5l156 677q2 10 12 10h298q10 0 12 -10l152 -674q1 -7 -2 -14q-8 -17 -16 -37.5t-8 -39.5q0 -42 34 -48q10 -2 13 -4.5t3 -10.5v-77q0 -17 -23 -17q-83 0 -125 31t-42 83q0 25 13.5 57t36.5 61h-85q-11 0 -12 10l-23 114
h-156zM376 283l-43 243l-51 -243h94z" />
    <glyph glyph-name="Cacute" unicode="&#x106;" horiz-adv-x="553" 
d="M523 41q0 -5 -4 -9q-24 -23 -66 -35t-90 -12q-77 0 -140.5 25t-108.5 69.5t-69.5 104.5t-24.5 129q0 92 28 164t77.5 121.5t118.5 75t152 25.5q33 0 65 -3.5t48 -8.5q7 -3 7 -9v-181q0 -11 -10 -11q-9 0 -34.5 6.5t-64.5 6.5q-29 0 -61.5 -6t-60 -23t-45.5 -46.5
t-18 -77.5q0 -47 14 -77.5t37 -48t52 -24.5t59 -7q33 0 64 6t52 14q6 2 11 0.5t5 -9.5zM382 778q-10 -8 -18.5 -11t-21.5 -3h-87q-9 0 -12 5t5 16l78 103q6 8 14 12.5t24 4.5h128q13 0 16.5 -7t-4.5 -15z" />
    <glyph glyph-name="Ccaron" unicode="&#x10c;" horiz-adv-x="553" 
d="M523 41q0 -5 -4 -9q-24 -23 -66 -35t-90 -12q-77 0 -140.5 25t-108.5 69.5t-69.5 104.5t-24.5 129q0 92 28 164t77.5 121.5t118.5 75t152 25.5q33 0 65 -3.5t48 -8.5q7 -3 7 -9v-181q0 -11 -10 -11q-9 0 -34.5 6.5t-64.5 6.5q-29 0 -61.5 -6t-60 -23t-45.5 -46.5
t-18 -77.5q0 -47 14 -77.5t37 -48t52 -24.5t59 -7q33 0 64 6t52 14q6 2 11 0.5t5 -9.5zM338 862l41 40q9 8 18 11t22 3h77q9 0 12 -5.5t-5 -15.5l-108 -123q-8 -8 -15 -12.5t-23 -4.5h-42q-17 0 -23.5 4t-14.5 13l-109 123q-8 8 -4.5 14.5t12.5 6.5h79q14 0 22.5 -3
t17.5 -11z" />
    <glyph glyph-name="Ccircumflex" unicode="&#x108;" horiz-adv-x="553" 
d="M523 41q0 -5 -4 -9q-24 -23 -66 -35t-90 -12q-77 0 -140.5 25t-108.5 69.5t-69.5 104.5t-24.5 129q0 92 28 164t77.5 121.5t118.5 75t152 25.5q33 0 65 -3.5t48 -8.5q7 -3 7 -9v-181q0 -11 -10 -11q-9 0 -34.5 6.5t-64.5 6.5q-29 0 -61.5 -6t-60 -23t-45.5 -46.5
t-18 -77.5q0 -47 14 -77.5t37 -48t52 -24.5t59 -7q33 0 64 6t52 14q6 2 11 0.5t5 -9.5zM334 818l-41 -40q-9 -8 -18 -11t-22 -3h-77q-9 0 -12 5.5t5 15.5l108 123q8 8 15 12.5t23 4.5h42q17 0 23.5 -4t14.5 -13l109 -123q8 -8 4.5 -14.5t-12.5 -6.5h-79q-14 0 -22.5 3
t-17.5 11z" />
    <glyph glyph-name="Cdotaccent" unicode="&#x10a;" horiz-adv-x="553" 
d="M523 41q0 -5 -4 -9q-24 -23 -66 -35t-90 -12q-77 0 -140.5 25t-108.5 69.5t-69.5 104.5t-24.5 129q0 92 28 164t77.5 121.5t118.5 75t152 25.5q33 0 65 -3.5t48 -8.5q7 -3 7 -9v-181q0 -11 -10 -11q-9 0 -34.5 6.5t-64.5 6.5q-29 0 -61.5 -6t-60 -23t-45.5 -46.5
t-18 -77.5q0 -47 14 -77.5t37 -48t52 -24.5t59 -7q33 0 64 6t52 14q6 2 11 0.5t5 -9.5zM341 754q-17 0 -33.5 6t-29.5 16.5t-21 26t-8 33.5q0 34 26.5 58t64.5 24q18 0 34.5 -6t29.5 -17t20.5 -26t7.5 -33t-7.5 -33t-20.5 -26t-29 -17t-34 -6z" />
    <glyph glyph-name="Dcaron" unicode="&#x10e;" horiz-adv-x="625" 
d="M249 700q64 0 127.5 -17t114.5 -57t82.5 -107.5t31.5 -167.5q0 -103 -27.5 -170.5t-75 -107.5t-111.5 -56.5t-138 -16.5h-186q-12 0 -12 11v677q0 12 12 12h182zM388 349q0 31 -9 59.5t-26 50.5t-41 35t-54 13v-311q40 2 65 13.5t39.5 31.5t20 47.5t5.5 60.5zM294 862
l41 40q9 8 18 11t22 3h77q9 0 12 -5.5t-5 -15.5l-108 -123q-8 -8 -15 -12.5t-23 -4.5h-42q-17 0 -23.5 4t-14.5 13l-109 123q-8 8 -4.5 14.5t12.5 6.5h79q14 0 22.5 -3t17.5 -11z" />
    <glyph glyph-name="Dcroat" unicode="&#x110;" horiz-adv-x="625" 
d="M249 700q64 0 127.5 -17t114.5 -57t82.5 -107.5t31.5 -167.5q0 -103 -27.5 -170.5t-75 -107.5t-111.5 -56.5t-138 -16.5h-186q-12 0 -12 11v677q0 12 12 12h182zM388 349q0 31 -9 59.5t-26 50.5t-41 35t-54 13v-311q40 2 65 13.5t39.5 31.5t20 47.5t5.5 60.5zM124 785
q-12 0 -12 12v86q0 12 12 12h337q12 0 12 -12v-86q0 -12 -12 -12h-337z" />
    <glyph glyph-name="Ebreve" unicode="&#x114;" horiz-adv-x="578" 
d="M538 12q0 -12 -12 -12h-459q-12 0 -12 12v675q0 13 12 13h459q12 0 12 -13v-135q0 -12 -12 -12h-268v-114h212q12 0 12 -12v-136q0 -12 -12 -12h-212v-106h268q12 0 12 -12v-136zM228 916q14 0 20.5 -3.5t9.5 -15.5q4 -14 14 -24.5t29 -10.5q18 0 27 12t14 28
q3 9 10 11.5t20 2.5h80q9 0 13 -4.5t1 -16.5q-9 -38 -25.5 -64.5t-38.5 -43t-48.5 -24.5t-54.5 -8q-26 0 -51.5 8t-48.5 25.5t-41 44t-27 62.5q-6 21 11 21h86z" />
    <glyph glyph-name="Ecaron" unicode="&#x11a;" horiz-adv-x="578" 
d="M538 12q0 -12 -12 -12h-459q-12 0 -12 12v675q0 13 12 13h459q12 0 12 -13v-135q0 -12 -12 -12h-268v-114h212q12 0 12 -12v-136q0 -12 -12 -12h-212v-106h268q12 0 12 -12v-136zM301 862l41 40q9 8 18 11t22 3h77q9 0 12 -5.5t-5 -15.5l-108 -123q-8 -8 -15 -12.5
t-23 -4.5h-42q-17 0 -23.5 4t-14.5 13l-109 123q-8 8 -4.5 14.5t12.5 6.5h79q14 0 22.5 -3t17.5 -11z" />
    <glyph glyph-name="Edotaccent" unicode="&#x116;" horiz-adv-x="578" 
d="M538 12q0 -12 -12 -12h-459q-12 0 -12 12v675q0 13 12 13h459q12 0 12 -13v-135q0 -12 -12 -12h-268v-114h212q12 0 12 -12v-136q0 -12 -12 -12h-212v-106h268q12 0 12 -12v-136zM299 754q-17 0 -33.5 6t-29.5 16.5t-21 26t-8 33.5q0 34 26.5 58t64.5 24q18 0 34.5 -6
t29.5 -17t20.5 -26t7.5 -33t-7.5 -33t-20.5 -26t-29 -17t-34 -6z" />
    <glyph glyph-name="Emacron" unicode="&#x112;" horiz-adv-x="578" 
d="M538 12q0 -12 -12 -12h-459q-12 0 -12 12v675q0 13 12 13h459q12 0 12 -13v-135q0 -12 -12 -12h-268v-114h212q12 0 12 -12v-136q0 -12 -12 -12h-212v-106h268q12 0 12 -12v-136zM130 785q-12 0 -12 12v86q0 12 12 12h337q12 0 12 -12v-86q0 -12 -12 -12h-337z" />
    <glyph glyph-name="Eogonek" unicode="&#x118;" horiz-adv-x="578" 
d="M538 17q0 -9 -4 -15q-8 -16 -16 -37t-8 -40q0 -42 34 -48q10 -2 13 -4.5t3 -10.5v-77q0 -17 -23 -17q-83 0 -125 31t-42 83q0 25 13.5 57t36.5 61h-353q-12 0 -12 12v675q0 13 12 13h459q12 0 12 -13v-135q0 -12 -12 -12h-268v-114h212q12 0 12 -12v-136q0 -12 -12 -12
h-212v-106h268q12 0 12 -12v-131z" />
    <glyph glyph-name="Gbreve" unicode="&#x11e;" horiz-adv-x="668" 
d="M623 65q0 -11 -9 -19q-16 -14 -40.5 -25t-53 -19t-60 -12t-60.5 -4q-84 0 -154 25t-120 68.5t-78 103.5t-28 131q0 91 30.5 162.5t85.5 121t132.5 76t170.5 26.5q15 0 33.5 -1t36 -2.5t32.5 -3.5t25 -5q7 -2 7 -9v-181q0 -11 -10 -11t-40 7t-78 7q-109 0 -163.5 -53.5
t-54.5 -148.5q0 -31 10 -58.5t28.5 -48.5t45.5 -33t62 -12q11 0 23 1t23 4v104h-88q-5 0 -8 4t-3 9l5 91q0 11 11 11l275 8q12 0 12 -11v-303zM293 916q14 0 20.5 -3.5t9.5 -15.5q4 -14 14 -24.5t29 -10.5q18 0 27 12t14 28q3 9 10 11.5t20 2.5h80q9 0 13 -4.5t1 -16.5
q-9 -38 -25.5 -64.5t-38.5 -43t-48.5 -24.5t-54.5 -8q-26 0 -51.5 8t-48.5 25.5t-41 44t-27 62.5q-6 21 11 21h86z" />
    <glyph glyph-name="Gcircumflex" unicode="&#x11c;" horiz-adv-x="668" 
d="M623 65q0 -11 -9 -19q-16 -14 -40.5 -25t-53 -19t-60 -12t-60.5 -4q-84 0 -154 25t-120 68.5t-78 103.5t-28 131q0 91 30.5 162.5t85.5 121t132.5 76t170.5 26.5q15 0 33.5 -1t36 -2.5t32.5 -3.5t25 -5q7 -2 7 -9v-181q0 -11 -10 -11t-40 7t-78 7q-109 0 -163.5 -53.5
t-54.5 -148.5q0 -31 10 -58.5t28.5 -48.5t45.5 -33t62 -12q11 0 23 1t23 4v104h-88q-5 0 -8 4t-3 9l5 91q0 11 11 11l275 8q12 0 12 -11v-303zM372 818l-41 -40q-9 -8 -18 -11t-22 -3h-77q-9 0 -12 5.5t5 15.5l108 123q8 8 15 12.5t23 4.5h42q17 0 23.5 -4t14.5 -13
l109 -123q8 -8 4.5 -14.5t-12.5 -6.5h-79q-14 0 -22.5 3t-17.5 11z" />
    <glyph glyph-name="Gcommaaccent" unicode="&#x122;" horiz-adv-x="668" 
d="M623 65q0 -11 -9 -19q-16 -14 -40.5 -25t-53 -19t-60 -12t-60.5 -4q-84 0 -154 25t-120 68.5t-78 103.5t-28 131q0 91 30.5 162.5t85.5 121t132.5 76t170.5 26.5q15 0 33.5 -1t36 -2.5t32.5 -3.5t25 -5q7 -2 7 -9v-181q0 -11 -10 -11t-40 7t-78 7q-109 0 -163.5 -53.5
t-54.5 -148.5q0 -31 10 -58.5t28.5 -48.5t45.5 -33t62 -12q11 0 23 1t23 4v104h-88q-5 0 -8 4t-3 9l5 91q0 11 11 11l275 8q12 0 12 -11v-303zM342 -212q-39 3 -62.5 21.5t-23.5 46.5q0 19 8.5 36.5t23 31t34 21t41.5 7.5q24 0 44 -8.5t34 -22t22 -30.5t8 -35
q0 -37 -19.5 -63.5t-43.5 -43t-44.5 -24.5t-23.5 -8q-12 0 -12 11q0 5 8 21t6 39z" />
    <glyph glyph-name="Gdotaccent" unicode="&#x120;" horiz-adv-x="668" 
d="M623 65q0 -11 -9 -19q-16 -14 -40.5 -25t-53 -19t-60 -12t-60.5 -4q-84 0 -154 25t-120 68.5t-78 103.5t-28 131q0 91 30.5 162.5t85.5 121t132.5 76t170.5 26.5q15 0 33.5 -1t36 -2.5t32.5 -3.5t25 -5q7 -2 7 -9v-181q0 -11 -10 -11t-40 7t-78 7q-109 0 -163.5 -53.5
t-54.5 -148.5q0 -31 10 -58.5t28.5 -48.5t45.5 -33t62 -12q11 0 23 1t23 4v104h-88q-5 0 -8 4t-3 9l5 91q0 11 11 11l275 8q12 0 12 -11v-303zM374 754q-17 0 -33.5 6t-29.5 16.5t-21 26t-8 33.5q0 34 26.5 58t64.5 24q18 0 34.5 -6t29.5 -17t20.5 -26t7.5 -33t-7.5 -33
t-20.5 -26t-29 -17t-34 -6z" />
    <glyph glyph-name="Hbar" unicode="&#x126;" horiz-adv-x="686" 
d="M628 12q0 -12 -12 -12h-180q-12 0 -12 12v253h-163l-2 -253q0 -12 -11 -12h-180q-13 0 -13 12v676q0 12 12 12h187q12 0 12 -12l-3 -264h161v264q0 12 12 12h187q11 0 11 -12zM174 785q-12 0 -12 12v86q0 12 12 12h337q12 0 12 -12v-86q0 -12 -12 -12h-337z" />
    <glyph glyph-name="Hcircumflex" unicode="&#x124;" horiz-adv-x="686" 
d="M628 12q0 -12 -12 -12h-180q-12 0 -12 12v253h-163l-2 -253q0 -12 -11 -12h-180q-13 0 -13 12v676q0 12 12 12h187q12 0 12 -12l-3 -264h161v264q0 12 12 12h187q11 0 11 -12zM341 818l-41 -40q-9 -8 -18 -11t-22 -3h-77q-9 0 -12 5.5t5 15.5l108 123q8 8 15 12.5t23 4.5
h42q17 0 23.5 -4t14.5 -13l109 -123q8 -8 4.5 -14.5t-12.5 -6.5h-79q-14 0 -22.5 3t-17.5 11z" />
    <glyph glyph-name="Ibreve" unicode="&#x12c;" horiz-adv-x="332" 
d="M277 11q0 -11 -13 -11h-197q-12 0 -12 12v675q0 13 12 13h198q11 0 11 -12zM97 916q14 0 20.5 -3.5t9.5 -15.5q4 -14 14 -24.5t29 -10.5q18 0 27 12t14 28q3 9 10 11.5t20 2.5h80q9 0 13 -4.5t1 -16.5q-9 -38 -25.5 -64.5t-38.5 -43t-48.5 -24.5t-54.5 -8q-26 0 -51.5 8
t-48.5 25.5t-41 44t-27 62.5q-6 21 11 21h86z" />
    <glyph glyph-name="Idotaccent" unicode="&#x130;" horiz-adv-x="332" 
d="M277 11q0 -11 -13 -11h-197q-12 0 -12 12v675q0 13 12 13h198q11 0 11 -12zM166 754q-17 0 -33.5 6t-29.5 16.5t-21 26t-8 33.5q0 34 26.5 58t64.5 24q18 0 34.5 -6t29.5 -17t20.5 -26t7.5 -33t-7.5 -33t-20.5 -26t-29 -17t-34 -6z" />
    <glyph glyph-name="Imacron" unicode="&#x12a;" horiz-adv-x="332" 
d="M277 11q0 -11 -13 -11h-197q-12 0 -12 12v675q0 13 12 13h198q11 0 11 -12zM-1 785q-12 0 -12 12v86q0 12 12 12h337q12 0 12 -12v-86q0 -12 -12 -12h-337z" />
    <glyph glyph-name="Iogonek" unicode="&#x12e;" horiz-adv-x="332" 
d="M277 15q0 -6 -2 -10q-10 -17 -18 -38.5t-8 -41.5q0 -42 34 -48q10 -2 13 -4.5t3 -10.5v-77q0 -17 -23 -17q-83 0 -125 31t-42 83q0 25 13.5 57t36.5 61h-92q-12 0 -12 12v675q0 13 12 13h198q11 0 11 -12z" />
    <glyph glyph-name="Itilde" unicode="&#x128;" horiz-adv-x="332" 
d="M277 11q0 -11 -13 -11h-197q-12 0 -12 12v675q0 13 12 13h198q11 0 11 -12zM345 905q9 0 15.5 -5.5t6.5 -16.5q0 -13 -7 -36t-22.5 -45t-41 -38t-62.5 -16q-19 0 -39 7.5t-39.5 16.5l-36.5 16.5t-30 7.5q-18 0 -26.5 -8.5t-14.5 -23.5q-3 -11 -15 -11h-43q-10 0 -16.5 6
t-6.5 16q0 13 6 37t20.5 47.5t40 41t64.5 17.5q20 0 38.5 -7.5t36.5 -17t37 -17t42 -7.5q13 0 22 5.5t14 20.5q3 10 15 10h42z" />
    <glyph glyph-name="Jcircumflex" unicode="&#x134;" horiz-adv-x="447" 
d="M400 687q0 -56 -1 -116.5t-3 -121t-5 -119t-7 -110.5q-4 -51 -19 -98t-50 -81q-33 -32 -85 -43.5t-105 -11.5q-32 0 -56 3t-40 11q-9 3 -9 13v169q0 13 14 13q5 0 21.5 -3.5t35.5 -3.5q30 0 47.5 6t26 17.5t11 29t2.5 40.5l-1 406q0 5 4.5 9t9.5 4h196q13 0 13 -13z
M281 818l-41 -40q-9 -8 -18 -11t-22 -3h-77q-9 0 -12 5.5t5 15.5l108 123q8 8 15 12.5t23 4.5h42q17 0 23.5 -4t14.5 -13l109 -123q8 -8 4.5 -14.5t-12.5 -6.5h-79q-14 0 -22.5 3t-17.5 11z" />
    <glyph glyph-name="Kcommaaccent" unicode="&#x136;" horiz-adv-x="650" 
d="M460 351l188 -339q3 -5 0 -8.5t-9 -3.5h-215q-9 0 -13 7l-120 253l-11 -2l-2 -246q0 -12 -11 -12h-201q-11 0 -11 12v677q0 11 12 11h206q11 0 11 -11l-3 -279l154 284q3 6 11 6h190q8 0 10 -6.5t-1 -11.5zM303 -212q-39 3 -62.5 21.5t-23.5 46.5q0 19 8.5 36.5t23 31
t34 21t41.5 7.5q24 0 44 -8.5t34 -22t22 -30.5t8 -35q0 -37 -19.5 -63.5t-43.5 -43t-44.5 -24.5t-23.5 -8q-12 0 -12 11q0 5 8 21t6 39z" />
    <glyph glyph-name="Lacute" unicode="&#x139;" horiz-adv-x="498" 
d="M488 13q0 -13 -13 -13h-408q-12 0 -12 13l-1 675q0 12 13 12h186q12 0 12 -12l-4 -528h214q13 0 13 -13v-134zM244 778q-10 -8 -18.5 -11t-21.5 -3h-87q-9 0 -12 5t5 16l78 103q6 8 14 12.5t24 4.5h128q13 0 16.5 -7t-4.5 -15z" />
    <glyph glyph-name="Lcaron" unicode="&#x13d;" horiz-adv-x="498" 
d="M488 13q0 -13 -13 -13h-408q-12 0 -12 13l-1 675q0 12 13 12h186q12 0 12 -12l-4 -528h214q13 0 13 -13v-134zM405 560q-39 3 -62.5 21.5t-23.5 46.5q0 19 8.5 36.5t23 31t34 21t41.5 7.5q24 0 44 -8.5t34 -22t22 -30.5t8 -35q0 -37 -19.5 -63.5t-43.5 -43t-44.5 -24.5
t-23.5 -8q-12 0 -12 11q0 5 8 21t6 39z" />
    <glyph glyph-name="Lcommaaccent" unicode="&#x13b;" horiz-adv-x="498" 
d="M488 13q0 -13 -13 -13h-408q-12 0 -12 13l-1 675q0 12 13 12h186q12 0 12 -12l-4 -528h214q13 0 13 -13v-134zM227 -212q-39 3 -62.5 21.5t-23.5 46.5q0 19 8.5 36.5t23 31t34 21t41.5 7.5q24 0 44 -8.5t34 -22t22 -30.5t8 -35q0 -37 -19.5 -63.5t-43.5 -43t-44.5 -24.5
t-23.5 -8q-12 0 -12 11q0 5 8 21t6 39z" />
    <glyph glyph-name="Ldot" unicode="&#x13f;" horiz-adv-x="546" 
d="M488 13q0 -13 -13 -13h-408q-12 0 -12 13l-1 675q0 12 13 12h186q12 0 12 -12l-4 -528h214q13 0 13 -13v-134zM429 357q-20 0 -39.5 7t-34.5 19.5t-24.5 30.5t-9.5 40q0 20 8.5 37.5t23 30.5t34 20.5t41.5 7.5q21 0 40.5 -7.5t34.5 -20t24 -30.5t9 -39t-9 -38.5t-24 -30
t-34 -20t-40 -7.5z" />
    <glyph glyph-name="Nacute" unicode="&#x143;" horiz-adv-x="686" 
d="M628 11q0 -11 -12 -11h-172q-8 0 -12 7l-182 384l-4 -380q0 -11 -12 -11h-166q-13 0 -13 12v675q0 13 12 13h179q7 0 10 -7l182 -403v398q0 12 11 12h173q12 0 12 -11zM398 778q-10 -8 -18.5 -11t-21.5 -3h-87q-9 0 -12 5t5 16l78 103q6 8 14 12.5t24 4.5h128
q13 0 16.5 -7t-4.5 -15z" />
    <glyph glyph-name="Ncaron" unicode="&#x147;" horiz-adv-x="686" 
d="M628 11q0 -11 -12 -11h-172q-8 0 -12 7l-182 384l-4 -380q0 -11 -12 -11h-166q-13 0 -13 12v675q0 13 12 13h179q7 0 10 -7l182 -403v398q0 12 11 12h173q12 0 12 -11zM349 862l41 40q9 8 18 11t22 3h77q9 0 12 -5.5t-5 -15.5l-108 -123q-8 -8 -15 -12.5t-23 -4.5h-42
q-17 0 -23.5 4t-14.5 13l-109 123q-8 8 -4.5 14.5t12.5 6.5h79q14 0 22.5 -3t17.5 -11z" />
    <glyph glyph-name="Ncommaaccent" unicode="&#x145;" horiz-adv-x="686" 
d="M628 11q0 -11 -12 -11h-172q-8 0 -12 7l-182 384l-4 -380q0 -11 -12 -11h-166q-13 0 -13 12v675q0 13 12 13h179q7 0 10 -7l182 -403v398q0 12 11 12h173q12 0 12 -11zM321 -212q-39 3 -62.5 21.5t-23.5 46.5q0 19 8.5 36.5t23 31t34 21t41.5 7.5q24 0 44 -8.5t34 -22
t22 -30.5t8 -35q0 -37 -19.5 -63.5t-43.5 -43t-44.5 -24.5t-23.5 -8q-12 0 -12 11q0 5 8 21t6 39z" />
    <glyph glyph-name="Obreve" unicode="&#x14e;" horiz-adv-x="700" 
d="M372 703q73 0 130 -32.5t96.5 -85t60.5 -119t21 -134.5q0 -69 -22.5 -132t-64 -110.5t-99.5 -76t-128 -28.5q-81 0 -145 24.5t-108.5 70.5t-68.5 111t-24 145q0 79 25.5 146.5t71.5 116.5t111 76.5t144 27.5zM354 167q31 0 55 14t41 37t26 51.5t9 57.5q0 31 -9.5 59.5
t-27 51t-41.5 36t-53 13.5q-28 0 -52 -13t-41.5 -34.5t-27.5 -50.5t-10 -62q0 -32 10 -61t27 -51t41 -35t53 -13zM279 916q14 0 20.5 -3.5t9.5 -15.5q4 -14 14 -24.5t29 -10.5q18 0 27 12t14 28q3 9 10 11.5t20 2.5h80q9 0 13 -4.5t1 -16.5q-9 -38 -25.5 -64.5t-38.5 -43
t-48.5 -24.5t-54.5 -8q-26 0 -51.5 8t-48.5 25.5t-41 44t-27 62.5q-6 21 11 21h86z" />
    <glyph glyph-name="Ohungarumlaut" unicode="&#x150;" horiz-adv-x="700" 
d="M372 703q73 0 130 -32.5t96.5 -85t60.5 -119t21 -134.5q0 -69 -22.5 -132t-64 -110.5t-99.5 -76t-128 -28.5q-81 0 -145 24.5t-108.5 70.5t-68.5 111t-24 145q0 79 25.5 146.5t71.5 116.5t111 76.5t144 27.5zM354 167q31 0 55 14t41 37t26 51.5t9 57.5q0 31 -9.5 59.5
t-27 51t-41.5 36t-53 13.5q-28 0 -52 -13t-41.5 -34.5t-27.5 -50.5t-10 -62q0 -32 10 -61t27 -51t41 -35t53 -13zM290 778q-9 -9 -16.5 -11.5t-20.5 -2.5h-82q-9 0 -12.5 4.5t3.5 15.5l62 104q5 9 12 13t21 4h126q13 0 16.5 -7t-4.5 -15zM530 778q-9 -9 -16.5 -11.5
t-20.5 -2.5h-82q-9 0 -12.5 4.5t3.5 15.5l62 104q5 9 12 13t21 4h126q13 0 16.5 -7t-4.5 -15z" />
    <glyph glyph-name="Omacron" unicode="&#x14c;" horiz-adv-x="700" 
d="M372 703q73 0 130 -32.5t96.5 -85t60.5 -119t21 -134.5q0 -69 -22.5 -132t-64 -110.5t-99.5 -76t-128 -28.5q-81 0 -145 24.5t-108.5 70.5t-68.5 111t-24 145q0 79 25.5 146.5t71.5 116.5t111 76.5t144 27.5zM354 167q31 0 55 14t41 37t26 51.5t9 57.5q0 31 -9.5 59.5
t-27 51t-41.5 36t-53 13.5q-28 0 -52 -13t-41.5 -34.5t-27.5 -50.5t-10 -62q0 -32 10 -61t27 -51t41 -35t53 -13zM185 785q-12 0 -12 12v86q0 12 12 12h337q12 0 12 -12v-86q0 -12 -12 -12h-337z" />
    <glyph glyph-name="Racute" unicode="&#x154;" horiz-adv-x="605" 
d="M592 20q5 -6 2 -13t-12 -7h-190q-3 0 -6 1t-5 4l-95 160q-9 -1 -18 -1.5t-18 -0.5l-2 -152q0 -11 -12 -11h-168q-13 0 -13 11l-1 675q0 11 12 11h149q81 0 147.5 -14.5t114.5 -47t74 -85.5t26 -130q0 -69 -32 -118t-91 -84zM252 316q134 10 134 95q0 28 -10.5 47.5
t-28.5 32t-41.5 18.5t-50.5 6zM338 778q-10 -8 -18.5 -11t-21.5 -3h-87q-9 0 -12 5t5 16l78 103q6 8 14 12.5t24 4.5h128q13 0 16.5 -7t-4.5 -15z" />
    <glyph glyph-name="Rcaron" unicode="&#x158;" horiz-adv-x="605" 
d="M592 20q5 -6 2 -13t-12 -7h-190q-3 0 -6 1t-5 4l-95 160q-9 -1 -18 -1.5t-18 -0.5l-2 -152q0 -11 -12 -11h-168q-13 0 -13 11l-1 675q0 11 12 11h149q81 0 147.5 -14.5t114.5 -47t74 -85.5t26 -130q0 -69 -32 -118t-91 -84zM252 316q134 10 134 95q0 28 -10.5 47.5
t-28.5 32t-41.5 18.5t-50.5 6zM294 862l41 40q9 8 18 11t22 3h77q9 0 12 -5.5t-5 -15.5l-108 -123q-8 -8 -15 -12.5t-23 -4.5h-42q-17 0 -23.5 4t-14.5 13l-109 123q-8 8 -4.5 14.5t12.5 6.5h79q14 0 22.5 -3t17.5 -11z" />
    <glyph glyph-name="Rcommaaccent" unicode="&#x156;" horiz-adv-x="605" 
d="M592 20q5 -6 2 -13t-12 -7h-190q-3 0 -6 1t-5 4l-95 160q-9 -1 -18 -1.5t-18 -0.5l-2 -152q0 -11 -12 -11h-168q-13 0 -13 11l-1 675q0 11 12 11h149q81 0 147.5 -14.5t114.5 -47t74 -85.5t26 -130q0 -69 -32 -118t-91 -84zM252 316q134 10 134 95q0 28 -10.5 47.5
t-28.5 32t-41.5 18.5t-50.5 6zM281 -212q-39 3 -62.5 21.5t-23.5 46.5q0 19 8.5 36.5t23 31t34 21t41.5 7.5q24 0 44 -8.5t34 -22t22 -30.5t8 -35q0 -37 -19.5 -63.5t-43.5 -43t-44.5 -24.5t-23.5 -8q-12 0 -12 11q0 5 8 21t6 39z" />
    <glyph glyph-name="Sacute" unicode="&#x15a;" horiz-adv-x="605" 
d="M589 210q-1 -45 -24 -86t-63 -72t-95 -49.5t-120 -18.5q-35 0 -71 7.5t-69.5 21.5t-64.5 34t-55 45q-3 3 -3 7.5t3 7.5l101 103q8 8 16 1q29 -22 68 -43t89 -22q23 0 38.5 13.5t15.5 28.5q0 24 -25.5 37.5t-63.5 25l-82 25t-82 37.5t-62.5 63t-23.5 102q1 49 26 91t66 72
t94.5 47t112.5 17q36 0 72 -7.5t70 -21.5t63.5 -33t52.5 -41q3 -3 2 -8t-3 -7l-101 -103q-3 -4 -8 -3.5t-8 2.5q-26 20 -63.5 36t-87.5 17q-23 1 -38 -13t-16 -29q0 -10 3 -19t13.5 -17t29 -16t49.5 -15q61 -15 107.5 -34t77 -44.5t45.5 -59t14 -79.5zM368 778
q-10 -8 -18.5 -11t-21.5 -3h-87q-9 0 -12 5t5 16l78 103q6 8 14 12.5t24 4.5h128q13 0 16.5 -7t-4.5 -15z" />
    <glyph glyph-name="Scedilla" unicode="&#x15e;" horiz-adv-x="605" 
d="M589 210q-1 -45 -24 -86t-63 -72t-95 -49.5t-120 -18.5q-35 0 -71 7.5t-69.5 21.5t-64.5 34t-55 45q-3 3 -3 7.5t3 7.5l101 103q8 8 16 1q29 -22 68 -43t89 -22q23 0 38.5 13.5t15.5 28.5q0 24 -25.5 37.5t-63.5 25l-82 25t-82 37.5t-62.5 63t-23.5 102q1 49 26 91t66 72
t94.5 47t112.5 17q36 0 72 -7.5t70 -21.5t63.5 -33t52.5 -41q3 -3 2 -8t-3 -7l-101 -103q-3 -4 -8 -3.5t-8 2.5q-26 20 -63.5 36t-87.5 17q-23 1 -38 -13t-16 -29q0 -10 3 -19t13.5 -17t29 -16t49.5 -15q61 -15 107.5 -34t77 -44.5t45.5 -59t14 -79.5zM278 -187
q-10 -8 -18.5 -11t-21.5 -3h-87q-9 0 -12 5t5 16l78 103q6 8 14 12.5t24 4.5h128q13 0 16.5 -7t-4.5 -15z" />
    <glyph glyph-name="Scircumflex" unicode="&#x15c;" horiz-adv-x="605" 
d="M589 210q-1 -45 -24 -86t-63 -72t-95 -49.5t-120 -18.5q-35 0 -71 7.5t-69.5 21.5t-64.5 34t-55 45q-3 3 -3 7.5t3 7.5l101 103q8 8 16 1q29 -22 68 -43t89 -22q23 0 38.5 13.5t15.5 28.5q0 24 -25.5 37.5t-63.5 25l-82 25t-82 37.5t-62.5 63t-23.5 102q1 49 26 91t66 72
t94.5 47t112.5 17q36 0 72 -7.5t70 -21.5t63.5 -33t52.5 -41q3 -3 2 -8t-3 -7l-101 -103q-3 -4 -8 -3.5t-8 2.5q-26 20 -63.5 36t-87.5 17q-23 1 -38 -13t-16 -29q0 -10 3 -19t13.5 -17t29 -16t49.5 -15q61 -15 107.5 -34t77 -44.5t45.5 -59t14 -79.5zM304 818l-41 -40
q-9 -8 -18 -11t-22 -3h-77q-9 0 -12 5.5t5 15.5l108 123q8 8 15 12.5t23 4.5h42q17 0 23.5 -4t14.5 -13l109 -123q8 -8 4.5 -14.5t-12.5 -6.5h-79q-14 0 -22.5 3t-17.5 11z" />
    <glyph glyph-name="Scommaaccent" unicode="&#x218;" horiz-adv-x="605" 
d="M589 210q-1 -45 -24 -86t-63 -72t-95 -49.5t-120 -18.5q-35 0 -71 7.5t-69.5 21.5t-64.5 34t-55 45q-3 3 -3 7.5t3 7.5l101 103q8 8 16 1q29 -22 68 -43t89 -22q23 0 38.5 13.5t15.5 28.5q0 24 -25.5 37.5t-63.5 25l-82 25t-82 37.5t-62.5 63t-23.5 102q1 49 26 91t66 72
t94.5 47t112.5 17q36 0 72 -7.5t70 -21.5t63.5 -33t52.5 -41q3 -3 2 -8t-3 -7l-101 -103q-3 -4 -8 -3.5t-8 2.5q-26 20 -63.5 36t-87.5 17q-23 1 -38 -13t-16 -29q0 -10 3 -19t13.5 -17t29 -16t49.5 -15q61 -15 107.5 -34t77 -44.5t45.5 -59t14 -79.5zM274 -212
q-39 3 -62.5 21.5t-23.5 46.5q0 19 8.5 36.5t23 31t34 21t41.5 7.5q24 0 44 -8.5t34 -22t22 -30.5t8 -35q0 -37 -19.5 -63.5t-43.5 -43t-44.5 -24.5t-23.5 -8q-12 0 -12 11q0 5 8 21t6 39z" />
    <glyph glyph-name="Tbar" unicode="&#x166;" horiz-adv-x="516" 
d="M496 553q0 -12 -13 -12h-120v-529q0 -12 -12 -12h-182q-12 0 -12 12v529h-155q-12 0 -12 12v136q0 11 12 11h481q13 0 13 -11v-136zM89 785q-12 0 -12 12v86q0 12 12 12h337q12 0 12 -12v-86q0 -12 -12 -12h-337z" />
    <glyph glyph-name="Tcaron" unicode="&#x164;" horiz-adv-x="516" 
d="M496 553q0 -12 -13 -12h-120v-529q0 -12 -12 -12h-182q-12 0 -12 12v529h-155q-12 0 -12 12v136q0 11 12 11h481q13 0 13 -11v-136zM260 862l41 40q9 8 18 11t22 3h77q9 0 12 -5.5t-5 -15.5l-108 -123q-8 -8 -15 -12.5t-23 -4.5h-42q-17 0 -23.5 4t-14.5 13l-109 123
q-8 8 -4.5 14.5t12.5 6.5h79q14 0 22.5 -3t17.5 -11z" />
    <glyph glyph-name="Tcommaaccent" unicode="&#x162;" horiz-adv-x="516" 
d="M496 553q0 -12 -13 -12h-120v-529q0 -12 -12 -12h-182q-12 0 -12 12v529h-155q-12 0 -12 12v136q0 11 12 11h481q13 0 13 -11v-136zM236 -212q-39 3 -62.5 21.5t-23.5 46.5q0 19 8.5 36.5t23 31t34 21t41.5 7.5q24 0 44 -8.5t34 -22t22 -30.5t8 -35q0 -37 -19.5 -63.5
t-43.5 -43t-44.5 -24.5t-23.5 -8q-12 0 -12 11q0 5 8 21t6 39z" />
    <glyph glyph-name="Ubreve" unicode="&#x16c;" horiz-adv-x="681" 
d="M631 252q0 -144 -74.5 -215t-216.5 -71t-216 71t-74 215v435q0 13 11 13h188q12 0 12 -13v-424q0 -57 21.5 -84.5t57.5 -27.5q37 0 58 27.5t21 84.5v424q0 13 12 13h189q11 0 11 -13v-435zM270 916q14 0 20.5 -3.5t9.5 -15.5q4 -14 14 -24.5t29 -10.5q18 0 27 12t14 28
q3 9 10 11.5t20 2.5h80q9 0 13 -4.5t1 -16.5q-9 -38 -25.5 -64.5t-38.5 -43t-48.5 -24.5t-54.5 -8q-26 0 -51.5 8t-48.5 25.5t-41 44t-27 62.5q-6 21 11 21h86z" />
    <glyph glyph-name="Uhungarumlaut" unicode="&#x170;" horiz-adv-x="681" 
d="M631 252q0 -144 -74.5 -215t-216.5 -71t-216 71t-74 215v435q0 13 11 13h188q12 0 12 -13v-424q0 -57 21.5 -84.5t57.5 -27.5q37 0 58 27.5t21 84.5v424q0 13 12 13h189q11 0 11 -13v-435zM281 778q-9 -9 -16.5 -11.5t-20.5 -2.5h-82q-9 0 -12.5 4.5t3.5 15.5l62 104
q5 9 12 13t21 4h126q13 0 16.5 -7t-4.5 -15zM521 778q-9 -9 -16.5 -11.5t-20.5 -2.5h-82q-9 0 -12.5 4.5t3.5 15.5l62 104q5 9 12 13t21 4h126q13 0 16.5 -7t-4.5 -15z" />
    <glyph glyph-name="Umacron" unicode="&#x16a;" horiz-adv-x="681" 
d="M631 252q0 -144 -74.5 -215t-216.5 -71t-216 71t-74 215v435q0 13 11 13h188q12 0 12 -13v-424q0 -57 21.5 -84.5t57.5 -27.5q37 0 58 27.5t21 84.5v424q0 13 12 13h189q11 0 11 -13v-435zM172 785q-12 0 -12 12v86q0 12 12 12h337q12 0 12 -12v-86q0 -12 -12 -12h-337z
" />
    <glyph glyph-name="Uogonek" unicode="&#x172;" horiz-adv-x="681" 
d="M631 252q0 -88 -28.5 -148.5t-83.5 -94.5q-12 -20 -20 -43t-8 -41q0 -42 34 -48q10 -2 13 -4.5t3 -10.5v-77q0 -17 -23 -17q-83 0 -125 31t-42 83q0 18 7.5 40.5t20.5 45.5q-8 -1 -18.5 -1.5t-20.5 -0.5q-142 0 -216 71t-74 215v435q0 13 11 13h188q12 0 12 -13v-424
q0 -57 21.5 -84.5t57.5 -27.5q37 0 58 27.5t21 84.5v424q0 13 12 13h189q11 0 11 -13v-435z" />
    <glyph glyph-name="Uring" unicode="&#x16e;" horiz-adv-x="681" 
d="M631 252q0 -144 -74.5 -215t-216.5 -71t-216 71t-74 215v435q0 13 11 13h188q12 0 12 -13v-424q0 -57 21.5 -84.5t57.5 -27.5q37 0 58 27.5t21 84.5v424q0 13 12 13h189q11 0 11 -13v-435zM341 749q-23 0 -45.5 8t-40 23t-28.5 35.5t-11 45.5q0 23 10 43.5t26.5 35.5
t39 24t48.5 9q24 0 47 -8.5t40 -23.5t27.5 -36t10.5 -45t-10.5 -44.5t-27.5 -35t-39.5 -23t-46.5 -8.5zM341 813q20 0 36.5 13.5t16.5 33.5q0 21 -16.5 35t-37.5 14q-22 0 -37.5 -14t-15.5 -34q0 -22 17 -35t37 -13z" />
    <glyph glyph-name="Utilde" unicode="&#x168;" horiz-adv-x="681" 
d="M631 252q0 -144 -74.5 -215t-216.5 -71t-216 71t-74 215v435q0 13 11 13h188q12 0 12 -13v-424q0 -57 21.5 -84.5t57.5 -27.5q37 0 58 27.5t21 84.5v424q0 13 12 13h189q11 0 11 -13v-435zM524 905q9 0 15.5 -5.5t6.5 -16.5q0 -13 -7 -36t-22.5 -45t-41 -38t-62.5 -16
q-19 0 -39 7.5t-39.5 16.5l-36.5 16.5t-30 7.5q-18 0 -26.5 -8.5t-14.5 -23.5q-3 -11 -15 -11h-43q-10 0 -16.5 6t-6.5 16q0 13 6 37t20.5 47.5t40 41t64.5 17.5q20 0 38.5 -7.5t36.5 -17t37 -17t42 -7.5q13 0 22 5.5t14 20.5q3 10 15 10h42z" />
    <glyph glyph-name="Wacute" unicode="&#x1e82;" horiz-adv-x="901" 
d="M119 0q-11 0 -12 12l-76 675q-2 13 10 13h184q12 0 13 -11l43 -391q0 -3 -1 -9t-2 -13t-2.5 -14.5t-2.5 -11.5q2 1 5.5 4.5t5.5 10.5l103 301q3 8 12 8h102q8 0 11 -8l103 -294q3 -9 6 -14t6 -8q-1 3 -2.5 9.5t-2.5 14l-2 14.5t-1 10l43 391q1 11 14 11h182q14 0 12 -14
l-78 -674q-2 -12 -14 -12h-193q-9 0 -12 8l-123 263l-124 -263q-3 -8 -11 -8h-196zM506 778q-10 -8 -18.5 -11t-21.5 -3h-87q-9 0 -12 5t5 16l78 103q6 8 14 12.5t24 4.5h128q13 0 16.5 -7t-4.5 -15z" />
    <glyph glyph-name="Wcircumflex" unicode="&#x174;" horiz-adv-x="901" 
d="M119 0q-11 0 -12 12l-76 675q-2 13 10 13h184q12 0 13 -11l43 -391q0 -3 -1 -9t-2 -13t-2.5 -14.5t-2.5 -11.5q2 1 5.5 4.5t5.5 10.5l103 301q3 8 12 8h102q8 0 11 -8l103 -294q3 -9 6 -14t6 -8q-1 3 -2.5 9.5t-2.5 14l-2 14.5t-1 10l43 391q1 11 14 11h182q14 0 12 -14
l-78 -674q-2 -12 -14 -12h-193q-9 0 -12 8l-123 263l-124 -263q-3 -8 -11 -8h-196zM448 818l-41 -40q-9 -8 -18 -11t-22 -3h-77q-9 0 -12 5.5t5 15.5l108 123q8 8 15 12.5t23 4.5h42q17 0 23.5 -4t14.5 -13l109 -123q8 -8 4.5 -14.5t-12.5 -6.5h-79q-14 0 -22.5 3t-17.5 11z
" />
    <glyph glyph-name="Wdieresis" unicode="&#x1e84;" horiz-adv-x="901" 
d="M119 0q-11 0 -12 12l-76 675q-2 13 10 13h184q12 0 13 -11l43 -391q0 -3 -1 -9t-2 -13t-2.5 -14.5t-2.5 -11.5q2 1 5.5 4.5t5.5 10.5l103 301q3 8 12 8h102q8 0 11 -8l103 -294q3 -9 6 -14t6 -8q-1 3 -2.5 9.5t-2.5 14l-2 14.5t-1 10l43 391q1 11 14 11h182q14 0 12 -14
l-78 -674q-2 -12 -14 -12h-193q-9 0 -12 8l-123 263l-124 -263q-3 -8 -11 -8h-196zM331 754q-17 0 -33.5 6t-29.5 16.5t-21 26t-8 33.5q0 34 26.5 58t64.5 24q18 0 34.5 -6t29.5 -17t20.5 -26t7.5 -33t-7.5 -33t-20.5 -26t-29 -17t-34 -6zM571 754q-17 0 -33.5 6t-29.5 16.5
t-21 26t-8 33.5q0 34 26.5 58t64.5 24q18 0 34.5 -6t29.5 -17t20.5 -26t7.5 -33t-7.5 -33t-20.5 -26t-29 -17t-34 -6z" />
    <glyph glyph-name="Wgrave" unicode="&#x1e80;" horiz-adv-x="901" 
d="M119 0q-11 0 -12 12l-76 675q-2 13 10 13h184q12 0 13 -11l43 -391q0 -3 -1 -9t-2 -13t-2.5 -14.5t-2.5 -11.5q2 1 5.5 4.5t5.5 10.5l103 301q3 8 12 8h102q8 0 11 -8l103 -294q3 -9 6 -14t6 -8q-1 3 -2.5 9.5t-2.5 14l-2 14.5t-1 10l43 391q1 11 14 11h182q14 0 12 -14
l-78 -674q-2 -12 -14 -12h-193q-9 0 -12 8l-123 263l-124 -263q-3 -8 -11 -8h-196zM268 883q-8 8 -4.5 15t16.5 7h136q17 0 24.5 -4.5t13.5 -12.5l79 -103q8 -10 4.5 -15.5t-12.5 -5.5h-89q-14 0 -22 3t-18 11z" />
    <glyph glyph-name="Ycircumflex" unicode="&#x176;" horiz-adv-x="596" 
d="M595 688q-12 -36 -30.5 -84.5t-43 -106l-54.5 -122.5l-64 -135l2 -229q0 -11 -12 -11h-199q-12 0 -12 11v229l-51.5 118.5l-48 121l-41 113t-30.5 95.5q-2 6 2 9t10 3h200q9 0 11 -8l62 -280l74 280q3 8 12 8h201q6 0 10 -3t2 -9zM296 818l-41 -40q-9 -8 -18 -11t-22 -3
h-77q-9 0 -12 5.5t5 15.5l108 123q8 8 15 12.5t23 4.5h42q17 0 23.5 -4t14.5 -13l109 -123q8 -8 4.5 -14.5t-12.5 -6.5h-79q-14 0 -22.5 3t-17.5 11z" />
    <glyph glyph-name="Ygrave" unicode="&#x1ef2;" horiz-adv-x="596" 
d="M595 688q-12 -36 -30.5 -84.5t-43 -106l-54.5 -122.5l-64 -135l2 -229q0 -11 -12 -11h-199q-12 0 -12 11v229l-51.5 118.5l-48 121l-41 113t-30.5 95.5q-2 6 2 9t10 3h200q9 0 11 -8l62 -280l74 280q3 8 12 8h201q6 0 10 -3t2 -9zM123 883q-8 8 -4.5 15t16.5 7h136
q17 0 24.5 -4.5t13.5 -12.5l79 -103q8 -10 4.5 -15.5t-12.5 -5.5h-89q-14 0 -22 3t-18 11z" />
    <glyph glyph-name="Zacute" unicode="&#x179;" horiz-adv-x="640" 
d="M600 12q0 -12 -12 -12h-536q-12 0 -12 12v195q0 4 4 8l311 305h-303q-12 0 -12 12v157q0 11 13 11h536q11 0 11 -12v-168q0 -4 -4 -8l-298 -306h291q11 0 11 -11v-183zM365 778q-10 -8 -18.5 -11t-21.5 -3h-87q-9 0 -12 5t5 16l78 103q6 8 14 12.5t24 4.5h128
q13 0 16.5 -7t-4.5 -15z" />
    <glyph glyph-name="Zdotaccent" unicode="&#x17b;" horiz-adv-x="640" 
d="M600 12q0 -12 -12 -12h-536q-12 0 -12 12v195q0 4 4 8l311 305h-303q-12 0 -12 12v157q0 11 13 11h536q11 0 11 -12v-168q0 -4 -4 -8l-298 -306h291q11 0 11 -11v-183zM320 754q-17 0 -33.5 6t-29.5 16.5t-21 26t-8 33.5q0 34 26.5 58t64.5 24q18 0 34.5 -6t29.5 -17
t20.5 -26t7.5 -33t-7.5 -33t-20.5 -26t-29 -17t-34 -6z" />
    <glyph glyph-name="abreve" unicode="&#x103;" horiz-adv-x="526" 
d="M482 12q0 -12 -12 -12h-126q-2 0 -2.5 0.5t-1.5 0.5q-17 -8 -41 -13t-53 -5q-49 0 -89.5 12t-70 33t-45.5 49.5t-16 61.5q0 43 17.5 77.5t49 58.5t76.5 36.5t99 12.5q15 0 32 -1t31 -3q0 17 -2.5 33t-9.5 28t-19 19.5t-31 7.5q-18 0 -37 -11.5t-26 -45.5h-136
q-6 0 -9.5 2t-3.5 10q0 18 9 48t38 55q34 29 75 42t93 13q102 0 155 -47.5t54 -135.5zM330 207q-13 3 -26.5 4.5t-24.5 1.5q-34 0 -54.5 -19t-20.5 -51q0 -25 18.5 -40.5t45.5 -15.5q17 0 35.5 5t26.5 9v106zM195 710q14 0 20.5 -3.5t9.5 -15.5q4 -14 14 -24.5t29 -10.5
q18 0 27 12t14 28q3 9 10 11.5t20 2.5h80q9 0 13 -4.5t1 -16.5q-9 -38 -25.5 -64.5t-38.5 -43t-48.5 -24.5t-54.5 -8q-26 0 -51.5 8t-48.5 25.5t-41 44t-27 62.5q-6 21 11 21h86z" />
    <glyph glyph-name="amacron" unicode="&#x101;" horiz-adv-x="526" 
d="M482 12q0 -12 -12 -12h-126q-2 0 -2.5 0.5t-1.5 0.5q-17 -8 -41 -13t-53 -5q-49 0 -89.5 12t-70 33t-45.5 49.5t-16 61.5q0 43 17.5 77.5t49 58.5t76.5 36.5t99 12.5q15 0 32 -1t31 -3q0 17 -2.5 33t-9.5 28t-19 19.5t-31 7.5q-18 0 -37 -11.5t-26 -45.5h-136
q-6 0 -9.5 2t-3.5 10q0 18 9 48t38 55q34 29 75 42t93 13q102 0 155 -47.5t54 -135.5zM330 207q-13 3 -26.5 4.5t-24.5 1.5q-34 0 -54.5 -19t-20.5 -51q0 -25 18.5 -40.5t45.5 -15.5q17 0 35.5 5t26.5 9v106zM94 579q-12 0 -12 12v86q0 12 12 12h337q12 0 12 -12v-86
q0 -12 -12 -12h-337z" />
    <glyph glyph-name="aogonek" unicode="&#x105;" horiz-adv-x="526" 
d="M482 17q0 -7 -4 -15q-9 -17 -16.5 -37.5t-7.5 -39.5q0 -42 34 -48q10 -2 13 -4.5t3 -10.5v-77q0 -17 -23 -17q-83 0 -125 31t-42 83q0 25 13.5 57t36.5 61h-20q-2 0 -2.5 0.5t-1.5 0.5q-17 -8 -41 -13t-53 -5q-49 0 -89.5 12t-70 33t-45.5 49.5t-16 61.5q0 43 17.5 77.5
t49 58.5t76.5 36.5t99 12.5q15 0 32 -1t31 -3q0 17 -2.5 33t-9.5 28t-19 19.5t-31 7.5q-18 0 -37 -11.5t-26 -45.5h-136q-6 0 -9.5 2t-3.5 10q0 18 9 48t38 55q34 29 75 42t93 13q102 0 155 -47.5t54 -135.5zM330 207q-13 3 -26.5 4.5t-24.5 1.5q-34 0 -54.5 -19t-20.5 -51
q0 -25 18.5 -40.5t45.5 -15.5q17 0 35.5 5t26.5 9v106z" />
    <glyph glyph-name="cacute" unicode="&#x107;" horiz-adv-x="429" 
d="M399 28q0 -5 -5 -10q-16 -14 -47.5 -23.5t-68.5 -9.5q-57 0 -104.5 18.5t-81.5 51.5t-53 78t-19 98q0 69 21 123t58.5 91t89.5 56.5t114 19.5q22 0 47.5 -2.5t36.5 -6.5q6 -2 6 -7v-145q0 -7 -7 -7q-9 0 -28.5 5t-51.5 5q-60 0 -95.5 -34.5t-35.5 -94.5q0 -47 30 -76.5
t78 -29.5t99 25q5 2 8.5 0t3.5 -7zM300 572q-10 -8 -18.5 -11t-21.5 -3h-87q-9 0 -12 5t5 16l78 103q6 8 14 12.5t24 4.5h128q13 0 16.5 -7t-4.5 -15z" />
    <glyph glyph-name="ccaron" unicode="&#x10d;" horiz-adv-x="429" 
d="M399 28q0 -5 -5 -10q-16 -14 -47.5 -23.5t-68.5 -9.5q-57 0 -104.5 18.5t-81.5 51.5t-53 78t-19 98q0 69 21 123t58.5 91t89.5 56.5t114 19.5q22 0 47.5 -2.5t36.5 -6.5q6 -2 6 -7v-145q0 -7 -7 -7q-9 0 -28.5 5t-51.5 5q-60 0 -95.5 -34.5t-35.5 -94.5q0 -47 30 -76.5
t78 -29.5t99 25q5 2 8.5 0t3.5 -7zM257 656l41 40q9 8 18 11t22 3h77q9 0 12 -5.5t-5 -15.5l-108 -123q-8 -8 -15 -12.5t-23 -4.5h-42q-17 0 -23.5 4t-14.5 13l-109 123q-8 8 -4.5 14.5t12.5 6.5h79q14 0 22.5 -3t17.5 -11z" />
    <glyph glyph-name="ccircumflex" unicode="&#x109;" horiz-adv-x="429" 
d="M399 28q0 -5 -5 -10q-16 -14 -47.5 -23.5t-68.5 -9.5q-57 0 -104.5 18.5t-81.5 51.5t-53 78t-19 98q0 69 21 123t58.5 91t89.5 56.5t114 19.5q22 0 47.5 -2.5t36.5 -6.5q6 -2 6 -7v-145q0 -7 -7 -7q-9 0 -28.5 5t-51.5 5q-60 0 -95.5 -34.5t-35.5 -94.5q0 -47 30 -76.5
t78 -29.5t99 25q5 2 8.5 0t3.5 -7zM253 612l-41 -40q-9 -8 -18 -11t-22 -3h-77q-9 0 -12 5.5t5 15.5l108 123q8 8 15 12.5t23 4.5h42q17 0 23.5 -4t14.5 -13l109 -123q8 -8 4.5 -14.5t-12.5 -6.5h-79q-14 0 -22.5 3t-17.5 11z" />
    <glyph glyph-name="cdotaccent" unicode="&#x10b;" horiz-adv-x="429" 
d="M399 28q0 -5 -5 -10q-16 -14 -47.5 -23.5t-68.5 -9.5q-57 0 -104.5 18.5t-81.5 51.5t-53 78t-19 98q0 69 21 123t58.5 91t89.5 56.5t114 19.5q22 0 47.5 -2.5t36.5 -6.5q6 -2 6 -7v-145q0 -7 -7 -7q-9 0 -28.5 5t-51.5 5q-60 0 -95.5 -34.5t-35.5 -94.5q0 -47 30 -76.5
t78 -29.5t99 25q5 2 8.5 0t3.5 -7zM271 548q-17 0 -33.5 6t-29.5 16.5t-21 26t-8 33.5q0 34 26.5 58t64.5 24q18 0 34.5 -6t29.5 -17t20.5 -26t7.5 -33t-7.5 -33t-20.5 -26t-29 -17t-34 -6z" />
    <glyph glyph-name="dcaron" unicode="&#x10f;" horiz-adv-x="764" 
d="M345 0q-1 0 -1.5 0.5t-1.5 0.5q-17 -9 -40 -14t-47 -5q-53 0 -96 18t-74 50t-48 75.5t-17 93.5q0 65 19.5 116t54 86t82 53t103.5 18q13 0 26.5 -1t27.5 -3v200q0 12 12 12h157q12 0 12 -12v-676q0 -12 -12 -12h-157zM333 318q-3 2 -9.5 3.5t-14.5 2.5t-15.5 1.5
t-11.5 0.5q-46 0 -71.5 -28.5t-25.5 -76.5q0 -37 23 -60.5t59 -23.5q30 0 66 17v164zM635 560q-39 3 -62.5 21.5t-23.5 46.5q0 19 8.5 36.5t23 31t34 21t41.5 7.5q24 0 44 -8.5t34 -22t22 -30.5t8 -35q0 -37 -19.5 -63.5t-43.5 -43t-44.5 -24.5t-23.5 -8q-12 0 -12 11
q0 5 8 21t6 39z" />
    <glyph glyph-name="dcroat" unicode="&#x111;" horiz-adv-x="596" 
d="M514 546v-534q0 -12 -12 -12h-157q-1 0 -1.5 0.5t-1.5 0.5q-17 -9 -40 -14t-47 -5q-53 0 -96 18t-74 50t-48 75.5t-17 93.5q0 65 19.5 116t54 86t82 53t103.5 18q13 0 26.5 -1t27.5 -3v58h-96q-12 0 -12 12v86q0 12 12 12h96v32q0 12 12 12h157q12 0 12 -12v-32h60
q12 0 12 -12v-86q0 -12 -12 -12h-60zM333 318q-3 2 -9.5 3.5t-14.5 2.5t-15.5 1.5t-11.5 0.5q-46 0 -71.5 -28.5t-25.5 -76.5q0 -37 23 -60.5t59 -23.5q30 0 66 17v164z" />
    <glyph glyph-name="ebreve" unicode="&#x115;" horiz-adv-x="479" 
d="M173 286q20 -5 44 -5q47 0 78 12.5t31 39.5q0 20 -15.5 32.5t-38.5 12.5q-17 0 -34.5 -5.5t-32 -16.5t-23.5 -28.5t-9 -41.5zM177 209q3 -15 10.5 -29.5t20.5 -26t31.5 -18.5t43.5 -7q34 0 69.5 12t73.5 34q4 2 8 0t4 -7l5 -120q0 -4 -3 -7q-11 -10 -29.5 -20t-41 -18
t-47.5 -13t-47 -5q-54 0 -100.5 16t-81 49.5t-54 85t-19.5 121.5q0 48 16.5 95t49.5 84.5t82.5 60.5t115.5 23q42 0 74.5 -15.5t55 -39.5t34 -53.5t11.5 -58.5q0 -69 -54 -109t-162 -40q-17 0 -34 1.5t-32 4.5zM187 710q14 0 20.5 -3.5t9.5 -15.5q4 -14 14 -24.5t29 -10.5
q18 0 27 12t14 28q3 9 10 11.5t20 2.5h80q9 0 13 -4.5t1 -16.5q-9 -38 -25.5 -64.5t-38.5 -43t-48.5 -24.5t-54.5 -8q-26 0 -51.5 8t-48.5 25.5t-41 44t-27 62.5q-6 21 11 21h86z" />
    <glyph glyph-name="ecaron" unicode="&#x11b;" horiz-adv-x="479" 
d="M173 286q20 -5 44 -5q47 0 78 12.5t31 39.5q0 20 -15.5 32.5t-38.5 12.5q-17 0 -34.5 -5.5t-32 -16.5t-23.5 -28.5t-9 -41.5zM177 209q3 -15 10.5 -29.5t20.5 -26t31.5 -18.5t43.5 -7q34 0 69.5 12t73.5 34q4 2 8 0t4 -7l5 -120q0 -4 -3 -7q-11 -10 -29.5 -20t-41 -18
t-47.5 -13t-47 -5q-54 0 -100.5 16t-81 49.5t-54 85t-19.5 121.5q0 48 16.5 95t49.5 84.5t82.5 60.5t115.5 23q42 0 74.5 -15.5t55 -39.5t34 -53.5t11.5 -58.5q0 -69 -54 -109t-162 -40q-17 0 -34 1.5t-32 4.5zM261 656l41 40q9 8 18 11t22 3h77q9 0 12 -5.5t-5 -15.5
l-108 -123q-8 -8 -15 -12.5t-23 -4.5h-42q-17 0 -23.5 4t-14.5 13l-109 123q-8 8 -4.5 14.5t12.5 6.5h79q14 0 22.5 -3t17.5 -11z" />
    <glyph glyph-name="edotaccent" unicode="&#x117;" horiz-adv-x="479" 
d="M173 286q20 -5 44 -5q47 0 78 12.5t31 39.5q0 20 -15.5 32.5t-38.5 12.5q-17 0 -34.5 -5.5t-32 -16.5t-23.5 -28.5t-9 -41.5zM177 209q3 -15 10.5 -29.5t20.5 -26t31.5 -18.5t43.5 -7q34 0 69.5 12t73.5 34q4 2 8 0t4 -7l5 -120q0 -4 -3 -7q-11 -10 -29.5 -20t-41 -18
t-47.5 -13t-47 -5q-54 0 -100.5 16t-81 49.5t-54 85t-19.5 121.5q0 48 16.5 95t49.5 84.5t82.5 60.5t115.5 23q42 0 74.5 -15.5t55 -39.5t34 -53.5t11.5 -58.5q0 -69 -54 -109t-162 -40q-17 0 -34 1.5t-32 4.5zM260 548q-17 0 -33.5 6t-29.5 16.5t-21 26t-8 33.5
q0 34 26.5 58t64.5 24q18 0 34.5 -6t29.5 -17t20.5 -26t7.5 -33t-7.5 -33t-20.5 -26t-29 -17t-34 -6z" />
    <glyph glyph-name="emacron" unicode="&#x113;" horiz-adv-x="479" 
d="M173 286q20 -5 44 -5q47 0 78 12.5t31 39.5q0 20 -15.5 32.5t-38.5 12.5q-17 0 -34.5 -5.5t-32 -16.5t-23.5 -28.5t-9 -41.5zM177 209q3 -15 10.5 -29.5t20.5 -26t31.5 -18.5t43.5 -7q34 0 69.5 12t73.5 34q4 2 8 0t4 -7l5 -120q0 -4 -3 -7q-11 -10 -29.5 -20t-41 -18
t-47.5 -13t-47 -5q-54 0 -100.5 16t-81 49.5t-54 85t-19.5 121.5q0 48 16.5 95t49.5 84.5t82.5 60.5t115.5 23q42 0 74.5 -15.5t55 -39.5t34 -53.5t11.5 -58.5q0 -69 -54 -109t-162 -40q-17 0 -34 1.5t-32 4.5zM85 579q-12 0 -12 12v86q0 12 12 12h337q12 0 12 -12v-86
q0 -12 -12 -12h-337z" />
    <glyph glyph-name="eogonek" unicode="&#x119;" horiz-adv-x="479" 
d="M438 35q-23 -38 -32.5 -64t-9.5 -46q0 -42 34 -48q10 -2 13 -4.5t3 -10.5v-77q0 -17 -23 -17q-83 0 -125 31t-42 83q0 22 11 49.5t29 54.5q-5 -1 -10.5 -1.5t-10.5 -0.5q-54 0 -100.5 16t-81 49.5t-54 85t-19.5 121.5q0 48 16.5 95t49.5 84.5t82.5 60.5t115.5 23
q42 0 74.5 -15.5t55 -39.5t34 -53.5t11.5 -58.5q0 -69 -54 -109t-162 -40q-17 0 -34 1.5t-32 4.5q3 -15 10.5 -29.5t20.5 -26t31.5 -18.5t43.5 -7q34 0 69.5 12t73.5 34q4 2 8 0t4 -7l5 -119q0 -5 -5 -13zM173 286q20 -5 44 -5q47 0 78 12.5t31 39.5q0 20 -15.5 32.5
t-38.5 12.5q-17 0 -34.5 -5.5t-32 -16.5t-23.5 -28.5t-9 -41.5z" />
    <glyph glyph-name="gbreve" unicode="&#x11f;" horiz-adv-x="560" 
d="M334 327q-32 12 -59 12q-41 0 -65.5 -27t-24.5 -66q0 -45 22 -71.5t65 -26.5q16 0 33.5 3.5t28.5 8.5v167zM515 97q0 -90 -13.5 -151t-40.5 -98.5t-68.5 -54t-97.5 -16.5q-36 0 -65 3.5t-44 9.5q-9 3 -9 12v141q0 12 14 12q11 0 32 -5t56 -5q30 0 41.5 14t14.5 47
q-42 -9 -80 -9q-51 0 -94.5 16.5t-74.5 48.5t-48.5 79t-17.5 108q0 58 21.5 104.5t57 79.5t82 50.5t96.5 17.5q49 0 80 -17h146q12 0 12 -12v-375zM219 710q14 0 20.5 -3.5t9.5 -15.5q4 -14 14 -24.5t29 -10.5q18 0 27 12t14 28q3 9 10 11.5t20 2.5h80q9 0 13 -4.5t1 -16.5
q-9 -38 -25.5 -64.5t-38.5 -43t-48.5 -24.5t-54.5 -8q-26 0 -51.5 8t-48.5 25.5t-41 44t-27 62.5q-6 21 11 21h86z" />
    <glyph glyph-name="gcircumflex" unicode="&#x11d;" horiz-adv-x="560" 
d="M334 327q-32 12 -59 12q-41 0 -65.5 -27t-24.5 -66q0 -45 22 -71.5t65 -26.5q16 0 33.5 3.5t28.5 8.5v167zM515 97q0 -90 -13.5 -151t-40.5 -98.5t-68.5 -54t-97.5 -16.5q-36 0 -65 3.5t-44 9.5q-9 3 -9 12v141q0 12 14 12q11 0 32 -5t56 -5q30 0 41.5 14t14.5 47
q-42 -9 -80 -9q-51 0 -94.5 16.5t-74.5 48.5t-48.5 79t-17.5 108q0 58 21.5 104.5t57 79.5t82 50.5t96.5 17.5q49 0 80 -17h146q12 0 12 -12v-375zM288 612l-41 -40q-9 -8 -18 -11t-22 -3h-77q-9 0 -12 5.5t5 15.5l108 123q8 8 15 12.5t23 4.5h42q17 0 23.5 -4t14.5 -13
l109 -123q8 -8 4.5 -14.5t-12.5 -6.5h-79q-14 0 -22.5 3t-17.5 11z" />
    <glyph glyph-name="gcommaaccent" unicode="&#x123;" horiz-adv-x="560" 
d="M334 327q-32 12 -59 12q-41 0 -65.5 -27t-24.5 -66q0 -45 22 -71.5t65 -26.5q16 0 33.5 3.5t28.5 8.5v167zM515 97q0 -90 -13.5 -151t-40.5 -98.5t-68.5 -54t-97.5 -16.5q-36 0 -65 3.5t-44 9.5q-9 3 -9 12v141q0 12 14 12q11 0 32 -5t56 -5q30 0 41.5 14t14.5 47
q-42 -9 -80 -9q-51 0 -94.5 16.5t-74.5 48.5t-48.5 79t-17.5 108q0 58 21.5 104.5t57 79.5t82 50.5t96.5 17.5q49 0 80 -17h146q12 0 12 -12v-375zM315 699q39 -3 62.5 -21.5t23.5 -46.5q0 -20 -8.5 -37t-23 -30.5t-34 -21t-41.5 -7.5q-24 0 -44 8t-34 21.5t-22 31t-8 35.5
q0 37 19.5 63.5t43.5 43t44.5 24.5t23.5 8q12 0 12 -11q0 -5 -8 -21t-6 -39z" />
    <glyph glyph-name="gdotaccent" unicode="&#x121;" horiz-adv-x="560" 
d="M334 327q-32 12 -59 12q-41 0 -65.5 -27t-24.5 -66q0 -45 22 -71.5t65 -26.5q16 0 33.5 3.5t28.5 8.5v167zM515 97q0 -90 -13.5 -151t-40.5 -98.5t-68.5 -54t-97.5 -16.5q-36 0 -65 3.5t-44 9.5q-9 3 -9 12v141q0 12 14 12q11 0 32 -5t56 -5q30 0 41.5 14t14.5 47
q-42 -9 -80 -9q-51 0 -94.5 16.5t-74.5 48.5t-48.5 79t-17.5 108q0 58 21.5 104.5t57 79.5t82 50.5t96.5 17.5q49 0 80 -17h146q12 0 12 -12v-375zM280 548q-17 0 -33.5 6t-29.5 16.5t-21 26t-8 33.5q0 34 26.5 58t64.5 24q18 0 34.5 -6t29.5 -17t20.5 -26t7.5 -33t-7.5 -33
t-20.5 -26t-29 -17t-34 -6z" />
    <glyph glyph-name="hbar" unicode="&#x127;" horiz-adv-x="623" 
d="M264 546l1 -72q28 25 58 35.5t63 10.5q59 0 97.5 -23t60.5 -60.5t30.5 -85.5t8.5 -99v-241q0 -11 -12 -11h-165q-11 0 -11 13l1 240q0 107 -56 107q-50 0 -74 -39v-309q0 -12 -12 -12h-157q-13 0 -13 12l-2 534h-60q-12 0 -12 12v86q0 12 12 12h60v33q0 11 12 11h157
q12 0 12 -11v-33h96q12 0 12 -12v-86q0 -12 -12 -12h-95z" />
    <glyph glyph-name="hcircumflex" unicode="&#x125;" horiz-adv-x="584" 
d="M544 11q0 -11 -12 -11h-165q-11 0 -11 13l1 240q0 107 -56 107q-50 0 -74 -39v-309q0 -12 -12 -12h-157q-13 0 -13 12l-2 677q0 11 12 11h157q12 0 12 -11l2 -215q28 25 58 35.5t63 10.5q59 0 97.5 -23t60.5 -60.5t30.5 -85.5t8.5 -99v-241zM133 788l-41 -40
q-9 -8 -18 -11t-22 -3h-77q-9 0 -12 5.5t5 15.5l108 123q8 8 15 12.5t23 4.5h42q17 0 23.5 -4t14.5 -13l109 -123q8 -8 4.5 -14.5t-12.5 -6.5h-79q-14 0 -22.5 3t-17.5 11z" />
    <glyph glyph-name="ibreve" unicode="&#x12d;" horiz-adv-x="285" 
d="M228 461q12 0 12 -13v-437q0 -11 -13 -11h-170q-12 0 -12 12v436q0 13 12 13h171zM73 710q14 0 20.5 -3.5t9.5 -15.5q4 -14 14 -24.5t29 -10.5q18 0 27 12t14 28q3 9 10 11.5t20 2.5h80q9 0 13 -4.5t1 -16.5q-9 -38 -25.5 -64.5t-38.5 -43t-48.5 -24.5t-54.5 -8
q-26 0 -51.5 8t-48.5 25.5t-41 44t-27 62.5q-6 21 11 21h86z" />
    <glyph glyph-name="imacron" unicode="&#x12b;" horiz-adv-x="285" 
d="M228 461q12 0 12 -13v-437q0 -11 -13 -11h-170q-12 0 -12 12v436q0 13 12 13h171zM-25 579q-12 0 -12 12v86q0 12 12 12h337q12 0 12 -12v-86q0 -12 -12 -12h-337z" />
    <glyph glyph-name="iogonek" unicode="&#x12f;" horiz-adv-x="285" 
d="M238 5q-10 -17 -18 -38.5t-8 -41.5q0 -42 34 -48q10 -2 13 -4.5t3 -10.5v-77q0 -17 -23 -17q-83 0 -125 31t-42 83q0 25 13.5 57t36.5 61h-65q-12 0 -12 12v436q0 13 12 13h171q12 0 12 -13v-435q0 -4 -2 -8zM144 507q-20 0 -39.5 7t-34.5 19.5t-24.5 30.5t-9.5 40
q0 20 8.5 37.5t23 30.5t34 20.5t41.5 7.5q21 0 40.5 -7.5t34.5 -20t24 -30.5t9 -39t-9 -38.5t-24 -30t-34 -20t-40 -7.5z" />
    <glyph glyph-name="itilde" unicode="&#x129;" horiz-adv-x="285" 
d="M228 461q12 0 12 -13v-437q0 -11 -13 -11h-170q-12 0 -12 12v436q0 13 12 13h171zM322 699q9 0 15.5 -5.5t6.5 -16.5q0 -13 -7 -36t-22.5 -45t-41 -38t-62.5 -16q-19 0 -39 7.5t-39.5 16.5l-36.5 16.5t-30 7.5q-18 0 -26.5 -8.5t-14.5 -23.5q-3 -11 -15 -11h-43
q-10 0 -16.5 6t-6.5 16q0 13 6 37t20.5 47.5t40 41t64.5 17.5q20 0 38.5 -7.5t36.5 -17t37 -17t42 -7.5q13 0 22 5.5t14 20.5q3 10 15 10h42z" />
    <glyph glyph-name="jcircumflex" unicode="&#x135;" horiz-adv-x="316" 
d="M259 461q12 0 12 -13v-361q0 -61 -10.5 -117t-37 -98.5t-72 -68t-116.5 -25.5q-29 0 -60.5 3t-45.5 10q-9 3 -9 12v140q0 13 14 13q8 0 33 -5.5t57 -5.5q37 0 46 23.5t9 79.5l-2 401q0 12 11 12h171zM167 612l-41 -40q-9 -8 -18 -11t-22 -3h-77q-9 0 -12 5.5t5 15.5
l108 123q8 8 15 12.5t23 4.5h42q17 0 23.5 -4t14.5 -13l109 -123q8 -8 4.5 -14.5t-12.5 -6.5h-79q-14 0 -22.5 3t-17.5 11z" />
    <glyph glyph-name="kcommaaccent" unicode="&#x137;" horiz-adv-x="518" 
d="M329 0q-5 0 -8 4l-104 156v-148q0 -12 -14 -12h-147q-11 0 -11 12l-1 678q0 10 11 10h152q6 0 9 -3.5t3 -8.5l-2 -368l113 193q4 7 11 7h152q7 0 9 -4t0 -8l-151 -260l173 -228q5 -8 2 -14t-11 -6h-186zM247 -212q-39 3 -62.5 21.5t-23.5 46.5q0 19 8.5 36.5t23 31t34 21
t41.5 7.5q24 0 44 -8.5t34 -22t22 -30.5t8 -35q0 -37 -19.5 -63.5t-43.5 -43t-44.5 -24.5t-23.5 -8q-12 0 -12 11q0 5 8 21t6 39z" />
    <glyph glyph-name="lacute" unicode="&#x13a;" horiz-adv-x="280" 
d="M235 13q0 -13 -12 -13h-167q-11 0 -11 13v698q0 12 11 12h167q12 0 12 -13v-697zM196 772q-10 -8 -18.5 -11t-21.5 -3h-87q-9 0 -12 5t5 16l78 103q6 8 14 12.5t24 4.5h128q13 0 16.5 -7t-4.5 -15z" />
    <glyph glyph-name="lcaron" unicode="&#x13e;" horiz-adv-x="485" 
d="M235 13q0 -13 -12 -13h-167q-11 0 -11 13v698q0 12 11 12h167q12 0 12 -13v-697zM356 560q-39 3 -62.5 21.5t-23.5 46.5q0 19 8.5 36.5t23 31t34 21t41.5 7.5q24 0 44 -8.5t34 -22t22 -30.5t8 -35q0 -37 -19.5 -63.5t-43.5 -43t-44.5 -24.5t-23.5 -8q-12 0 -12 11
q0 5 8 21t6 39z" />
    <glyph glyph-name="lcommaaccent" unicode="&#x13c;" horiz-adv-x="280" 
d="M235 13q0 -13 -12 -13h-167q-11 0 -11 13v698q0 12 11 12h167q12 0 12 -13v-697zM118 -212q-39 3 -62.5 21.5t-23.5 46.5q0 19 8.5 36.5t23 31t34 21t41.5 7.5q24 0 44 -8.5t34 -22t22 -30.5t8 -35q0 -37 -19.5 -63.5t-43.5 -43t-44.5 -24.5t-23.5 -8q-12 0 -12 11
q0 5 8 21t6 39z" />
    <glyph glyph-name="ldot" unicode="&#x140;" horiz-adv-x="495" 
d="M235 13q0 -13 -12 -13h-167q-11 0 -11 13v698q0 12 11 12h167q12 0 12 -13v-697zM378 257q-20 0 -39.5 7t-34.5 19.5t-24.5 30.5t-9.5 40q0 20 8.5 37.5t23 30.5t34 20.5t41.5 7.5q21 0 40.5 -7.5t34.5 -20t24 -30.5t9 -39t-9 -38.5t-24 -30t-34 -20t-40 -7.5z" />
    <glyph glyph-name="nacute" unicode="&#x144;" 
d="M304 339q-30 0 -48.5 -15t-27.5 -43v-269q0 -12 -12 -12h-158q-13 0 -13 12v470q0 12 12 12h157q12 0 12 -12v-40q58 60 131 60q58 0 96 -24t60.5 -62.5t31.5 -87t9 -97.5v-219q0 -12 -12 -12h-163q-10 0 -10 12l-2 223q-1 54 -16 79t-47 25zM332 572q-10 -8 -18.5 -11
t-21.5 -3h-87q-9 0 -12 5t5 16l78 103q6 8 14 12.5t24 4.5h128q13 0 16.5 -7t-4.5 -15z" />
    <glyph glyph-name="ncaron" unicode="&#x148;" 
d="M304 339q-30 0 -48.5 -15t-27.5 -43v-269q0 -12 -12 -12h-158q-13 0 -13 12v470q0 12 12 12h157q12 0 12 -12v-40q58 60 131 60q58 0 96 -24t60.5 -62.5t31.5 -87t9 -97.5v-219q0 -12 -12 -12h-163q-10 0 -10 12l-2 223q-1 54 -16 79t-47 25zM299 656l41 40q9 8 18 11
t22 3h77q9 0 12 -5.5t-5 -15.5l-108 -123q-8 -8 -15 -12.5t-23 -4.5h-42q-17 0 -23.5 4t-14.5 13l-109 123q-8 8 -4.5 14.5t12.5 6.5h79q14 0 22.5 -3t17.5 -11z" />
    <glyph glyph-name="ncommaaccent" unicode="&#x146;" 
d="M304 339q-30 0 -48.5 -15t-27.5 -43v-269q0 -12 -12 -12h-158q-13 0 -13 12v470q0 12 12 12h157q12 0 12 -12v-40q58 60 131 60q58 0 96 -24t60.5 -62.5t31.5 -87t9 -97.5v-219q0 -12 -12 -12h-163q-10 0 -10 12l-2 223q-1 54 -16 79t-47 25zM275 -212q-39 3 -62.5 21.5
t-23.5 46.5q0 19 8.5 36.5t23 31t34 21t41.5 7.5q24 0 44 -8.5t34 -22t22 -30.5t8 -35q0 -37 -19.5 -63.5t-43.5 -43t-44.5 -24.5t-23.5 -8q-12 0 -12 11q0 5 8 21t6 39z" />
    <glyph glyph-name="obreve" unicode="&#x14f;" horiz-adv-x="532" 
d="M512 243q0 -51 -17 -97.5t-48 -82t-74.5 -57t-95.5 -21.5q-62 0 -110 19.5t-80.5 54.5t-49.5 82.5t-17 104.5q0 61 20 111t55 86t83 56t104 20t99 -25.5t72 -65t44 -88.5t15 -97zM347 246q0 17 -5.5 33t-16 28.5t-25 20t-32.5 7.5t-32 -7.5t-24 -20.5t-15 -29t-5 -33
t5.5 -33.5t16 -29t24.5 -20t31 -7.5q18 0 32.5 8.5t24.5 21.5t15.5 29t5.5 32zM198 710q14 0 20.5 -3.5t9.5 -15.5q4 -14 14 -24.5t29 -10.5q18 0 27 12t14 28q3 9 10 11.5t20 2.5h80q9 0 13 -4.5t1 -16.5q-9 -38 -25.5 -64.5t-38.5 -43t-48.5 -24.5t-54.5 -8q-26 0 -51.5 8
t-48.5 25.5t-41 44t-27 62.5q-6 21 11 21h86z" />
    <glyph glyph-name="ohungarumlaut" unicode="&#x151;" horiz-adv-x="532" 
d="M512 243q0 -51 -17 -97.5t-48 -82t-74.5 -57t-95.5 -21.5q-62 0 -110 19.5t-80.5 54.5t-49.5 82.5t-17 104.5q0 61 20 111t55 86t83 56t104 20t99 -25.5t72 -65t44 -88.5t15 -97zM347 246q0 17 -5.5 33t-16 28.5t-25 20t-32.5 7.5t-32 -7.5t-24 -20.5t-15 -29t-5 -33
t5.5 -33.5t16 -29t24.5 -20t31 -7.5q18 0 32.5 8.5t24.5 21.5t15.5 29t5.5 32zM209 572q-9 -9 -16.5 -11.5t-20.5 -2.5h-82q-9 0 -12.5 4.5t3.5 15.5l62 104q5 9 12 13t21 4h126q13 0 16.5 -7t-4.5 -15zM449 572q-9 -9 -16.5 -11.5t-20.5 -2.5h-82q-9 0 -12.5 4.5t3.5 15.5
l62 104q5 9 12 13t21 4h126q13 0 16.5 -7t-4.5 -15z" />
    <glyph glyph-name="omacron" unicode="&#x14d;" horiz-adv-x="532" 
d="M512 243q0 -51 -17 -97.5t-48 -82t-74.5 -57t-95.5 -21.5q-62 0 -110 19.5t-80.5 54.5t-49.5 82.5t-17 104.5q0 61 20 111t55 86t83 56t104 20t99 -25.5t72 -65t44 -88.5t15 -97zM347 246q0 17 -5.5 33t-16 28.5t-25 20t-32.5 7.5t-32 -7.5t-24 -20.5t-15 -29t-5 -33
t5.5 -33.5t16 -29t24.5 -20t31 -7.5q18 0 32.5 8.5t24.5 21.5t15.5 29t5.5 32zM101 579q-12 0 -12 12v86q0 12 12 12h337q12 0 12 -12v-86q0 -12 -12 -12h-337z" />
    <glyph glyph-name="racute" unicode="&#x155;" horiz-adv-x="389" 
d="M385 341q0 -7 -3.5 -9t-8.5 1q-23 13 -50 13q-33 1 -60.5 -18t-38.5 -51v-265q0 -12 -11 -12h-154q-14 0 -14 12l1 497q0 11 12 11h156q13 0 13 -10l-2 -53q26 33 52.5 47.5t64.5 14.5q19 0 30.5 -6.5t11.5 -13.5zM270 572q-10 -8 -18.5 -11t-21.5 -3h-87q-9 0 -12 5
t5 16l78 103q6 8 14 12.5t24 4.5h128q13 0 16.5 -7t-4.5 -15z" />
    <glyph glyph-name="rcaron" unicode="&#x159;" horiz-adv-x="389" 
d="M385 341q0 -7 -3.5 -9t-8.5 1q-23 13 -50 13q-33 1 -60.5 -18t-38.5 -51v-265q0 -12 -11 -12h-154q-14 0 -14 12l1 497q0 11 12 11h156q13 0 13 -10l-2 -53q26 33 52.5 47.5t64.5 14.5q19 0 30.5 -6.5t11.5 -13.5zM218 656l41 40q9 8 18 11t22 3h77q9 0 12 -5.5t-5 -15.5
l-108 -123q-8 -8 -15 -12.5t-23 -4.5h-42q-17 0 -23.5 4t-14.5 13l-109 123q-8 8 -4.5 14.5t12.5 6.5h79q14 0 22.5 -3t17.5 -11z" />
    <glyph glyph-name="rcommaaccent" unicode="&#x157;" horiz-adv-x="389" 
d="M385 341q0 -7 -3.5 -9t-8.5 1q-23 13 -50 13q-33 1 -60.5 -18t-38.5 -51v-265q0 -12 -11 -12h-154q-14 0 -14 12l1 497q0 11 12 11h156q13 0 13 -10l-2 -53q26 33 52.5 47.5t64.5 14.5q19 0 30.5 -6.5t11.5 -13.5zM113 -212q-39 3 -62.5 21.5t-23.5 46.5q0 19 8.5 36.5
t23 31t34 21t41.5 7.5q24 0 44 -8.5t34 -22t22 -30.5t8 -35q0 -37 -19.5 -63.5t-43.5 -43t-44.5 -24.5t-23.5 -8q-12 0 -12 11q0 5 8 21t6 39z" />
    <glyph glyph-name="sacute" unicode="&#x15b;" horiz-adv-x="463" 
d="M20 351q0 35 18 66t48.5 53.5t71 35.5t85.5 12q54 0 106 -22t87 -58q5 -5 -1 -11l-74 -76q-6 -6 -12 -1q-21 17 -51.5 32.5t-65.5 15.5q-17 0 -28 -10t-11 -21q0 -18 18.5 -27.5t46 -18l60 -18.5t60.5 -27.5t46.5 -46.5t18.5 -75q0 -37 -18.5 -68t-49.5 -53.5t-71.5 -35
t-83.5 -12.5q-24 0 -51 6t-52 16.5t-47.5 24t-37.5 29.5q-6 6 0 12l75 76q6 6 12 0q19 -14 47 -26t65 -13q17 0 28 10t11 21q0 7 -2 14t-9.5 13t-21.5 11.5t-37 11.5q-45 11 -79 25t-56.5 32.5t-33.5 43.5t-11 59zM283 572q-10 -8 -18.5 -11t-21.5 -3h-87q-9 0 -12 5t5 16
l78 103q6 8 14 12.5t24 4.5h128q13 0 16.5 -7t-4.5 -15z" />
    <glyph glyph-name="scedilla" unicode="&#x15f;" horiz-adv-x="463" 
d="M20 351q0 35 18 66t48.5 53.5t71 35.5t85.5 12q54 0 106 -22t87 -58q5 -5 -1 -11l-74 -76q-6 -6 -12 -1q-21 17 -51.5 32.5t-65.5 15.5q-17 0 -28 -10t-11 -21q0 -18 18.5 -27.5t46 -18l60 -18.5t60.5 -27.5t46.5 -46.5t18.5 -75q0 -37 -18.5 -68t-49.5 -53.5t-71.5 -35
t-83.5 -12.5q-24 0 -51 6t-52 16.5t-47.5 24t-37.5 29.5q-6 6 0 12l75 76q6 6 12 0q19 -14 47 -26t65 -13q17 0 28 10t11 21q0 7 -2 14t-9.5 13t-21.5 11.5t-37 11.5q-45 11 -79 25t-56.5 32.5t-33.5 43.5t-11 59zM217 -187q-10 -8 -18.5 -11t-21.5 -3h-87q-9 0 -12 5t5 16
l78 103q6 8 14 12.5t24 4.5h128q13 0 16.5 -7t-4.5 -15z" />
    <glyph glyph-name="scircumflex" unicode="&#x15d;" horiz-adv-x="463" 
d="M20 351q0 35 18 66t48.5 53.5t71 35.5t85.5 12q54 0 106 -22t87 -58q5 -5 -1 -11l-74 -76q-6 -6 -12 -1q-21 17 -51.5 32.5t-65.5 15.5q-17 0 -28 -10t-11 -21q0 -18 18.5 -27.5t46 -18l60 -18.5t60.5 -27.5t46.5 -46.5t18.5 -75q0 -37 -18.5 -68t-49.5 -53.5t-71.5 -35
t-83.5 -12.5q-24 0 -51 6t-52 16.5t-47.5 24t-37.5 29.5q-6 6 0 12l75 76q6 6 12 0q19 -14 47 -26t65 -13q17 0 28 10t11 21q0 7 -2 14t-9.5 13t-21.5 11.5t-37 11.5q-45 11 -79 25t-56.5 32.5t-33.5 43.5t-11 59zM233 612l-41 -40q-9 -8 -18 -11t-22 -3h-77q-9 0 -12 5.5
t5 15.5l108 123q8 8 15 12.5t23 4.5h42q17 0 23.5 -4t14.5 -13l109 -123q8 -8 4.5 -14.5t-12.5 -6.5h-79q-14 0 -22.5 3t-17.5 11z" />
    <glyph glyph-name="scommaaccent" unicode="&#x219;" horiz-adv-x="463" 
d="M20 351q0 35 18 66t48.5 53.5t71 35.5t85.5 12q54 0 106 -22t87 -58q5 -5 -1 -11l-74 -76q-6 -6 -12 -1q-21 17 -51.5 32.5t-65.5 15.5q-17 0 -28 -10t-11 -21q0 -18 18.5 -27.5t46 -18l60 -18.5t60.5 -27.5t46.5 -46.5t18.5 -75q0 -37 -18.5 -68t-49.5 -53.5t-71.5 -35
t-83.5 -12.5q-24 0 -51 6t-52 16.5t-47.5 24t-37.5 29.5q-6 6 0 12l75 76q6 6 12 0q19 -14 47 -26t65 -13q17 0 28 10t11 21q0 7 -2 14t-9.5 13t-21.5 11.5t-37 11.5q-45 11 -79 25t-56.5 32.5t-33.5 43.5t-11 59zM210 -212q-39 3 -62.5 21.5t-23.5 46.5q0 19 8.5 36.5
t23 31t34 21t41.5 7.5q24 0 44 -8.5t34 -22t22 -30.5t8 -35q0 -37 -19.5 -63.5t-43.5 -43t-44.5 -24.5t-23.5 -8q-12 0 -12 11q0 5 8 21t6 39z" />
    <glyph glyph-name="tbar" unicode="&#x167;" horiz-adv-x="386" 
d="M283 176v-163q0 -13 -12 -13h-167q-12 0 -12 13v163h-67q-12 0 -12 12v86q0 12 12 12h67v76l-64 2q-11 0 -11 11l-2 106q0 13 13 13h64v96q0 13 12 13h167q12 0 12 -13v-96h82q11 0 11 -12l-4 -117q0 -12 -11 -12l-78 2v-69h79q12 0 12 -12v-86q0 -12 -12 -12h-79z" />
    <glyph glyph-name="tcaron" unicode="&#x165;" horiz-adv-x="549" 
d="M365 494q11 0 11 -12l-4 -117q0 -12 -11 -12l-78 2v-342q0 -13 -12 -13h-167q-12 0 -12 13v349l-64 2q-11 0 -11 11l-2 106q0 13 13 13h64v96q0 13 12 13h167q12 0 12 -13v-96h82zM420 560q-39 3 -62.5 21.5t-23.5 46.5q0 19 8.5 36.5t23 31t34 21t41.5 7.5q24 0 44 -8.5
t34 -22t22 -30.5t8 -35q0 -37 -19.5 -63.5t-43.5 -43t-44.5 -24.5t-23.5 -8q-12 0 -12 11q0 5 8 21t6 39z" />
    <glyph glyph-name="tcommaaccent" unicode="&#x163;" horiz-adv-x="386" 
d="M365 494q11 0 11 -12l-4 -117q0 -12 -11 -12l-78 2v-342q0 -13 -12 -13h-167q-12 0 -12 13v349l-64 2q-11 0 -11 11l-2 106q0 13 13 13h64v96q0 13 12 13h167q12 0 12 -13v-96h82zM167 -212q-39 3 -62.5 21.5t-23.5 46.5q0 19 8.5 36.5t23 31t34 21t41.5 7.5
q24 0 44 -8.5t34 -22t22 -30.5t8 -35q0 -37 -19.5 -63.5t-43.5 -43t-44.5 -24.5t-23.5 -8q-12 0 -12 11q0 5 8 21t6 39z" />
    <glyph glyph-name="ubreve" unicode="&#x16d;" 
d="M40 482q0 12 13 12h162q10 0 10 -12l2 -219q0 -60 16 -83.5t47 -23.5q59 0 76 58v268q0 12 12 12h158q13 0 13 -12v-470q0 -12 -12 -12h-157q-12 0 -12 12v41q-59 -60 -131 -60q-53 0 -90.5 21t-61 57.5t-34.5 86t-11 106.5v218zM229 710q14 0 20.5 -3.5t9.5 -15.5
q4 -14 14 -24.5t29 -10.5q18 0 27 12t14 28q3 9 10 11.5t20 2.5h80q9 0 13 -4.5t1 -16.5q-9 -38 -25.5 -64.5t-38.5 -43t-48.5 -24.5t-54.5 -8q-26 0 -51.5 8t-48.5 25.5t-41 44t-27 62.5q-6 21 11 21h86z" />
    <glyph glyph-name="uhungarumlaut" unicode="&#x171;" 
d="M40 482q0 12 13 12h162q10 0 10 -12l2 -219q0 -60 16 -83.5t47 -23.5q59 0 76 58v268q0 12 12 12h158q13 0 13 -12v-470q0 -12 -12 -12h-157q-12 0 -12 12v41q-59 -60 -131 -60q-53 0 -90.5 21t-61 57.5t-34.5 86t-11 106.5v218zM247 572q-9 -9 -16.5 -11.5t-20.5 -2.5
h-82q-9 0 -12.5 4.5t3.5 15.5l62 104q5 9 12 13t21 4h126q13 0 16.5 -7t-4.5 -15zM487 572q-9 -9 -16.5 -11.5t-20.5 -2.5h-82q-9 0 -12.5 4.5t3.5 15.5l62 104q5 9 12 13t21 4h126q13 0 16.5 -7t-4.5 -15z" />
    <glyph glyph-name="umacron" unicode="&#x16b;" 
d="M40 482q0 12 13 12h162q10 0 10 -12l2 -219q0 -60 16 -83.5t47 -23.5q59 0 76 58v268q0 12 12 12h158q13 0 13 -12v-470q0 -12 -12 -12h-157q-12 0 -12 12v41q-59 -60 -131 -60q-53 0 -90.5 21t-61 57.5t-34.5 86t-11 106.5v218zM132 579q-12 0 -12 12v86q0 12 12 12h337
q12 0 12 -12v-86q0 -12 -12 -12h-337z" />
    <glyph glyph-name="uogonek" unicode="&#x173;" 
d="M545 0q-10 -17 -16.5 -36t-6.5 -39q0 -42 34 -48q10 -2 13 -4.5t3 -10.5v-77q0 -17 -23 -17q-83 0 -125 31t-42 83q0 25 13.5 57t36.5 61h-52q-12 0 -12 12v41q-59 -60 -131 -60q-53 0 -90.5 21t-61 57.5t-34.5 86t-11 106.5v218q0 12 13 12h162q10 0 10 -12l2 -219
q0 -60 16 -83.5t47 -23.5q59 0 76 58v268q0 12 12 12h158q13 0 13 -12v-466q0 -9 -4 -16z" />
    <glyph glyph-name="uring" unicode="&#x16f;" 
d="M40 482q0 12 13 12h162q10 0 10 -12l2 -219q0 -60 16 -83.5t47 -23.5q59 0 76 58v268q0 12 12 12h158q13 0 13 -12v-470q0 -12 -12 -12h-157q-12 0 -12 12v41q-59 -60 -131 -60q-53 0 -90.5 21t-61 57.5t-34.5 86t-11 106.5v218zM300 543q-23 0 -45.5 8t-40 23
t-28.5 35.5t-11 45.5q0 23 10 43.5t26.5 35.5t39 24t48.5 9q24 0 47 -8.5t40 -23.5t27.5 -36t10.5 -45t-10.5 -44.5t-27.5 -35t-39.5 -23t-46.5 -8.5zM300 607q20 0 36.5 13.5t16.5 33.5q0 21 -16.5 35t-37.5 14q-22 0 -37.5 -14t-15.5 -34q0 -22 17 -35t37 -13z" />
    <glyph glyph-name="utilde" unicode="&#x169;" 
d="M40 482q0 12 13 12h162q10 0 10 -12l2 -219q0 -60 16 -83.5t47 -23.5q59 0 76 58v268q0 12 12 12h158q13 0 13 -12v-470q0 -12 -12 -12h-157q-12 0 -12 12v41q-59 -60 -131 -60q-53 0 -90.5 21t-61 57.5t-34.5 86t-11 106.5v218zM485 699q9 0 15.5 -5.5t6.5 -16.5
q0 -13 -7 -36t-22.5 -45t-41 -38t-62.5 -16q-19 0 -39 7.5t-39.5 16.5l-36.5 16.5t-30 7.5q-18 0 -26.5 -8.5t-14.5 -23.5q-3 -11 -15 -11h-43q-10 0 -16.5 6t-6.5 16q0 13 6 37t20.5 47.5t40 41t64.5 17.5q20 0 38.5 -7.5t36.5 -17t37 -17t42 -7.5q13 0 22 5.5t14 20.5
q3 10 15 10h42z" />
    <glyph glyph-name="wacute" unicode="&#x1e83;" horiz-adv-x="754" 
d="M80 0q-11 0 -12 12l-47 469q-2 13 10 13h163q12 0 13 -11l26 -288v-9t-1 -12.5t-1.5 -12.5t-1.5 -9l84 208q3 8 13 8h102q8 0 11 -8l85 -208q-2 8 -3 22t-1 20l26 289q1 11 13 11h163q13 0 11 -14l-49 -468q-2 -12 -13 -12h-190q-8 0 -13 8l-92 160l-92 -160
q-5 -8 -14 -8h-190zM442 572q-10 -8 -18.5 -11t-21.5 -3h-87q-9 0 -12 5t5 16l78 103q6 8 14 12.5t24 4.5h128q13 0 16.5 -7t-4.5 -15z" />
    <glyph glyph-name="wcircumflex" unicode="&#x175;" horiz-adv-x="754" 
d="M80 0q-11 0 -12 12l-47 469q-2 13 10 13h163q12 0 13 -11l26 -288v-9t-1 -12.5t-1.5 -12.5t-1.5 -9l84 208q3 8 13 8h102q8 0 11 -8l85 -208q-2 8 -3 22t-1 20l26 289q1 11 13 11h163q13 0 11 -14l-49 -468q-2 -12 -13 -12h-190q-8 0 -13 8l-92 160l-92 -160
q-5 -8 -14 -8h-190zM375 612l-41 -40q-9 -8 -18 -11t-22 -3h-77q-9 0 -12 5.5t5 15.5l108 123q8 8 15 12.5t23 4.5h42q17 0 23.5 -4t14.5 -13l109 -123q8 -8 4.5 -14.5t-12.5 -6.5h-79q-14 0 -22.5 3t-17.5 11z" />
    <glyph glyph-name="wdieresis" unicode="&#x1e85;" horiz-adv-x="754" 
d="M80 0q-11 0 -12 12l-47 469q-2 13 10 13h163q12 0 13 -11l26 -288v-9t-1 -12.5t-1.5 -12.5t-1.5 -9l84 208q3 8 13 8h102q8 0 11 -8l85 -208q-2 8 -3 22t-1 20l26 289q1 11 13 11h163q13 0 11 -14l-49 -468q-2 -12 -13 -12h-190q-8 0 -13 8l-92 160l-92 -160
q-5 -8 -14 -8h-190zM257 548q-17 0 -33.5 6t-29.5 16.5t-21 26t-8 33.5q0 34 26.5 58t64.5 24q18 0 34.5 -6t29.5 -17t20.5 -26t7.5 -33t-7.5 -33t-20.5 -26t-29 -17t-34 -6zM497 548q-17 0 -33.5 6t-29.5 16.5t-21 26t-8 33.5q0 34 26.5 58t64.5 24q18 0 34.5 -6t29.5 -17
t20.5 -26t7.5 -33t-7.5 -33t-20.5 -26t-29 -17t-34 -6z" />
    <glyph glyph-name="wgrave" unicode="&#x1e81;" horiz-adv-x="754" 
d="M80 0q-11 0 -12 12l-47 469q-2 13 10 13h163q12 0 13 -11l26 -288v-9t-1 -12.5t-1.5 -12.5t-1.5 -9l84 208q3 8 13 8h102q8 0 11 -8l85 -208q-2 8 -3 22t-1 20l26 289q1 11 13 11h163q13 0 11 -14l-49 -468q-2 -12 -13 -12h-190q-8 0 -13 8l-92 160l-92 -160
q-5 -8 -14 -8h-190zM185 677q-8 8 -4.5 15t16.5 7h136q17 0 24.5 -4.5t13.5 -12.5l79 -103q8 -10 4.5 -15.5t-12.5 -5.5h-89q-14 0 -22 3t-18 11z" />
    <glyph glyph-name="ycircumflex" unicode="&#x177;" horiz-adv-x="585" 
d="M540 90q0 -62 -7 -119.5t-31 -102t-68.5 -71t-119.5 -26.5q-31 0 -60 3.5t-45 9.5q-9 3 -9 12v140q0 13 14 13q8 0 31 -5.5t54 -5.5q37 0 48.5 24.5t11.5 85.5q-8 -15 -21.5 -27t-31 -20t-36 -12t-34.5 -4q-56 0 -94 21t-60.5 56.5t-32 83t-9.5 101.5v237q0 10 12 10h164
q12 0 12 -12l-1 -235q0 -105 56 -105q50 0 74 38v303q0 11 11 11h158q13 0 13 -11zM295 612l-41 -40q-9 -8 -18 -11t-22 -3h-77q-9 0 -12 5.5t5 15.5l108 123q8 8 15 12.5t23 4.5h42q17 0 23.5 -4t14.5 -13l109 -123q8 -8 4.5 -14.5t-12.5 -6.5h-79q-14 0 -22.5 3t-17.5 11z
" />
    <glyph glyph-name="ygrave" unicode="&#x1ef3;" horiz-adv-x="585" 
d="M540 90q0 -62 -7 -119.5t-31 -102t-68.5 -71t-119.5 -26.5q-31 0 -60 3.5t-45 9.5q-9 3 -9 12v140q0 13 14 13q8 0 31 -5.5t54 -5.5q37 0 48.5 24.5t11.5 85.5q-8 -15 -21.5 -27t-31 -20t-36 -12t-34.5 -4q-56 0 -94 21t-60.5 56.5t-32 83t-9.5 101.5v237q0 10 12 10h164
q12 0 12 -12l-1 -235q0 -105 56 -105q50 0 74 38v303q0 11 11 11h158q13 0 13 -11zM130 677q-8 8 -4.5 15t16.5 7h136q17 0 24.5 -4.5t13.5 -12.5l79 -103q8 -10 4.5 -15.5t-12.5 -5.5h-89q-14 0 -22 3t-18 11z" />
    <glyph glyph-name="zacute" unicode="&#x17a;" horiz-adv-x="579" 
d="M534 12q0 -12 -12 -12h-464q-12 0 -12 12v147q0 5 4 8l262 171h-254q-13 0 -13 12l1 132q0 12 12 12h465q11 0 11 -12v-144q0 -5 -4 -8l-238 -172h231q11 0 11 -12v-134zM335 572q-10 -8 -18.5 -11t-21.5 -3h-87q-9 0 -12 5t5 16l78 103q6 8 14 12.5t24 4.5h128
q13 0 16.5 -7t-4.5 -15z" />
    <glyph glyph-name="zdotaccent" unicode="&#x17c;" horiz-adv-x="579" 
d="M534 12q0 -12 -12 -12h-464q-12 0 -12 12v147q0 5 4 8l262 171h-254q-13 0 -13 12l1 132q0 12 12 12h465q11 0 11 -12v-144q0 -5 -4 -8l-238 -172h231q11 0 11 -12v-134zM296 548q-17 0 -33.5 6t-29.5 16.5t-21 26t-8 33.5q0 34 26.5 58t64.5 24q18 0 34.5 -6t29.5 -17
t20.5 -26t7.5 -33t-7.5 -33t-20.5 -26t-29 -17t-34 -6z" />
    <glyph glyph-name="florin" unicode="&#x192;" horiz-adv-x="489" 
d="M324 380h59q45 0 45 -45v-32q0 -38 -46 -38l-67 3l-16 -198q-10 -126 -63.5 -192.5t-145.5 -66.5q-26 0 -47.5 2.5t-35.5 9.5q-16 8 -22 17t-6 22q0 26 4.5 44t12.5 32q7 12 29 12q26 0 46.5 5.5t34.5 19t22.5 37t10.5 60.5l10 194l-44 -2q-45 0 -45 45v32q0 38 46 38h49
l2 34q7 126 63 192.5t164 66.5q26 0 51.5 -4t38.5 -9q18 -8 25 -20.5t7 -26.5q0 -26 -6.5 -46.5t-14.5 -31.5q-9 -12 -29 -12q-14 0 -28 5t-35 5q-32 0 -46.5 -32t-19.5 -89z" />
    <glyph glyph-name="ordfeminine" unicode="&#xaa;" horiz-adv-x="452" 
d="M401 326q0 -9 -10 -9h-98q-6 0 -7 9q-17 -10 -41 -16t-49 -6q-42 0 -72 9.5t-49.5 26.5t-28.5 39t-9 48q0 68 52 104.5t140 36.5q12 0 26 -0.5t25 -2.5q0 27 -10 45t-40 18q-14 0 -28 -8.5t-22 -30.5h-109q-10 0 -10 10q0 14 7 37t30 42q27 23 59.5 33t74.5 10
q81 0 124 -36.5t43 -105.5zM280 475q-11 2 -22 3t-19 1q-27 0 -43.5 -10t-16.5 -35q0 -20 14.5 -29.5t36.5 -9.5q14 0 27.5 4t22.5 9v67z" />
    <glyph glyph-name="ordmasculine" unicode="&#xba;" horiz-adv-x="457" 
d="M427 505q0 -39 -12.5 -75.5t-36.5 -64.5t-59.5 -44.5t-81.5 -16.5q-50 0 -89 15.5t-65 42.5t-39.5 64.5t-13.5 81.5q0 47 16 86.5t44 67.5t67 43.5t84 15.5t80 -18.5t58.5 -48.5t35.5 -69t12 -80zM294 508q0 27 -17.5 48t-46.5 21t-45 -20t-16 -50q0 -27 17.5 -48.5
t44.5 -21.5q29 0 46 21.5t17 49.5z" />
    <glyph glyph-name="dagger" unicode="&#x2020;" horiz-adv-x="500" 
d="M310 534l138 10q12 0 12 -12v-116q0 -12 -12 -12l-138 10l10 -333q0 -12 -12 -12h-116q-12 0 -12 12l10 333l-138 -10q-12 0 -12 12v116q0 12 12 12l138 -10l-10 154q0 12 12 12h116q12 0 12 -12z" />
    <glyph glyph-name="daggerdbl" unicode="&#x2021;" horiz-adv-x="500" 
d="M52 404q-12 0 -12 12v116q0 12 12 12l138 -10l-10 154q0 12 12 12h116q12 0 12 -12l-10 -154l138 10q12 0 12 -12v-116q0 -12 -12 -12l-140 10v-128l140 10q12 0 12 -12v-116q0 -12 -12 -12l-138 10l10 -154q0 -12 -12 -12h-116q-12 0 -12 12l10 154l-138 -10
q-12 0 -12 12v116q0 12 12 12l140 -10v128z" />
    <glyph glyph-name="paragraph" unicode="&#xb6;" horiz-adv-x="494" 
d="M380 171q0 -39 -13 -74.5t-35.5 -62.5t-52.5 -43t-64 -16q-7 0 -14.5 2t-16.5 8q-14 10 -20 29.5t-6 40.5q0 23 24 33q31 13 48 36.5t16 67.5l-1 91q-49 -3 -88 9t-66 35.5t-41.5 57t-14.5 73.5q0 41 15.5 73t43.5 53.5t66.5 32t85.5 7.5v21q0 55 54 55h32q46 0 46 -56
v-20q19 -2 36.5 -6t34.5 -10q27 -10 27 -44q0 -14 -5 -29t-13 -25q-8 -11 -29.5 -13.5t-50.5 1.5z" />
    <glyph glyph-name="divide" unicode="&#xf7;" horiz-adv-x="661" 
d="M92 259q-12 0 -12 12v126q0 12 12 12h477q12 0 12 -12v-126q0 -12 -12 -12h-477zM330 34q-17 0 -33 6t-28.5 16.5t-20.5 25.5t-8 33q0 34 26.5 57.5t62.5 23.5q18 0 34.5 -6t29 -17t20 -25.5t7.5 -32.5t-7.5 -32.5t-20 -25.5t-28.5 -17t-34 -6zM330 467q-17 0 -33 6
t-28.5 16.5t-20.5 25.5t-8 33q0 34 26.5 57.5t62.5 23.5q18 0 34.5 -6t29 -17t20 -25.5t7.5 -32.5t-7.5 -32.5t-20 -25.5t-28.5 -17t-34 -6z" />
    <glyph glyph-name="fraction" unicode="&#x2044;" horiz-adv-x="515" 
d="M144 11q-6 -11 -17 -11h-117q-6 0 -8.5 3.5t0.5 8.5l370 675q8 13 18 13h115q6 0 8.5 -3.5t-0.5 -8.5z" />
    <glyph glyph-name="sterling" unicode="&#xa3;" horiz-adv-x="498" 
d="M352 550q-38 0 -55.5 -30.5t-18.5 -88.5h86q55 0 55 -54v-52q0 -46 -56 -46h-87q-1 -17 -4 -35.5t-9 -35.5t-14 -32t-18 -25h189q19 0 29 -9.5t10 -24.5l-1 -74q0 -17 -11.5 -30t-30.5 -13h-351q-17 0 -24.5 8.5t-9.5 19.5l-10 85q-2 16 5 26.5t19 12.5q18 3 30.5 14
t20 28.5t11 39.5t4.5 46h-14q-55 0 -55 54v52q0 46 56 46h13q-2 130 55 205t179 75q26 0 47 -4t34 -9q20 -8 22 -31l8 -91q2 -18 -8 -27t-25 -9q-14 0 -28.5 4.5t-42.5 4.5z" />
    <glyph glyph-name="mu" unicode="&#xb5;" horiz-adv-x="599" 
d="M554 12q0 -12 -12 -12h-157q-12 0 -12 12v41q-59 -60 -131 -60q-7 0 -17 2v-203q0 -13 -12 -13h-157q-11 0 -11 13v690q0 12 13 12h162q10 0 10 -12l2 -219q1 -60 16.5 -83.5t46.5 -23.5q59 0 76 58v268q0 12 12 12h158q13 0 13 -12v-470z" />
    <glyph glyph-name="mu" unicode="&#x3bc;" horiz-adv-x="599" 
d="M554 12q0 -12 -12 -12h-157q-12 0 -12 12v41q-59 -60 -131 -60q-7 0 -17 2v-203q0 -13 -12 -13h-157q-11 0 -11 13v690q0 12 13 12h162q10 0 10 -12l2 -219q1 -60 16.5 -83.5t46.5 -23.5q59 0 76 58v268q0 12 12 12h158q13 0 13 -12v-470z" />
    <glyph glyph-name="space" unicode=" " horiz-adv-x="250" 
 />
    </font>
</defs>
</svg>
